M48
; DRILL file {KiCad 9.0.3} date 2026-04-13T17:20:00-0400
; FORMAT={-:-/ absolute / metric / decimal}
; #@! TF.CreationDate,2026-04-13T17:20:00-04:00
; #@! TF.GenerationSoftware,Kicad,Pcbnew,9.0.3
; #@! TF.FileFunction,Plated,1,2,PTH
FMAT,2
METRIC
; #@! TA.AperFunction,Plated,PTH,ViaDrill
T1C0.300
; #@! TA.AperFunction,Plated,PTH,ComponentDrill
T2C0.600
; #@! TA.AperFunction,Plated,PTH,ComponentDrill
T3C0.800
; #@! TA.AperFunction,Plated,PTH,ComponentDrill
T4C1.000
; #@! TA.AperFunction,Plated,PTH,ComponentDrill
T5C1.499
; #@! TA.AperFunction,Plated,PTH,ComponentDrill
T6C1.800
%
G90
G05
T1
X26.2Y-106.6
X29.2Y-77.6
X31.0Y-112.0
X33.4Y-94.4
X33.4Y-114.0
X33.6Y-83.4
X35.8Y-114.8
X36.2Y-107.4
X36.2Y-110.2
X38.4Y-74.4
X42.8Y-110.2
X43.0Y-94.4
X43.4Y-83.0
X45.0Y-110.6
X45.3Y-101.3
X47.7Y-107.0
X48.2Y-76.6
X48.4Y-52.2
X50.8Y-103.2
X53.4Y-55.6
X53.6Y-71.0
X54.4Y-115.2
X57.8Y-88.4
X58.0Y-23.2
X58.4Y-108.6
X59.4Y-47.0
X59.8Y-70.4
X61.2Y-104.4
X63.0Y-92.6
X64.2Y-115.2
X64.6Y-111.0
X66.0Y-111.6
X66.75Y-25.25
X66.75Y-46.0
X67.25Y-75.75
X68.2Y-94.3
X70.0Y-108.4
X70.25Y-40.77
X71.9Y-88.7
T2
X40.4Y-113.6
X42.9Y-113.6
X45.4Y-113.6
X47.9Y-113.6
X50.4Y-113.6
X52.9Y-113.6
X55.4Y-113.6
X57.9Y-113.6
X60.4Y-113.6
X62.9Y-113.6
X65.4Y-113.6
T3
X54.947Y-95.8
X58.447Y-95.8
T4
X64.6Y-98.32
X64.6Y-100.86
X64.6Y-103.4
X68.8Y-98.32
X68.8Y-100.86
X68.8Y-103.4
T5
X60.11Y-29.5
X60.11Y-32.0
X60.11Y-34.5
T6
G00X61.91Y-27.5
M15
G01X62.31Y-27.5
M16
G05
G00X61.91Y-36.5
M15
G01X62.31Y-36.5
M16
G05
M30
