%TF.GenerationSoftware,KiCad,Pcbnew,9.0.3*%
%TF.CreationDate,2026-04-13T22:59:31-04:00*%
%TF.ProjectId,Touchpoint_Topboard,546f7563-6870-46f6-996e-745f546f7062,rev?*%
%TF.SameCoordinates,Original*%
%TF.FileFunction,Legend,Top*%
%TF.FilePolarity,Positive*%
%FSLAX46Y46*%
G04 Gerber Fmt 4.6, Leading zero omitted, Abs format (unit mm)*
G04 Created by KiCad (PCBNEW 9.0.3) date 2026-04-13 22:59:31*
%MOMM*%
%LPD*%
G01*
G04 APERTURE LIST*
%ADD10C,0.150000*%
%ADD11C,0.100000*%
%ADD12C,0.152400*%
%ADD13C,0.508000*%
%ADD14C,0.120000*%
%ADD15C,0.127000*%
%ADD16C,0.160000*%
G04 APERTURE END LIST*
D10*
X41535714Y-102609580D02*
X41488095Y-102657200D01*
X41488095Y-102657200D02*
X41345238Y-102704819D01*
X41345238Y-102704819D02*
X41250000Y-102704819D01*
X41250000Y-102704819D02*
X41107143Y-102657200D01*
X41107143Y-102657200D02*
X41011905Y-102561961D01*
X41011905Y-102561961D02*
X40964286Y-102466723D01*
X40964286Y-102466723D02*
X40916667Y-102276247D01*
X40916667Y-102276247D02*
X40916667Y-102133390D01*
X40916667Y-102133390D02*
X40964286Y-101942914D01*
X40964286Y-101942914D02*
X41011905Y-101847676D01*
X41011905Y-101847676D02*
X41107143Y-101752438D01*
X41107143Y-101752438D02*
X41250000Y-101704819D01*
X41250000Y-101704819D02*
X41345238Y-101704819D01*
X41345238Y-101704819D02*
X41488095Y-101752438D01*
X41488095Y-101752438D02*
X41535714Y-101800057D01*
X41964286Y-102704819D02*
X41964286Y-101704819D01*
X41964286Y-102181009D02*
X42535714Y-102181009D01*
X42535714Y-102704819D02*
X42535714Y-101704819D01*
X43583333Y-102704819D02*
X43250000Y-102228628D01*
X43011905Y-102704819D02*
X43011905Y-101704819D01*
X43011905Y-101704819D02*
X43392857Y-101704819D01*
X43392857Y-101704819D02*
X43488095Y-101752438D01*
X43488095Y-101752438D02*
X43535714Y-101800057D01*
X43535714Y-101800057D02*
X43583333Y-101895295D01*
X43583333Y-101895295D02*
X43583333Y-102038152D01*
X43583333Y-102038152D02*
X43535714Y-102133390D01*
X43535714Y-102133390D02*
X43488095Y-102181009D01*
X43488095Y-102181009D02*
X43392857Y-102228628D01*
X43392857Y-102228628D02*
X43011905Y-102228628D01*
X44535714Y-101752438D02*
X44440476Y-101704819D01*
X44440476Y-101704819D02*
X44297619Y-101704819D01*
X44297619Y-101704819D02*
X44154762Y-101752438D01*
X44154762Y-101752438D02*
X44059524Y-101847676D01*
X44059524Y-101847676D02*
X44011905Y-101942914D01*
X44011905Y-101942914D02*
X43964286Y-102133390D01*
X43964286Y-102133390D02*
X43964286Y-102276247D01*
X43964286Y-102276247D02*
X44011905Y-102466723D01*
X44011905Y-102466723D02*
X44059524Y-102561961D01*
X44059524Y-102561961D02*
X44154762Y-102657200D01*
X44154762Y-102657200D02*
X44297619Y-102704819D01*
X44297619Y-102704819D02*
X44392857Y-102704819D01*
X44392857Y-102704819D02*
X44535714Y-102657200D01*
X44535714Y-102657200D02*
X44583333Y-102609580D01*
X44583333Y-102609580D02*
X44583333Y-102276247D01*
X44583333Y-102276247D02*
X44392857Y-102276247D01*
X58404819Y-112376189D02*
X57404819Y-112376189D01*
X57404819Y-112376189D02*
X58404819Y-111804761D01*
X58404819Y-111804761D02*
X57404819Y-111804761D01*
X57881009Y-111328570D02*
X57881009Y-110995237D01*
X58404819Y-110852380D02*
X58404819Y-111328570D01*
X58404819Y-111328570D02*
X57404819Y-111328570D01*
X57404819Y-111328570D02*
X57404819Y-110852380D01*
X57404819Y-110233332D02*
X57404819Y-110042856D01*
X57404819Y-110042856D02*
X57452438Y-109947618D01*
X57452438Y-109947618D02*
X57547676Y-109852380D01*
X57547676Y-109852380D02*
X57738152Y-109804761D01*
X57738152Y-109804761D02*
X58071485Y-109804761D01*
X58071485Y-109804761D02*
X58261961Y-109852380D01*
X58261961Y-109852380D02*
X58357200Y-109947618D01*
X58357200Y-109947618D02*
X58404819Y-110042856D01*
X58404819Y-110042856D02*
X58404819Y-110233332D01*
X58404819Y-110233332D02*
X58357200Y-110328570D01*
X58357200Y-110328570D02*
X58261961Y-110423808D01*
X58261961Y-110423808D02*
X58071485Y-110471427D01*
X58071485Y-110471427D02*
X57738152Y-110471427D01*
X57738152Y-110471427D02*
X57547676Y-110423808D01*
X57547676Y-110423808D02*
X57452438Y-110328570D01*
X57452438Y-110328570D02*
X57404819Y-110233332D01*
X58404819Y-109376189D02*
X57404819Y-109376189D01*
X57404819Y-109376189D02*
X57404819Y-108995237D01*
X57404819Y-108995237D02*
X57452438Y-108899999D01*
X57452438Y-108899999D02*
X57500057Y-108852380D01*
X57500057Y-108852380D02*
X57595295Y-108804761D01*
X57595295Y-108804761D02*
X57738152Y-108804761D01*
X57738152Y-108804761D02*
X57833390Y-108852380D01*
X57833390Y-108852380D02*
X57881009Y-108899999D01*
X57881009Y-108899999D02*
X57928628Y-108995237D01*
X57928628Y-108995237D02*
X57928628Y-109376189D01*
X58404819Y-108376189D02*
X57404819Y-108376189D01*
X57404819Y-107995237D02*
X58404819Y-107328571D01*
X57404819Y-107328571D02*
X58404819Y-107995237D01*
X63357200Y-112369047D02*
X63404819Y-112226190D01*
X63404819Y-112226190D02*
X63404819Y-111988095D01*
X63404819Y-111988095D02*
X63357200Y-111892857D01*
X63357200Y-111892857D02*
X63309580Y-111845238D01*
X63309580Y-111845238D02*
X63214342Y-111797619D01*
X63214342Y-111797619D02*
X63119104Y-111797619D01*
X63119104Y-111797619D02*
X63023866Y-111845238D01*
X63023866Y-111845238D02*
X62976247Y-111892857D01*
X62976247Y-111892857D02*
X62928628Y-111988095D01*
X62928628Y-111988095D02*
X62881009Y-112178571D01*
X62881009Y-112178571D02*
X62833390Y-112273809D01*
X62833390Y-112273809D02*
X62785771Y-112321428D01*
X62785771Y-112321428D02*
X62690533Y-112369047D01*
X62690533Y-112369047D02*
X62595295Y-112369047D01*
X62595295Y-112369047D02*
X62500057Y-112321428D01*
X62500057Y-112321428D02*
X62452438Y-112273809D01*
X62452438Y-112273809D02*
X62404819Y-112178571D01*
X62404819Y-112178571D02*
X62404819Y-111940476D01*
X62404819Y-111940476D02*
X62452438Y-111797619D01*
X63309580Y-110797619D02*
X63357200Y-110845238D01*
X63357200Y-110845238D02*
X63404819Y-110988095D01*
X63404819Y-110988095D02*
X63404819Y-111083333D01*
X63404819Y-111083333D02*
X63357200Y-111226190D01*
X63357200Y-111226190D02*
X63261961Y-111321428D01*
X63261961Y-111321428D02*
X63166723Y-111369047D01*
X63166723Y-111369047D02*
X62976247Y-111416666D01*
X62976247Y-111416666D02*
X62833390Y-111416666D01*
X62833390Y-111416666D02*
X62642914Y-111369047D01*
X62642914Y-111369047D02*
X62547676Y-111321428D01*
X62547676Y-111321428D02*
X62452438Y-111226190D01*
X62452438Y-111226190D02*
X62404819Y-111083333D01*
X62404819Y-111083333D02*
X62404819Y-110988095D01*
X62404819Y-110988095D02*
X62452438Y-110845238D01*
X62452438Y-110845238D02*
X62500057Y-110797619D01*
X63404819Y-109797619D02*
X62928628Y-110130952D01*
X63404819Y-110369047D02*
X62404819Y-110369047D01*
X62404819Y-110369047D02*
X62404819Y-109988095D01*
X62404819Y-109988095D02*
X62452438Y-109892857D01*
X62452438Y-109892857D02*
X62500057Y-109845238D01*
X62500057Y-109845238D02*
X62595295Y-109797619D01*
X62595295Y-109797619D02*
X62738152Y-109797619D01*
X62738152Y-109797619D02*
X62833390Y-109845238D01*
X62833390Y-109845238D02*
X62881009Y-109892857D01*
X62881009Y-109892857D02*
X62928628Y-109988095D01*
X62928628Y-109988095D02*
X62928628Y-110369047D01*
X63404819Y-108892857D02*
X63404819Y-109369047D01*
X63404819Y-109369047D02*
X62404819Y-109369047D01*
X63119104Y-108607142D02*
X63119104Y-108130952D01*
X63404819Y-108702380D02*
X62404819Y-108369047D01*
X62404819Y-108369047D02*
X63404819Y-108035714D01*
X55857200Y-112390475D02*
X55904819Y-112247618D01*
X55904819Y-112247618D02*
X55904819Y-112009523D01*
X55904819Y-112009523D02*
X55857200Y-111914285D01*
X55857200Y-111914285D02*
X55809580Y-111866666D01*
X55809580Y-111866666D02*
X55714342Y-111819047D01*
X55714342Y-111819047D02*
X55619104Y-111819047D01*
X55619104Y-111819047D02*
X55523866Y-111866666D01*
X55523866Y-111866666D02*
X55476247Y-111914285D01*
X55476247Y-111914285D02*
X55428628Y-112009523D01*
X55428628Y-112009523D02*
X55381009Y-112199999D01*
X55381009Y-112199999D02*
X55333390Y-112295237D01*
X55333390Y-112295237D02*
X55285771Y-112342856D01*
X55285771Y-112342856D02*
X55190533Y-112390475D01*
X55190533Y-112390475D02*
X55095295Y-112390475D01*
X55095295Y-112390475D02*
X55000057Y-112342856D01*
X55000057Y-112342856D02*
X54952438Y-112295237D01*
X54952438Y-112295237D02*
X54904819Y-112199999D01*
X54904819Y-112199999D02*
X54904819Y-111961904D01*
X54904819Y-111961904D02*
X54952438Y-111819047D01*
X55381009Y-111390475D02*
X55381009Y-111057142D01*
X55904819Y-110914285D02*
X55904819Y-111390475D01*
X55904819Y-111390475D02*
X54904819Y-111390475D01*
X54904819Y-111390475D02*
X54904819Y-110914285D01*
X55904819Y-109914285D02*
X55428628Y-110247618D01*
X55904819Y-110485713D02*
X54904819Y-110485713D01*
X54904819Y-110485713D02*
X54904819Y-110104761D01*
X54904819Y-110104761D02*
X54952438Y-110009523D01*
X54952438Y-110009523D02*
X55000057Y-109961904D01*
X55000057Y-109961904D02*
X55095295Y-109914285D01*
X55095295Y-109914285D02*
X55238152Y-109914285D01*
X55238152Y-109914285D02*
X55333390Y-109961904D01*
X55333390Y-109961904D02*
X55381009Y-110009523D01*
X55381009Y-110009523D02*
X55428628Y-110104761D01*
X55428628Y-110104761D02*
X55428628Y-110485713D01*
X54904819Y-109628570D02*
X55904819Y-109295237D01*
X55904819Y-109295237D02*
X54904819Y-108961904D01*
X54904819Y-108438094D02*
X54904819Y-108247618D01*
X54904819Y-108247618D02*
X54952438Y-108152380D01*
X54952438Y-108152380D02*
X55047676Y-108057142D01*
X55047676Y-108057142D02*
X55238152Y-108009523D01*
X55238152Y-108009523D02*
X55571485Y-108009523D01*
X55571485Y-108009523D02*
X55761961Y-108057142D01*
X55761961Y-108057142D02*
X55857200Y-108152380D01*
X55857200Y-108152380D02*
X55904819Y-108247618D01*
X55904819Y-108247618D02*
X55904819Y-108438094D01*
X55904819Y-108438094D02*
X55857200Y-108533332D01*
X55857200Y-108533332D02*
X55761961Y-108628570D01*
X55761961Y-108628570D02*
X55571485Y-108676189D01*
X55571485Y-108676189D02*
X55238152Y-108676189D01*
X55238152Y-108676189D02*
X55047676Y-108628570D01*
X55047676Y-108628570D02*
X54952438Y-108533332D01*
X54952438Y-108533332D02*
X54904819Y-108438094D01*
X65807200Y-112340475D02*
X65854819Y-112197618D01*
X65854819Y-112197618D02*
X65854819Y-111959523D01*
X65854819Y-111959523D02*
X65807200Y-111864285D01*
X65807200Y-111864285D02*
X65759580Y-111816666D01*
X65759580Y-111816666D02*
X65664342Y-111769047D01*
X65664342Y-111769047D02*
X65569104Y-111769047D01*
X65569104Y-111769047D02*
X65473866Y-111816666D01*
X65473866Y-111816666D02*
X65426247Y-111864285D01*
X65426247Y-111864285D02*
X65378628Y-111959523D01*
X65378628Y-111959523D02*
X65331009Y-112149999D01*
X65331009Y-112149999D02*
X65283390Y-112245237D01*
X65283390Y-112245237D02*
X65235771Y-112292856D01*
X65235771Y-112292856D02*
X65140533Y-112340475D01*
X65140533Y-112340475D02*
X65045295Y-112340475D01*
X65045295Y-112340475D02*
X64950057Y-112292856D01*
X64950057Y-112292856D02*
X64902438Y-112245237D01*
X64902438Y-112245237D02*
X64854819Y-112149999D01*
X64854819Y-112149999D02*
X64854819Y-111911904D01*
X64854819Y-111911904D02*
X64902438Y-111769047D01*
X65759580Y-110769047D02*
X65807200Y-110816666D01*
X65807200Y-110816666D02*
X65854819Y-110959523D01*
X65854819Y-110959523D02*
X65854819Y-111054761D01*
X65854819Y-111054761D02*
X65807200Y-111197618D01*
X65807200Y-111197618D02*
X65711961Y-111292856D01*
X65711961Y-111292856D02*
X65616723Y-111340475D01*
X65616723Y-111340475D02*
X65426247Y-111388094D01*
X65426247Y-111388094D02*
X65283390Y-111388094D01*
X65283390Y-111388094D02*
X65092914Y-111340475D01*
X65092914Y-111340475D02*
X64997676Y-111292856D01*
X64997676Y-111292856D02*
X64902438Y-111197618D01*
X64902438Y-111197618D02*
X64854819Y-111054761D01*
X64854819Y-111054761D02*
X64854819Y-110959523D01*
X64854819Y-110959523D02*
X64902438Y-110816666D01*
X64902438Y-110816666D02*
X64950057Y-110769047D01*
X65854819Y-109769047D02*
X65378628Y-110102380D01*
X65854819Y-110340475D02*
X64854819Y-110340475D01*
X64854819Y-110340475D02*
X64854819Y-109959523D01*
X64854819Y-109959523D02*
X64902438Y-109864285D01*
X64902438Y-109864285D02*
X64950057Y-109816666D01*
X64950057Y-109816666D02*
X65045295Y-109769047D01*
X65045295Y-109769047D02*
X65188152Y-109769047D01*
X65188152Y-109769047D02*
X65283390Y-109816666D01*
X65283390Y-109816666D02*
X65331009Y-109864285D01*
X65331009Y-109864285D02*
X65378628Y-109959523D01*
X65378628Y-109959523D02*
X65378628Y-110340475D01*
X65854819Y-108864285D02*
X65854819Y-109340475D01*
X65854819Y-109340475D02*
X64854819Y-109340475D01*
X65331009Y-108197618D02*
X65378628Y-108054761D01*
X65378628Y-108054761D02*
X65426247Y-108007142D01*
X65426247Y-108007142D02*
X65521485Y-107959523D01*
X65521485Y-107959523D02*
X65664342Y-107959523D01*
X65664342Y-107959523D02*
X65759580Y-108007142D01*
X65759580Y-108007142D02*
X65807200Y-108054761D01*
X65807200Y-108054761D02*
X65854819Y-108149999D01*
X65854819Y-108149999D02*
X65854819Y-108530951D01*
X65854819Y-108530951D02*
X64854819Y-108530951D01*
X64854819Y-108530951D02*
X64854819Y-108197618D01*
X64854819Y-108197618D02*
X64902438Y-108102380D01*
X64902438Y-108102380D02*
X64950057Y-108054761D01*
X64950057Y-108054761D02*
X65045295Y-108007142D01*
X65045295Y-108007142D02*
X65140533Y-108007142D01*
X65140533Y-108007142D02*
X65235771Y-108054761D01*
X65235771Y-108054761D02*
X65283390Y-108102380D01*
X65283390Y-108102380D02*
X65331009Y-108197618D01*
X65331009Y-108197618D02*
X65331009Y-108530951D01*
X60904819Y-111795238D02*
X60428628Y-112128571D01*
X60904819Y-112366666D02*
X59904819Y-112366666D01*
X59904819Y-112366666D02*
X59904819Y-111985714D01*
X59904819Y-111985714D02*
X59952438Y-111890476D01*
X59952438Y-111890476D02*
X60000057Y-111842857D01*
X60000057Y-111842857D02*
X60095295Y-111795238D01*
X60095295Y-111795238D02*
X60238152Y-111795238D01*
X60238152Y-111795238D02*
X60333390Y-111842857D01*
X60333390Y-111842857D02*
X60381009Y-111890476D01*
X60381009Y-111890476D02*
X60428628Y-111985714D01*
X60428628Y-111985714D02*
X60428628Y-112366666D01*
X60809580Y-110795238D02*
X60857200Y-110842857D01*
X60857200Y-110842857D02*
X60904819Y-110985714D01*
X60904819Y-110985714D02*
X60904819Y-111080952D01*
X60904819Y-111080952D02*
X60857200Y-111223809D01*
X60857200Y-111223809D02*
X60761961Y-111319047D01*
X60761961Y-111319047D02*
X60666723Y-111366666D01*
X60666723Y-111366666D02*
X60476247Y-111414285D01*
X60476247Y-111414285D02*
X60333390Y-111414285D01*
X60333390Y-111414285D02*
X60142914Y-111366666D01*
X60142914Y-111366666D02*
X60047676Y-111319047D01*
X60047676Y-111319047D02*
X59952438Y-111223809D01*
X59952438Y-111223809D02*
X59904819Y-111080952D01*
X59904819Y-111080952D02*
X59904819Y-110985714D01*
X59904819Y-110985714D02*
X59952438Y-110842857D01*
X59952438Y-110842857D02*
X60000057Y-110795238D01*
X60904819Y-109890476D02*
X60904819Y-110366666D01*
X60904819Y-110366666D02*
X59904819Y-110366666D01*
X60809580Y-108985714D02*
X60857200Y-109033333D01*
X60857200Y-109033333D02*
X60904819Y-109176190D01*
X60904819Y-109176190D02*
X60904819Y-109271428D01*
X60904819Y-109271428D02*
X60857200Y-109414285D01*
X60857200Y-109414285D02*
X60761961Y-109509523D01*
X60761961Y-109509523D02*
X60666723Y-109557142D01*
X60666723Y-109557142D02*
X60476247Y-109604761D01*
X60476247Y-109604761D02*
X60333390Y-109604761D01*
X60333390Y-109604761D02*
X60142914Y-109557142D01*
X60142914Y-109557142D02*
X60047676Y-109509523D01*
X60047676Y-109509523D02*
X59952438Y-109414285D01*
X59952438Y-109414285D02*
X59904819Y-109271428D01*
X59904819Y-109271428D02*
X59904819Y-109176190D01*
X59904819Y-109176190D02*
X59952438Y-109033333D01*
X59952438Y-109033333D02*
X60000057Y-108985714D01*
X60904819Y-108557142D02*
X59904819Y-108557142D01*
X60904819Y-107985714D02*
X60333390Y-108414285D01*
X59904819Y-107985714D02*
X60476247Y-108557142D01*
X53409580Y-111814285D02*
X53457200Y-111861904D01*
X53457200Y-111861904D02*
X53504819Y-112004761D01*
X53504819Y-112004761D02*
X53504819Y-112099999D01*
X53504819Y-112099999D02*
X53457200Y-112242856D01*
X53457200Y-112242856D02*
X53361961Y-112338094D01*
X53361961Y-112338094D02*
X53266723Y-112385713D01*
X53266723Y-112385713D02*
X53076247Y-112433332D01*
X53076247Y-112433332D02*
X52933390Y-112433332D01*
X52933390Y-112433332D02*
X52742914Y-112385713D01*
X52742914Y-112385713D02*
X52647676Y-112338094D01*
X52647676Y-112338094D02*
X52552438Y-112242856D01*
X52552438Y-112242856D02*
X52504819Y-112099999D01*
X52504819Y-112099999D02*
X52504819Y-112004761D01*
X52504819Y-112004761D02*
X52552438Y-111861904D01*
X52552438Y-111861904D02*
X52600057Y-111814285D01*
X53504819Y-111385713D02*
X52504819Y-111385713D01*
X52981009Y-111385713D02*
X52981009Y-110814285D01*
X53504819Y-110814285D02*
X52504819Y-110814285D01*
X53504819Y-109766666D02*
X53028628Y-110099999D01*
X53504819Y-110338094D02*
X52504819Y-110338094D01*
X52504819Y-110338094D02*
X52504819Y-109957142D01*
X52504819Y-109957142D02*
X52552438Y-109861904D01*
X52552438Y-109861904D02*
X52600057Y-109814285D01*
X52600057Y-109814285D02*
X52695295Y-109766666D01*
X52695295Y-109766666D02*
X52838152Y-109766666D01*
X52838152Y-109766666D02*
X52933390Y-109814285D01*
X52933390Y-109814285D02*
X52981009Y-109861904D01*
X52981009Y-109861904D02*
X53028628Y-109957142D01*
X53028628Y-109957142D02*
X53028628Y-110338094D01*
X52552438Y-108814285D02*
X52504819Y-108909523D01*
X52504819Y-108909523D02*
X52504819Y-109052380D01*
X52504819Y-109052380D02*
X52552438Y-109195237D01*
X52552438Y-109195237D02*
X52647676Y-109290475D01*
X52647676Y-109290475D02*
X52742914Y-109338094D01*
X52742914Y-109338094D02*
X52933390Y-109385713D01*
X52933390Y-109385713D02*
X53076247Y-109385713D01*
X53076247Y-109385713D02*
X53266723Y-109338094D01*
X53266723Y-109338094D02*
X53361961Y-109290475D01*
X53361961Y-109290475D02*
X53457200Y-109195237D01*
X53457200Y-109195237D02*
X53504819Y-109052380D01*
X53504819Y-109052380D02*
X53504819Y-108957142D01*
X53504819Y-108957142D02*
X53457200Y-108814285D01*
X53457200Y-108814285D02*
X53409580Y-108766666D01*
X53409580Y-108766666D02*
X53076247Y-108766666D01*
X53076247Y-108766666D02*
X53076247Y-108957142D01*
X44904819Y-112433332D02*
X45904819Y-112099999D01*
X45904819Y-112099999D02*
X44904819Y-111766666D01*
X45381009Y-111099999D02*
X45428628Y-110957142D01*
X45428628Y-110957142D02*
X45476247Y-110909523D01*
X45476247Y-110909523D02*
X45571485Y-110861904D01*
X45571485Y-110861904D02*
X45714342Y-110861904D01*
X45714342Y-110861904D02*
X45809580Y-110909523D01*
X45809580Y-110909523D02*
X45857200Y-110957142D01*
X45857200Y-110957142D02*
X45904819Y-111052380D01*
X45904819Y-111052380D02*
X45904819Y-111433332D01*
X45904819Y-111433332D02*
X44904819Y-111433332D01*
X44904819Y-111433332D02*
X44904819Y-111099999D01*
X44904819Y-111099999D02*
X44952438Y-111004761D01*
X44952438Y-111004761D02*
X45000057Y-110957142D01*
X45000057Y-110957142D02*
X45095295Y-110909523D01*
X45095295Y-110909523D02*
X45190533Y-110909523D01*
X45190533Y-110909523D02*
X45285771Y-110957142D01*
X45285771Y-110957142D02*
X45333390Y-111004761D01*
X45333390Y-111004761D02*
X45381009Y-111099999D01*
X45381009Y-111099999D02*
X45381009Y-111433332D01*
X44904819Y-110433332D02*
X45714342Y-110433332D01*
X45714342Y-110433332D02*
X45809580Y-110385713D01*
X45809580Y-110385713D02*
X45857200Y-110338094D01*
X45857200Y-110338094D02*
X45904819Y-110242856D01*
X45904819Y-110242856D02*
X45904819Y-110052380D01*
X45904819Y-110052380D02*
X45857200Y-109957142D01*
X45857200Y-109957142D02*
X45809580Y-109909523D01*
X45809580Y-109909523D02*
X45714342Y-109861904D01*
X45714342Y-109861904D02*
X44904819Y-109861904D01*
X45857200Y-109433332D02*
X45904819Y-109290475D01*
X45904819Y-109290475D02*
X45904819Y-109052380D01*
X45904819Y-109052380D02*
X45857200Y-108957142D01*
X45857200Y-108957142D02*
X45809580Y-108909523D01*
X45809580Y-108909523D02*
X45714342Y-108861904D01*
X45714342Y-108861904D02*
X45619104Y-108861904D01*
X45619104Y-108861904D02*
X45523866Y-108909523D01*
X45523866Y-108909523D02*
X45476247Y-108957142D01*
X45476247Y-108957142D02*
X45428628Y-109052380D01*
X45428628Y-109052380D02*
X45381009Y-109242856D01*
X45381009Y-109242856D02*
X45333390Y-109338094D01*
X45333390Y-109338094D02*
X45285771Y-109385713D01*
X45285771Y-109385713D02*
X45190533Y-109433332D01*
X45190533Y-109433332D02*
X45095295Y-109433332D01*
X45095295Y-109433332D02*
X45000057Y-109385713D01*
X45000057Y-109385713D02*
X44952438Y-109338094D01*
X44952438Y-109338094D02*
X44904819Y-109242856D01*
X44904819Y-109242856D02*
X44904819Y-109004761D01*
X44904819Y-109004761D02*
X44952438Y-108861904D01*
X49954819Y-112514285D02*
X50954819Y-112180952D01*
X50954819Y-112180952D02*
X49954819Y-111847619D01*
X50954819Y-110942857D02*
X50478628Y-111276190D01*
X50954819Y-111514285D02*
X49954819Y-111514285D01*
X49954819Y-111514285D02*
X49954819Y-111133333D01*
X49954819Y-111133333D02*
X50002438Y-111038095D01*
X50002438Y-111038095D02*
X50050057Y-110990476D01*
X50050057Y-110990476D02*
X50145295Y-110942857D01*
X50145295Y-110942857D02*
X50288152Y-110942857D01*
X50288152Y-110942857D02*
X50383390Y-110990476D01*
X50383390Y-110990476D02*
X50431009Y-111038095D01*
X50431009Y-111038095D02*
X50478628Y-111133333D01*
X50478628Y-111133333D02*
X50478628Y-111514285D01*
X50431009Y-110514285D02*
X50431009Y-110180952D01*
X50954819Y-110038095D02*
X50954819Y-110514285D01*
X50954819Y-110514285D02*
X49954819Y-110514285D01*
X49954819Y-110514285D02*
X49954819Y-110038095D01*
X50431009Y-109276190D02*
X50431009Y-109609523D01*
X50954819Y-109609523D02*
X49954819Y-109609523D01*
X49954819Y-109609523D02*
X49954819Y-109133333D01*
X47404819Y-112433332D02*
X48404819Y-112099999D01*
X48404819Y-112099999D02*
X47404819Y-111766666D01*
X48404819Y-111433332D02*
X47404819Y-111433332D01*
X47404819Y-111433332D02*
X47404819Y-111052380D01*
X47404819Y-111052380D02*
X47452438Y-110957142D01*
X47452438Y-110957142D02*
X47500057Y-110909523D01*
X47500057Y-110909523D02*
X47595295Y-110861904D01*
X47595295Y-110861904D02*
X47738152Y-110861904D01*
X47738152Y-110861904D02*
X47833390Y-110909523D01*
X47833390Y-110909523D02*
X47881009Y-110957142D01*
X47881009Y-110957142D02*
X47928628Y-111052380D01*
X47928628Y-111052380D02*
X47928628Y-111433332D01*
X48404819Y-110433332D02*
X47404819Y-110433332D01*
X47404819Y-110433332D02*
X47404819Y-110052380D01*
X47404819Y-110052380D02*
X47452438Y-109957142D01*
X47452438Y-109957142D02*
X47500057Y-109909523D01*
X47500057Y-109909523D02*
X47595295Y-109861904D01*
X47595295Y-109861904D02*
X47738152Y-109861904D01*
X47738152Y-109861904D02*
X47833390Y-109909523D01*
X47833390Y-109909523D02*
X47881009Y-109957142D01*
X47881009Y-109957142D02*
X47928628Y-110052380D01*
X47928628Y-110052380D02*
X47928628Y-110433332D01*
X42417438Y-111739411D02*
X42369819Y-111834649D01*
X42369819Y-111834649D02*
X42369819Y-111977506D01*
X42369819Y-111977506D02*
X42417438Y-112120363D01*
X42417438Y-112120363D02*
X42512676Y-112215601D01*
X42512676Y-112215601D02*
X42607914Y-112263220D01*
X42607914Y-112263220D02*
X42798390Y-112310839D01*
X42798390Y-112310839D02*
X42941247Y-112310839D01*
X42941247Y-112310839D02*
X43131723Y-112263220D01*
X43131723Y-112263220D02*
X43226961Y-112215601D01*
X43226961Y-112215601D02*
X43322200Y-112120363D01*
X43322200Y-112120363D02*
X43369819Y-111977506D01*
X43369819Y-111977506D02*
X43369819Y-111882268D01*
X43369819Y-111882268D02*
X43322200Y-111739411D01*
X43322200Y-111739411D02*
X43274580Y-111691792D01*
X43274580Y-111691792D02*
X42941247Y-111691792D01*
X42941247Y-111691792D02*
X42941247Y-111882268D01*
X43369819Y-111263220D02*
X42369819Y-111263220D01*
X42369819Y-111263220D02*
X43369819Y-110691792D01*
X43369819Y-110691792D02*
X42369819Y-110691792D01*
X43369819Y-110215601D02*
X42369819Y-110215601D01*
X42369819Y-110215601D02*
X42369819Y-109977506D01*
X42369819Y-109977506D02*
X42417438Y-109834649D01*
X42417438Y-109834649D02*
X42512676Y-109739411D01*
X42512676Y-109739411D02*
X42607914Y-109691792D01*
X42607914Y-109691792D02*
X42798390Y-109644173D01*
X42798390Y-109644173D02*
X42941247Y-109644173D01*
X42941247Y-109644173D02*
X43131723Y-109691792D01*
X43131723Y-109691792D02*
X43226961Y-109739411D01*
X43226961Y-109739411D02*
X43322200Y-109834649D01*
X43322200Y-109834649D02*
X43369819Y-109977506D01*
X43369819Y-109977506D02*
X43369819Y-110215601D01*
X39060588Y-112417438D02*
X38965350Y-112369819D01*
X38965350Y-112369819D02*
X38822493Y-112369819D01*
X38822493Y-112369819D02*
X38679636Y-112417438D01*
X38679636Y-112417438D02*
X38584398Y-112512676D01*
X38584398Y-112512676D02*
X38536779Y-112607914D01*
X38536779Y-112607914D02*
X38489160Y-112798390D01*
X38489160Y-112798390D02*
X38489160Y-112941247D01*
X38489160Y-112941247D02*
X38536779Y-113131723D01*
X38536779Y-113131723D02*
X38584398Y-113226961D01*
X38584398Y-113226961D02*
X38679636Y-113322200D01*
X38679636Y-113322200D02*
X38822493Y-113369819D01*
X38822493Y-113369819D02*
X38917731Y-113369819D01*
X38917731Y-113369819D02*
X39060588Y-113322200D01*
X39060588Y-113322200D02*
X39108207Y-113274580D01*
X39108207Y-113274580D02*
X39108207Y-112941247D01*
X39108207Y-112941247D02*
X38917731Y-112941247D01*
X39536779Y-113369819D02*
X39536779Y-112369819D01*
X39536779Y-112369819D02*
X40108207Y-113369819D01*
X40108207Y-113369819D02*
X40108207Y-112369819D01*
X40584398Y-113369819D02*
X40584398Y-112369819D01*
X40584398Y-112369819D02*
X40822493Y-112369819D01*
X40822493Y-112369819D02*
X40965350Y-112417438D01*
X40965350Y-112417438D02*
X41060588Y-112512676D01*
X41060588Y-112512676D02*
X41108207Y-112607914D01*
X41108207Y-112607914D02*
X41155826Y-112798390D01*
X41155826Y-112798390D02*
X41155826Y-112941247D01*
X41155826Y-112941247D02*
X41108207Y-113131723D01*
X41108207Y-113131723D02*
X41060588Y-113226961D01*
X41060588Y-113226961D02*
X40965350Y-113322200D01*
X40965350Y-113322200D02*
X40822493Y-113369819D01*
X40822493Y-113369819D02*
X40584398Y-113369819D01*
X36936779Y-104869819D02*
X36936779Y-103869819D01*
X37412969Y-104488866D02*
X38174874Y-104488866D01*
X38603445Y-104822200D02*
X38746302Y-104869819D01*
X38746302Y-104869819D02*
X38984397Y-104869819D01*
X38984397Y-104869819D02*
X39079635Y-104822200D01*
X39079635Y-104822200D02*
X39127254Y-104774580D01*
X39127254Y-104774580D02*
X39174873Y-104679342D01*
X39174873Y-104679342D02*
X39174873Y-104584104D01*
X39174873Y-104584104D02*
X39127254Y-104488866D01*
X39127254Y-104488866D02*
X39079635Y-104441247D01*
X39079635Y-104441247D02*
X38984397Y-104393628D01*
X38984397Y-104393628D02*
X38793921Y-104346009D01*
X38793921Y-104346009D02*
X38698683Y-104298390D01*
X38698683Y-104298390D02*
X38651064Y-104250771D01*
X38651064Y-104250771D02*
X38603445Y-104155533D01*
X38603445Y-104155533D02*
X38603445Y-104060295D01*
X38603445Y-104060295D02*
X38651064Y-103965057D01*
X38651064Y-103965057D02*
X38698683Y-103917438D01*
X38698683Y-103917438D02*
X38793921Y-103869819D01*
X38793921Y-103869819D02*
X39032016Y-103869819D01*
X39032016Y-103869819D02*
X39174873Y-103917438D01*
X39603445Y-104346009D02*
X39936778Y-104346009D01*
X40079635Y-104869819D02*
X39603445Y-104869819D01*
X39603445Y-104869819D02*
X39603445Y-103869819D01*
X39603445Y-103869819D02*
X40079635Y-103869819D01*
X40508207Y-104869819D02*
X40508207Y-103869819D01*
X40508207Y-103869819D02*
X41079635Y-104869819D01*
X41079635Y-104869819D02*
X41079635Y-103869819D01*
X41508207Y-104822200D02*
X41651064Y-104869819D01*
X41651064Y-104869819D02*
X41889159Y-104869819D01*
X41889159Y-104869819D02*
X41984397Y-104822200D01*
X41984397Y-104822200D02*
X42032016Y-104774580D01*
X42032016Y-104774580D02*
X42079635Y-104679342D01*
X42079635Y-104679342D02*
X42079635Y-104584104D01*
X42079635Y-104584104D02*
X42032016Y-104488866D01*
X42032016Y-104488866D02*
X41984397Y-104441247D01*
X41984397Y-104441247D02*
X41889159Y-104393628D01*
X41889159Y-104393628D02*
X41698683Y-104346009D01*
X41698683Y-104346009D02*
X41603445Y-104298390D01*
X41603445Y-104298390D02*
X41555826Y-104250771D01*
X41555826Y-104250771D02*
X41508207Y-104155533D01*
X41508207Y-104155533D02*
X41508207Y-104060295D01*
X41508207Y-104060295D02*
X41555826Y-103965057D01*
X41555826Y-103965057D02*
X41603445Y-103917438D01*
X41603445Y-103917438D02*
X41698683Y-103869819D01*
X41698683Y-103869819D02*
X41936778Y-103869819D01*
X41936778Y-103869819D02*
X42079635Y-103917438D01*
X42508207Y-104346009D02*
X42841540Y-104346009D01*
X42984397Y-104869819D02*
X42508207Y-104869819D01*
X42508207Y-104869819D02*
X42508207Y-103869819D01*
X42508207Y-103869819D02*
X42984397Y-103869819D01*
X40943922Y-98619819D02*
X41277255Y-99619819D01*
X41277255Y-99619819D02*
X41610588Y-98619819D01*
X42277255Y-99096009D02*
X42420112Y-99143628D01*
X42420112Y-99143628D02*
X42467731Y-99191247D01*
X42467731Y-99191247D02*
X42515350Y-99286485D01*
X42515350Y-99286485D02*
X42515350Y-99429342D01*
X42515350Y-99429342D02*
X42467731Y-99524580D01*
X42467731Y-99524580D02*
X42420112Y-99572200D01*
X42420112Y-99572200D02*
X42324874Y-99619819D01*
X42324874Y-99619819D02*
X41943922Y-99619819D01*
X41943922Y-99619819D02*
X41943922Y-98619819D01*
X41943922Y-98619819D02*
X42277255Y-98619819D01*
X42277255Y-98619819D02*
X42372493Y-98667438D01*
X42372493Y-98667438D02*
X42420112Y-98715057D01*
X42420112Y-98715057D02*
X42467731Y-98810295D01*
X42467731Y-98810295D02*
X42467731Y-98905533D01*
X42467731Y-98905533D02*
X42420112Y-99000771D01*
X42420112Y-99000771D02*
X42372493Y-99048390D01*
X42372493Y-99048390D02*
X42277255Y-99096009D01*
X42277255Y-99096009D02*
X41943922Y-99096009D01*
X42943922Y-98619819D02*
X42943922Y-99429342D01*
X42943922Y-99429342D02*
X42991541Y-99524580D01*
X42991541Y-99524580D02*
X43039160Y-99572200D01*
X43039160Y-99572200D02*
X43134398Y-99619819D01*
X43134398Y-99619819D02*
X43324874Y-99619819D01*
X43324874Y-99619819D02*
X43420112Y-99572200D01*
X43420112Y-99572200D02*
X43467731Y-99524580D01*
X43467731Y-99524580D02*
X43515350Y-99429342D01*
X43515350Y-99429342D02*
X43515350Y-98619819D01*
X43943922Y-99572200D02*
X44086779Y-99619819D01*
X44086779Y-99619819D02*
X44324874Y-99619819D01*
X44324874Y-99619819D02*
X44420112Y-99572200D01*
X44420112Y-99572200D02*
X44467731Y-99524580D01*
X44467731Y-99524580D02*
X44515350Y-99429342D01*
X44515350Y-99429342D02*
X44515350Y-99334104D01*
X44515350Y-99334104D02*
X44467731Y-99238866D01*
X44467731Y-99238866D02*
X44420112Y-99191247D01*
X44420112Y-99191247D02*
X44324874Y-99143628D01*
X44324874Y-99143628D02*
X44134398Y-99096009D01*
X44134398Y-99096009D02*
X44039160Y-99048390D01*
X44039160Y-99048390D02*
X43991541Y-99000771D01*
X43991541Y-99000771D02*
X43943922Y-98905533D01*
X43943922Y-98905533D02*
X43943922Y-98810295D01*
X43943922Y-98810295D02*
X43991541Y-98715057D01*
X43991541Y-98715057D02*
X44039160Y-98667438D01*
X44039160Y-98667438D02*
X44134398Y-98619819D01*
X44134398Y-98619819D02*
X44372493Y-98619819D01*
X44372493Y-98619819D02*
X44515350Y-98667438D01*
D11*
G36*
X71561353Y-108926504D02*
G01*
X71561353Y-109630229D01*
X74090000Y-109630229D01*
X74090000Y-110036588D01*
X71561353Y-110036588D01*
X71561353Y-110738481D01*
X71147362Y-110738481D01*
X71147362Y-108926504D01*
X71561353Y-108926504D01*
G37*
G36*
X73280169Y-107310200D02*
G01*
X73492639Y-107357899D01*
X73676150Y-107434449D01*
X73835376Y-107540273D01*
X73964721Y-107670977D01*
X74058171Y-107822216D01*
X74116405Y-107997985D01*
X74136894Y-108203698D01*
X74116998Y-108403387D01*
X74060385Y-108574454D01*
X73969434Y-108722063D01*
X73843436Y-108850026D01*
X73688421Y-108953790D01*
X73510282Y-109028709D01*
X73304564Y-109075314D01*
X73065279Y-109091673D01*
X72803537Y-109074220D01*
X72583660Y-109025031D01*
X72398087Y-108946888D01*
X72241142Y-108839798D01*
X72114445Y-108706949D01*
X72022433Y-108552533D01*
X71964870Y-108372381D01*
X71946856Y-108184769D01*
X72323757Y-108184769D01*
X72336667Y-108298109D01*
X72373560Y-108395121D01*
X72433486Y-108479043D01*
X72517930Y-108552049D01*
X72655975Y-108624148D01*
X72830989Y-108670254D01*
X73053005Y-108686994D01*
X73266446Y-108670190D01*
X73435925Y-108623674D01*
X73570861Y-108550370D01*
X73653010Y-108476824D01*
X73711333Y-108392913D01*
X73747199Y-108296571D01*
X73759722Y-108184769D01*
X73747062Y-108070046D01*
X73711291Y-107974197D01*
X73653920Y-107893503D01*
X73573975Y-107825427D01*
X73441756Y-107758938D01*
X73269131Y-107715700D01*
X73044762Y-107699795D01*
X72819127Y-107715691D01*
X72645196Y-107758928D01*
X72511702Y-107825427D01*
X72430701Y-107893621D01*
X72372673Y-107974363D01*
X72336538Y-108070171D01*
X72323757Y-108184769D01*
X71946856Y-108184769D01*
X71944570Y-108160956D01*
X71964504Y-107957935D01*
X72020700Y-107787538D01*
X72110094Y-107643788D01*
X72232899Y-107522260D01*
X72384256Y-107425545D01*
X72563975Y-107354436D01*
X72777645Y-107309442D01*
X73032489Y-107293435D01*
X73280169Y-107310200D01*
G37*
G36*
X74090000Y-105365596D02*
G01*
X74090000Y-105761880D01*
X73755692Y-105761880D01*
X73755692Y-105768597D01*
X73895700Y-105847174D01*
X74000586Y-105938207D01*
X74075026Y-106042807D01*
X74120857Y-106163682D01*
X74136894Y-106304863D01*
X74117744Y-106473162D01*
X74064624Y-106607453D01*
X73980692Y-106715027D01*
X73864429Y-106800627D01*
X73709869Y-106865840D01*
X73507327Y-106908874D01*
X73244248Y-106924781D01*
X71991465Y-106924781D01*
X71991465Y-106528650D01*
X73194788Y-106528650D01*
X73388030Y-106515674D01*
X73529006Y-106481258D01*
X73630176Y-106429857D01*
X73700442Y-106362384D01*
X73744025Y-106276048D01*
X73759722Y-106164881D01*
X73742083Y-106053496D01*
X73690829Y-105958383D01*
X73604200Y-105875453D01*
X73493426Y-105813821D01*
X73359726Y-105775491D01*
X73196987Y-105761880D01*
X71991465Y-105761880D01*
X71991465Y-105365596D01*
X74090000Y-105365596D01*
G37*
G36*
X73990532Y-103596973D02*
G01*
X74070189Y-103741587D01*
X74119626Y-103905936D01*
X74136894Y-104094007D01*
X74117353Y-104285593D01*
X74061488Y-104451262D01*
X73971222Y-104595738D01*
X73845451Y-104722474D01*
X73691421Y-104825722D01*
X73517005Y-104899788D01*
X73318256Y-104945554D01*
X73089825Y-104961527D01*
X72834281Y-104944128D01*
X72614526Y-104894564D01*
X72424197Y-104814903D01*
X72258545Y-104704614D01*
X72123662Y-104568393D01*
X72026367Y-104411336D01*
X71965837Y-104229395D01*
X71944570Y-104017070D01*
X71956337Y-103859432D01*
X71990083Y-103719687D01*
X72044221Y-103595293D01*
X72483859Y-103595293D01*
X72393584Y-103722161D01*
X72341141Y-103851097D01*
X72323757Y-103984708D01*
X72337093Y-104107321D01*
X72375550Y-104215006D01*
X72438405Y-104310642D01*
X72527090Y-104396257D01*
X72633961Y-104465196D01*
X72756145Y-104515015D01*
X72896554Y-104545990D01*
X73059050Y-104556847D01*
X73220376Y-104546400D01*
X73356870Y-104516891D01*
X73472893Y-104469967D01*
X73571777Y-104405722D01*
X73652589Y-104325401D01*
X73710809Y-104232754D01*
X73747006Y-104125375D01*
X73759722Y-103999973D01*
X73739872Y-103862923D01*
X73679502Y-103729637D01*
X73574159Y-103596973D01*
X73990532Y-103596973D01*
G37*
G36*
X74090000Y-101650968D02*
G01*
X74090000Y-102047252D01*
X72943829Y-102047252D01*
X72724914Y-102060428D01*
X72567748Y-102095007D01*
X72457469Y-102145702D01*
X72382894Y-102210618D01*
X72337754Y-102291611D01*
X72321742Y-102393924D01*
X72341378Y-102502998D01*
X72399810Y-102599600D01*
X72501810Y-102687626D01*
X72628840Y-102752458D01*
X72780296Y-102792847D01*
X72962330Y-102807152D01*
X74090000Y-102807152D01*
X74090000Y-103205116D01*
X70983230Y-103205116D01*
X70983230Y-102807152D01*
X72342259Y-102807152D01*
X72342259Y-102800283D01*
X72195025Y-102711212D01*
X72085243Y-102611660D01*
X72007956Y-102500610D01*
X71960872Y-102375678D01*
X71944570Y-102233334D01*
X71962716Y-102075900D01*
X72013115Y-101950047D01*
X72092927Y-101848984D01*
X72203788Y-101768343D01*
X72351570Y-101706754D01*
X72545667Y-101666036D01*
X72798199Y-101650968D01*
X74090000Y-101650968D01*
G37*
G36*
X73243321Y-99480141D02*
G01*
X73467146Y-99521578D01*
X73658032Y-99587030D01*
X73821088Y-99675501D01*
X73958975Y-99789841D01*
X74056318Y-99921048D01*
X74116033Y-100072483D01*
X74136894Y-100249319D01*
X74122366Y-100378911D01*
X74080441Y-100492632D01*
X74011758Y-100593636D01*
X73914478Y-100684089D01*
X73784452Y-100764977D01*
X73784452Y-100771846D01*
X75051339Y-100771846D01*
X75051339Y-101168130D01*
X71991465Y-101168130D01*
X71991465Y-100771846D01*
X72362775Y-100771846D01*
X72362775Y-100764977D01*
X72208301Y-100673350D01*
X72092957Y-100569951D01*
X72011568Y-100453672D01*
X71961839Y-100321888D01*
X71959984Y-100305648D01*
X72323757Y-100305648D01*
X72344576Y-100439876D01*
X72404392Y-100551647D01*
X72504375Y-100646366D01*
X72632257Y-100717025D01*
X72780803Y-100760247D01*
X72955553Y-100775357D01*
X73216221Y-100775357D01*
X73363654Y-100761385D01*
X73492121Y-100720833D01*
X73606032Y-100653236D01*
X73694856Y-100564538D01*
X73747711Y-100462621D01*
X73765950Y-100343200D01*
X73752520Y-100236911D01*
X73713946Y-100145813D01*
X73650588Y-100066648D01*
X73559870Y-99997444D01*
X73414651Y-99931063D01*
X73226607Y-99887736D01*
X72984312Y-99871811D01*
X72782178Y-99886432D01*
X72623569Y-99926551D01*
X72499246Y-99988895D01*
X72402049Y-100075693D01*
X72344006Y-100179460D01*
X72323757Y-100305648D01*
X71959984Y-100305648D01*
X71944570Y-100170703D01*
X71963350Y-100008379D01*
X72016832Y-99870801D01*
X72103497Y-99752996D01*
X72225572Y-99651687D01*
X72370530Y-99573465D01*
X72541269Y-99515413D01*
X72742570Y-99478552D01*
X72980282Y-99465452D01*
X73243321Y-99480141D01*
G37*
G36*
X73280169Y-97391498D02*
G01*
X73492639Y-97439197D01*
X73676150Y-97515747D01*
X73835376Y-97621571D01*
X73964721Y-97752275D01*
X74058171Y-97903514D01*
X74116405Y-98079283D01*
X74136894Y-98284996D01*
X74116998Y-98484685D01*
X74060385Y-98655752D01*
X73969434Y-98803361D01*
X73843436Y-98931324D01*
X73688421Y-99035088D01*
X73510282Y-99110007D01*
X73304564Y-99156612D01*
X73065279Y-99172971D01*
X72803537Y-99155518D01*
X72583660Y-99106329D01*
X72398087Y-99028186D01*
X72241142Y-98921096D01*
X72114445Y-98788247D01*
X72022433Y-98633831D01*
X71964870Y-98453679D01*
X71946856Y-98266067D01*
X72323757Y-98266067D01*
X72336667Y-98379407D01*
X72373560Y-98476419D01*
X72433486Y-98560341D01*
X72517930Y-98633347D01*
X72655975Y-98705446D01*
X72830989Y-98751552D01*
X73053005Y-98768292D01*
X73266446Y-98751488D01*
X73435925Y-98704972D01*
X73570861Y-98631668D01*
X73653010Y-98558122D01*
X73711333Y-98474211D01*
X73747199Y-98377869D01*
X73759722Y-98266067D01*
X73747062Y-98151344D01*
X73711291Y-98055495D01*
X73653920Y-97974801D01*
X73573975Y-97906725D01*
X73441756Y-97840236D01*
X73269131Y-97796998D01*
X73044762Y-97781092D01*
X72819127Y-97796989D01*
X72645196Y-97840226D01*
X72511702Y-97906725D01*
X72430701Y-97974919D01*
X72372673Y-98055661D01*
X72336538Y-98151469D01*
X72323757Y-98266067D01*
X71946856Y-98266067D01*
X71944570Y-98242254D01*
X71964504Y-98039233D01*
X72020700Y-97868836D01*
X72110094Y-97725086D01*
X72232899Y-97603558D01*
X72384256Y-97506843D01*
X72563975Y-97435734D01*
X72777645Y-97390740D01*
X73032489Y-97374733D01*
X73280169Y-97391498D01*
G37*
G36*
X71545966Y-96769469D02*
G01*
X71526831Y-96860108D01*
X71470129Y-96936012D01*
X71384521Y-96987700D01*
X71277421Y-97005163D01*
X71169967Y-96987755D01*
X71082698Y-96936012D01*
X71024429Y-96859981D01*
X71004846Y-96769469D01*
X71024577Y-96675804D01*
X71082698Y-96598652D01*
X71170056Y-96546191D01*
X71277421Y-96528585D01*
X71379628Y-96545913D01*
X71467015Y-96598652D01*
X71525989Y-96675874D01*
X71545966Y-96769469D01*
G37*
G36*
X74090000Y-96575754D02*
G01*
X74090000Y-96972038D01*
X71991465Y-96972038D01*
X71991465Y-96575754D01*
X74090000Y-96575754D01*
G37*
G36*
X74090000Y-94501064D02*
G01*
X74090000Y-94897195D01*
X72909024Y-94897195D01*
X72704645Y-94910047D01*
X72556986Y-94943913D01*
X72452454Y-94993924D01*
X72381008Y-95058596D01*
X72337332Y-95140105D01*
X72321742Y-95243867D01*
X72340116Y-95358422D01*
X72393641Y-95456662D01*
X72484408Y-95542759D01*
X72599896Y-95607237D01*
X72734923Y-95646758D01*
X72894736Y-95660607D01*
X74090000Y-95660607D01*
X74090000Y-96058570D01*
X71991465Y-96058570D01*
X71991465Y-95660607D01*
X72342259Y-95660607D01*
X72342259Y-95653737D01*
X72195201Y-95565396D01*
X72085462Y-95466244D01*
X72008115Y-95355245D01*
X71960929Y-95229962D01*
X71944570Y-95086789D01*
X71959825Y-94946624D01*
X72002793Y-94830215D01*
X72071450Y-94732888D01*
X72166770Y-94651426D01*
X72281026Y-94589492D01*
X72422146Y-94542541D01*
X72595709Y-94512084D01*
X72808457Y-94501064D01*
X74090000Y-94501064D01*
G37*
G36*
X74067468Y-93094378D02*
G01*
X74117768Y-93221344D01*
X74136894Y-93400139D01*
X74117990Y-93566542D01*
X74066955Y-93691045D01*
X73988400Y-93783565D01*
X73881270Y-93850409D01*
X73739064Y-93893306D01*
X73550894Y-93909080D01*
X72364424Y-93909080D01*
X72364424Y-94201103D01*
X71991465Y-94201103D01*
X71991465Y-93909080D01*
X71505483Y-93909080D01*
X71370111Y-93512796D01*
X71991465Y-93512796D01*
X71991465Y-93094378D01*
X72364424Y-93094378D01*
X72364424Y-93512796D01*
X73413508Y-93512796D01*
X73536728Y-93505110D01*
X73622216Y-93485239D01*
X73679855Y-93456468D01*
X73721839Y-93414121D01*
X73749354Y-93353668D01*
X73759722Y-93268706D01*
X73742283Y-93173766D01*
X73691395Y-93094378D01*
X74067468Y-93094378D01*
G37*
G36*
X71561353Y-90178423D02*
G01*
X71561353Y-90882148D01*
X74090000Y-90882148D01*
X74090000Y-91288507D01*
X71561353Y-91288507D01*
X71561353Y-91990400D01*
X71147362Y-91990400D01*
X71147362Y-90178423D01*
X71561353Y-90178423D01*
G37*
G36*
X73280169Y-88562119D02*
G01*
X73492639Y-88609818D01*
X73676150Y-88686368D01*
X73835376Y-88792192D01*
X73964721Y-88922896D01*
X74058171Y-89074135D01*
X74116405Y-89249904D01*
X74136894Y-89455617D01*
X74116998Y-89655306D01*
X74060385Y-89826373D01*
X73969434Y-89973982D01*
X73843436Y-90101945D01*
X73688421Y-90205709D01*
X73510282Y-90280628D01*
X73304564Y-90327233D01*
X73065279Y-90343592D01*
X72803537Y-90326139D01*
X72583660Y-90276950D01*
X72398087Y-90198807D01*
X72241142Y-90091717D01*
X72114445Y-89958868D01*
X72022433Y-89804452D01*
X71964870Y-89624300D01*
X71946856Y-89436688D01*
X72323757Y-89436688D01*
X72336667Y-89550028D01*
X72373560Y-89647040D01*
X72433486Y-89730962D01*
X72517930Y-89803968D01*
X72655975Y-89876068D01*
X72830989Y-89922173D01*
X73053005Y-89938913D01*
X73266446Y-89922109D01*
X73435925Y-89875593D01*
X73570861Y-89802289D01*
X73653010Y-89728743D01*
X73711333Y-89644832D01*
X73747199Y-89548490D01*
X73759722Y-89436688D01*
X73747062Y-89321965D01*
X73711291Y-89226116D01*
X73653920Y-89145422D01*
X73573975Y-89077346D01*
X73441756Y-89010857D01*
X73269131Y-88967619D01*
X73044762Y-88951714D01*
X72819127Y-88967610D01*
X72645196Y-89010847D01*
X72511702Y-89077346D01*
X72430701Y-89145540D01*
X72372673Y-89226282D01*
X72336538Y-89322090D01*
X72323757Y-89436688D01*
X71946856Y-89436688D01*
X71944570Y-89412875D01*
X71964504Y-89209854D01*
X72020700Y-89039457D01*
X72110094Y-88895707D01*
X72232899Y-88774180D01*
X72384256Y-88677464D01*
X72563975Y-88606355D01*
X72777645Y-88561361D01*
X73032489Y-88545355D01*
X73280169Y-88562119D01*
G37*
G36*
X73243321Y-86454670D02*
G01*
X73467146Y-86496107D01*
X73658032Y-86561559D01*
X73821088Y-86650030D01*
X73958975Y-86764370D01*
X74056318Y-86895577D01*
X74116033Y-87047012D01*
X74136894Y-87223848D01*
X74122366Y-87353440D01*
X74080441Y-87467161D01*
X74011758Y-87568164D01*
X73914478Y-87658618D01*
X73784452Y-87739506D01*
X73784452Y-87746375D01*
X75051339Y-87746375D01*
X75051339Y-88142659D01*
X71991465Y-88142659D01*
X71991465Y-87746375D01*
X72362775Y-87746375D01*
X72362775Y-87739506D01*
X72208301Y-87647879D01*
X72092957Y-87544480D01*
X72011568Y-87428201D01*
X71961839Y-87296417D01*
X71959984Y-87280177D01*
X72323757Y-87280177D01*
X72344576Y-87414405D01*
X72404392Y-87526176D01*
X72504375Y-87620895D01*
X72632257Y-87691554D01*
X72780803Y-87734776D01*
X72955553Y-87749886D01*
X73216221Y-87749886D01*
X73363654Y-87735914D01*
X73492121Y-87695362D01*
X73606032Y-87627765D01*
X73694856Y-87539067D01*
X73747711Y-87437150D01*
X73765950Y-87317729D01*
X73752520Y-87211440D01*
X73713946Y-87120342D01*
X73650588Y-87041177D01*
X73559870Y-86971973D01*
X73414651Y-86905592D01*
X73226607Y-86862265D01*
X72984312Y-86846340D01*
X72782178Y-86860961D01*
X72623569Y-86901080D01*
X72499246Y-86963424D01*
X72402049Y-87050222D01*
X72344006Y-87153989D01*
X72323757Y-87280177D01*
X71959984Y-87280177D01*
X71944570Y-87145232D01*
X71963350Y-86982908D01*
X72016832Y-86845330D01*
X72103497Y-86727525D01*
X72225572Y-86626216D01*
X72370530Y-86547994D01*
X72541269Y-86489942D01*
X72742570Y-86453080D01*
X72980282Y-86439981D01*
X73243321Y-86454670D01*
G37*
G36*
X71147362Y-83110951D02*
G01*
X74090000Y-83990531D01*
X74090000Y-84444670D01*
X71147362Y-85308831D01*
X71147362Y-84864920D01*
X73379986Y-84260266D01*
X73491386Y-84235373D01*
X73628197Y-84215845D01*
X73628197Y-84209128D01*
X73509700Y-84191308D01*
X73375772Y-84159516D01*
X71147362Y-83541277D01*
X71147362Y-83110951D01*
G37*
G36*
X71088743Y-82037962D02*
G01*
X74090000Y-82037962D01*
X74090000Y-82434093D01*
X71673094Y-82434093D01*
X71758496Y-82545479D01*
X71830448Y-82665513D01*
X71889931Y-82794461D01*
X71944570Y-82948224D01*
X71538822Y-82948224D01*
X71456207Y-82756952D01*
X71359120Y-82574991D01*
X71239502Y-82394098D01*
X71088743Y-82205268D01*
X71088743Y-82037962D01*
G37*
D10*
X35708207Y-72174580D02*
X35660588Y-72222200D01*
X35660588Y-72222200D02*
X35517731Y-72269819D01*
X35517731Y-72269819D02*
X35422493Y-72269819D01*
X35422493Y-72269819D02*
X35279636Y-72222200D01*
X35279636Y-72222200D02*
X35184398Y-72126961D01*
X35184398Y-72126961D02*
X35136779Y-72031723D01*
X35136779Y-72031723D02*
X35089160Y-71841247D01*
X35089160Y-71841247D02*
X35089160Y-71698390D01*
X35089160Y-71698390D02*
X35136779Y-71507914D01*
X35136779Y-71507914D02*
X35184398Y-71412676D01*
X35184398Y-71412676D02*
X35279636Y-71317438D01*
X35279636Y-71317438D02*
X35422493Y-71269819D01*
X35422493Y-71269819D02*
X35517731Y-71269819D01*
X35517731Y-71269819D02*
X35660588Y-71317438D01*
X35660588Y-71317438D02*
X35708207Y-71365057D01*
X36136779Y-72269819D02*
X36136779Y-71269819D01*
X36565350Y-72269819D02*
X36565350Y-71746009D01*
X36565350Y-71746009D02*
X36517731Y-71650771D01*
X36517731Y-71650771D02*
X36422493Y-71603152D01*
X36422493Y-71603152D02*
X36279636Y-71603152D01*
X36279636Y-71603152D02*
X36184398Y-71650771D01*
X36184398Y-71650771D02*
X36136779Y-71698390D01*
X37041541Y-72269819D02*
X37041541Y-71603152D01*
X37041541Y-71269819D02*
X36993922Y-71317438D01*
X36993922Y-71317438D02*
X37041541Y-71365057D01*
X37041541Y-71365057D02*
X37089160Y-71317438D01*
X37089160Y-71317438D02*
X37041541Y-71269819D01*
X37041541Y-71269819D02*
X37041541Y-71365057D01*
X37517731Y-71603152D02*
X37517731Y-72269819D01*
X37517731Y-71698390D02*
X37565350Y-71650771D01*
X37565350Y-71650771D02*
X37660588Y-71603152D01*
X37660588Y-71603152D02*
X37803445Y-71603152D01*
X37803445Y-71603152D02*
X37898683Y-71650771D01*
X37898683Y-71650771D02*
X37946302Y-71746009D01*
X37946302Y-71746009D02*
X37946302Y-72269819D01*
X38422493Y-72269819D02*
X38422493Y-71603152D01*
X38422493Y-71698390D02*
X38470112Y-71650771D01*
X38470112Y-71650771D02*
X38565350Y-71603152D01*
X38565350Y-71603152D02*
X38708207Y-71603152D01*
X38708207Y-71603152D02*
X38803445Y-71650771D01*
X38803445Y-71650771D02*
X38851064Y-71746009D01*
X38851064Y-71746009D02*
X38851064Y-72269819D01*
X38851064Y-71746009D02*
X38898683Y-71650771D01*
X38898683Y-71650771D02*
X38993921Y-71603152D01*
X38993921Y-71603152D02*
X39136778Y-71603152D01*
X39136778Y-71603152D02*
X39232017Y-71650771D01*
X39232017Y-71650771D02*
X39279636Y-71746009D01*
X39279636Y-71746009D02*
X39279636Y-72269819D01*
X40184397Y-72269819D02*
X40184397Y-71746009D01*
X40184397Y-71746009D02*
X40136778Y-71650771D01*
X40136778Y-71650771D02*
X40041540Y-71603152D01*
X40041540Y-71603152D02*
X39851064Y-71603152D01*
X39851064Y-71603152D02*
X39755826Y-71650771D01*
X40184397Y-72222200D02*
X40089159Y-72269819D01*
X40089159Y-72269819D02*
X39851064Y-72269819D01*
X39851064Y-72269819D02*
X39755826Y-72222200D01*
X39755826Y-72222200D02*
X39708207Y-72126961D01*
X39708207Y-72126961D02*
X39708207Y-72031723D01*
X39708207Y-72031723D02*
X39755826Y-71936485D01*
X39755826Y-71936485D02*
X39851064Y-71888866D01*
X39851064Y-71888866D02*
X40089159Y-71888866D01*
X40089159Y-71888866D02*
X40184397Y-71841247D01*
X40565350Y-71603152D02*
X40803445Y-72269819D01*
X41041540Y-71603152D02*
X40803445Y-72269819D01*
X40803445Y-72269819D02*
X40708207Y-72507914D01*
X40708207Y-72507914D02*
X40660588Y-72555533D01*
X40660588Y-72555533D02*
X40565350Y-72603152D01*
X42184398Y-72269819D02*
X42184398Y-71269819D01*
X42184398Y-71269819D02*
X42755826Y-72269819D01*
X42755826Y-72269819D02*
X42755826Y-71269819D01*
X43232017Y-72174580D02*
X43279636Y-72222200D01*
X43279636Y-72222200D02*
X43232017Y-72269819D01*
X43232017Y-72269819D02*
X43184398Y-72222200D01*
X43184398Y-72222200D02*
X43232017Y-72174580D01*
X43232017Y-72174580D02*
X43232017Y-72269819D01*
X36908207Y-70174580D02*
X36860588Y-70222200D01*
X36860588Y-70222200D02*
X36717731Y-70269819D01*
X36717731Y-70269819D02*
X36622493Y-70269819D01*
X36622493Y-70269819D02*
X36479636Y-70222200D01*
X36479636Y-70222200D02*
X36384398Y-70126961D01*
X36384398Y-70126961D02*
X36336779Y-70031723D01*
X36336779Y-70031723D02*
X36289160Y-69841247D01*
X36289160Y-69841247D02*
X36289160Y-69698390D01*
X36289160Y-69698390D02*
X36336779Y-69507914D01*
X36336779Y-69507914D02*
X36384398Y-69412676D01*
X36384398Y-69412676D02*
X36479636Y-69317438D01*
X36479636Y-69317438D02*
X36622493Y-69269819D01*
X36622493Y-69269819D02*
X36717731Y-69269819D01*
X36717731Y-69269819D02*
X36860588Y-69317438D01*
X36860588Y-69317438D02*
X36908207Y-69365057D01*
X37765350Y-70269819D02*
X37765350Y-69746009D01*
X37765350Y-69746009D02*
X37717731Y-69650771D01*
X37717731Y-69650771D02*
X37622493Y-69603152D01*
X37622493Y-69603152D02*
X37432017Y-69603152D01*
X37432017Y-69603152D02*
X37336779Y-69650771D01*
X37765350Y-70222200D02*
X37670112Y-70269819D01*
X37670112Y-70269819D02*
X37432017Y-70269819D01*
X37432017Y-70269819D02*
X37336779Y-70222200D01*
X37336779Y-70222200D02*
X37289160Y-70126961D01*
X37289160Y-70126961D02*
X37289160Y-70031723D01*
X37289160Y-70031723D02*
X37336779Y-69936485D01*
X37336779Y-69936485D02*
X37432017Y-69888866D01*
X37432017Y-69888866D02*
X37670112Y-69888866D01*
X37670112Y-69888866D02*
X37765350Y-69841247D01*
X38241541Y-70269819D02*
X38241541Y-69603152D01*
X38241541Y-69793628D02*
X38289160Y-69698390D01*
X38289160Y-69698390D02*
X38336779Y-69650771D01*
X38336779Y-69650771D02*
X38432017Y-69603152D01*
X38432017Y-69603152D02*
X38527255Y-69603152D01*
X38812970Y-70222200D02*
X38908208Y-70269819D01*
X38908208Y-70269819D02*
X39098684Y-70269819D01*
X39098684Y-70269819D02*
X39193922Y-70222200D01*
X39193922Y-70222200D02*
X39241541Y-70126961D01*
X39241541Y-70126961D02*
X39241541Y-70079342D01*
X39241541Y-70079342D02*
X39193922Y-69984104D01*
X39193922Y-69984104D02*
X39098684Y-69936485D01*
X39098684Y-69936485D02*
X38955827Y-69936485D01*
X38955827Y-69936485D02*
X38860589Y-69888866D01*
X38860589Y-69888866D02*
X38812970Y-69793628D01*
X38812970Y-69793628D02*
X38812970Y-69746009D01*
X38812970Y-69746009D02*
X38860589Y-69650771D01*
X38860589Y-69650771D02*
X38955827Y-69603152D01*
X38955827Y-69603152D02*
X39098684Y-69603152D01*
X39098684Y-69603152D02*
X39193922Y-69650771D01*
X39812970Y-70269819D02*
X39717732Y-70222200D01*
X39717732Y-70222200D02*
X39670113Y-70174580D01*
X39670113Y-70174580D02*
X39622494Y-70079342D01*
X39622494Y-70079342D02*
X39622494Y-69793628D01*
X39622494Y-69793628D02*
X39670113Y-69698390D01*
X39670113Y-69698390D02*
X39717732Y-69650771D01*
X39717732Y-69650771D02*
X39812970Y-69603152D01*
X39812970Y-69603152D02*
X39955827Y-69603152D01*
X39955827Y-69603152D02*
X40051065Y-69650771D01*
X40051065Y-69650771D02*
X40098684Y-69698390D01*
X40098684Y-69698390D02*
X40146303Y-69793628D01*
X40146303Y-69793628D02*
X40146303Y-70079342D01*
X40146303Y-70079342D02*
X40098684Y-70174580D01*
X40098684Y-70174580D02*
X40051065Y-70222200D01*
X40051065Y-70222200D02*
X39955827Y-70269819D01*
X39955827Y-70269819D02*
X39812970Y-70269819D01*
X40574875Y-69603152D02*
X40574875Y-70269819D01*
X40574875Y-69698390D02*
X40622494Y-69650771D01*
X40622494Y-69650771D02*
X40717732Y-69603152D01*
X40717732Y-69603152D02*
X40860589Y-69603152D01*
X40860589Y-69603152D02*
X40955827Y-69650771D01*
X40955827Y-69650771D02*
X41003446Y-69746009D01*
X41003446Y-69746009D02*
X41003446Y-70269819D01*
X42812970Y-70269819D02*
X42479637Y-69793628D01*
X42241542Y-70269819D02*
X42241542Y-69269819D01*
X42241542Y-69269819D02*
X42622494Y-69269819D01*
X42622494Y-69269819D02*
X42717732Y-69317438D01*
X42717732Y-69317438D02*
X42765351Y-69365057D01*
X42765351Y-69365057D02*
X42812970Y-69460295D01*
X42812970Y-69460295D02*
X42812970Y-69603152D01*
X42812970Y-69603152D02*
X42765351Y-69698390D01*
X42765351Y-69698390D02*
X42717732Y-69746009D01*
X42717732Y-69746009D02*
X42622494Y-69793628D01*
X42622494Y-69793628D02*
X42241542Y-69793628D01*
X43241542Y-70174580D02*
X43289161Y-70222200D01*
X43289161Y-70222200D02*
X43241542Y-70269819D01*
X43241542Y-70269819D02*
X43193923Y-70222200D01*
X43193923Y-70222200D02*
X43241542Y-70174580D01*
X43241542Y-70174580D02*
X43241542Y-70269819D01*
X56857908Y-32416984D02*
X57572193Y-32416984D01*
X57572193Y-32416984D02*
X57715050Y-32464603D01*
X57715050Y-32464603D02*
X57810289Y-32559841D01*
X57810289Y-32559841D02*
X57857908Y-32702698D01*
X57857908Y-32702698D02*
X57857908Y-32797936D01*
X57191241Y-31512222D02*
X57857908Y-31512222D01*
X56810289Y-31750317D02*
X57524574Y-31988412D01*
X57524574Y-31988412D02*
X57524574Y-31369365D01*
X56233333Y-88054819D02*
X55900000Y-87578628D01*
X55661905Y-88054819D02*
X55661905Y-87054819D01*
X55661905Y-87054819D02*
X56042857Y-87054819D01*
X56042857Y-87054819D02*
X56138095Y-87102438D01*
X56138095Y-87102438D02*
X56185714Y-87150057D01*
X56185714Y-87150057D02*
X56233333Y-87245295D01*
X56233333Y-87245295D02*
X56233333Y-87388152D01*
X56233333Y-87388152D02*
X56185714Y-87483390D01*
X56185714Y-87483390D02*
X56138095Y-87531009D01*
X56138095Y-87531009D02*
X56042857Y-87578628D01*
X56042857Y-87578628D02*
X55661905Y-87578628D01*
X56709524Y-88054819D02*
X56900000Y-88054819D01*
X56900000Y-88054819D02*
X56995238Y-88007200D01*
X56995238Y-88007200D02*
X57042857Y-87959580D01*
X57042857Y-87959580D02*
X57138095Y-87816723D01*
X57138095Y-87816723D02*
X57185714Y-87626247D01*
X57185714Y-87626247D02*
X57185714Y-87245295D01*
X57185714Y-87245295D02*
X57138095Y-87150057D01*
X57138095Y-87150057D02*
X57090476Y-87102438D01*
X57090476Y-87102438D02*
X56995238Y-87054819D01*
X56995238Y-87054819D02*
X56804762Y-87054819D01*
X56804762Y-87054819D02*
X56709524Y-87102438D01*
X56709524Y-87102438D02*
X56661905Y-87150057D01*
X56661905Y-87150057D02*
X56614286Y-87245295D01*
X56614286Y-87245295D02*
X56614286Y-87483390D01*
X56614286Y-87483390D02*
X56661905Y-87578628D01*
X56661905Y-87578628D02*
X56709524Y-87626247D01*
X56709524Y-87626247D02*
X56804762Y-87673866D01*
X56804762Y-87673866D02*
X56995238Y-87673866D01*
X56995238Y-87673866D02*
X57090476Y-87626247D01*
X57090476Y-87626247D02*
X57138095Y-87578628D01*
X57138095Y-87578628D02*
X57185714Y-87483390D01*
X37054819Y-105166666D02*
X36578628Y-105499999D01*
X37054819Y-105738094D02*
X36054819Y-105738094D01*
X36054819Y-105738094D02*
X36054819Y-105357142D01*
X36054819Y-105357142D02*
X36102438Y-105261904D01*
X36102438Y-105261904D02*
X36150057Y-105214285D01*
X36150057Y-105214285D02*
X36245295Y-105166666D01*
X36245295Y-105166666D02*
X36388152Y-105166666D01*
X36388152Y-105166666D02*
X36483390Y-105214285D01*
X36483390Y-105214285D02*
X36531009Y-105261904D01*
X36531009Y-105261904D02*
X36578628Y-105357142D01*
X36578628Y-105357142D02*
X36578628Y-105738094D01*
X36054819Y-104261904D02*
X36054819Y-104738094D01*
X36054819Y-104738094D02*
X36531009Y-104785713D01*
X36531009Y-104785713D02*
X36483390Y-104738094D01*
X36483390Y-104738094D02*
X36435771Y-104642856D01*
X36435771Y-104642856D02*
X36435771Y-104404761D01*
X36435771Y-104404761D02*
X36483390Y-104309523D01*
X36483390Y-104309523D02*
X36531009Y-104261904D01*
X36531009Y-104261904D02*
X36626247Y-104214285D01*
X36626247Y-104214285D02*
X36864342Y-104214285D01*
X36864342Y-104214285D02*
X36959580Y-104261904D01*
X36959580Y-104261904D02*
X37007200Y-104309523D01*
X37007200Y-104309523D02*
X37054819Y-104404761D01*
X37054819Y-104404761D02*
X37054819Y-104642856D01*
X37054819Y-104642856D02*
X37007200Y-104738094D01*
X37007200Y-104738094D02*
X36959580Y-104785713D01*
X37904761Y-98800057D02*
X37809523Y-98752438D01*
X37809523Y-98752438D02*
X37714285Y-98657200D01*
X37714285Y-98657200D02*
X37571428Y-98514342D01*
X37571428Y-98514342D02*
X37476190Y-98466723D01*
X37476190Y-98466723D02*
X37380952Y-98466723D01*
X37428571Y-98704819D02*
X37333333Y-98657200D01*
X37333333Y-98657200D02*
X37238095Y-98561961D01*
X37238095Y-98561961D02*
X37190476Y-98371485D01*
X37190476Y-98371485D02*
X37190476Y-98038152D01*
X37190476Y-98038152D02*
X37238095Y-97847676D01*
X37238095Y-97847676D02*
X37333333Y-97752438D01*
X37333333Y-97752438D02*
X37428571Y-97704819D01*
X37428571Y-97704819D02*
X37619047Y-97704819D01*
X37619047Y-97704819D02*
X37714285Y-97752438D01*
X37714285Y-97752438D02*
X37809523Y-97847676D01*
X37809523Y-97847676D02*
X37857142Y-98038152D01*
X37857142Y-98038152D02*
X37857142Y-98371485D01*
X37857142Y-98371485D02*
X37809523Y-98561961D01*
X37809523Y-98561961D02*
X37714285Y-98657200D01*
X37714285Y-98657200D02*
X37619047Y-98704819D01*
X37619047Y-98704819D02*
X37428571Y-98704819D01*
X38809523Y-98704819D02*
X38238095Y-98704819D01*
X38523809Y-98704819D02*
X38523809Y-97704819D01*
X38523809Y-97704819D02*
X38428571Y-97847676D01*
X38428571Y-97847676D02*
X38333333Y-97942914D01*
X38333333Y-97942914D02*
X38238095Y-97990533D01*
X46261905Y-98454819D02*
X46261905Y-97454819D01*
X46261905Y-97454819D02*
X46500000Y-97454819D01*
X46500000Y-97454819D02*
X46642857Y-97502438D01*
X46642857Y-97502438D02*
X46738095Y-97597676D01*
X46738095Y-97597676D02*
X46785714Y-97692914D01*
X46785714Y-97692914D02*
X46833333Y-97883390D01*
X46833333Y-97883390D02*
X46833333Y-98026247D01*
X46833333Y-98026247D02*
X46785714Y-98216723D01*
X46785714Y-98216723D02*
X46738095Y-98311961D01*
X46738095Y-98311961D02*
X46642857Y-98407200D01*
X46642857Y-98407200D02*
X46500000Y-98454819D01*
X46500000Y-98454819D02*
X46261905Y-98454819D01*
X47214286Y-97550057D02*
X47261905Y-97502438D01*
X47261905Y-97502438D02*
X47357143Y-97454819D01*
X47357143Y-97454819D02*
X47595238Y-97454819D01*
X47595238Y-97454819D02*
X47690476Y-97502438D01*
X47690476Y-97502438D02*
X47738095Y-97550057D01*
X47738095Y-97550057D02*
X47785714Y-97645295D01*
X47785714Y-97645295D02*
X47785714Y-97740533D01*
X47785714Y-97740533D02*
X47738095Y-97883390D01*
X47738095Y-97883390D02*
X47166667Y-98454819D01*
X47166667Y-98454819D02*
X47785714Y-98454819D01*
X26233333Y-108559580D02*
X26185714Y-108607200D01*
X26185714Y-108607200D02*
X26042857Y-108654819D01*
X26042857Y-108654819D02*
X25947619Y-108654819D01*
X25947619Y-108654819D02*
X25804762Y-108607200D01*
X25804762Y-108607200D02*
X25709524Y-108511961D01*
X25709524Y-108511961D02*
X25661905Y-108416723D01*
X25661905Y-108416723D02*
X25614286Y-108226247D01*
X25614286Y-108226247D02*
X25614286Y-108083390D01*
X25614286Y-108083390D02*
X25661905Y-107892914D01*
X25661905Y-107892914D02*
X25709524Y-107797676D01*
X25709524Y-107797676D02*
X25804762Y-107702438D01*
X25804762Y-107702438D02*
X25947619Y-107654819D01*
X25947619Y-107654819D02*
X26042857Y-107654819D01*
X26042857Y-107654819D02*
X26185714Y-107702438D01*
X26185714Y-107702438D02*
X26233333Y-107750057D01*
X27185714Y-108654819D02*
X26614286Y-108654819D01*
X26900000Y-108654819D02*
X26900000Y-107654819D01*
X26900000Y-107654819D02*
X26804762Y-107797676D01*
X26804762Y-107797676D02*
X26709524Y-107892914D01*
X26709524Y-107892914D02*
X26614286Y-107940533D01*
X48583333Y-101204819D02*
X48250000Y-100728628D01*
X48011905Y-101204819D02*
X48011905Y-100204819D01*
X48011905Y-100204819D02*
X48392857Y-100204819D01*
X48392857Y-100204819D02*
X48488095Y-100252438D01*
X48488095Y-100252438D02*
X48535714Y-100300057D01*
X48535714Y-100300057D02*
X48583333Y-100395295D01*
X48583333Y-100395295D02*
X48583333Y-100538152D01*
X48583333Y-100538152D02*
X48535714Y-100633390D01*
X48535714Y-100633390D02*
X48488095Y-100681009D01*
X48488095Y-100681009D02*
X48392857Y-100728628D01*
X48392857Y-100728628D02*
X48011905Y-100728628D01*
X48916667Y-100204819D02*
X49583333Y-100204819D01*
X49583333Y-100204819D02*
X49154762Y-101204819D01*
X64507200Y-34953332D02*
X64554819Y-34810475D01*
X64554819Y-34810475D02*
X64554819Y-34572380D01*
X64554819Y-34572380D02*
X64507200Y-34477142D01*
X64507200Y-34477142D02*
X64459580Y-34429523D01*
X64459580Y-34429523D02*
X64364342Y-34381904D01*
X64364342Y-34381904D02*
X64269104Y-34381904D01*
X64269104Y-34381904D02*
X64173866Y-34429523D01*
X64173866Y-34429523D02*
X64126247Y-34477142D01*
X64126247Y-34477142D02*
X64078628Y-34572380D01*
X64078628Y-34572380D02*
X64031009Y-34762856D01*
X64031009Y-34762856D02*
X63983390Y-34858094D01*
X63983390Y-34858094D02*
X63935771Y-34905713D01*
X63935771Y-34905713D02*
X63840533Y-34953332D01*
X63840533Y-34953332D02*
X63745295Y-34953332D01*
X63745295Y-34953332D02*
X63650057Y-34905713D01*
X63650057Y-34905713D02*
X63602438Y-34858094D01*
X63602438Y-34858094D02*
X63554819Y-34762856D01*
X63554819Y-34762856D02*
X63554819Y-34524761D01*
X63554819Y-34524761D02*
X63602438Y-34381904D01*
X63554819Y-34048570D02*
X64554819Y-33810475D01*
X64554819Y-33810475D02*
X63840533Y-33619999D01*
X63840533Y-33619999D02*
X64554819Y-33429523D01*
X64554819Y-33429523D02*
X63554819Y-33191428D01*
X63554819Y-32905713D02*
X63554819Y-32286666D01*
X63554819Y-32286666D02*
X63935771Y-32619999D01*
X63935771Y-32619999D02*
X63935771Y-32477142D01*
X63935771Y-32477142D02*
X63983390Y-32381904D01*
X63983390Y-32381904D02*
X64031009Y-32334285D01*
X64031009Y-32334285D02*
X64126247Y-32286666D01*
X64126247Y-32286666D02*
X64364342Y-32286666D01*
X64364342Y-32286666D02*
X64459580Y-32334285D01*
X64459580Y-32334285D02*
X64507200Y-32381904D01*
X64507200Y-32381904D02*
X64554819Y-32477142D01*
X64554819Y-32477142D02*
X64554819Y-32762856D01*
X64554819Y-32762856D02*
X64507200Y-32858094D01*
X64507200Y-32858094D02*
X64459580Y-32905713D01*
X57885714Y-102254819D02*
X57885714Y-103064342D01*
X57885714Y-103064342D02*
X57933333Y-103159580D01*
X57933333Y-103159580D02*
X57980952Y-103207200D01*
X57980952Y-103207200D02*
X58076190Y-103254819D01*
X58076190Y-103254819D02*
X58266666Y-103254819D01*
X58266666Y-103254819D02*
X58361904Y-103207200D01*
X58361904Y-103207200D02*
X58409523Y-103159580D01*
X58409523Y-103159580D02*
X58457142Y-103064342D01*
X58457142Y-103064342D02*
X58457142Y-102254819D01*
X59457142Y-103254819D02*
X58885714Y-103254819D01*
X59171428Y-103254819D02*
X59171428Y-102254819D01*
X59171428Y-102254819D02*
X59076190Y-102397676D01*
X59076190Y-102397676D02*
X58980952Y-102492914D01*
X58980952Y-102492914D02*
X58885714Y-102540533D01*
X60076190Y-102254819D02*
X60171428Y-102254819D01*
X60171428Y-102254819D02*
X60266666Y-102302438D01*
X60266666Y-102302438D02*
X60314285Y-102350057D01*
X60314285Y-102350057D02*
X60361904Y-102445295D01*
X60361904Y-102445295D02*
X60409523Y-102635771D01*
X60409523Y-102635771D02*
X60409523Y-102873866D01*
X60409523Y-102873866D02*
X60361904Y-103064342D01*
X60361904Y-103064342D02*
X60314285Y-103159580D01*
X60314285Y-103159580D02*
X60266666Y-103207200D01*
X60266666Y-103207200D02*
X60171428Y-103254819D01*
X60171428Y-103254819D02*
X60076190Y-103254819D01*
X60076190Y-103254819D02*
X59980952Y-103207200D01*
X59980952Y-103207200D02*
X59933333Y-103159580D01*
X59933333Y-103159580D02*
X59885714Y-103064342D01*
X59885714Y-103064342D02*
X59838095Y-102873866D01*
X59838095Y-102873866D02*
X59838095Y-102635771D01*
X59838095Y-102635771D02*
X59885714Y-102445295D01*
X59885714Y-102445295D02*
X59933333Y-102350057D01*
X59933333Y-102350057D02*
X59980952Y-102302438D01*
X59980952Y-102302438D02*
X60076190Y-102254819D01*
X61361904Y-103254819D02*
X60790476Y-103254819D01*
X61076190Y-103254819D02*
X61076190Y-102254819D01*
X61076190Y-102254819D02*
X60980952Y-102397676D01*
X60980952Y-102397676D02*
X60885714Y-102492914D01*
X60885714Y-102492914D02*
X60790476Y-102540533D01*
X34233333Y-112854819D02*
X33900000Y-112378628D01*
X33661905Y-112854819D02*
X33661905Y-111854819D01*
X33661905Y-111854819D02*
X34042857Y-111854819D01*
X34042857Y-111854819D02*
X34138095Y-111902438D01*
X34138095Y-111902438D02*
X34185714Y-111950057D01*
X34185714Y-111950057D02*
X34233333Y-112045295D01*
X34233333Y-112045295D02*
X34233333Y-112188152D01*
X34233333Y-112188152D02*
X34185714Y-112283390D01*
X34185714Y-112283390D02*
X34138095Y-112331009D01*
X34138095Y-112331009D02*
X34042857Y-112378628D01*
X34042857Y-112378628D02*
X33661905Y-112378628D01*
X35090476Y-111854819D02*
X34900000Y-111854819D01*
X34900000Y-111854819D02*
X34804762Y-111902438D01*
X34804762Y-111902438D02*
X34757143Y-111950057D01*
X34757143Y-111950057D02*
X34661905Y-112092914D01*
X34661905Y-112092914D02*
X34614286Y-112283390D01*
X34614286Y-112283390D02*
X34614286Y-112664342D01*
X34614286Y-112664342D02*
X34661905Y-112759580D01*
X34661905Y-112759580D02*
X34709524Y-112807200D01*
X34709524Y-112807200D02*
X34804762Y-112854819D01*
X34804762Y-112854819D02*
X34995238Y-112854819D01*
X34995238Y-112854819D02*
X35090476Y-112807200D01*
X35090476Y-112807200D02*
X35138095Y-112759580D01*
X35138095Y-112759580D02*
X35185714Y-112664342D01*
X35185714Y-112664342D02*
X35185714Y-112426247D01*
X35185714Y-112426247D02*
X35138095Y-112331009D01*
X35138095Y-112331009D02*
X35090476Y-112283390D01*
X35090476Y-112283390D02*
X34995238Y-112235771D01*
X34995238Y-112235771D02*
X34804762Y-112235771D01*
X34804762Y-112235771D02*
X34709524Y-112283390D01*
X34709524Y-112283390D02*
X34661905Y-112331009D01*
X34661905Y-112331009D02*
X34614286Y-112426247D01*
X61033333Y-98759580D02*
X60985714Y-98807200D01*
X60985714Y-98807200D02*
X60842857Y-98854819D01*
X60842857Y-98854819D02*
X60747619Y-98854819D01*
X60747619Y-98854819D02*
X60604762Y-98807200D01*
X60604762Y-98807200D02*
X60509524Y-98711961D01*
X60509524Y-98711961D02*
X60461905Y-98616723D01*
X60461905Y-98616723D02*
X60414286Y-98426247D01*
X60414286Y-98426247D02*
X60414286Y-98283390D01*
X60414286Y-98283390D02*
X60461905Y-98092914D01*
X60461905Y-98092914D02*
X60509524Y-97997676D01*
X60509524Y-97997676D02*
X60604762Y-97902438D01*
X60604762Y-97902438D02*
X60747619Y-97854819D01*
X60747619Y-97854819D02*
X60842857Y-97854819D01*
X60842857Y-97854819D02*
X60985714Y-97902438D01*
X60985714Y-97902438D02*
X61033333Y-97950057D01*
X61938095Y-97854819D02*
X61461905Y-97854819D01*
X61461905Y-97854819D02*
X61414286Y-98331009D01*
X61414286Y-98331009D02*
X61461905Y-98283390D01*
X61461905Y-98283390D02*
X61557143Y-98235771D01*
X61557143Y-98235771D02*
X61795238Y-98235771D01*
X61795238Y-98235771D02*
X61890476Y-98283390D01*
X61890476Y-98283390D02*
X61938095Y-98331009D01*
X61938095Y-98331009D02*
X61985714Y-98426247D01*
X61985714Y-98426247D02*
X61985714Y-98664342D01*
X61985714Y-98664342D02*
X61938095Y-98759580D01*
X61938095Y-98759580D02*
X61890476Y-98807200D01*
X61890476Y-98807200D02*
X61795238Y-98854819D01*
X61795238Y-98854819D02*
X61557143Y-98854819D01*
X61557143Y-98854819D02*
X61461905Y-98807200D01*
X61461905Y-98807200D02*
X61414286Y-98759580D01*
X36960927Y-78954193D02*
X36960927Y-79764660D01*
X36960927Y-79764660D02*
X37008602Y-79860009D01*
X37008602Y-79860009D02*
X37056276Y-79907684D01*
X37056276Y-79907684D02*
X37151625Y-79955358D01*
X37151625Y-79955358D02*
X37342323Y-79955358D01*
X37342323Y-79955358D02*
X37437672Y-79907684D01*
X37437672Y-79907684D02*
X37485347Y-79860009D01*
X37485347Y-79860009D02*
X37533021Y-79764660D01*
X37533021Y-79764660D02*
X37533021Y-78954193D01*
X37962093Y-79049542D02*
X38009767Y-79001868D01*
X38009767Y-79001868D02*
X38105116Y-78954193D01*
X38105116Y-78954193D02*
X38343489Y-78954193D01*
X38343489Y-78954193D02*
X38438838Y-79001868D01*
X38438838Y-79001868D02*
X38486512Y-79049542D01*
X38486512Y-79049542D02*
X38534187Y-79144891D01*
X38534187Y-79144891D02*
X38534187Y-79240240D01*
X38534187Y-79240240D02*
X38486512Y-79383264D01*
X38486512Y-79383264D02*
X37914418Y-79955358D01*
X37914418Y-79955358D02*
X38534187Y-79955358D01*
X39153955Y-78954193D02*
X39249304Y-78954193D01*
X39249304Y-78954193D02*
X39344653Y-79001868D01*
X39344653Y-79001868D02*
X39392328Y-79049542D01*
X39392328Y-79049542D02*
X39440002Y-79144891D01*
X39440002Y-79144891D02*
X39487677Y-79335589D01*
X39487677Y-79335589D02*
X39487677Y-79573962D01*
X39487677Y-79573962D02*
X39440002Y-79764660D01*
X39440002Y-79764660D02*
X39392328Y-79860009D01*
X39392328Y-79860009D02*
X39344653Y-79907684D01*
X39344653Y-79907684D02*
X39249304Y-79955358D01*
X39249304Y-79955358D02*
X39153955Y-79955358D01*
X39153955Y-79955358D02*
X39058606Y-79907684D01*
X39058606Y-79907684D02*
X39010932Y-79860009D01*
X39010932Y-79860009D02*
X38963257Y-79764660D01*
X38963257Y-79764660D02*
X38915583Y-79573962D01*
X38915583Y-79573962D02*
X38915583Y-79335589D01*
X38915583Y-79335589D02*
X38963257Y-79144891D01*
X38963257Y-79144891D02*
X39010932Y-79049542D01*
X39010932Y-79049542D02*
X39058606Y-79001868D01*
X39058606Y-79001868D02*
X39153955Y-78954193D01*
X40441167Y-79955358D02*
X39869073Y-79955358D01*
X40155120Y-79955358D02*
X40155120Y-78954193D01*
X40155120Y-78954193D02*
X40059771Y-79097217D01*
X40059771Y-79097217D02*
X39964422Y-79192566D01*
X39964422Y-79192566D02*
X39869073Y-79240240D01*
X37176871Y-90820514D02*
X37176871Y-89820136D01*
X37176871Y-89820136D02*
X37415056Y-89820136D01*
X37415056Y-89820136D02*
X37557967Y-89867773D01*
X37557967Y-89867773D02*
X37653241Y-89963047D01*
X37653241Y-89963047D02*
X37700878Y-90058321D01*
X37700878Y-90058321D02*
X37748515Y-90248869D01*
X37748515Y-90248869D02*
X37748515Y-90391780D01*
X37748515Y-90391780D02*
X37700878Y-90582328D01*
X37700878Y-90582328D02*
X37653241Y-90677602D01*
X37653241Y-90677602D02*
X37557967Y-90772877D01*
X37557967Y-90772877D02*
X37415056Y-90820514D01*
X37415056Y-90820514D02*
X37176871Y-90820514D01*
X38129612Y-90534691D02*
X38605982Y-90534691D01*
X38034338Y-90820514D02*
X38367797Y-89820136D01*
X38367797Y-89820136D02*
X38701256Y-90820514D01*
X38987079Y-89915410D02*
X39034716Y-89867773D01*
X39034716Y-89867773D02*
X39129990Y-89820136D01*
X39129990Y-89820136D02*
X39368175Y-89820136D01*
X39368175Y-89820136D02*
X39463449Y-89867773D01*
X39463449Y-89867773D02*
X39511086Y-89915410D01*
X39511086Y-89915410D02*
X39558723Y-90010684D01*
X39558723Y-90010684D02*
X39558723Y-90105958D01*
X39558723Y-90105958D02*
X39511086Y-90248869D01*
X39511086Y-90248869D02*
X38939442Y-90820514D01*
X38939442Y-90820514D02*
X39558723Y-90820514D01*
X40178005Y-89820136D02*
X40273279Y-89820136D01*
X40273279Y-89820136D02*
X40368553Y-89867773D01*
X40368553Y-89867773D02*
X40416190Y-89915410D01*
X40416190Y-89915410D02*
X40463827Y-90010684D01*
X40463827Y-90010684D02*
X40511464Y-90201232D01*
X40511464Y-90201232D02*
X40511464Y-90439417D01*
X40511464Y-90439417D02*
X40463827Y-90629965D01*
X40463827Y-90629965D02*
X40416190Y-90725239D01*
X40416190Y-90725239D02*
X40368553Y-90772877D01*
X40368553Y-90772877D02*
X40273279Y-90820514D01*
X40273279Y-90820514D02*
X40178005Y-90820514D01*
X40178005Y-90820514D02*
X40082731Y-90772877D01*
X40082731Y-90772877D02*
X40035094Y-90725239D01*
X40035094Y-90725239D02*
X39987457Y-90629965D01*
X39987457Y-90629965D02*
X39939820Y-90439417D01*
X39939820Y-90439417D02*
X39939820Y-90201232D01*
X39939820Y-90201232D02*
X39987457Y-90010684D01*
X39987457Y-90010684D02*
X40035094Y-89915410D01*
X40035094Y-89915410D02*
X40082731Y-89867773D01*
X40082731Y-89867773D02*
X40178005Y-89820136D01*
X40844924Y-89820136D02*
X41464205Y-89820136D01*
X41464205Y-89820136D02*
X41130746Y-90201232D01*
X41130746Y-90201232D02*
X41273657Y-90201232D01*
X41273657Y-90201232D02*
X41368931Y-90248869D01*
X41368931Y-90248869D02*
X41416568Y-90296506D01*
X41416568Y-90296506D02*
X41464205Y-90391780D01*
X41464205Y-90391780D02*
X41464205Y-90629965D01*
X41464205Y-90629965D02*
X41416568Y-90725239D01*
X41416568Y-90725239D02*
X41368931Y-90772877D01*
X41368931Y-90772877D02*
X41273657Y-90820514D01*
X41273657Y-90820514D02*
X40987835Y-90820514D01*
X40987835Y-90820514D02*
X40892561Y-90772877D01*
X40892561Y-90772877D02*
X40844924Y-90725239D01*
X41845302Y-89915410D02*
X41892939Y-89867773D01*
X41892939Y-89867773D02*
X41988213Y-89820136D01*
X41988213Y-89820136D02*
X42226398Y-89820136D01*
X42226398Y-89820136D02*
X42321672Y-89867773D01*
X42321672Y-89867773D02*
X42369309Y-89915410D01*
X42369309Y-89915410D02*
X42416946Y-90010684D01*
X42416946Y-90010684D02*
X42416946Y-90105958D01*
X42416946Y-90105958D02*
X42369309Y-90248869D01*
X42369309Y-90248869D02*
X41797665Y-90820514D01*
X41797665Y-90820514D02*
X42416946Y-90820514D01*
X42845680Y-90439417D02*
X43607873Y-90439417D01*
X44036606Y-90534691D02*
X44512976Y-90534691D01*
X43941332Y-90820514D02*
X44274791Y-89820136D01*
X44274791Y-89820136D02*
X44608250Y-90820514D01*
X45418080Y-90820514D02*
X44941710Y-90820514D01*
X44941710Y-90820514D02*
X44941710Y-89820136D01*
X48607142Y-101454819D02*
X48273809Y-100978628D01*
X48035714Y-101454819D02*
X48035714Y-100454819D01*
X48035714Y-100454819D02*
X48416666Y-100454819D01*
X48416666Y-100454819D02*
X48511904Y-100502438D01*
X48511904Y-100502438D02*
X48559523Y-100550057D01*
X48559523Y-100550057D02*
X48607142Y-100645295D01*
X48607142Y-100645295D02*
X48607142Y-100788152D01*
X48607142Y-100788152D02*
X48559523Y-100883390D01*
X48559523Y-100883390D02*
X48511904Y-100931009D01*
X48511904Y-100931009D02*
X48416666Y-100978628D01*
X48416666Y-100978628D02*
X48035714Y-100978628D01*
X49559523Y-101454819D02*
X48988095Y-101454819D01*
X49273809Y-101454819D02*
X49273809Y-100454819D01*
X49273809Y-100454819D02*
X49178571Y-100597676D01*
X49178571Y-100597676D02*
X49083333Y-100692914D01*
X49083333Y-100692914D02*
X48988095Y-100740533D01*
X50178571Y-100454819D02*
X50273809Y-100454819D01*
X50273809Y-100454819D02*
X50369047Y-100502438D01*
X50369047Y-100502438D02*
X50416666Y-100550057D01*
X50416666Y-100550057D02*
X50464285Y-100645295D01*
X50464285Y-100645295D02*
X50511904Y-100835771D01*
X50511904Y-100835771D02*
X50511904Y-101073866D01*
X50511904Y-101073866D02*
X50464285Y-101264342D01*
X50464285Y-101264342D02*
X50416666Y-101359580D01*
X50416666Y-101359580D02*
X50369047Y-101407200D01*
X50369047Y-101407200D02*
X50273809Y-101454819D01*
X50273809Y-101454819D02*
X50178571Y-101454819D01*
X50178571Y-101454819D02*
X50083333Y-101407200D01*
X50083333Y-101407200D02*
X50035714Y-101359580D01*
X50035714Y-101359580D02*
X49988095Y-101264342D01*
X49988095Y-101264342D02*
X49940476Y-101073866D01*
X49940476Y-101073866D02*
X49940476Y-100835771D01*
X49940476Y-100835771D02*
X49988095Y-100645295D01*
X49988095Y-100645295D02*
X50035714Y-100550057D01*
X50035714Y-100550057D02*
X50083333Y-100502438D01*
X50083333Y-100502438D02*
X50178571Y-100454819D01*
X29633333Y-98854819D02*
X29300000Y-98378628D01*
X29061905Y-98854819D02*
X29061905Y-97854819D01*
X29061905Y-97854819D02*
X29442857Y-97854819D01*
X29442857Y-97854819D02*
X29538095Y-97902438D01*
X29538095Y-97902438D02*
X29585714Y-97950057D01*
X29585714Y-97950057D02*
X29633333Y-98045295D01*
X29633333Y-98045295D02*
X29633333Y-98188152D01*
X29633333Y-98188152D02*
X29585714Y-98283390D01*
X29585714Y-98283390D02*
X29538095Y-98331009D01*
X29538095Y-98331009D02*
X29442857Y-98378628D01*
X29442857Y-98378628D02*
X29061905Y-98378628D01*
X30490476Y-98188152D02*
X30490476Y-98854819D01*
X30252381Y-97807200D02*
X30014286Y-98521485D01*
X30014286Y-98521485D02*
X30633333Y-98521485D01*
X27033333Y-102054819D02*
X26700000Y-101578628D01*
X26461905Y-102054819D02*
X26461905Y-101054819D01*
X26461905Y-101054819D02*
X26842857Y-101054819D01*
X26842857Y-101054819D02*
X26938095Y-101102438D01*
X26938095Y-101102438D02*
X26985714Y-101150057D01*
X26985714Y-101150057D02*
X27033333Y-101245295D01*
X27033333Y-101245295D02*
X27033333Y-101388152D01*
X27033333Y-101388152D02*
X26985714Y-101483390D01*
X26985714Y-101483390D02*
X26938095Y-101531009D01*
X26938095Y-101531009D02*
X26842857Y-101578628D01*
X26842857Y-101578628D02*
X26461905Y-101578628D01*
X27366667Y-101054819D02*
X27985714Y-101054819D01*
X27985714Y-101054819D02*
X27652381Y-101435771D01*
X27652381Y-101435771D02*
X27795238Y-101435771D01*
X27795238Y-101435771D02*
X27890476Y-101483390D01*
X27890476Y-101483390D02*
X27938095Y-101531009D01*
X27938095Y-101531009D02*
X27985714Y-101626247D01*
X27985714Y-101626247D02*
X27985714Y-101864342D01*
X27985714Y-101864342D02*
X27938095Y-101959580D01*
X27938095Y-101959580D02*
X27890476Y-102007200D01*
X27890476Y-102007200D02*
X27795238Y-102054819D01*
X27795238Y-102054819D02*
X27509524Y-102054819D01*
X27509524Y-102054819D02*
X27414286Y-102007200D01*
X27414286Y-102007200D02*
X27366667Y-101959580D01*
X26033333Y-106159580D02*
X25985714Y-106207200D01*
X25985714Y-106207200D02*
X25842857Y-106254819D01*
X25842857Y-106254819D02*
X25747619Y-106254819D01*
X25747619Y-106254819D02*
X25604762Y-106207200D01*
X25604762Y-106207200D02*
X25509524Y-106111961D01*
X25509524Y-106111961D02*
X25461905Y-106016723D01*
X25461905Y-106016723D02*
X25414286Y-105826247D01*
X25414286Y-105826247D02*
X25414286Y-105683390D01*
X25414286Y-105683390D02*
X25461905Y-105492914D01*
X25461905Y-105492914D02*
X25509524Y-105397676D01*
X25509524Y-105397676D02*
X25604762Y-105302438D01*
X25604762Y-105302438D02*
X25747619Y-105254819D01*
X25747619Y-105254819D02*
X25842857Y-105254819D01*
X25842857Y-105254819D02*
X25985714Y-105302438D01*
X25985714Y-105302438D02*
X26033333Y-105350057D01*
X26890476Y-105588152D02*
X26890476Y-106254819D01*
X26652381Y-105207200D02*
X26414286Y-105921485D01*
X26414286Y-105921485D02*
X27033333Y-105921485D01*
X68266666Y-105454819D02*
X68266666Y-106169104D01*
X68266666Y-106169104D02*
X68219047Y-106311961D01*
X68219047Y-106311961D02*
X68123809Y-106407200D01*
X68123809Y-106407200D02*
X67980952Y-106454819D01*
X67980952Y-106454819D02*
X67885714Y-106454819D01*
X68695238Y-105550057D02*
X68742857Y-105502438D01*
X68742857Y-105502438D02*
X68838095Y-105454819D01*
X68838095Y-105454819D02*
X69076190Y-105454819D01*
X69076190Y-105454819D02*
X69171428Y-105502438D01*
X69171428Y-105502438D02*
X69219047Y-105550057D01*
X69219047Y-105550057D02*
X69266666Y-105645295D01*
X69266666Y-105645295D02*
X69266666Y-105740533D01*
X69266666Y-105740533D02*
X69219047Y-105883390D01*
X69219047Y-105883390D02*
X68647619Y-106454819D01*
X68647619Y-106454819D02*
X69266666Y-106454819D01*
X64266666Y-105234819D02*
X64266666Y-105949104D01*
X64266666Y-105949104D02*
X64219047Y-106091961D01*
X64219047Y-106091961D02*
X64123809Y-106187200D01*
X64123809Y-106187200D02*
X63980952Y-106234819D01*
X63980952Y-106234819D02*
X63885714Y-106234819D01*
X65266666Y-106234819D02*
X64695238Y-106234819D01*
X64980952Y-106234819D02*
X64980952Y-105234819D01*
X64980952Y-105234819D02*
X64885714Y-105377676D01*
X64885714Y-105377676D02*
X64790476Y-105472914D01*
X64790476Y-105472914D02*
X64695238Y-105520533D01*
X27433333Y-110559580D02*
X27385714Y-110607200D01*
X27385714Y-110607200D02*
X27242857Y-110654819D01*
X27242857Y-110654819D02*
X27147619Y-110654819D01*
X27147619Y-110654819D02*
X27004762Y-110607200D01*
X27004762Y-110607200D02*
X26909524Y-110511961D01*
X26909524Y-110511961D02*
X26861905Y-110416723D01*
X26861905Y-110416723D02*
X26814286Y-110226247D01*
X26814286Y-110226247D02*
X26814286Y-110083390D01*
X26814286Y-110083390D02*
X26861905Y-109892914D01*
X26861905Y-109892914D02*
X26909524Y-109797676D01*
X26909524Y-109797676D02*
X27004762Y-109702438D01*
X27004762Y-109702438D02*
X27147619Y-109654819D01*
X27147619Y-109654819D02*
X27242857Y-109654819D01*
X27242857Y-109654819D02*
X27385714Y-109702438D01*
X27385714Y-109702438D02*
X27433333Y-109750057D01*
X27766667Y-109654819D02*
X28385714Y-109654819D01*
X28385714Y-109654819D02*
X28052381Y-110035771D01*
X28052381Y-110035771D02*
X28195238Y-110035771D01*
X28195238Y-110035771D02*
X28290476Y-110083390D01*
X28290476Y-110083390D02*
X28338095Y-110131009D01*
X28338095Y-110131009D02*
X28385714Y-110226247D01*
X28385714Y-110226247D02*
X28385714Y-110464342D01*
X28385714Y-110464342D02*
X28338095Y-110559580D01*
X28338095Y-110559580D02*
X28290476Y-110607200D01*
X28290476Y-110607200D02*
X28195238Y-110654819D01*
X28195238Y-110654819D02*
X27909524Y-110654819D01*
X27909524Y-110654819D02*
X27814286Y-110607200D01*
X27814286Y-110607200D02*
X27766667Y-110559580D01*
X27433333Y-105159580D02*
X27385714Y-105207200D01*
X27385714Y-105207200D02*
X27242857Y-105254819D01*
X27242857Y-105254819D02*
X27147619Y-105254819D01*
X27147619Y-105254819D02*
X27004762Y-105207200D01*
X27004762Y-105207200D02*
X26909524Y-105111961D01*
X26909524Y-105111961D02*
X26861905Y-105016723D01*
X26861905Y-105016723D02*
X26814286Y-104826247D01*
X26814286Y-104826247D02*
X26814286Y-104683390D01*
X26814286Y-104683390D02*
X26861905Y-104492914D01*
X26861905Y-104492914D02*
X26909524Y-104397676D01*
X26909524Y-104397676D02*
X27004762Y-104302438D01*
X27004762Y-104302438D02*
X27147619Y-104254819D01*
X27147619Y-104254819D02*
X27242857Y-104254819D01*
X27242857Y-104254819D02*
X27385714Y-104302438D01*
X27385714Y-104302438D02*
X27433333Y-104350057D01*
X27814286Y-104350057D02*
X27861905Y-104302438D01*
X27861905Y-104302438D02*
X27957143Y-104254819D01*
X27957143Y-104254819D02*
X28195238Y-104254819D01*
X28195238Y-104254819D02*
X28290476Y-104302438D01*
X28290476Y-104302438D02*
X28338095Y-104350057D01*
X28338095Y-104350057D02*
X28385714Y-104445295D01*
X28385714Y-104445295D02*
X28385714Y-104540533D01*
X28385714Y-104540533D02*
X28338095Y-104683390D01*
X28338095Y-104683390D02*
X27766667Y-105254819D01*
X27766667Y-105254819D02*
X28385714Y-105254819D01*
X34438095Y-107654819D02*
X34438095Y-108464342D01*
X34438095Y-108464342D02*
X34485714Y-108559580D01*
X34485714Y-108559580D02*
X34533333Y-108607200D01*
X34533333Y-108607200D02*
X34628571Y-108654819D01*
X34628571Y-108654819D02*
X34819047Y-108654819D01*
X34819047Y-108654819D02*
X34914285Y-108607200D01*
X34914285Y-108607200D02*
X34961904Y-108559580D01*
X34961904Y-108559580D02*
X35009523Y-108464342D01*
X35009523Y-108464342D02*
X35009523Y-107654819D01*
X36009523Y-108654819D02*
X35438095Y-108654819D01*
X35723809Y-108654819D02*
X35723809Y-107654819D01*
X35723809Y-107654819D02*
X35628571Y-107797676D01*
X35628571Y-107797676D02*
X35533333Y-107892914D01*
X35533333Y-107892914D02*
X35438095Y-107940533D01*
X27433333Y-104054819D02*
X27100000Y-103578628D01*
X26861905Y-104054819D02*
X26861905Y-103054819D01*
X26861905Y-103054819D02*
X27242857Y-103054819D01*
X27242857Y-103054819D02*
X27338095Y-103102438D01*
X27338095Y-103102438D02*
X27385714Y-103150057D01*
X27385714Y-103150057D02*
X27433333Y-103245295D01*
X27433333Y-103245295D02*
X27433333Y-103388152D01*
X27433333Y-103388152D02*
X27385714Y-103483390D01*
X27385714Y-103483390D02*
X27338095Y-103531009D01*
X27338095Y-103531009D02*
X27242857Y-103578628D01*
X27242857Y-103578628D02*
X26861905Y-103578628D01*
X27814286Y-103150057D02*
X27861905Y-103102438D01*
X27861905Y-103102438D02*
X27957143Y-103054819D01*
X27957143Y-103054819D02*
X28195238Y-103054819D01*
X28195238Y-103054819D02*
X28290476Y-103102438D01*
X28290476Y-103102438D02*
X28338095Y-103150057D01*
X28338095Y-103150057D02*
X28385714Y-103245295D01*
X28385714Y-103245295D02*
X28385714Y-103340533D01*
X28385714Y-103340533D02*
X28338095Y-103483390D01*
X28338095Y-103483390D02*
X27766667Y-104054819D01*
X27766667Y-104054819D02*
X28385714Y-104054819D01*
X58233333Y-91054819D02*
X57900000Y-90578628D01*
X57661905Y-91054819D02*
X57661905Y-90054819D01*
X57661905Y-90054819D02*
X58042857Y-90054819D01*
X58042857Y-90054819D02*
X58138095Y-90102438D01*
X58138095Y-90102438D02*
X58185714Y-90150057D01*
X58185714Y-90150057D02*
X58233333Y-90245295D01*
X58233333Y-90245295D02*
X58233333Y-90388152D01*
X58233333Y-90388152D02*
X58185714Y-90483390D01*
X58185714Y-90483390D02*
X58138095Y-90531009D01*
X58138095Y-90531009D02*
X58042857Y-90578628D01*
X58042857Y-90578628D02*
X57661905Y-90578628D01*
X58804762Y-90483390D02*
X58709524Y-90435771D01*
X58709524Y-90435771D02*
X58661905Y-90388152D01*
X58661905Y-90388152D02*
X58614286Y-90292914D01*
X58614286Y-90292914D02*
X58614286Y-90245295D01*
X58614286Y-90245295D02*
X58661905Y-90150057D01*
X58661905Y-90150057D02*
X58709524Y-90102438D01*
X58709524Y-90102438D02*
X58804762Y-90054819D01*
X58804762Y-90054819D02*
X58995238Y-90054819D01*
X58995238Y-90054819D02*
X59090476Y-90102438D01*
X59090476Y-90102438D02*
X59138095Y-90150057D01*
X59138095Y-90150057D02*
X59185714Y-90245295D01*
X59185714Y-90245295D02*
X59185714Y-90292914D01*
X59185714Y-90292914D02*
X59138095Y-90388152D01*
X59138095Y-90388152D02*
X59090476Y-90435771D01*
X59090476Y-90435771D02*
X58995238Y-90483390D01*
X58995238Y-90483390D02*
X58804762Y-90483390D01*
X58804762Y-90483390D02*
X58709524Y-90531009D01*
X58709524Y-90531009D02*
X58661905Y-90578628D01*
X58661905Y-90578628D02*
X58614286Y-90673866D01*
X58614286Y-90673866D02*
X58614286Y-90864342D01*
X58614286Y-90864342D02*
X58661905Y-90959580D01*
X58661905Y-90959580D02*
X58709524Y-91007200D01*
X58709524Y-91007200D02*
X58804762Y-91054819D01*
X58804762Y-91054819D02*
X58995238Y-91054819D01*
X58995238Y-91054819D02*
X59090476Y-91007200D01*
X59090476Y-91007200D02*
X59138095Y-90959580D01*
X59138095Y-90959580D02*
X59185714Y-90864342D01*
X59185714Y-90864342D02*
X59185714Y-90673866D01*
X59185714Y-90673866D02*
X59138095Y-90578628D01*
X59138095Y-90578628D02*
X59090476Y-90531009D01*
X59090476Y-90531009D02*
X58995238Y-90483390D01*
X52461905Y-84454819D02*
X52461905Y-83454819D01*
X52461905Y-83454819D02*
X52700000Y-83454819D01*
X52700000Y-83454819D02*
X52842857Y-83502438D01*
X52842857Y-83502438D02*
X52938095Y-83597676D01*
X52938095Y-83597676D02*
X52985714Y-83692914D01*
X52985714Y-83692914D02*
X53033333Y-83883390D01*
X53033333Y-83883390D02*
X53033333Y-84026247D01*
X53033333Y-84026247D02*
X52985714Y-84216723D01*
X52985714Y-84216723D02*
X52938095Y-84311961D01*
X52938095Y-84311961D02*
X52842857Y-84407200D01*
X52842857Y-84407200D02*
X52700000Y-84454819D01*
X52700000Y-84454819D02*
X52461905Y-84454819D01*
X53985714Y-84454819D02*
X53414286Y-84454819D01*
X53700000Y-84454819D02*
X53700000Y-83454819D01*
X53700000Y-83454819D02*
X53604762Y-83597676D01*
X53604762Y-83597676D02*
X53509524Y-83692914D01*
X53509524Y-83692914D02*
X53414286Y-83740533D01*
X45511905Y-101454819D02*
X45511905Y-100454819D01*
X45511905Y-100454819D02*
X45750000Y-100454819D01*
X45750000Y-100454819D02*
X45892857Y-100502438D01*
X45892857Y-100502438D02*
X45988095Y-100597676D01*
X45988095Y-100597676D02*
X46035714Y-100692914D01*
X46035714Y-100692914D02*
X46083333Y-100883390D01*
X46083333Y-100883390D02*
X46083333Y-101026247D01*
X46083333Y-101026247D02*
X46035714Y-101216723D01*
X46035714Y-101216723D02*
X45988095Y-101311961D01*
X45988095Y-101311961D02*
X45892857Y-101407200D01*
X45892857Y-101407200D02*
X45750000Y-101454819D01*
X45750000Y-101454819D02*
X45511905Y-101454819D01*
X46416667Y-100454819D02*
X47035714Y-100454819D01*
X47035714Y-100454819D02*
X46702381Y-100835771D01*
X46702381Y-100835771D02*
X46845238Y-100835771D01*
X46845238Y-100835771D02*
X46940476Y-100883390D01*
X46940476Y-100883390D02*
X46988095Y-100931009D01*
X46988095Y-100931009D02*
X47035714Y-101026247D01*
X47035714Y-101026247D02*
X47035714Y-101264342D01*
X47035714Y-101264342D02*
X46988095Y-101359580D01*
X46988095Y-101359580D02*
X46940476Y-101407200D01*
X46940476Y-101407200D02*
X46845238Y-101454819D01*
X46845238Y-101454819D02*
X46559524Y-101454819D01*
X46559524Y-101454819D02*
X46464286Y-101407200D01*
X46464286Y-101407200D02*
X46416667Y-101359580D01*
X29433333Y-111654819D02*
X29100000Y-111178628D01*
X28861905Y-111654819D02*
X28861905Y-110654819D01*
X28861905Y-110654819D02*
X29242857Y-110654819D01*
X29242857Y-110654819D02*
X29338095Y-110702438D01*
X29338095Y-110702438D02*
X29385714Y-110750057D01*
X29385714Y-110750057D02*
X29433333Y-110845295D01*
X29433333Y-110845295D02*
X29433333Y-110988152D01*
X29433333Y-110988152D02*
X29385714Y-111083390D01*
X29385714Y-111083390D02*
X29338095Y-111131009D01*
X29338095Y-111131009D02*
X29242857Y-111178628D01*
X29242857Y-111178628D02*
X28861905Y-111178628D01*
X30385714Y-111654819D02*
X29814286Y-111654819D01*
X30100000Y-111654819D02*
X30100000Y-110654819D01*
X30100000Y-110654819D02*
X30004762Y-110797676D01*
X30004762Y-110797676D02*
X29909524Y-110892914D01*
X29909524Y-110892914D02*
X29814286Y-110940533D01*
D12*
%TO.C,J4*%
X58282978Y-37029200D02*
X60773961Y-37029200D01*
X63446041Y-37029200D02*
X64632978Y-37029200D01*
X64632978Y-37029200D02*
X64632978Y-26970800D01*
X58282978Y-26970800D02*
X58282978Y-37029200D01*
X60773961Y-26970800D02*
X58282978Y-26970800D01*
X64632978Y-26970800D02*
X63446041Y-26970800D01*
D13*
X60491000Y-37664200D02*
G75*
G02*
X59729000Y-37664200I-381000J0D01*
G01*
X59729000Y-37664200D02*
G75*
G02*
X60491000Y-37664200I381000J0D01*
G01*
D14*
%TO.C,R9*%
X56380000Y-89046359D02*
X56380000Y-89353641D01*
X55620000Y-89046359D02*
X55620000Y-89353641D01*
%TO.C,R5*%
X35020000Y-105153641D02*
X35020000Y-104846359D01*
X35780000Y-105153641D02*
X35780000Y-104846359D01*
D12*
%TO.C,Q1*%
X39427000Y-99072999D02*
X36573000Y-99072999D01*
X36573000Y-99072999D02*
X36573000Y-99425960D01*
X39427000Y-100227460D02*
X39427000Y-99072999D01*
X36573000Y-100574040D02*
X36573000Y-100887860D01*
X36573000Y-102112140D02*
X36573000Y-102425960D01*
X36573000Y-103574040D02*
X36573000Y-103927001D01*
X39427000Y-103927001D02*
X39427000Y-102772540D01*
X36573000Y-103927001D02*
X39427000Y-103927001D01*
X35988800Y-97930000D02*
G75*
G02*
X35734800Y-97930000I-127000J0D01*
G01*
X35734800Y-97930000D02*
G75*
G02*
X35988800Y-97930000I127000J0D01*
G01*
D14*
%TO.C,D2*%
X47735000Y-100235000D02*
X47735000Y-98765000D01*
X47735000Y-98765000D02*
X45450000Y-98765000D01*
X45450000Y-100235000D02*
X47735000Y-100235000D01*
%TO.C,C1*%
X29261252Y-109135000D02*
X28738748Y-109135000D01*
X29261252Y-107665000D02*
X28738748Y-107665000D01*
%TO.C,R7*%
X48846359Y-99120000D02*
X49153641Y-99120000D01*
X48846359Y-99880000D02*
X49153641Y-99880000D01*
%TO.C,SW3*%
X64900000Y-36970000D02*
X64900000Y-30270000D01*
X65350000Y-36970000D02*
X64900000Y-36970000D01*
X69350000Y-36970000D02*
X66650000Y-36970000D01*
X70650000Y-36970000D02*
X71100000Y-36970000D01*
X71100000Y-36970000D02*
X71100000Y-30270000D01*
X64900000Y-30270000D02*
X65350000Y-30270000D01*
X66650000Y-30270000D02*
X69350000Y-30270000D01*
X71100000Y-30270000D02*
X70700000Y-30270000D01*
D12*
%TO.C,U101*%
X56627000Y-100372999D02*
X53773000Y-100372999D01*
X53773000Y-100372999D02*
X53773000Y-100725960D01*
X56627000Y-101527460D02*
X56627000Y-100372999D01*
X53773000Y-101874040D02*
X53773000Y-102187860D01*
X53773000Y-103412140D02*
X53773000Y-103725960D01*
X53773000Y-104874040D02*
X53773000Y-105227001D01*
X56627000Y-105227001D02*
X56627000Y-104072540D01*
X53773000Y-105227001D02*
X56627000Y-105227001D01*
X53188800Y-99230000D02*
G75*
G02*
X52934800Y-99230000I-127000J0D01*
G01*
X52934800Y-99230000D02*
G75*
G02*
X53188800Y-99230000I127000J0D01*
G01*
D14*
%TO.C,R6*%
X32620000Y-111953641D02*
X32620000Y-111646359D01*
X33380000Y-111953641D02*
X33380000Y-111646359D01*
D11*
%TO.C,REF\u002A\u002A*%
X46450621Y-44770399D02*
X46450621Y-49670399D01*
X46450621Y-49670399D02*
X46450621Y-66370399D01*
X46450621Y-66370399D02*
X46450621Y-79643399D01*
X46450621Y-79643399D02*
X54581819Y-79643399D01*
X52350621Y-44770399D02*
X46450621Y-44770399D01*
X53350621Y-44770399D02*
X52350621Y-44770399D01*
X54581819Y-42643399D02*
X56602545Y-39143398D01*
X54581819Y-44770399D02*
X53350621Y-44770399D01*
X54581819Y-44770399D02*
X54581819Y-42643399D01*
X54581819Y-79643399D02*
X56602546Y-83143400D01*
X61798696Y-39143399D02*
X61798697Y-39143399D01*
X61798696Y-83143400D02*
X63819423Y-79643399D01*
X61798697Y-39143399D02*
X63819423Y-42643399D01*
X63819423Y-42643399D02*
X64650621Y-42643399D01*
X63819423Y-79643399D02*
X71950621Y-79643399D01*
X64650621Y-49670399D02*
X64650621Y-42643399D01*
X67650621Y-42643399D02*
X71950621Y-42643399D01*
X67650621Y-49670399D02*
X64650621Y-49670399D01*
X67650621Y-49670399D02*
X67650621Y-42643399D01*
X71950621Y-42643399D02*
X71950621Y-79643399D01*
X56602545Y-39143398D02*
G75*
G02*
X61798696Y-39143399I2598075J-1500002D01*
G01*
X61798696Y-83143400D02*
G75*
G02*
X56602546Y-83143400I-2598075J1500000D01*
G01*
X60450621Y-40643399D02*
G75*
G02*
X57950621Y-40643399I-1250000J0D01*
G01*
X57950621Y-40643399D02*
G75*
G02*
X60450621Y-40643399I1250000J0D01*
G01*
X60450621Y-81643399D02*
G75*
G02*
X57950621Y-81643399I-1250000J0D01*
G01*
X57950621Y-81643399D02*
G75*
G02*
X60450621Y-81643399I1250000J0D01*
G01*
D14*
%TO.C,C5*%
X52287651Y-93485000D02*
X53087651Y-93485000D01*
X52687651Y-93085000D02*
X52687651Y-93885000D01*
X56697349Y-91720000D02*
X56697349Y-99880000D01*
X56737349Y-91720000D02*
X56737349Y-99880000D01*
X56777349Y-91721000D02*
X56777349Y-99879000D01*
X56817349Y-91722000D02*
X56817349Y-99878000D01*
X56857349Y-91723000D02*
X56857349Y-99877000D01*
X56897349Y-91725000D02*
X56897349Y-99875000D01*
X56937349Y-91727000D02*
X56937349Y-99873000D01*
X56977349Y-91730000D02*
X56977349Y-99870000D01*
X57017349Y-91732000D02*
X57017349Y-99868000D01*
X57057349Y-91736000D02*
X57057349Y-99864000D01*
X57097349Y-91739000D02*
X57097349Y-99861000D01*
X57137349Y-91744000D02*
X57137349Y-99856000D01*
X57177349Y-91748000D02*
X57177349Y-99852000D01*
X57217349Y-91753000D02*
X57217349Y-99847000D01*
X57257349Y-91758000D02*
X57257349Y-99842000D01*
X57297349Y-91764000D02*
X57297349Y-99836000D01*
X57337349Y-91770000D02*
X57337349Y-99830000D01*
X57377349Y-91777000D02*
X57377349Y-99823000D01*
X57417349Y-91783000D02*
X57417349Y-94760000D01*
X57417349Y-96840000D02*
X57417349Y-99817000D01*
X57457349Y-91791000D02*
X57457349Y-94760000D01*
X57457349Y-96840000D02*
X57457349Y-99809000D01*
X57497349Y-91798000D02*
X57497349Y-94760000D01*
X57497349Y-96840000D02*
X57497349Y-99802000D01*
X57537349Y-91807000D02*
X57537349Y-94760000D01*
X57537349Y-96840000D02*
X57537349Y-99793000D01*
X57577349Y-91815000D02*
X57577349Y-94760000D01*
X57577349Y-96840000D02*
X57577349Y-99785000D01*
X57617349Y-91824000D02*
X57617349Y-94760000D01*
X57617349Y-96840000D02*
X57617349Y-99776000D01*
X57657349Y-91833000D02*
X57657349Y-94760000D01*
X57657349Y-96840000D02*
X57657349Y-99767000D01*
X57697349Y-91843000D02*
X57697349Y-94760000D01*
X57697349Y-96840000D02*
X57697349Y-99757000D01*
X57737349Y-91853000D02*
X57737349Y-94760000D01*
X57737349Y-96840000D02*
X57737349Y-99747000D01*
X57777349Y-91864000D02*
X57777349Y-94760000D01*
X57777349Y-96840000D02*
X57777349Y-99736000D01*
X57817349Y-91875000D02*
X57817349Y-94760000D01*
X57817349Y-96840000D02*
X57817349Y-99725000D01*
X57857349Y-91887000D02*
X57857349Y-94760000D01*
X57857349Y-96840000D02*
X57857349Y-99713000D01*
X57897349Y-91899000D02*
X57897349Y-94760000D01*
X57897349Y-96840000D02*
X57897349Y-99701000D01*
X57937349Y-91911000D02*
X57937349Y-94760000D01*
X57937349Y-96840000D02*
X57937349Y-99689000D01*
X57977349Y-91924000D02*
X57977349Y-94760000D01*
X57977349Y-96840000D02*
X57977349Y-99676000D01*
X58017349Y-91937000D02*
X58017349Y-94760000D01*
X58017349Y-96840000D02*
X58017349Y-99663000D01*
X58057349Y-91951000D02*
X58057349Y-94760000D01*
X58057349Y-96840000D02*
X58057349Y-99649000D01*
X58097349Y-91965000D02*
X58097349Y-94760000D01*
X58097349Y-96840000D02*
X58097349Y-99635000D01*
X58137349Y-91980000D02*
X58137349Y-94760000D01*
X58137349Y-96840000D02*
X58137349Y-99620000D01*
X58177349Y-91995000D02*
X58177349Y-94760000D01*
X58177349Y-96840000D02*
X58177349Y-99605000D01*
X58217349Y-92011000D02*
X58217349Y-94760000D01*
X58217349Y-96840000D02*
X58217349Y-99589000D01*
X58257349Y-92027000D02*
X58257349Y-94760000D01*
X58257349Y-96840000D02*
X58257349Y-99573000D01*
X58297349Y-92043000D02*
X58297349Y-94760000D01*
X58297349Y-96840000D02*
X58297349Y-99557000D01*
X58337349Y-92060000D02*
X58337349Y-94760000D01*
X58337349Y-96840000D02*
X58337349Y-99540000D01*
X58377349Y-92078000D02*
X58377349Y-94760000D01*
X58377349Y-96840000D02*
X58377349Y-99522000D01*
X58417349Y-92096000D02*
X58417349Y-94760000D01*
X58417349Y-96840000D02*
X58417349Y-99504000D01*
X58457349Y-92115000D02*
X58457349Y-94760000D01*
X58457349Y-96840000D02*
X58457349Y-99485000D01*
X58497349Y-92134000D02*
X58497349Y-94760000D01*
X58497349Y-96840000D02*
X58497349Y-99466000D01*
X58537349Y-92154000D02*
X58537349Y-94760000D01*
X58537349Y-96840000D02*
X58537349Y-99446000D01*
X58577349Y-92174000D02*
X58577349Y-94760000D01*
X58577349Y-96840000D02*
X58577349Y-99426000D01*
X58617349Y-92195000D02*
X58617349Y-94760000D01*
X58617349Y-96840000D02*
X58617349Y-99405000D01*
X58657349Y-92216000D02*
X58657349Y-94760000D01*
X58657349Y-96840000D02*
X58657349Y-99384000D01*
X58697349Y-92238000D02*
X58697349Y-94760000D01*
X58697349Y-96840000D02*
X58697349Y-99362000D01*
X58737349Y-92261000D02*
X58737349Y-94760000D01*
X58737349Y-96840000D02*
X58737349Y-99339000D01*
X58777349Y-92284000D02*
X58777349Y-94760000D01*
X58777349Y-96840000D02*
X58777349Y-99316000D01*
X58817349Y-92307000D02*
X58817349Y-94760000D01*
X58817349Y-96840000D02*
X58817349Y-99293000D01*
X58857349Y-92332000D02*
X58857349Y-94760000D01*
X58857349Y-96840000D02*
X58857349Y-99268000D01*
X58897349Y-92357000D02*
X58897349Y-94760000D01*
X58897349Y-96840000D02*
X58897349Y-99243000D01*
X58937349Y-92382000D02*
X58937349Y-94760000D01*
X58937349Y-96840000D02*
X58937349Y-99218000D01*
X58977349Y-92408000D02*
X58977349Y-94760000D01*
X58977349Y-96840000D02*
X58977349Y-99192000D01*
X59017349Y-92435000D02*
X59017349Y-94760000D01*
X59017349Y-96840000D02*
X59017349Y-99165000D01*
X59057349Y-92463000D02*
X59057349Y-94760000D01*
X59057349Y-96840000D02*
X59057349Y-99137000D01*
X59097349Y-92491000D02*
X59097349Y-94760000D01*
X59097349Y-96840000D02*
X59097349Y-99109000D01*
X59137349Y-92520000D02*
X59137349Y-94760000D01*
X59137349Y-96840000D02*
X59137349Y-99080000D01*
X59177349Y-92550000D02*
X59177349Y-94760000D01*
X59177349Y-96840000D02*
X59177349Y-99050000D01*
X59217349Y-92581000D02*
X59217349Y-94760000D01*
X59217349Y-96840000D02*
X59217349Y-99019000D01*
X59257349Y-92612000D02*
X59257349Y-94760000D01*
X59257349Y-96840000D02*
X59257349Y-98988000D01*
X59297349Y-92644000D02*
X59297349Y-94760000D01*
X59297349Y-96840000D02*
X59297349Y-98956000D01*
X59337349Y-92677000D02*
X59337349Y-94760000D01*
X59337349Y-96840000D02*
X59337349Y-98923000D01*
X59377349Y-92711000D02*
X59377349Y-94760000D01*
X59377349Y-96840000D02*
X59377349Y-98889000D01*
X59417349Y-92745000D02*
X59417349Y-94760000D01*
X59417349Y-96840000D02*
X59417349Y-98855000D01*
X59457349Y-92781000D02*
X59457349Y-94760000D01*
X59457349Y-96840000D02*
X59457349Y-98819000D01*
X59497349Y-92818000D02*
X59497349Y-98782000D01*
X59537349Y-92855000D02*
X59537349Y-98745000D01*
X59577349Y-92894000D02*
X59577349Y-98706000D01*
X59617349Y-92933000D02*
X59617349Y-98667000D01*
X59657349Y-92974000D02*
X59657349Y-98626000D01*
X59697349Y-93016000D02*
X59697349Y-98584000D01*
X59737349Y-93059000D02*
X59737349Y-98541000D01*
X59777349Y-93104000D02*
X59777349Y-98496000D01*
X59817349Y-93149000D02*
X59817349Y-98451000D01*
X59857349Y-93196000D02*
X59857349Y-98404000D01*
X59897349Y-93245000D02*
X59897349Y-98355000D01*
X59937349Y-93295000D02*
X59937349Y-98305000D01*
X59977349Y-93347000D02*
X59977349Y-98253000D01*
X60017349Y-93400000D02*
X60017349Y-98200000D01*
X60057349Y-93456000D02*
X60057349Y-98144000D01*
X60097349Y-93513000D02*
X60097349Y-98087000D01*
X60137349Y-93573000D02*
X60137349Y-98027000D01*
X60177349Y-93635000D02*
X60177349Y-97965000D01*
X60217349Y-93699000D02*
X60217349Y-97901000D01*
X60257349Y-93766000D02*
X60257349Y-97834000D01*
X60297349Y-93836000D02*
X60297349Y-97764000D01*
X60337349Y-93910000D02*
X60337349Y-97690000D01*
X60377349Y-93987000D02*
X60377349Y-97613000D01*
X60417349Y-94069000D02*
X60417349Y-97531000D01*
X60457349Y-94156000D02*
X60457349Y-97444000D01*
X60497349Y-94248000D02*
X60497349Y-97352000D01*
X60537349Y-94347000D02*
X60537349Y-97253000D01*
X60577349Y-94454000D02*
X60577349Y-97146000D01*
X60617349Y-94572000D02*
X60617349Y-97028000D01*
X60657349Y-94703000D02*
X60657349Y-96897000D01*
X60697349Y-94853000D02*
X60697349Y-96747000D01*
X60737349Y-95032000D02*
X60737349Y-96568000D01*
X60777349Y-95267000D02*
X60777349Y-96333000D01*
X60817349Y-95800000D02*
G75*
G02*
X52577349Y-95800000I-4120000J0D01*
G01*
X52577349Y-95800000D02*
G75*
G02*
X60817349Y-95800000I4120000J0D01*
G01*
D15*
%TO.C,U201*%
X31000000Y-80400000D02*
X46000000Y-80400000D01*
X31000000Y-97600000D02*
X31000000Y-80400000D01*
X46000000Y-80400000D02*
X46000000Y-97600000D01*
X46000000Y-97600000D02*
X31000000Y-97600000D01*
D16*
X33576300Y-81980000D02*
G75*
G02*
X32083700Y-81980000I-746300J0D01*
G01*
X32083700Y-81980000D02*
G75*
G02*
X33576300Y-81980000I746300J0D01*
G01*
D14*
%TO.C,R10*%
X48846359Y-101870000D02*
X49153641Y-101870000D01*
X48846359Y-102630000D02*
X49153641Y-102630000D01*
%TO.C,R4*%
X29620000Y-100143641D02*
X29620000Y-99836359D01*
X30380000Y-100143641D02*
X30380000Y-99836359D01*
%TO.C,R3*%
X27130000Y-100143641D02*
X27130000Y-99836359D01*
X27890000Y-100143641D02*
X27890000Y-99836359D01*
%TO.C,C4*%
X29261252Y-107135000D02*
X28738748Y-107135000D01*
X29261252Y-105665000D02*
X28738748Y-105665000D01*
%TO.C,J2*%
X67420000Y-96940000D02*
X68800000Y-96940000D01*
X67420000Y-98320000D02*
X67420000Y-96940000D01*
X67420000Y-99590000D02*
X67420000Y-104780000D01*
X67420000Y-99590000D02*
X70180000Y-99590000D01*
X67420000Y-104780000D02*
X70180000Y-104780000D01*
X70180000Y-99590000D02*
X70180000Y-104780000D01*
%TO.C,J1*%
X65980000Y-104780000D02*
X64600000Y-104780000D01*
X65980000Y-103400000D02*
X65980000Y-104780000D01*
X65980000Y-102130000D02*
X65980000Y-96940000D01*
X65980000Y-102130000D02*
X63220000Y-102130000D01*
X65980000Y-96940000D02*
X63220000Y-96940000D01*
X63220000Y-102130000D02*
X63220000Y-96940000D01*
%TO.C,C3*%
X29507836Y-110450800D02*
X29292164Y-110450800D01*
X29507836Y-109730800D02*
X29292164Y-109730800D01*
%TO.C,C2*%
X29492164Y-104440000D02*
X29707836Y-104440000D01*
X29492164Y-105160000D02*
X29707836Y-105160000D01*
%TO.C,U1*%
X30890000Y-107000000D02*
X30890000Y-108500000D01*
X30890000Y-107000000D02*
X30890000Y-105500000D01*
X34110000Y-107000000D02*
X34110000Y-108500000D01*
X34110000Y-107000000D02*
X34110000Y-105500000D01*
X31090000Y-109187500D02*
X30760000Y-109427500D01*
X30760000Y-108947500D01*
X31090000Y-109187500D01*
G36*
X31090000Y-109187500D02*
G01*
X30760000Y-109427500D01*
X30760000Y-108947500D01*
X31090000Y-109187500D01*
G37*
%TO.C,TP1*%
X41900000Y-107800000D02*
X37700000Y-107800000D01*
X37700000Y-105400000D01*
X41900000Y-105400000D01*
X41900000Y-107800000D01*
%TO.C,R2*%
X29753641Y-104180000D02*
X29446359Y-104180000D01*
X29753641Y-103420000D02*
X29446359Y-103420000D01*
%TO.C,R8*%
X56553641Y-90980000D02*
X56246359Y-90980000D01*
X56553641Y-90220000D02*
X56246359Y-90220000D01*
D12*
%TO.C,D1*%
X52565000Y-92319001D02*
X53835000Y-92319001D01*
X53200000Y-92319001D02*
X52565000Y-91557001D01*
X53200000Y-92319001D02*
X52692000Y-91557001D01*
X53200000Y-92319001D02*
X52819000Y-91557001D01*
X53200000Y-92319001D02*
X52946000Y-91557001D01*
X53200000Y-92319001D02*
X53073000Y-91557001D01*
X53200000Y-92319001D02*
X53327000Y-91557001D01*
X53200000Y-92319001D02*
X53454000Y-91557001D01*
X53200000Y-92319001D02*
X53581000Y-91557001D01*
X53200000Y-92319001D02*
X53708000Y-91557001D01*
X53200000Y-92319001D02*
X53835000Y-91557001D01*
X52565000Y-91557001D02*
X53835000Y-91557001D01*
X53200000Y-91303001D02*
X53200000Y-92573001D01*
X51103000Y-90922001D02*
X51762260Y-90922001D01*
X54637740Y-90922001D02*
X55297000Y-90922001D01*
X55297000Y-90922001D02*
X55297000Y-85077999D01*
X51103000Y-85077999D02*
X51103000Y-90922001D01*
X51762260Y-85077999D02*
X51103000Y-85077999D01*
X55297000Y-85077999D02*
X54637740Y-85077999D01*
%TO.C,TP2*%
D14*
X41900000Y-112000000D02*
X37700000Y-112000000D01*
X37700000Y-109600000D01*
X41900000Y-109600000D01*
X41900000Y-112000000D01*
%TO.C,D3*%
X47735000Y-102985000D02*
X47735000Y-101515000D01*
X47735000Y-101515000D02*
X45450000Y-101515000D01*
X45450000Y-102985000D02*
X47735000Y-102985000D01*
%TO.C,R1*%
X31246359Y-110420000D02*
X31553641Y-110420000D01*
X31246359Y-111180000D02*
X31553641Y-111180000D01*
%TD*%
M02*
