%TF.GenerationSoftware,KiCad,Pcbnew,9.0.3*%
%TF.CreationDate,2026-04-13T17:19:57-04:00*%
%TF.ProjectId,Touchpoint_Topboard,546f7563-6870-46f6-996e-745f546f7062,rev?*%
%TF.SameCoordinates,Original*%
%TF.FileFunction,Copper,L2,Bot*%
%TF.FilePolarity,Positive*%
%FSLAX46Y46*%
G04 Gerber Fmt 4.6, Leading zero omitted, Abs format (unit mm)*
G04 Created by KiCad (PCBNEW 9.0.3) date 2026-04-13 17:19:57*
%MOMM*%
%LPD*%
G01*
G04 APERTURE LIST*
G04 Aperture macros list*
%AMRoundRect*
0 Rectangle with rounded corners*
0 $1 Rounding radius*
0 $2 $3 $4 $5 $6 $7 $8 $9 X,Y pos of 4 corners*
0 Add a 4 corners polygon primitive as box body*
4,1,4,$2,$3,$4,$5,$6,$7,$8,$9,$2,$3,0*
0 Add four circle primitives for the rounded corners*
1,1,$1+$1,$2,$3*
1,1,$1+$1,$4,$5*
1,1,$1+$1,$6,$7*
1,1,$1+$1,$8,$9*
0 Add four rect primitives between the rounded corners*
20,1,$1+$1,$2,$3,$4,$5,0*
20,1,$1+$1,$4,$5,$6,$7,0*
20,1,$1+$1,$6,$7,$8,$9,0*
20,1,$1+$1,$8,$9,$2,$3,0*%
G04 Aperture macros list end*
%TA.AperFunction,ComponentPad*%
%ADD10C,2.006600*%
%TD*%
%TA.AperFunction,ComponentPad*%
%ADD11O,2.700000X2.300000*%
%TD*%
%TA.AperFunction,ComponentPad*%
%ADD12RoundRect,0.250000X-0.550000X-0.550000X0.550000X-0.550000X0.550000X0.550000X-0.550000X0.550000X0*%
%TD*%
%TA.AperFunction,ComponentPad*%
%ADD13C,1.600000*%
%TD*%
%TA.AperFunction,ComponentPad*%
%ADD14R,1.700000X1.700000*%
%TD*%
%TA.AperFunction,ComponentPad*%
%ADD15C,1.700000*%
%TD*%
%TA.AperFunction,ViaPad*%
%ADD16C,0.600000*%
%TD*%
%TA.AperFunction,Conductor*%
%ADD17C,0.200000*%
%TD*%
%TA.AperFunction,Conductor*%
%ADD18C,1.000000*%
%TD*%
G04 APERTURE END LIST*
D10*
%TO.P,J4,1,1*%
%TO.N,GND*%
X60110000Y-34500000D03*
%TO.P,J4,2,2*%
%TO.N,/SCROLLB*%
X60110000Y-32000000D03*
%TO.P,J4,3,3*%
%TO.N,/SCROLLA*%
X60110000Y-29500000D03*
D11*
%TO.P,J4,4*%
%TO.N,N/C*%
X62110001Y-36499999D03*
%TO.P,J4,5*%
X62110001Y-27500001D03*
%TD*%
D12*
%TO.P,C5,1*%
%TO.N,VPP*%
X54947349Y-95800000D03*
D13*
%TO.P,C5,2*%
%TO.N,GND*%
X58447349Y-95800000D03*
%TD*%
D14*
%TO.P,J2,1,Pin_1*%
%TO.N,VBUS*%
X68800000Y-98320000D03*
D15*
%TO.P,J2,2,Pin_2*%
%TO.N,/NEOPIXEL*%
X68800000Y-100860000D03*
%TO.P,J2,3,Pin_3*%
%TO.N,GND*%
X68800000Y-103400000D03*
%TD*%
D14*
%TO.P,J1,1,Pin_1*%
%TO.N,/SERVO*%
X64600000Y-103400000D03*
D15*
%TO.P,J1,2,Pin_2*%
%TO.N,VBUS*%
X64600000Y-100860000D03*
%TO.P,J1,3,Pin_3*%
%TO.N,GND*%
X64600000Y-98320000D03*
%TD*%
D13*
%TO.P,J5,1,Pin_1*%
%TO.N,GND*%
X40400000Y-113600000D03*
%TO.P,J5,2,Pin_2*%
%TO.N,+3.3V*%
X42900000Y-113600000D03*
%TO.P,J5,3,Pin_3*%
%TO.N,VBUS*%
X45400000Y-113600000D03*
%TO.P,J5,4,Pin_4*%
%TO.N,VPP*%
X47900000Y-113600000D03*
%TO.P,J5,5,Pin_5*%
%TO.N,/VREF*%
X50400000Y-113600000D03*
%TO.P,J5,6,Pin_6*%
%TO.N,/CHARGE*%
X52900000Y-113600000D03*
%TO.P,J5,7,Pin_7*%
%TO.N,/SERVO*%
X55400000Y-113600000D03*
%TO.P,J5,8,Pin_8*%
%TO.N,/NEOPIXEL*%
X57900000Y-113600000D03*
%TO.P,J5,9,Pin_9*%
%TO.N,/RCLICK*%
X60400000Y-113600000D03*
%TO.P,J5,10,Pin_10*%
%TO.N,/SCROLLA*%
X62900000Y-113600000D03*
%TO.P,J5,11,Pin_11*%
%TO.N,/SCROLLB*%
X65400000Y-113600000D03*
%TD*%
D16*
%TO.N,GND*%
X50800000Y-103200000D03*
X70000000Y-108400000D03*
X71900000Y-88700000D03*
X33400000Y-94400000D03*
X43400000Y-83000000D03*
X66750000Y-46000000D03*
X64200000Y-115200000D03*
X58400000Y-108600000D03*
X47700000Y-107000000D03*
X70250000Y-40770000D03*
X35800000Y-114800000D03*
X43000000Y-94400000D03*
X59800000Y-70400000D03*
X53400000Y-55600000D03*
X57800000Y-88400000D03*
X54400000Y-115200000D03*
X33600000Y-83400000D03*
X66750000Y-25250000D03*
X48200000Y-76600000D03*
X29200000Y-77600000D03*
X53600000Y-71000000D03*
X58000000Y-23200000D03*
X42800000Y-110200000D03*
X38400000Y-74400000D03*
X45300000Y-101300000D03*
X68200000Y-94300000D03*
X26200000Y-106600000D03*
X61200000Y-104400000D03*
X48400000Y-52200000D03*
X36200000Y-107400000D03*
X33400000Y-114000000D03*
X59400000Y-47000000D03*
X67250000Y-75750000D03*
%TO.N,+5V*%
X36200000Y-110200000D03*
X31000000Y-112000000D03*
%TO.N,/SCROLLA*%
X64600000Y-111000000D03*
%TO.N,/SCROLLB*%
X66000000Y-111600000D03*
%TO.N,+3.3V*%
X63000000Y-92600000D03*
X45000000Y-110600000D03*
%TD*%
D17*
%TO.N,/SCROLLB*%
X57500000Y-84500000D02*
X57500000Y-34610000D01*
X57500000Y-34610000D02*
X60110000Y-32000000D01*
X66250000Y-93250000D02*
X57500000Y-84500000D01*
X66250000Y-111350000D02*
X66250000Y-93250000D01*
X66000000Y-111600000D02*
X66250000Y-111350000D01*
%TO.N,/SCROLLA*%
X65751000Y-109849000D02*
X64600000Y-111000000D01*
X57000000Y-84750000D02*
X65751000Y-93501000D01*
X65751000Y-93501000D02*
X65751000Y-109849000D01*
X60110000Y-29500000D02*
X57000000Y-32610000D01*
X57000000Y-32610000D02*
X57000000Y-84750000D01*
%TO.N,+5V*%
X31800000Y-113200000D02*
X31000000Y-112400000D01*
X31000000Y-112400000D02*
X31000000Y-112000000D01*
X36200000Y-110200000D02*
X33200000Y-113200000D01*
X33200000Y-113200000D02*
X31800000Y-113200000D01*
D18*
%TO.N,VBUS*%
X64540000Y-100800000D02*
X64600000Y-100740000D01*
X45400000Y-113600000D02*
X58200000Y-100800000D01*
X58200000Y-100800000D02*
X64540000Y-100800000D01*
D17*
%TO.N,+3.3V*%
X62800000Y-94000000D02*
X62800000Y-92800000D01*
X45000000Y-110600000D02*
X46200000Y-110600000D01*
X46200000Y-110600000D02*
X62800000Y-94000000D01*
X62800000Y-92800000D02*
X63000000Y-92600000D01*
%TD*%
%TA.AperFunction,Conductor*%
%TO.N,GND*%
G36*
X56408106Y-21048380D02*
G01*
X56424049Y-21049883D01*
X56426307Y-21050116D01*
X58306374Y-21262020D01*
X58308465Y-21262276D01*
X60184374Y-21508554D01*
X60186472Y-21508849D01*
X62057531Y-21789408D01*
X62059675Y-21789750D01*
X63925276Y-22104499D01*
X63927394Y-22104876D01*
X65786953Y-22453718D01*
X65789044Y-22454130D01*
X67641853Y-22836930D01*
X67643967Y-22837387D01*
X69434851Y-23241698D01*
X69489453Y-23254025D01*
X69491662Y-23254545D01*
X71329124Y-23704863D01*
X71331323Y-23705423D01*
X73157274Y-24188504D01*
X73165377Y-24190947D01*
X73434639Y-24282280D01*
X73448224Y-24287805D01*
X73701987Y-24408973D01*
X73714827Y-24416065D01*
X73952490Y-24566371D01*
X73964409Y-24574937D01*
X74182654Y-24752285D01*
X74193458Y-24762182D01*
X74389219Y-24964082D01*
X74398792Y-24975204D01*
X74569300Y-25198798D01*
X74577495Y-25210977D01*
X74720397Y-25453175D01*
X74727096Y-25466238D01*
X74840369Y-25723616D01*
X74845476Y-25737378D01*
X74927534Y-26006325D01*
X74930980Y-26020595D01*
X74980683Y-26297374D01*
X74982418Y-26311951D01*
X74999282Y-26596340D01*
X74999499Y-26603678D01*
X74999499Y-26665892D01*
X74999499Y-26665894D01*
X74999500Y-26675888D01*
X74999500Y-113396249D01*
X74999274Y-113403736D01*
X74981728Y-113693794D01*
X74979923Y-113708659D01*
X74928219Y-113990798D01*
X74924635Y-114005336D01*
X74839306Y-114279167D01*
X74833997Y-114293168D01*
X74716275Y-114554736D01*
X74709316Y-114567995D01*
X74560928Y-114813459D01*
X74552422Y-114825782D01*
X74375526Y-115051573D01*
X74365596Y-115062781D01*
X74162781Y-115265596D01*
X74151573Y-115275526D01*
X73925782Y-115452422D01*
X73913459Y-115460928D01*
X73667995Y-115609316D01*
X73654736Y-115616275D01*
X73393168Y-115733997D01*
X73379167Y-115739306D01*
X73105336Y-115824635D01*
X73090798Y-115828219D01*
X72808659Y-115879923D01*
X72793794Y-115881728D01*
X72503736Y-115899274D01*
X72496249Y-115899500D01*
X27503751Y-115899500D01*
X27496264Y-115899274D01*
X27206205Y-115881728D01*
X27191340Y-115879923D01*
X26909201Y-115828219D01*
X26894663Y-115824635D01*
X26620832Y-115739306D01*
X26606831Y-115733997D01*
X26345263Y-115616275D01*
X26332004Y-115609316D01*
X26086540Y-115460928D01*
X26074217Y-115452422D01*
X25848426Y-115275526D01*
X25837218Y-115265596D01*
X25634403Y-115062781D01*
X25624473Y-115051573D01*
X25447573Y-114825776D01*
X25439075Y-114813465D01*
X25290680Y-114567989D01*
X25283727Y-114554743D01*
X25166000Y-114293163D01*
X25160693Y-114279167D01*
X25128506Y-114175876D01*
X25075363Y-114005335D01*
X25071780Y-113990798D01*
X25020076Y-113708659D01*
X25018271Y-113693794D01*
X25009603Y-113550500D01*
X25000726Y-113403736D01*
X25000500Y-113396249D01*
X25000500Y-113285258D01*
X25749500Y-113285258D01*
X25749500Y-113514741D01*
X25768918Y-113662229D01*
X25779452Y-113742238D01*
X25821724Y-113900000D01*
X25838842Y-113963887D01*
X25926650Y-114175876D01*
X25926657Y-114175890D01*
X26041392Y-114374617D01*
X26181081Y-114556661D01*
X26181089Y-114556670D01*
X26343330Y-114718911D01*
X26343338Y-114718918D01*
X26525382Y-114858607D01*
X26525385Y-114858608D01*
X26525388Y-114858611D01*
X26724112Y-114973344D01*
X26724117Y-114973346D01*
X26724123Y-114973349D01*
X26815480Y-115011190D01*
X26936113Y-115061158D01*
X27157762Y-115120548D01*
X27385266Y-115150500D01*
X27385273Y-115150500D01*
X27614727Y-115150500D01*
X27614734Y-115150500D01*
X27842238Y-115120548D01*
X28063887Y-115061158D01*
X28275888Y-114973344D01*
X28474612Y-114858611D01*
X28656661Y-114718919D01*
X28656665Y-114718914D01*
X28656670Y-114718911D01*
X28696107Y-114679474D01*
X39674076Y-114679474D01*
X39718650Y-114711859D01*
X39900968Y-114804755D01*
X40095582Y-114867990D01*
X40297683Y-114900000D01*
X40502317Y-114900000D01*
X40704417Y-114867990D01*
X40899031Y-114804755D01*
X41081349Y-114711859D01*
X41125921Y-114679474D01*
X40400000Y-113953553D01*
X39674076Y-114679474D01*
X28696107Y-114679474D01*
X28818911Y-114556670D01*
X28818915Y-114556665D01*
X28818919Y-114556661D01*
X28958611Y-114374612D01*
X29073344Y-114175888D01*
X29161158Y-113963887D01*
X29220548Y-113742238D01*
X29250500Y-113514734D01*
X29250500Y-113285266D01*
X29220548Y-113057762D01*
X29161158Y-112836113D01*
X29091962Y-112669059D01*
X29073349Y-112624123D01*
X29073346Y-112624117D01*
X29073344Y-112624112D01*
X28958611Y-112425388D01*
X28958608Y-112425385D01*
X28958607Y-112425382D01*
X28818918Y-112243338D01*
X28818911Y-112243330D01*
X28656670Y-112081089D01*
X28656661Y-112081081D01*
X28574157Y-112017773D01*
X28474617Y-111941392D01*
X28468771Y-111938017D01*
X28450598Y-111927525D01*
X30449500Y-111927525D01*
X30449500Y-112072475D01*
X30470407Y-112150500D01*
X30487017Y-112212488D01*
X30559488Y-112338011D01*
X30559493Y-112338017D01*
X30619373Y-112397897D01*
X30651467Y-112453484D01*
X30673386Y-112535289D01*
X30673387Y-112535290D01*
X30719527Y-112615208D01*
X30719529Y-112615211D01*
X30719530Y-112615212D01*
X31584788Y-113480470D01*
X31663792Y-113526083D01*
X31664712Y-113526614D01*
X31753856Y-113550500D01*
X31753858Y-113550500D01*
X33246142Y-113550500D01*
X33246144Y-113550500D01*
X33335288Y-113526614D01*
X33336208Y-113526083D01*
X33385400Y-113497682D01*
X39100000Y-113497682D01*
X39100000Y-113702317D01*
X39132009Y-113904417D01*
X39195244Y-114099031D01*
X39288141Y-114281350D01*
X39288147Y-114281359D01*
X39320523Y-114325921D01*
X39320524Y-114325922D01*
X40046446Y-113600001D01*
X40046446Y-113599999D01*
X40006951Y-113560504D01*
X40100000Y-113560504D01*
X40100000Y-113639496D01*
X40120444Y-113715796D01*
X40159940Y-113784205D01*
X40215795Y-113840060D01*
X40284204Y-113879556D01*
X40360504Y-113900000D01*
X40439496Y-113900000D01*
X40515796Y-113879556D01*
X40584205Y-113840060D01*
X40640060Y-113784205D01*
X40679556Y-113715796D01*
X40700000Y-113639496D01*
X40700000Y-113599999D01*
X40753553Y-113599999D01*
X40753553Y-113600000D01*
X41479474Y-114325921D01*
X41511859Y-114281349D01*
X41604754Y-114099031D01*
X41661297Y-113925015D01*
X41700735Y-113867340D01*
X41765094Y-113840142D01*
X41833940Y-113852057D01*
X41885416Y-113899301D01*
X41893789Y-113915881D01*
X41969057Y-114097596D01*
X42084024Y-114269657D01*
X42230342Y-114415975D01*
X42230345Y-114415977D01*
X42402402Y-114530941D01*
X42593580Y-114610130D01*
X42796530Y-114650499D01*
X42796534Y-114650500D01*
X42796535Y-114650500D01*
X43003466Y-114650500D01*
X43003467Y-114650499D01*
X43206420Y-114610130D01*
X43397598Y-114530941D01*
X43569655Y-114415977D01*
X43715977Y-114269655D01*
X43830941Y-114097598D01*
X43910130Y-113906420D01*
X43950500Y-113703465D01*
X43950500Y-113496535D01*
X43950499Y-113496530D01*
X44349500Y-113496530D01*
X44349500Y-113703469D01*
X44389868Y-113906412D01*
X44389870Y-113906420D01*
X44469059Y-114097598D01*
X44521362Y-114175876D01*
X44584024Y-114269657D01*
X44730342Y-114415975D01*
X44730345Y-114415977D01*
X44902402Y-114530941D01*
X45093580Y-114610130D01*
X45296530Y-114650499D01*
X45296534Y-114650500D01*
X45296535Y-114650500D01*
X45503466Y-114650500D01*
X45503467Y-114650499D01*
X45706420Y-114610130D01*
X45897598Y-114530941D01*
X46069655Y-114415977D01*
X46215977Y-114269655D01*
X46330941Y-114097598D01*
X46410130Y-113906420D01*
X46450500Y-113703465D01*
X46450500Y-113662229D01*
X46459144Y-113632788D01*
X46465668Y-113602802D01*
X46469422Y-113597786D01*
X46470185Y-113595190D01*
X46486819Y-113574548D01*
X46637819Y-113423548D01*
X46699142Y-113390063D01*
X46768834Y-113395047D01*
X46824767Y-113436919D01*
X46849184Y-113502383D01*
X46849500Y-113511229D01*
X46849500Y-113703469D01*
X46889868Y-113906412D01*
X46889870Y-113906420D01*
X46969059Y-114097598D01*
X47021362Y-114175876D01*
X47084024Y-114269657D01*
X47230342Y-114415975D01*
X47230345Y-114415977D01*
X47402402Y-114530941D01*
X47593580Y-114610130D01*
X47796530Y-114650499D01*
X47796534Y-114650500D01*
X47796535Y-114650500D01*
X48003466Y-114650500D01*
X48003467Y-114650499D01*
X48206420Y-114610130D01*
X48397598Y-114530941D01*
X48569655Y-114415977D01*
X48715977Y-114269655D01*
X48830941Y-114097598D01*
X48910130Y-113906420D01*
X48950500Y-113703465D01*
X48950500Y-113496535D01*
X48950499Y-113496530D01*
X49349500Y-113496530D01*
X49349500Y-113703469D01*
X49389868Y-113906412D01*
X49389870Y-113906420D01*
X49469059Y-114097598D01*
X49521362Y-114175876D01*
X49584024Y-114269657D01*
X49730342Y-114415975D01*
X49730345Y-114415977D01*
X49902402Y-114530941D01*
X50093580Y-114610130D01*
X50296530Y-114650499D01*
X50296534Y-114650500D01*
X50296535Y-114650500D01*
X50503466Y-114650500D01*
X50503467Y-114650499D01*
X50706420Y-114610130D01*
X50897598Y-114530941D01*
X51069655Y-114415977D01*
X51215977Y-114269655D01*
X51330941Y-114097598D01*
X51410130Y-113906420D01*
X51450500Y-113703465D01*
X51450500Y-113496535D01*
X51450499Y-113496530D01*
X51849500Y-113496530D01*
X51849500Y-113703469D01*
X51889868Y-113906412D01*
X51889870Y-113906420D01*
X51969059Y-114097598D01*
X52021362Y-114175876D01*
X52084024Y-114269657D01*
X52230342Y-114415975D01*
X52230345Y-114415977D01*
X52402402Y-114530941D01*
X52593580Y-114610130D01*
X52796530Y-114650499D01*
X52796534Y-114650500D01*
X52796535Y-114650500D01*
X53003466Y-114650500D01*
X53003467Y-114650499D01*
X53206420Y-114610130D01*
X53397598Y-114530941D01*
X53569655Y-114415977D01*
X53715977Y-114269655D01*
X53830941Y-114097598D01*
X53910130Y-113906420D01*
X53950500Y-113703465D01*
X53950500Y-113496535D01*
X53950499Y-113496530D01*
X54349500Y-113496530D01*
X54349500Y-113703469D01*
X54389868Y-113906412D01*
X54389870Y-113906420D01*
X54469059Y-114097598D01*
X54521362Y-114175876D01*
X54584024Y-114269657D01*
X54730342Y-114415975D01*
X54730345Y-114415977D01*
X54902402Y-114530941D01*
X55093580Y-114610130D01*
X55296530Y-114650499D01*
X55296534Y-114650500D01*
X55296535Y-114650500D01*
X55503466Y-114650500D01*
X55503467Y-114650499D01*
X55706420Y-114610130D01*
X55897598Y-114530941D01*
X56069655Y-114415977D01*
X56215977Y-114269655D01*
X56330941Y-114097598D01*
X56410130Y-113906420D01*
X56450500Y-113703465D01*
X56450500Y-113496535D01*
X56450499Y-113496530D01*
X56849500Y-113496530D01*
X56849500Y-113703469D01*
X56889868Y-113906412D01*
X56889870Y-113906420D01*
X56969059Y-114097598D01*
X57021362Y-114175876D01*
X57084024Y-114269657D01*
X57230342Y-114415975D01*
X57230345Y-114415977D01*
X57402402Y-114530941D01*
X57593580Y-114610130D01*
X57796530Y-114650499D01*
X57796534Y-114650500D01*
X57796535Y-114650500D01*
X58003466Y-114650500D01*
X58003467Y-114650499D01*
X58206420Y-114610130D01*
X58397598Y-114530941D01*
X58569655Y-114415977D01*
X58715977Y-114269655D01*
X58830941Y-114097598D01*
X58910130Y-113906420D01*
X58950500Y-113703465D01*
X58950500Y-113496535D01*
X58950499Y-113496530D01*
X59349500Y-113496530D01*
X59349500Y-113703469D01*
X59389868Y-113906412D01*
X59389870Y-113906420D01*
X59469059Y-114097598D01*
X59521362Y-114175876D01*
X59584024Y-114269657D01*
X59730342Y-114415975D01*
X59730345Y-114415977D01*
X59902402Y-114530941D01*
X60093580Y-114610130D01*
X60296530Y-114650499D01*
X60296534Y-114650500D01*
X60296535Y-114650500D01*
X60503466Y-114650500D01*
X60503467Y-114650499D01*
X60706420Y-114610130D01*
X60897598Y-114530941D01*
X61069655Y-114415977D01*
X61215977Y-114269655D01*
X61330941Y-114097598D01*
X61410130Y-113906420D01*
X61450500Y-113703465D01*
X61450500Y-113496535D01*
X61450499Y-113496530D01*
X61849500Y-113496530D01*
X61849500Y-113703469D01*
X61889868Y-113906412D01*
X61889870Y-113906420D01*
X61969059Y-114097598D01*
X62021362Y-114175876D01*
X62084024Y-114269657D01*
X62230342Y-114415975D01*
X62230345Y-114415977D01*
X62402402Y-114530941D01*
X62593580Y-114610130D01*
X62796530Y-114650499D01*
X62796534Y-114650500D01*
X62796535Y-114650500D01*
X63003466Y-114650500D01*
X63003467Y-114650499D01*
X63206420Y-114610130D01*
X63397598Y-114530941D01*
X63569655Y-114415977D01*
X63715977Y-114269655D01*
X63830941Y-114097598D01*
X63910130Y-113906420D01*
X63950500Y-113703465D01*
X63950500Y-113496535D01*
X63950499Y-113496530D01*
X64349500Y-113496530D01*
X64349500Y-113703469D01*
X64389868Y-113906412D01*
X64389870Y-113906420D01*
X64469059Y-114097598D01*
X64521362Y-114175876D01*
X64584024Y-114269657D01*
X64730342Y-114415975D01*
X64730345Y-114415977D01*
X64902402Y-114530941D01*
X65093580Y-114610130D01*
X65296530Y-114650499D01*
X65296534Y-114650500D01*
X65296535Y-114650500D01*
X65503466Y-114650500D01*
X65503467Y-114650499D01*
X65706420Y-114610130D01*
X65897598Y-114530941D01*
X66069655Y-114415977D01*
X66215977Y-114269655D01*
X66330941Y-114097598D01*
X66410130Y-113906420D01*
X66450500Y-113703465D01*
X66450500Y-113496535D01*
X66419069Y-113338521D01*
X66412482Y-113305403D01*
X66412481Y-113305400D01*
X66410130Y-113293580D01*
X66406683Y-113285258D01*
X70749500Y-113285258D01*
X70749500Y-113514741D01*
X70768918Y-113662229D01*
X70779452Y-113742238D01*
X70821724Y-113900000D01*
X70838842Y-113963887D01*
X70926650Y-114175876D01*
X70926657Y-114175890D01*
X71041392Y-114374617D01*
X71181081Y-114556661D01*
X71181089Y-114556670D01*
X71343330Y-114718911D01*
X71343338Y-114718918D01*
X71525382Y-114858607D01*
X71525385Y-114858608D01*
X71525388Y-114858611D01*
X71724112Y-114973344D01*
X71724117Y-114973346D01*
X71724123Y-114973349D01*
X71815480Y-115011190D01*
X71936113Y-115061158D01*
X72157762Y-115120548D01*
X72385266Y-115150500D01*
X72385273Y-115150500D01*
X72614727Y-115150500D01*
X72614734Y-115150500D01*
X72842238Y-115120548D01*
X73063887Y-115061158D01*
X73275888Y-114973344D01*
X73474612Y-114858611D01*
X73656661Y-114718919D01*
X73656665Y-114718914D01*
X73656670Y-114718911D01*
X73818911Y-114556670D01*
X73818914Y-114556665D01*
X73818919Y-114556661D01*
X73958611Y-114374612D01*
X74073344Y-114175888D01*
X74161158Y-113963887D01*
X74220548Y-113742238D01*
X74250500Y-113514734D01*
X74250500Y-113285266D01*
X74220548Y-113057762D01*
X74161158Y-112836113D01*
X74091962Y-112669059D01*
X74073349Y-112624123D01*
X74073346Y-112624117D01*
X74073344Y-112624112D01*
X73958611Y-112425388D01*
X73958608Y-112425385D01*
X73958607Y-112425382D01*
X73818918Y-112243338D01*
X73818911Y-112243330D01*
X73656670Y-112081089D01*
X73656661Y-112081081D01*
X73474617Y-111941392D01*
X73468771Y-111938017D01*
X73275888Y-111826656D01*
X73275876Y-111826650D01*
X73063887Y-111738842D01*
X72842238Y-111679452D01*
X72804215Y-111674446D01*
X72614741Y-111649500D01*
X72614734Y-111649500D01*
X72385266Y-111649500D01*
X72385258Y-111649500D01*
X72168715Y-111678009D01*
X72157762Y-111679452D01*
X72064076Y-111704554D01*
X71936112Y-111738842D01*
X71724123Y-111826650D01*
X71724109Y-111826657D01*
X71525382Y-111941392D01*
X71343338Y-112081081D01*
X71181081Y-112243338D01*
X71041392Y-112425382D01*
X70926657Y-112624109D01*
X70926650Y-112624123D01*
X70838842Y-112836112D01*
X70779453Y-113057759D01*
X70779451Y-113057770D01*
X70749500Y-113285258D01*
X66406683Y-113285258D01*
X66330941Y-113102402D01*
X66215977Y-112930345D01*
X66215975Y-112930342D01*
X66069657Y-112784024D01*
X65983626Y-112726541D01*
X65897598Y-112669059D01*
X65706420Y-112589870D01*
X65706412Y-112589868D01*
X65503469Y-112549500D01*
X65503465Y-112549500D01*
X65296535Y-112549500D01*
X65296530Y-112549500D01*
X65093587Y-112589868D01*
X65093579Y-112589870D01*
X64902403Y-112669058D01*
X64730342Y-112784024D01*
X64584024Y-112930342D01*
X64469058Y-113102403D01*
X64389870Y-113293579D01*
X64389868Y-113293587D01*
X64349500Y-113496530D01*
X63950499Y-113496530D01*
X63910130Y-113293580D01*
X63830941Y-113102402D01*
X63715977Y-112930345D01*
X63715975Y-112930342D01*
X63569657Y-112784024D01*
X63483626Y-112726541D01*
X63397598Y-112669059D01*
X63206420Y-112589870D01*
X63206412Y-112589868D01*
X63003469Y-112549500D01*
X63003465Y-112549500D01*
X62796535Y-112549500D01*
X62796530Y-112549500D01*
X62593587Y-112589868D01*
X62593579Y-112589870D01*
X62402403Y-112669058D01*
X62230342Y-112784024D01*
X62084024Y-112930342D01*
X61969058Y-113102403D01*
X61889870Y-113293579D01*
X61889868Y-113293587D01*
X61849500Y-113496530D01*
X61450499Y-113496530D01*
X61410130Y-113293580D01*
X61330941Y-113102402D01*
X61215977Y-112930345D01*
X61215975Y-112930342D01*
X61069657Y-112784024D01*
X60983626Y-112726541D01*
X60897598Y-112669059D01*
X60706420Y-112589870D01*
X60706412Y-112589868D01*
X60503469Y-112549500D01*
X60503465Y-112549500D01*
X60296535Y-112549500D01*
X60296530Y-112549500D01*
X60093587Y-112589868D01*
X60093579Y-112589870D01*
X59902403Y-112669058D01*
X59730342Y-112784024D01*
X59584024Y-112930342D01*
X59469058Y-113102403D01*
X59389870Y-113293579D01*
X59389868Y-113293587D01*
X59349500Y-113496530D01*
X58950499Y-113496530D01*
X58910130Y-113293580D01*
X58830941Y-113102402D01*
X58715977Y-112930345D01*
X58715975Y-112930342D01*
X58569657Y-112784024D01*
X58483626Y-112726541D01*
X58397598Y-112669059D01*
X58206420Y-112589870D01*
X58206412Y-112589868D01*
X58003469Y-112549500D01*
X58003465Y-112549500D01*
X57796535Y-112549500D01*
X57796530Y-112549500D01*
X57593587Y-112589868D01*
X57593579Y-112589870D01*
X57402403Y-112669058D01*
X57230342Y-112784024D01*
X57084024Y-112930342D01*
X56969058Y-113102403D01*
X56889870Y-113293579D01*
X56889868Y-113293587D01*
X56849500Y-113496530D01*
X56450499Y-113496530D01*
X56410130Y-113293580D01*
X56330941Y-113102402D01*
X56215977Y-112930345D01*
X56215975Y-112930342D01*
X56069657Y-112784024D01*
X55983626Y-112726541D01*
X55897598Y-112669059D01*
X55706420Y-112589870D01*
X55706412Y-112589868D01*
X55503469Y-112549500D01*
X55503465Y-112549500D01*
X55296535Y-112549500D01*
X55296530Y-112549500D01*
X55093587Y-112589868D01*
X55093579Y-112589870D01*
X54902403Y-112669058D01*
X54730342Y-112784024D01*
X54584024Y-112930342D01*
X54469058Y-113102403D01*
X54389870Y-113293579D01*
X54389868Y-113293587D01*
X54349500Y-113496530D01*
X53950499Y-113496530D01*
X53910130Y-113293580D01*
X53830941Y-113102402D01*
X53715977Y-112930345D01*
X53715975Y-112930342D01*
X53569657Y-112784024D01*
X53483626Y-112726541D01*
X53397598Y-112669059D01*
X53206420Y-112589870D01*
X53206412Y-112589868D01*
X53003469Y-112549500D01*
X53003465Y-112549500D01*
X52796535Y-112549500D01*
X52796530Y-112549500D01*
X52593587Y-112589868D01*
X52593579Y-112589870D01*
X52402403Y-112669058D01*
X52230342Y-112784024D01*
X52084024Y-112930342D01*
X51969058Y-113102403D01*
X51889870Y-113293579D01*
X51889868Y-113293587D01*
X51849500Y-113496530D01*
X51450499Y-113496530D01*
X51410130Y-113293580D01*
X51330941Y-113102402D01*
X51215977Y-112930345D01*
X51215975Y-112930342D01*
X51069657Y-112784024D01*
X50983626Y-112726541D01*
X50897598Y-112669059D01*
X50706420Y-112589870D01*
X50706412Y-112589868D01*
X50503469Y-112549500D01*
X50503465Y-112549500D01*
X50296535Y-112549500D01*
X50296530Y-112549500D01*
X50093587Y-112589868D01*
X50093579Y-112589870D01*
X49902403Y-112669058D01*
X49730342Y-112784024D01*
X49584024Y-112930342D01*
X49469058Y-113102403D01*
X49389870Y-113293579D01*
X49389868Y-113293587D01*
X49349500Y-113496530D01*
X48950499Y-113496530D01*
X48910130Y-113293580D01*
X48830941Y-113102402D01*
X48715977Y-112930345D01*
X48715975Y-112930342D01*
X48569657Y-112784024D01*
X48483626Y-112726541D01*
X48397598Y-112669059D01*
X48206420Y-112589870D01*
X48206412Y-112589868D01*
X48003469Y-112549500D01*
X48003465Y-112549500D01*
X47811229Y-112549500D01*
X47744190Y-112529815D01*
X47698435Y-112477011D01*
X47688491Y-112407853D01*
X47717516Y-112344297D01*
X47723548Y-112337819D01*
X58474548Y-101586819D01*
X58535871Y-101553334D01*
X58562229Y-101550500D01*
X63682796Y-101550500D01*
X63749835Y-101570185D01*
X63770477Y-101586819D01*
X63883072Y-101699414D01*
X64023212Y-101801232D01*
X64177555Y-101879873D01*
X64342299Y-101933402D01*
X64513389Y-101960500D01*
X64513390Y-101960500D01*
X64686610Y-101960500D01*
X64686611Y-101960500D01*
X64857701Y-101933402D01*
X65022445Y-101879873D01*
X65176788Y-101801232D01*
X65203614Y-101781741D01*
X65269419Y-101758261D01*
X65337473Y-101774086D01*
X65386169Y-101824191D01*
X65400500Y-101882059D01*
X65400500Y-102175500D01*
X65380815Y-102242539D01*
X65328011Y-102288294D01*
X65276500Y-102299500D01*
X63725323Y-102299500D01*
X63652264Y-102314032D01*
X63652260Y-102314033D01*
X63569399Y-102369399D01*
X63514033Y-102452260D01*
X63514032Y-102452264D01*
X63499500Y-102525321D01*
X63499500Y-104274678D01*
X63514032Y-104347735D01*
X63514033Y-104347739D01*
X63514034Y-104347740D01*
X63569399Y-104430601D01*
X63652260Y-104485966D01*
X63652264Y-104485967D01*
X63725321Y-104500499D01*
X63725324Y-104500500D01*
X63725326Y-104500500D01*
X65276500Y-104500500D01*
X65343539Y-104520185D01*
X65389294Y-104572989D01*
X65400500Y-104624500D01*
X65400500Y-109652456D01*
X65380815Y-109719495D01*
X65364181Y-109740137D01*
X64691137Y-110413181D01*
X64629814Y-110446666D01*
X64603456Y-110449500D01*
X64527525Y-110449500D01*
X64398993Y-110483940D01*
X64387511Y-110487017D01*
X64261988Y-110559488D01*
X64261982Y-110559493D01*
X64159493Y-110661982D01*
X64159488Y-110661988D01*
X64087017Y-110787511D01*
X64087016Y-110787515D01*
X64049500Y-110927525D01*
X64049500Y-111072475D01*
X64072817Y-111159493D01*
X64087017Y-111212488D01*
X64159488Y-111338011D01*
X64159490Y-111338013D01*
X64159491Y-111338015D01*
X64261985Y-111440509D01*
X64261986Y-111440510D01*
X64261988Y-111440511D01*
X64387511Y-111512982D01*
X64387512Y-111512982D01*
X64387515Y-111512984D01*
X64527525Y-111550500D01*
X64527528Y-111550500D01*
X64672472Y-111550500D01*
X64672475Y-111550500D01*
X64812485Y-111512984D01*
X64938015Y-111440509D01*
X65040509Y-111338015D01*
X65112984Y-111212485D01*
X65150500Y-111072475D01*
X65150500Y-110996544D01*
X65170185Y-110929505D01*
X65186819Y-110908863D01*
X65687819Y-110407863D01*
X65749142Y-110374378D01*
X65818834Y-110379362D01*
X65874767Y-110421234D01*
X65899184Y-110486698D01*
X65899500Y-110495544D01*
X65899500Y-110961860D01*
X65879815Y-111028899D01*
X65827011Y-111074654D01*
X65807598Y-111081634D01*
X65787514Y-111087016D01*
X65787511Y-111087017D01*
X65661988Y-111159488D01*
X65661982Y-111159493D01*
X65559493Y-111261982D01*
X65559488Y-111261988D01*
X65487017Y-111387511D01*
X65487016Y-111387515D01*
X65449500Y-111527525D01*
X65449500Y-111672475D01*
X65487016Y-111812485D01*
X65487017Y-111812488D01*
X65559488Y-111938011D01*
X65559490Y-111938013D01*
X65559491Y-111938015D01*
X65661985Y-112040509D01*
X65661986Y-112040510D01*
X65661988Y-112040511D01*
X65787511Y-112112982D01*
X65787512Y-112112982D01*
X65787515Y-112112984D01*
X65927525Y-112150500D01*
X65927528Y-112150500D01*
X66072472Y-112150500D01*
X66072475Y-112150500D01*
X66212485Y-112112984D01*
X66338015Y-112040509D01*
X66440509Y-111938015D01*
X66512984Y-111812485D01*
X66550500Y-111672475D01*
X66550500Y-111563743D01*
X66558273Y-111520530D01*
X66561902Y-111510768D01*
X66576614Y-111485288D01*
X66588612Y-111440509D01*
X66600500Y-111396144D01*
X66600500Y-103293753D01*
X67450000Y-103293753D01*
X67450000Y-103506246D01*
X67483242Y-103716127D01*
X67483242Y-103716130D01*
X67548904Y-103918217D01*
X67645375Y-104107550D01*
X67684728Y-104161716D01*
X68317037Y-103529408D01*
X68334075Y-103592993D01*
X68399901Y-103707007D01*
X68492993Y-103800099D01*
X68607007Y-103865925D01*
X68670590Y-103882962D01*
X68038282Y-104515269D01*
X68038282Y-104515270D01*
X68092449Y-104554624D01*
X68281782Y-104651095D01*
X68483870Y-104716757D01*
X68693754Y-104750000D01*
X68906246Y-104750000D01*
X69116127Y-104716757D01*
X69116130Y-104716757D01*
X69318217Y-104651095D01*
X69507554Y-104554622D01*
X69561716Y-104515270D01*
X69561717Y-104515270D01*
X68929408Y-103882962D01*
X68992993Y-103865925D01*
X69107007Y-103800099D01*
X69200099Y-103707007D01*
X69265925Y-103592993D01*
X69282962Y-103529408D01*
X69915270Y-104161717D01*
X69915270Y-104161716D01*
X69954622Y-104107554D01*
X70051095Y-103918217D01*
X70116757Y-103716130D01*
X70116757Y-103716127D01*
X70150000Y-103506246D01*
X70150000Y-103293753D01*
X70116757Y-103083872D01*
X70116757Y-103083869D01*
X70051095Y-102881782D01*
X69954624Y-102692449D01*
X69915270Y-102638282D01*
X69915269Y-102638282D01*
X69282962Y-103270590D01*
X69265925Y-103207007D01*
X69200099Y-103092993D01*
X69107007Y-102999901D01*
X68992993Y-102934075D01*
X68929409Y-102917037D01*
X69561716Y-102284728D01*
X69507550Y-102245375D01*
X69318217Y-102148904D01*
X69219287Y-102116760D01*
X69161611Y-102077323D01*
X69134413Y-102012964D01*
X69146328Y-101944118D01*
X69193572Y-101892642D01*
X69219290Y-101880897D01*
X69222445Y-101879873D01*
X69376788Y-101801232D01*
X69516928Y-101699414D01*
X69639414Y-101576928D01*
X69741232Y-101436788D01*
X69819873Y-101282445D01*
X69873402Y-101117701D01*
X69900500Y-100946611D01*
X69900500Y-100773389D01*
X69873402Y-100602299D01*
X69819873Y-100437555D01*
X69741232Y-100283212D01*
X69639414Y-100143072D01*
X69516928Y-100020586D01*
X69376788Y-99918768D01*
X69222445Y-99840127D01*
X69057701Y-99786598D01*
X69057699Y-99786597D01*
X69057698Y-99786597D01*
X68926271Y-99765781D01*
X68886611Y-99759500D01*
X68713389Y-99759500D01*
X68673728Y-99765781D01*
X68542302Y-99786597D01*
X68377552Y-99840128D01*
X68223211Y-99918768D01*
X68143256Y-99976859D01*
X68083072Y-100020586D01*
X68083070Y-100020588D01*
X68083069Y-100020588D01*
X67960588Y-100143069D01*
X67960588Y-100143070D01*
X67960586Y-100143072D01*
X67926640Y-100189794D01*
X67858768Y-100283211D01*
X67780128Y-100437552D01*
X67726597Y-100602302D01*
X67699500Y-100773389D01*
X67699500Y-100946611D01*
X67726598Y-101117701D01*
X67780127Y-101282445D01*
X67858768Y-101436788D01*
X67960586Y-101576928D01*
X68083072Y-101699414D01*
X68223212Y-101801232D01*
X68377555Y-101879873D01*
X68380708Y-101880897D01*
X68381752Y-101881611D01*
X68382048Y-101881734D01*
X68382022Y-101881795D01*
X68438383Y-101920330D01*
X68465585Y-101984688D01*
X68453674Y-102053535D01*
X68406433Y-102105013D01*
X68380712Y-102116760D01*
X68281783Y-102148904D01*
X68092439Y-102245380D01*
X68038282Y-102284727D01*
X68038282Y-102284728D01*
X68670591Y-102917037D01*
X68607007Y-102934075D01*
X68492993Y-102999901D01*
X68399901Y-103092993D01*
X68334075Y-103207007D01*
X68317037Y-103270591D01*
X67684728Y-102638282D01*
X67684727Y-102638282D01*
X67645380Y-102692439D01*
X67548904Y-102881782D01*
X67483242Y-103083869D01*
X67483242Y-103083872D01*
X67450000Y-103293753D01*
X66600500Y-103293753D01*
X66600500Y-97445321D01*
X67699500Y-97445321D01*
X67699500Y-99194678D01*
X67714032Y-99267735D01*
X67714033Y-99267739D01*
X67714034Y-99267740D01*
X67769399Y-99350601D01*
X67852260Y-99405966D01*
X67852264Y-99405967D01*
X67925321Y-99420499D01*
X67925324Y-99420500D01*
X67925326Y-99420500D01*
X69674676Y-99420500D01*
X69674677Y-99420499D01*
X69747740Y-99405966D01*
X69830601Y-99350601D01*
X69885966Y-99267740D01*
X69900500Y-99194674D01*
X69900500Y-97445326D01*
X69900500Y-97445323D01*
X69900499Y-97445321D01*
X69885967Y-97372264D01*
X69885966Y-97372260D01*
X69830601Y-97289399D01*
X69747740Y-97234034D01*
X69747739Y-97234033D01*
X69747735Y-97234032D01*
X69674677Y-97219500D01*
X69674674Y-97219500D01*
X67925326Y-97219500D01*
X67925323Y-97219500D01*
X67852264Y-97234032D01*
X67852260Y-97234033D01*
X67769399Y-97289399D01*
X67714033Y-97372260D01*
X67714032Y-97372264D01*
X67699500Y-97445321D01*
X66600500Y-97445321D01*
X66600500Y-93203856D01*
X66576614Y-93114712D01*
X66556844Y-93080470D01*
X66556844Y-93080468D01*
X66530474Y-93034794D01*
X66530468Y-93034786D01*
X57886819Y-84391137D01*
X57853334Y-84329814D01*
X57850500Y-84303456D01*
X57850500Y-82464358D01*
X57870185Y-82397319D01*
X57922989Y-82351564D01*
X57992147Y-82341620D01*
X58055703Y-82370645D01*
X58074818Y-82391473D01*
X58170510Y-82523184D01*
X58320833Y-82673507D01*
X58492799Y-82798446D01*
X58492801Y-82798447D01*
X58492804Y-82798449D01*
X58682208Y-82894955D01*
X58884377Y-82960644D01*
X59094333Y-82993898D01*
X59094334Y-82993898D01*
X59306906Y-82993898D01*
X59306907Y-82993898D01*
X59516863Y-82960644D01*
X59719032Y-82894955D01*
X59908436Y-82798449D01*
X59930409Y-82782484D01*
X60080406Y-82673507D01*
X60080408Y-82673504D01*
X60080412Y-82673502D01*
X60230724Y-82523190D01*
X60230726Y-82523186D01*
X60230729Y-82523184D01*
X60355668Y-82351218D01*
X60355667Y-82351218D01*
X60355671Y-82351214D01*
X60452177Y-82161810D01*
X60517866Y-81959641D01*
X60551120Y-81749685D01*
X60551120Y-81537111D01*
X60517866Y-81327155D01*
X60452177Y-81124986D01*
X60355671Y-80935582D01*
X60355669Y-80935579D01*
X60355668Y-80935577D01*
X60230729Y-80763611D01*
X60080406Y-80613288D01*
X59908440Y-80488349D01*
X59719034Y-80391842D01*
X59719033Y-80391841D01*
X59719032Y-80391841D01*
X59516863Y-80326152D01*
X59516861Y-80326151D01*
X59516860Y-80326151D01*
X59355577Y-80300606D01*
X59306907Y-80292898D01*
X59094333Y-80292898D01*
X59045662Y-80300606D01*
X58884380Y-80326151D01*
X58682205Y-80391842D01*
X58492799Y-80488349D01*
X58320833Y-80613288D01*
X58170514Y-80763607D01*
X58170510Y-80763612D01*
X58074818Y-80895322D01*
X58019488Y-80937988D01*
X57949875Y-80943967D01*
X57888080Y-80911361D01*
X57853723Y-80850523D01*
X57850500Y-80822437D01*
X57850500Y-41464358D01*
X57870185Y-41397319D01*
X57922989Y-41351564D01*
X57992147Y-41341620D01*
X58055703Y-41370645D01*
X58074818Y-41391473D01*
X58170510Y-41523184D01*
X58320833Y-41673507D01*
X58492799Y-41798446D01*
X58492801Y-41798447D01*
X58492804Y-41798449D01*
X58682208Y-41894955D01*
X58884377Y-41960644D01*
X59094333Y-41993898D01*
X59094334Y-41993898D01*
X59306906Y-41993898D01*
X59306907Y-41993898D01*
X59516863Y-41960644D01*
X59719032Y-41894955D01*
X59908436Y-41798449D01*
X59930409Y-41782484D01*
X60080406Y-41673507D01*
X60080408Y-41673504D01*
X60080412Y-41673502D01*
X60230724Y-41523190D01*
X60230726Y-41523186D01*
X60230729Y-41523184D01*
X60355668Y-41351218D01*
X60355667Y-41351218D01*
X60355671Y-41351214D01*
X60452177Y-41161810D01*
X60517866Y-40959641D01*
X60551120Y-40749685D01*
X60551120Y-40537111D01*
X60517866Y-40327155D01*
X60452177Y-40124986D01*
X60355671Y-39935582D01*
X60355669Y-39935579D01*
X60355668Y-39935577D01*
X60230729Y-39763611D01*
X60080406Y-39613288D01*
X59908440Y-39488349D01*
X59719034Y-39391842D01*
X59719033Y-39391841D01*
X59719032Y-39391841D01*
X59516863Y-39326152D01*
X59516861Y-39326151D01*
X59516860Y-39326151D01*
X59355577Y-39300606D01*
X59306907Y-39292898D01*
X59094333Y-39292898D01*
X59045662Y-39300606D01*
X58884380Y-39326151D01*
X58682205Y-39391842D01*
X58492799Y-39488349D01*
X58320833Y-39613288D01*
X58170514Y-39763607D01*
X58170510Y-39763612D01*
X58074818Y-39895322D01*
X58019488Y-39937988D01*
X57949875Y-39943967D01*
X57888080Y-39911361D01*
X57853723Y-39850523D01*
X57850500Y-39822437D01*
X57850500Y-34806542D01*
X57870185Y-34739503D01*
X57886814Y-34718866D01*
X58408869Y-34196810D01*
X58470189Y-34163328D01*
X58539880Y-34168312D01*
X58595814Y-34210183D01*
X58620231Y-34275648D01*
X58619021Y-34303891D01*
X58606700Y-34381687D01*
X58606700Y-34618317D01*
X58643715Y-34852024D01*
X58716838Y-35077071D01*
X58824260Y-35287897D01*
X58884977Y-35371468D01*
X59432956Y-34823488D01*
X59445979Y-34854927D01*
X59527980Y-34977651D01*
X59632349Y-35082020D01*
X59755073Y-35164021D01*
X59786509Y-35177042D01*
X59238529Y-35725021D01*
X59238530Y-35725022D01*
X59322094Y-35785735D01*
X59532928Y-35893161D01*
X59757975Y-35966284D01*
X59991683Y-36003300D01*
X60228317Y-36003300D01*
X60419057Y-35973089D01*
X60488350Y-35982043D01*
X60541802Y-36027039D01*
X60562442Y-36093791D01*
X60556387Y-36133877D01*
X60543986Y-36172046D01*
X60509501Y-36389777D01*
X60509501Y-36610220D01*
X60543986Y-36827951D01*
X60612104Y-37037602D01*
X60612105Y-37037605D01*
X60712188Y-37234024D01*
X60841753Y-37412357D01*
X60841757Y-37412362D01*
X60997637Y-37568242D01*
X60997642Y-37568246D01*
X61153193Y-37681259D01*
X61175979Y-37697814D01*
X61304376Y-37763236D01*
X61372394Y-37797894D01*
X61372397Y-37797895D01*
X61477222Y-37831954D01*
X61582050Y-37866014D01*
X61799779Y-37900499D01*
X61799780Y-37900499D01*
X62420222Y-37900499D01*
X62420223Y-37900499D01*
X62637952Y-37866014D01*
X62847607Y-37797894D01*
X63044023Y-37697814D01*
X63222366Y-37568241D01*
X63378243Y-37412364D01*
X63507816Y-37234021D01*
X63607896Y-37037605D01*
X63676016Y-36827950D01*
X63710501Y-36610221D01*
X63710501Y-36389777D01*
X63676016Y-36172048D01*
X63641956Y-36067220D01*
X63607897Y-35962395D01*
X63607896Y-35962392D01*
X63572620Y-35893161D01*
X63507816Y-35765977D01*
X63478060Y-35725021D01*
X63378248Y-35587640D01*
X63378244Y-35587635D01*
X63222364Y-35431755D01*
X63222359Y-35431751D01*
X63044026Y-35302186D01*
X63044025Y-35302185D01*
X63044023Y-35302184D01*
X62981097Y-35270121D01*
X62847607Y-35202103D01*
X62847604Y-35202102D01*
X62637953Y-35133984D01*
X62529087Y-35116741D01*
X62420223Y-35099499D01*
X61799779Y-35099499D01*
X61689683Y-35116936D01*
X61679243Y-35118590D01*
X61609950Y-35109634D01*
X61556498Y-35064637D01*
X61535859Y-34997886D01*
X61541915Y-34957796D01*
X61576284Y-34852022D01*
X61613300Y-34618317D01*
X61613300Y-34381682D01*
X61576284Y-34147975D01*
X61503161Y-33922928D01*
X61395735Y-33712094D01*
X61335022Y-33628530D01*
X61335021Y-33628529D01*
X60787042Y-34176509D01*
X60774021Y-34145073D01*
X60692020Y-34022349D01*
X60587651Y-33917980D01*
X60464927Y-33835979D01*
X60433488Y-33822956D01*
X60981468Y-33274977D01*
X60897894Y-33214258D01*
X60886519Y-33208462D01*
X60835723Y-33160487D01*
X60818929Y-33092666D01*
X60841467Y-33026531D01*
X60869924Y-32997664D01*
X60926796Y-32956345D01*
X61066345Y-32816796D01*
X61182346Y-32657134D01*
X61271942Y-32481292D01*
X61274451Y-32473570D01*
X61332926Y-32293603D01*
X61332926Y-32293602D01*
X61332927Y-32293599D01*
X61363800Y-32098676D01*
X61363800Y-31901324D01*
X61332927Y-31706401D01*
X61332926Y-31706397D01*
X61332926Y-31706396D01*
X61271943Y-31518710D01*
X61252263Y-31480086D01*
X61182346Y-31342866D01*
X61066345Y-31183204D01*
X60926796Y-31043655D01*
X60767134Y-30927654D01*
X60635306Y-30860484D01*
X60584511Y-30812510D01*
X60567716Y-30744690D01*
X60590253Y-30678555D01*
X60635307Y-30639515D01*
X60767134Y-30572346D01*
X60926796Y-30456345D01*
X61066345Y-30316796D01*
X61182346Y-30157134D01*
X61271942Y-29981292D01*
X61332927Y-29793599D01*
X61363800Y-29598676D01*
X61363800Y-29401324D01*
X61332927Y-29206401D01*
X61332926Y-29206397D01*
X61332926Y-29206396D01*
X61271942Y-29018708D01*
X61253089Y-28981707D01*
X61240192Y-28913038D01*
X61266467Y-28848297D01*
X61323573Y-28808040D01*
X61393379Y-28805046D01*
X61401891Y-28807480D01*
X61403615Y-28808040D01*
X61582050Y-28866016D01*
X61799779Y-28900501D01*
X61799780Y-28900501D01*
X62420222Y-28900501D01*
X62420223Y-28900501D01*
X62637952Y-28866016D01*
X62847607Y-28797896D01*
X63044023Y-28697816D01*
X63222366Y-28568243D01*
X63378243Y-28412366D01*
X63507816Y-28234023D01*
X63607896Y-28037607D01*
X63676016Y-27827952D01*
X63710501Y-27610223D01*
X63710501Y-27389779D01*
X63676016Y-27172050D01*
X63607896Y-26962395D01*
X63607896Y-26962394D01*
X63573238Y-26894376D01*
X63507816Y-26765979D01*
X63470585Y-26714734D01*
X63378248Y-26587642D01*
X63378244Y-26587637D01*
X63275865Y-26485258D01*
X70749500Y-26485258D01*
X70749500Y-26714741D01*
X70774446Y-26904215D01*
X70779452Y-26942238D01*
X70779453Y-26942240D01*
X70838842Y-27163887D01*
X70926650Y-27375876D01*
X70926657Y-27375890D01*
X71041392Y-27574617D01*
X71181081Y-27756661D01*
X71181089Y-27756670D01*
X71343330Y-27918911D01*
X71343338Y-27918918D01*
X71525382Y-28058607D01*
X71525385Y-28058608D01*
X71525388Y-28058611D01*
X71724112Y-28173344D01*
X71724117Y-28173346D01*
X71724123Y-28173349D01*
X71807066Y-28207705D01*
X71936113Y-28261158D01*
X72157762Y-28320548D01*
X72385266Y-28350500D01*
X72385273Y-28350500D01*
X72614727Y-28350500D01*
X72614734Y-28350500D01*
X72842238Y-28320548D01*
X73063887Y-28261158D01*
X73275888Y-28173344D01*
X73474612Y-28058611D01*
X73656661Y-27918919D01*
X73656665Y-27918914D01*
X73656670Y-27918911D01*
X73818911Y-27756670D01*
X73818914Y-27756665D01*
X73818919Y-27756661D01*
X73958611Y-27574612D01*
X74073344Y-27375888D01*
X74161158Y-27163887D01*
X74220548Y-26942238D01*
X74250500Y-26714734D01*
X74250500Y-26485266D01*
X74220548Y-26257762D01*
X74161158Y-26036113D01*
X74073344Y-25824112D01*
X73958611Y-25625388D01*
X73958608Y-25625385D01*
X73958607Y-25625382D01*
X73818918Y-25443338D01*
X73818911Y-25443330D01*
X73656670Y-25281089D01*
X73656661Y-25281081D01*
X73474617Y-25141392D01*
X73275890Y-25026657D01*
X73275876Y-25026650D01*
X73063887Y-24938842D01*
X72842238Y-24879452D01*
X72804215Y-24874446D01*
X72614741Y-24849500D01*
X72614734Y-24849500D01*
X72385266Y-24849500D01*
X72385258Y-24849500D01*
X72168715Y-24878009D01*
X72157762Y-24879452D01*
X72064076Y-24904554D01*
X71936112Y-24938842D01*
X71724123Y-25026650D01*
X71724109Y-25026657D01*
X71525382Y-25141392D01*
X71343338Y-25281081D01*
X71181081Y-25443338D01*
X71041392Y-25625382D01*
X70926657Y-25824109D01*
X70926650Y-25824123D01*
X70838842Y-26036112D01*
X70779453Y-26257759D01*
X70779451Y-26257770D01*
X70749500Y-26485258D01*
X63275865Y-26485258D01*
X63222364Y-26431757D01*
X63222359Y-26431753D01*
X63044026Y-26302188D01*
X63044025Y-26302187D01*
X63044023Y-26302186D01*
X62956831Y-26257759D01*
X62847607Y-26202105D01*
X62847604Y-26202104D01*
X62637953Y-26133986D01*
X62529087Y-26116743D01*
X62420223Y-26099501D01*
X61799779Y-26099501D01*
X61727202Y-26110996D01*
X61582048Y-26133986D01*
X61372397Y-26202104D01*
X61372394Y-26202105D01*
X61175975Y-26302188D01*
X60997642Y-26431753D01*
X60997637Y-26431757D01*
X60841757Y-26587637D01*
X60841753Y-26587642D01*
X60712188Y-26765975D01*
X60612105Y-26962394D01*
X60612104Y-26962397D01*
X60543986Y-27172048D01*
X60509501Y-27389779D01*
X60509501Y-27610222D01*
X60543986Y-27827953D01*
X60612104Y-28037604D01*
X60612107Y-28037612D01*
X60663787Y-28139036D01*
X60676684Y-28207705D01*
X60650408Y-28272446D01*
X60593302Y-28312704D01*
X60523497Y-28315696D01*
X60514986Y-28313263D01*
X60403607Y-28277074D01*
X60403600Y-28277073D01*
X60303110Y-28261157D01*
X60208676Y-28246200D01*
X60011324Y-28246200D01*
X59946349Y-28256491D01*
X59816399Y-28277073D01*
X59816396Y-28277073D01*
X59628710Y-28338056D01*
X59452865Y-28427654D01*
X59293201Y-28543657D01*
X59153657Y-28683201D01*
X59037654Y-28842865D01*
X58948056Y-29018710D01*
X58887073Y-29206396D01*
X58887073Y-29206399D01*
X58856200Y-29401324D01*
X58856200Y-29598675D01*
X58887073Y-29793599D01*
X58948059Y-29981296D01*
X58969591Y-30023553D01*
X58982487Y-30092222D01*
X58956211Y-30156963D01*
X58946787Y-30167529D01*
X56719531Y-32394786D01*
X56719529Y-32394789D01*
X56674046Y-32473570D01*
X56674039Y-32473581D01*
X56673388Y-32474707D01*
X56673386Y-32474710D01*
X56673386Y-32474712D01*
X56649500Y-32563856D01*
X56649500Y-32563858D01*
X56649500Y-84796144D01*
X56664065Y-84850501D01*
X56664065Y-84850502D01*
X56673384Y-84885284D01*
X56673385Y-84885286D01*
X56719527Y-84965208D01*
X56719531Y-84965213D01*
X65364181Y-93609863D01*
X65397666Y-93671186D01*
X65400500Y-93697544D01*
X65400500Y-97010385D01*
X65380815Y-97077424D01*
X65328011Y-97123179D01*
X65258853Y-97133123D01*
X65220205Y-97120870D01*
X65118217Y-97068904D01*
X64916129Y-97003242D01*
X64706246Y-96970000D01*
X64493754Y-96970000D01*
X64283872Y-97003242D01*
X64283869Y-97003242D01*
X64081782Y-97068904D01*
X63892439Y-97165380D01*
X63838282Y-97204727D01*
X63838282Y-97204728D01*
X64470591Y-97837037D01*
X64407007Y-97854075D01*
X64292993Y-97919901D01*
X64199901Y-98012993D01*
X64134075Y-98127007D01*
X64117037Y-98190591D01*
X63484728Y-97558282D01*
X63484727Y-97558282D01*
X63445380Y-97612439D01*
X63348904Y-97801782D01*
X63283242Y-98003869D01*
X63283242Y-98003872D01*
X63250000Y-98213753D01*
X63250000Y-98426246D01*
X63283242Y-98636127D01*
X63283242Y-98636130D01*
X63348904Y-98838217D01*
X63445375Y-99027550D01*
X63484728Y-99081716D01*
X64117037Y-98449408D01*
X64134075Y-98512993D01*
X64199901Y-98627007D01*
X64292993Y-98720099D01*
X64407007Y-98785925D01*
X64470589Y-98802962D01*
X63838282Y-99435269D01*
X63838282Y-99435270D01*
X63892449Y-99474624D01*
X64081784Y-99571096D01*
X64180711Y-99603239D01*
X64238387Y-99642676D01*
X64265586Y-99707034D01*
X64253672Y-99775881D01*
X64206428Y-99827357D01*
X64180722Y-99839097D01*
X64179522Y-99839487D01*
X64177550Y-99840128D01*
X64023211Y-99918768D01*
X63949135Y-99972587D01*
X63883072Y-100020586D01*
X63883069Y-100020588D01*
X63879131Y-100023450D01*
X63878322Y-100022337D01*
X63820233Y-100048362D01*
X63803472Y-100049500D01*
X58126076Y-100049500D01*
X58097242Y-100055234D01*
X58097243Y-100055235D01*
X57981092Y-100078339D01*
X57981086Y-100078341D01*
X57905864Y-100109500D01*
X57844509Y-100134914D01*
X57844501Y-100134918D01*
X57762372Y-100189795D01*
X57721585Y-100217047D01*
X57721581Y-100217050D01*
X45425451Y-112513181D01*
X45364128Y-112546666D01*
X45337770Y-112549500D01*
X45296530Y-112549500D01*
X45093587Y-112589868D01*
X45093579Y-112589870D01*
X44902403Y-112669058D01*
X44730342Y-112784024D01*
X44584024Y-112930342D01*
X44469058Y-113102403D01*
X44389870Y-113293579D01*
X44389868Y-113293587D01*
X44349500Y-113496530D01*
X43950499Y-113496530D01*
X43910130Y-113293580D01*
X43830941Y-113102402D01*
X43715977Y-112930345D01*
X43715975Y-112930342D01*
X43569657Y-112784024D01*
X43483626Y-112726541D01*
X43397598Y-112669059D01*
X43206420Y-112589870D01*
X43206412Y-112589868D01*
X43003469Y-112549500D01*
X43003465Y-112549500D01*
X42796535Y-112549500D01*
X42796530Y-112549500D01*
X42593587Y-112589868D01*
X42593579Y-112589870D01*
X42402403Y-112669058D01*
X42230342Y-112784024D01*
X42084024Y-112930342D01*
X41969057Y-113102403D01*
X41893789Y-113284118D01*
X41849948Y-113338521D01*
X41783654Y-113360586D01*
X41715954Y-113343307D01*
X41668344Y-113292169D01*
X41661297Y-113274984D01*
X41604755Y-113100968D01*
X41511859Y-112918650D01*
X41479474Y-112874077D01*
X41479474Y-112874076D01*
X40753553Y-113599999D01*
X40700000Y-113599999D01*
X40700000Y-113560504D01*
X40679556Y-113484204D01*
X40640060Y-113415795D01*
X40584205Y-113359940D01*
X40515796Y-113320444D01*
X40439496Y-113300000D01*
X40360504Y-113300000D01*
X40284204Y-113320444D01*
X40215795Y-113359940D01*
X40159940Y-113415795D01*
X40120444Y-113484204D01*
X40100000Y-113560504D01*
X40006951Y-113560504D01*
X39320524Y-112874077D01*
X39320523Y-112874077D01*
X39288143Y-112918644D01*
X39195244Y-113100968D01*
X39132009Y-113295582D01*
X39100000Y-113497682D01*
X33385400Y-113497682D01*
X33415212Y-113480470D01*
X34375159Y-112520523D01*
X39674077Y-112520523D01*
X39674077Y-112520524D01*
X40400000Y-113246446D01*
X41125922Y-112520524D01*
X41125921Y-112520523D01*
X41081359Y-112488147D01*
X41081350Y-112488141D01*
X40899031Y-112395244D01*
X40704417Y-112332009D01*
X40502317Y-112300000D01*
X40297683Y-112300000D01*
X40095582Y-112332009D01*
X39900968Y-112395244D01*
X39718644Y-112488143D01*
X39674077Y-112520523D01*
X34375159Y-112520523D01*
X36108863Y-110786819D01*
X36170186Y-110753334D01*
X36196544Y-110750500D01*
X36272472Y-110750500D01*
X36272475Y-110750500D01*
X36412485Y-110712984D01*
X36538015Y-110640509D01*
X36640509Y-110538015D01*
X36646565Y-110527525D01*
X44449500Y-110527525D01*
X44449500Y-110672475D01*
X44487016Y-110812485D01*
X44487017Y-110812488D01*
X44559488Y-110938011D01*
X44559490Y-110938013D01*
X44559491Y-110938015D01*
X44661985Y-111040509D01*
X44661986Y-111040510D01*
X44661988Y-111040511D01*
X44787511Y-111112982D01*
X44787512Y-111112982D01*
X44787515Y-111112984D01*
X44927525Y-111150500D01*
X44927528Y-111150500D01*
X45072472Y-111150500D01*
X45072475Y-111150500D01*
X45212485Y-111112984D01*
X45338015Y-111040509D01*
X45391705Y-110986819D01*
X45453028Y-110953334D01*
X45479386Y-110950500D01*
X46246142Y-110950500D01*
X46246144Y-110950500D01*
X46335288Y-110926614D01*
X46345912Y-110920480D01*
X46415212Y-110880470D01*
X63080470Y-94215212D01*
X63126614Y-94135288D01*
X63150500Y-94046144D01*
X63150500Y-93220362D01*
X63170185Y-93153323D01*
X63212499Y-93112975D01*
X63338015Y-93040509D01*
X63440509Y-92938015D01*
X63512984Y-92812485D01*
X63550500Y-92672475D01*
X63550500Y-92527525D01*
X63512984Y-92387515D01*
X63440509Y-92261985D01*
X63338015Y-92159491D01*
X63338013Y-92159490D01*
X63338011Y-92159488D01*
X63212488Y-92087017D01*
X63212489Y-92087017D01*
X63201006Y-92083940D01*
X63072475Y-92049500D01*
X62927525Y-92049500D01*
X62798993Y-92083940D01*
X62787511Y-92087017D01*
X62661988Y-92159488D01*
X62661982Y-92159493D01*
X62559493Y-92261982D01*
X62559488Y-92261988D01*
X62487017Y-92387511D01*
X62487016Y-92387515D01*
X62449500Y-92527525D01*
X62449500Y-92527527D01*
X62449500Y-92672474D01*
X62451805Y-92681078D01*
X62451805Y-92745250D01*
X62449500Y-92753851D01*
X62449500Y-93803456D01*
X62429815Y-93870495D01*
X62413181Y-93891137D01*
X59838800Y-96465517D01*
X59777477Y-96499002D01*
X59707785Y-96494018D01*
X59651852Y-96452146D01*
X59627435Y-96386682D01*
X59640635Y-96321539D01*
X59652104Y-96299030D01*
X59715339Y-96104417D01*
X59747349Y-95902317D01*
X59747349Y-95697682D01*
X59715339Y-95495582D01*
X59652104Y-95300968D01*
X59559208Y-95118650D01*
X59526823Y-95074077D01*
X59526823Y-95074076D01*
X58847349Y-95753553D01*
X58847349Y-95747339D01*
X58820090Y-95645606D01*
X58767429Y-95554394D01*
X58692955Y-95479920D01*
X58601743Y-95427259D01*
X58500010Y-95400000D01*
X58493795Y-95400000D01*
X59173271Y-94720524D01*
X59173270Y-94720523D01*
X59128708Y-94688147D01*
X59128699Y-94688141D01*
X58946380Y-94595244D01*
X58751766Y-94532009D01*
X58549666Y-94500000D01*
X58345032Y-94500000D01*
X58142931Y-94532009D01*
X57948317Y-94595244D01*
X57765993Y-94688143D01*
X57721426Y-94720523D01*
X57721426Y-94720524D01*
X58400903Y-95400000D01*
X58394688Y-95400000D01*
X58292955Y-95427259D01*
X58201743Y-95479920D01*
X58127269Y-95554394D01*
X58074608Y-95645606D01*
X58047349Y-95747339D01*
X58047349Y-95753553D01*
X57367873Y-95074077D01*
X57367872Y-95074077D01*
X57335492Y-95118644D01*
X57242593Y-95300968D01*
X57179358Y-95495582D01*
X57147349Y-95697682D01*
X57147349Y-95902317D01*
X57179358Y-96104417D01*
X57242593Y-96299031D01*
X57335490Y-96481350D01*
X57335496Y-96481359D01*
X57367872Y-96525921D01*
X57367873Y-96525922D01*
X58047349Y-95846446D01*
X58047349Y-95852661D01*
X58074608Y-95954394D01*
X58127269Y-96045606D01*
X58201743Y-96120080D01*
X58292955Y-96172741D01*
X58394688Y-96200000D01*
X58400902Y-96200000D01*
X57721425Y-96879474D01*
X57765999Y-96911859D01*
X57948317Y-97004755D01*
X58142931Y-97067990D01*
X58345032Y-97100000D01*
X58549666Y-97100000D01*
X58751766Y-97067990D01*
X58946379Y-97004755D01*
X58968888Y-96993286D01*
X59037557Y-96980389D01*
X59102298Y-97006664D01*
X59142556Y-97063769D01*
X59145550Y-97133575D01*
X59112866Y-97191451D01*
X46091137Y-110213181D01*
X46029814Y-110246666D01*
X46003456Y-110249500D01*
X45479386Y-110249500D01*
X45412347Y-110229815D01*
X45391705Y-110213181D01*
X45338017Y-110159493D01*
X45338011Y-110159488D01*
X45212488Y-110087017D01*
X45212489Y-110087017D01*
X45201006Y-110083940D01*
X45072475Y-110049500D01*
X44927525Y-110049500D01*
X44798993Y-110083940D01*
X44787511Y-110087017D01*
X44661988Y-110159488D01*
X44661982Y-110159493D01*
X44559493Y-110261982D01*
X44559488Y-110261988D01*
X44487017Y-110387511D01*
X44487016Y-110387515D01*
X44449500Y-110527525D01*
X36646565Y-110527525D01*
X36712984Y-110412485D01*
X36750500Y-110272475D01*
X36750500Y-110127525D01*
X36712984Y-109987515D01*
X36640509Y-109861985D01*
X36538015Y-109759491D01*
X36538013Y-109759490D01*
X36538011Y-109759488D01*
X36412488Y-109687017D01*
X36412489Y-109687017D01*
X36401006Y-109683940D01*
X36272475Y-109649500D01*
X36127525Y-109649500D01*
X35998993Y-109683940D01*
X35987511Y-109687017D01*
X35861988Y-109759488D01*
X35861982Y-109759493D01*
X35759493Y-109861982D01*
X35759488Y-109861988D01*
X35687017Y-109987511D01*
X35687016Y-109987515D01*
X35649500Y-110127525D01*
X35649500Y-110127527D01*
X35649500Y-110203456D01*
X35629815Y-110270495D01*
X35613181Y-110291137D01*
X33091137Y-112813181D01*
X33029814Y-112846666D01*
X33003456Y-112849500D01*
X31996544Y-112849500D01*
X31929505Y-112829815D01*
X31908863Y-112813181D01*
X31505296Y-112409614D01*
X31471811Y-112348291D01*
X31476795Y-112278599D01*
X31485590Y-112259932D01*
X31495170Y-112243339D01*
X31512984Y-112212485D01*
X31550500Y-112072475D01*
X31550500Y-111927525D01*
X31512984Y-111787515D01*
X31446565Y-111672475D01*
X31440511Y-111661988D01*
X31440506Y-111661982D01*
X31338017Y-111559493D01*
X31338011Y-111559488D01*
X31212488Y-111487017D01*
X31212489Y-111487017D01*
X31201006Y-111483940D01*
X31072475Y-111449500D01*
X30927525Y-111449500D01*
X30798993Y-111483940D01*
X30787511Y-111487017D01*
X30661988Y-111559488D01*
X30661982Y-111559493D01*
X30559493Y-111661982D01*
X30559488Y-111661988D01*
X30487017Y-111787511D01*
X30487016Y-111787515D01*
X30449500Y-111927525D01*
X28450598Y-111927525D01*
X28275888Y-111826656D01*
X28275876Y-111826650D01*
X28063887Y-111738842D01*
X27842238Y-111679452D01*
X27804215Y-111674446D01*
X27614741Y-111649500D01*
X27614734Y-111649500D01*
X27385266Y-111649500D01*
X27385258Y-111649500D01*
X27168715Y-111678009D01*
X27157762Y-111679452D01*
X27064076Y-111704554D01*
X26936112Y-111738842D01*
X26724123Y-111826650D01*
X26724109Y-111826657D01*
X26525382Y-111941392D01*
X26343338Y-112081081D01*
X26181081Y-112243338D01*
X26041392Y-112425382D01*
X25926657Y-112624109D01*
X25926650Y-112624123D01*
X25838842Y-112836112D01*
X25779453Y-113057759D01*
X25779451Y-113057770D01*
X25749500Y-113285258D01*
X25000500Y-113285258D01*
X25000500Y-95202135D01*
X53896849Y-95202135D01*
X53896849Y-96397870D01*
X53896850Y-96397876D01*
X53903257Y-96457483D01*
X53953551Y-96592328D01*
X53953555Y-96592335D01*
X54039801Y-96707544D01*
X54039804Y-96707547D01*
X54155013Y-96793793D01*
X54155020Y-96793797D01*
X54289866Y-96844091D01*
X54289865Y-96844091D01*
X54296793Y-96844835D01*
X54349476Y-96850500D01*
X55545221Y-96850499D01*
X55604832Y-96844091D01*
X55739680Y-96793796D01*
X55854895Y-96707546D01*
X55941145Y-96592331D01*
X55991440Y-96457483D01*
X55997849Y-96397873D01*
X55997848Y-95202128D01*
X55991440Y-95142517D01*
X55982538Y-95118650D01*
X55941146Y-95007671D01*
X55941142Y-95007664D01*
X55854896Y-94892455D01*
X55854893Y-94892452D01*
X55820959Y-94867049D01*
X55739684Y-94806206D01*
X55739677Y-94806202D01*
X55604831Y-94755908D01*
X55604832Y-94755908D01*
X55545232Y-94749501D01*
X55545230Y-94749500D01*
X55545222Y-94749500D01*
X55545213Y-94749500D01*
X54349478Y-94749500D01*
X54349472Y-94749501D01*
X54289865Y-94755908D01*
X54155020Y-94806202D01*
X54155013Y-94806206D01*
X54039804Y-94892452D01*
X54039801Y-94892455D01*
X53953555Y-95007664D01*
X53953551Y-95007671D01*
X53903257Y-95142517D01*
X53896850Y-95202116D01*
X53896850Y-95202123D01*
X53896849Y-95202135D01*
X25000500Y-95202135D01*
X25000500Y-76997513D01*
X25001505Y-76981755D01*
X25014615Y-76879429D01*
X25022561Y-76848931D01*
X25058065Y-76760623D01*
X25073441Y-76733117D01*
X25083416Y-76719638D01*
X25130068Y-76656602D01*
X25151876Y-76633866D01*
X25225967Y-76574097D01*
X25252804Y-76557592D01*
X25339566Y-76518434D01*
X25369703Y-76509226D01*
X25471561Y-76491836D01*
X25487253Y-76490176D01*
X25795062Y-76477362D01*
X26344222Y-76424122D01*
X26424388Y-76416351D01*
X26424390Y-76416350D01*
X26424408Y-76416349D01*
X27049451Y-76320853D01*
X27668304Y-76191162D01*
X28279098Y-76027669D01*
X28879987Y-75830866D01*
X29469156Y-75601349D01*
X30044827Y-75339811D01*
X30605260Y-75047041D01*
X31148761Y-74723924D01*
X31673691Y-74371436D01*
X32178463Y-73990642D01*
X32661552Y-73582691D01*
X33121500Y-73148816D01*
X33556916Y-72690328D01*
X33966487Y-72208612D01*
X34348974Y-71705122D01*
X34703222Y-71181379D01*
X35028162Y-70638965D01*
X35322813Y-70079518D01*
X35586283Y-69504729D01*
X35699271Y-69217477D01*
X35705510Y-69204037D01*
X35751505Y-69118731D01*
X35768544Y-69094563D01*
X35828420Y-69028149D01*
X35850706Y-69008699D01*
X35924609Y-68958361D01*
X35950866Y-68944746D01*
X36034599Y-68913346D01*
X36063325Y-68906341D01*
X36159524Y-68894782D01*
X36174303Y-68893898D01*
X36232792Y-68893898D01*
X44699453Y-68893898D01*
X44699481Y-68893900D01*
X44708108Y-68893900D01*
X44881317Y-68893900D01*
X44881318Y-68893900D01*
X45051851Y-68869380D01*
X45093764Y-68863355D01*
X45093765Y-68863354D01*
X45093769Y-68863354D01*
X45299710Y-68802884D01*
X45299713Y-68802882D01*
X45299715Y-68802882D01*
X45494938Y-68713727D01*
X45494944Y-68713723D01*
X45494950Y-68713721D01*
X45675513Y-68597681D01*
X45837724Y-68457124D01*
X45978281Y-68294913D01*
X46094321Y-68114350D01*
X46094323Y-68114344D01*
X46094327Y-68114338D01*
X46183482Y-67919115D01*
X46183482Y-67919113D01*
X46183484Y-67919110D01*
X46243954Y-67713169D01*
X46274500Y-67500718D01*
X46274500Y-67393400D01*
X46274500Y-67327508D01*
X46274500Y-45777361D01*
X46275280Y-45763477D01*
X46285459Y-45673131D01*
X46291635Y-45646070D01*
X46319353Y-45566856D01*
X46331396Y-45541850D01*
X46376046Y-45470789D01*
X46393351Y-45449090D01*
X46452690Y-45389751D01*
X46474389Y-45372446D01*
X46545450Y-45327796D01*
X46570456Y-45315753D01*
X46649670Y-45288035D01*
X46676733Y-45281859D01*
X46739419Y-45274796D01*
X46767079Y-45271680D01*
X46780958Y-45270900D01*
X46839892Y-45270900D01*
X46839898Y-45270898D01*
X46848543Y-45270898D01*
X53514246Y-45270898D01*
X53521011Y-45271320D01*
X53525155Y-45271294D01*
X53525158Y-45271295D01*
X53589106Y-45270900D01*
X53589143Y-45270900D01*
X53589483Y-45270898D01*
X53653856Y-45270898D01*
X53655298Y-45270511D01*
X53697946Y-45270261D01*
X53909393Y-45238649D01*
X53909396Y-45238648D01*
X53909397Y-45238648D01*
X54114227Y-45177380D01*
X54114228Y-45177379D01*
X54308298Y-45087698D01*
X54308298Y-45087697D01*
X54308301Y-45087696D01*
X54487704Y-44971403D01*
X54648810Y-44830853D01*
X54788364Y-44668884D01*
X54903549Y-44488768D01*
X54992036Y-44294142D01*
X55052040Y-44088937D01*
X55082348Y-43877299D01*
X55082318Y-43770400D01*
X55082318Y-43704508D01*
X55082318Y-21059702D01*
X55102003Y-20992663D01*
X55154807Y-20946908D01*
X55217946Y-20936249D01*
X56408106Y-21048380D01*
G37*
%TD.AperFunction*%
%TD*%
M02*
