%TF.GenerationSoftware,KiCad,Pcbnew,9.0.3*%
%TF.CreationDate,2026-04-13T22:59:31-04:00*%
%TF.ProjectId,Touchpoint_Topboard,546f7563-6870-46f6-996e-745f546f7062,rev?*%
%TF.SameCoordinates,Original*%
%TF.FileFunction,Paste,Top*%
%TF.FilePolarity,Positive*%
%FSLAX46Y46*%
G04 Gerber Fmt 4.6, Leading zero omitted, Abs format (unit mm)*
G04 Created by KiCad (PCBNEW 9.0.3) date 2026-04-13 22:59:31*
%MOMM*%
%LPD*%
G01*
G04 APERTURE LIST*
G04 Aperture macros list*
%AMRoundRect*
0 Rectangle with rounded corners*
0 $1 Rounding radius*
0 $2 $3 $4 $5 $6 $7 $8 $9 X,Y pos of 4 corners*
0 Add a 4 corners polygon primitive as box body*
4,1,4,$2,$3,$4,$5,$6,$7,$8,$9,$2,$3,0*
0 Add four circle primitives for the rounded corners*
1,1,$1+$1,$2,$3*
1,1,$1+$1,$4,$5*
1,1,$1+$1,$6,$7*
1,1,$1+$1,$8,$9*
0 Add four rect primitives between the rounded corners*
20,1,$1+$1,$2,$3,$4,$5,0*
20,1,$1+$1,$4,$5,$6,$7,0*
20,1,$1+$1,$6,$7,$8,$9,0*
20,1,$1+$1,$8,$9,$2,$3,0*%
G04 Aperture macros list end*
%ADD10C,0.000000*%
%ADD11RoundRect,0.135000X-0.185000X0.135000X-0.185000X-0.135000X0.185000X-0.135000X0.185000X0.135000X0*%
%ADD12RoundRect,0.135000X0.185000X-0.135000X0.185000X0.135000X-0.185000X0.135000X-0.185000X-0.135000X0*%
%ADD13R,1.422400X0.482600*%
%ADD14R,1.422400X0.558800*%
%ADD15RoundRect,0.218750X0.218750X0.256250X-0.218750X0.256250X-0.218750X-0.256250X0.218750X-0.256250X0*%
%ADD16RoundRect,0.250000X0.250000X0.475000X-0.250000X0.475000X-0.250000X-0.475000X0.250000X-0.475000X0*%
%ADD17RoundRect,0.135000X-0.135000X-0.185000X0.135000X-0.185000X0.135000X0.185000X-0.135000X0.185000X0*%
%ADD18R,1.000000X2.750000*%
%ADD19R,3.430000X1.790000*%
%ADD20RoundRect,0.140000X0.140000X0.170000X-0.140000X0.170000X-0.140000X-0.170000X0.140000X-0.170000X0*%
%ADD21RoundRect,0.140000X-0.140000X-0.170000X0.140000X-0.170000X0.140000X0.170000X-0.140000X0.170000X0*%
%ADD22RoundRect,0.170000X0.210000X-0.170000X0.210000X0.170000X-0.210000X0.170000X-0.210000X-0.170000X0*%
%ADD23RoundRect,0.075000X0.075000X-0.650000X0.075000X0.650000X-0.075000X0.650000X-0.075000X-0.650000X0*%
%ADD24RoundRect,0.250000X1.650000X0.750000X-1.650000X0.750000X-1.650000X-0.750000X1.650000X-0.750000X0*%
%ADD25RoundRect,0.135000X0.135000X0.185000X-0.135000X0.185000X-0.135000X-0.185000X0.135000X-0.185000X0*%
%ADD26R,2.210000X2.180400*%
G04 APERTURE END LIST*
D10*
%TO.C,Q1*%
G36*
X39960400Y-102414400D02*
G01*
X37852200Y-102414400D01*
X37217200Y-101779400D01*
X36700000Y-101779400D01*
X36700000Y-101220600D01*
X37217200Y-101220600D01*
X37852200Y-100585600D01*
X39960400Y-100585600D01*
X39960400Y-102414400D01*
G37*
%TO.C,U101*%
G36*
X57160400Y-103714400D02*
G01*
X55052200Y-103714400D01*
X54417200Y-103079400D01*
X53900000Y-103079400D01*
X53900000Y-102520600D01*
X54417200Y-102520600D01*
X55052200Y-101885600D01*
X57160400Y-101885600D01*
X57160400Y-103714400D01*
G37*
%TD*%
D11*
%TO.C,R9*%
X56000000Y-88690000D03*
X56000000Y-89710000D03*
%TD*%
D12*
%TO.C,R5*%
X35400000Y-105510000D03*
X35400000Y-104490000D03*
%TD*%
D13*
%TO.C,Q1*%
X35988800Y-100000000D03*
D14*
X35988800Y-101500000D03*
D13*
X35988800Y-103000000D03*
%TD*%
D15*
%TO.C,D2*%
X47037500Y-99500000D03*
X45462500Y-99500000D03*
%TD*%
D16*
%TO.C,C1*%
X29950000Y-108400000D03*
X28050000Y-108400000D03*
%TD*%
D17*
%TO.C,R7*%
X48490000Y-99500000D03*
X49510000Y-99500000D03*
%TD*%
D18*
%TO.C,SW3*%
X66000000Y-36500000D03*
X66000000Y-30740000D03*
X70000000Y-36500000D03*
X70000000Y-30740000D03*
%TD*%
D13*
%TO.C,U101*%
X53188800Y-101300000D03*
D14*
X53188800Y-102800000D03*
D13*
X53188800Y-104300000D03*
%TD*%
D12*
%TO.C,R6*%
X33000000Y-112310000D03*
X33000000Y-111290000D03*
%TD*%
D19*
%TO.C,U201*%
X28340000Y-82750000D03*
X28340000Y-85250000D03*
X28340000Y-87750000D03*
X28340000Y-90250000D03*
X28340000Y-92750000D03*
X28340000Y-95250000D03*
X48660000Y-95250000D03*
X48660000Y-92750000D03*
X48660000Y-90250000D03*
X48660000Y-87750000D03*
X48660000Y-85250000D03*
X48660000Y-82750000D03*
%TD*%
D17*
%TO.C,R10*%
X48490000Y-102250000D03*
X49510000Y-102250000D03*
%TD*%
D12*
%TO.C,R4*%
X30000000Y-100500000D03*
X30000000Y-99480000D03*
%TD*%
%TO.C,R3*%
X27510000Y-100500000D03*
X27510000Y-99480000D03*
%TD*%
D16*
%TO.C,C4*%
X29950000Y-106400000D03*
X28050000Y-106400000D03*
%TD*%
D20*
%TO.C,C3*%
X29880000Y-110090800D03*
X28920000Y-110090800D03*
%TD*%
D21*
%TO.C,C2*%
X29120000Y-104800000D03*
X30080000Y-104800000D03*
%TD*%
D22*
%TO.C,U1*%
X32030000Y-107420000D03*
X32970000Y-107420000D03*
X32030000Y-106580000D03*
X32970000Y-106580000D03*
D23*
X31500000Y-109150000D03*
X32000000Y-109150000D03*
X32500000Y-109150000D03*
X33000000Y-109150000D03*
X33500000Y-109150000D03*
X33500000Y-104850000D03*
X33000000Y-104850000D03*
X32500000Y-104850000D03*
X32000000Y-104850000D03*
X31500000Y-104850000D03*
%TD*%
D24*
%TO.C,TP1*%
X39800000Y-106600000D03*
%TD*%
D25*
%TO.C,R2*%
X30110000Y-103800000D03*
X29090000Y-103800000D03*
%TD*%
%TO.C,R8*%
X56910000Y-90600000D03*
X55890000Y-90600000D03*
%TD*%
D26*
%TO.C,D1*%
X53200000Y-89857200D03*
X53200000Y-86142800D03*
%TD*%
D24*
%TO.C,TP2*%
X39800000Y-110800000D03*
%TD*%
D15*
%TO.C,D3*%
X47037500Y-102250000D03*
X45462500Y-102250000D03*
%TD*%
D17*
%TO.C,R1*%
X30890000Y-110800000D03*
X31910000Y-110800000D03*
%TD*%
M02*
