%TF.GenerationSoftware,KiCad,Pcbnew,9.0.3*%
%TF.CreationDate,2026-04-13T17:19:57-04:00*%
%TF.ProjectId,Touchpoint_Topboard,546f7563-6870-46f6-996e-745f546f7062,rev?*%
%TF.SameCoordinates,Original*%
%TF.FileFunction,Profile,NP*%
%FSLAX46Y46*%
G04 Gerber Fmt 4.6, Leading zero omitted, Abs format (unit mm)*
G04 Created by KiCad (PCBNEW 9.0.3) date 2026-04-13 17:19:57*
%MOMM*%
%LPD*%
G01*
G04 APERTURE LIST*
%TA.AperFunction,Profile*%
%ADD10C,0.100000*%
%TD*%
G04 APERTURE END LIST*
D10*
X73750000Y-113400000D02*
G75*
G02*
X71250000Y-113400000I-1250000J0D01*
G01*
X71250000Y-113400000D02*
G75*
G02*
X73750000Y-113400000I1250000J0D01*
G01*
X73750000Y-26600000D02*
G75*
G02*
X71250000Y-26600000I-1250000J0D01*
G01*
X71250000Y-26600000D02*
G75*
G02*
X73750000Y-26600000I1250000J0D01*
G01*
X28750000Y-113400000D02*
G75*
G02*
X26250000Y-113400000I-1250000J0D01*
G01*
X26250000Y-113400000D02*
G75*
G02*
X28750000Y-113400000I1250000J0D01*
G01*
X54581818Y-43770400D02*
G75*
G02*
X53587964Y-44770399I-1000018J0D01*
G01*
X54581818Y-43770400D02*
X54581818Y-20373621D01*
X54581818Y-20373621D02*
G75*
G02*
X73293799Y-23706926I-8807818J-103631779D01*
G01*
X73293799Y-23706925D02*
G75*
G02*
X75500000Y-26600000I-793799J-2893075D01*
G01*
X75500000Y-113400000D02*
X75500000Y-26600000D01*
X75500000Y-113400000D02*
G75*
G02*
X72500000Y-116400000I-3000000J0D01*
G01*
X27500000Y-116400000D02*
X72500000Y-116400000D01*
X27500000Y-116400000D02*
G75*
G02*
X24500000Y-113400000I0J3000000D01*
G01*
X24500000Y-76989600D02*
X24500000Y-113400000D01*
X24500000Y-76989600D02*
G75*
G02*
X25458334Y-75990468I1000000J0D01*
G01*
X35236259Y-69027282D02*
G75*
G02*
X25458333Y-75990447I-10236259J4027282D01*
G01*
X35236259Y-69027282D02*
G75*
G02*
X36166900Y-68393396I930641J-366218D01*
G01*
X36166900Y-68393398D02*
X44774000Y-68393398D01*
X45774000Y-67393400D02*
G75*
G02*
X44774000Y-68393400I-1000000J0D01*
G01*
X45774000Y-45770400D02*
X45774000Y-67393400D01*
X45774000Y-45770400D02*
G75*
G02*
X46774000Y-44770400I1000000J0D01*
G01*
X46774000Y-44770398D02*
X53587964Y-44770398D01*
M02*
