%TF.GenerationSoftware,KiCad,Pcbnew,9.0.3*%
%TF.CreationDate,2026-04-13T18:01:47-04:00*%
%TF.ProjectId,Touchpoint_Mainboard,546f7563-6870-46f6-996e-745f4d61696e,rev?*%
%TF.SameCoordinates,Original*%
%TF.FileFunction,Profile,NP*%
%FSLAX46Y46*%
G04 Gerber Fmt 4.6, Leading zero omitted, Abs format (unit mm)*
G04 Created by KiCad (PCBNEW 9.0.3) date 2026-04-13 18:01:47*
%MOMM*%
%LPD*%
G01*
G04 APERTURE LIST*
%TA.AperFunction,Profile*%
%ADD10C,0.100000*%
%TD*%
%TA.AperFunction,Profile*%
%ADD11C,0.050000*%
%TD*%
G04 APERTURE END LIST*
D10*
X75500000Y-113400000D02*
G75*
G02*
X72500000Y-116400000I-3000000J0D01*
G01*
X73293799Y-23706925D02*
G75*
G02*
X75500000Y-26600000I-793799J-2893075D01*
G01*
X45774000Y-20000000D02*
G75*
G02*
X73293799Y-23706926I0J-104005400D01*
G01*
X17500000Y-59000000D02*
G75*
G02*
X20500000Y-56000000I3000000J0D01*
G01*
X75500000Y-113400000D02*
X75500000Y-26600000D01*
X20500000Y-74000000D02*
G75*
G02*
X17500000Y-71000000I0J3000000D01*
G01*
X24500000Y-77000000D02*
X24500000Y-113400000D01*
X22500000Y-54000000D02*
G75*
G02*
X20500000Y-56000000I-2000000J0D01*
G01*
X27500000Y-116400000D02*
X72500000Y-116400000D01*
X45774000Y-20000000D02*
X45774000Y-47393398D01*
X21500000Y-74000000D02*
G75*
G02*
X24500000Y-77000000I0J-3000000D01*
G01*
X20500000Y-74000000D02*
X21500000Y-74000000D01*
X17500000Y-59000000D02*
X17500000Y-71000000D01*
X44774000Y-48393398D02*
X22500000Y-48393398D01*
X27500000Y-116400000D02*
G75*
G02*
X24500000Y-113400000I0J3000000D01*
G01*
X45774000Y-47393398D02*
G75*
G02*
X44774000Y-48393400I-1000000J-2D01*
G01*
X22500000Y-48393398D02*
X22500000Y-54000000D01*
D11*
%TO.C,U301*%
X68000000Y-57370000D02*
X60400000Y-57370000D01*
X59900000Y-57870000D02*
X59900000Y-74130000D01*
X68500000Y-74130000D02*
X68500000Y-57870000D01*
X60400000Y-74630000D02*
X68000000Y-74630000D01*
X68000000Y-57370000D02*
G75*
G02*
X68500000Y-57870000I-1J-500001D01*
G01*
X59900000Y-57870000D02*
G75*
G02*
X60400000Y-57370000I500001J-1D01*
G01*
X68500000Y-74130000D02*
G75*
G02*
X68000000Y-74630000I-500000J0D01*
G01*
X60400000Y-74630000D02*
G75*
G02*
X59900000Y-74130000I0J500000D01*
G01*
%TD*%
M02*
