%TF.GenerationSoftware,KiCad,Pcbnew,9.0.3*%
%TF.CreationDate,2026-04-13T18:01:47-04:00*%
%TF.ProjectId,Touchpoint_Mainboard,546f7563-6870-46f6-996e-745f4d61696e,rev?*%
%TF.SameCoordinates,Original*%
%TF.FileFunction,Soldermask,Bot*%
%TF.FilePolarity,Negative*%
%FSLAX46Y46*%
G04 Gerber Fmt 4.6, Leading zero omitted, Abs format (unit mm)*
G04 Created by KiCad (PCBNEW 9.0.3) date 2026-04-13 18:01:47*
%MOMM*%
%LPD*%
G01*
G04 APERTURE LIST*
G04 Aperture macros list*
%AMRoundRect*
0 Rectangle with rounded corners*
0 $1 Rounding radius*
0 $2 $3 $4 $5 $6 $7 $8 $9 X,Y pos of 4 corners*
0 Add a 4 corners polygon primitive as box body*
4,1,4,$2,$3,$4,$5,$6,$7,$8,$9,$2,$3,0*
0 Add four circle primitives for the rounded corners*
1,1,$1+$1,$2,$3*
1,1,$1+$1,$4,$5*
1,1,$1+$1,$6,$7*
1,1,$1+$1,$8,$9*
0 Add four rect primitives between the rounded corners*
20,1,$1+$1,$2,$3,$4,$5,0*
20,1,$1+$1,$4,$5,$6,$7,0*
20,1,$1+$1,$6,$7,$8,$9,0*
20,1,$1+$1,$8,$9,$2,$3,0*%
%AMFreePoly0*
4,1,23,0.500000,-0.750000,0.000000,-0.750000,0.000000,-0.745722,-0.065263,-0.745722,-0.191342,-0.711940,-0.304381,-0.646677,-0.396677,-0.554381,-0.461940,-0.441342,-0.495722,-0.315263,-0.495722,-0.250000,-0.500000,-0.250000,-0.500000,0.250000,-0.495722,0.250000,-0.495722,0.315263,-0.461940,0.441342,-0.396677,0.554381,-0.304381,0.646677,-0.191342,0.711940,-0.065263,0.745722,0.000000,0.745722,
0.000000,0.750000,0.500000,0.750000,0.500000,-0.750000,0.500000,-0.750000,$1*%
%AMFreePoly1*
4,1,23,0.000000,0.745722,0.065263,0.745722,0.191342,0.711940,0.304381,0.646677,0.396677,0.554381,0.461940,0.441342,0.495722,0.315263,0.495722,0.250000,0.500000,0.250000,0.500000,-0.250000,0.495722,-0.250000,0.495722,-0.315263,0.461940,-0.441342,0.396677,-0.554381,0.304381,-0.646677,0.191342,-0.711940,0.065263,-0.745722,0.000000,-0.745722,0.000000,-0.750000,-0.500000,-0.750000,
-0.500000,0.750000,0.000000,0.750000,0.000000,0.745722,0.000000,0.745722,$1*%
G04 Aperture macros list end*
%ADD10RoundRect,0.076200X-0.527800X0.527800X-0.527800X-0.527800X0.527800X-0.527800X0.527800X0.527800X0*%
%ADD11C,1.208000*%
%ADD12C,2.200000*%
%ADD13RoundRect,0.250000X-0.550000X-0.550000X0.550000X-0.550000X0.550000X0.550000X-0.550000X0.550000X0*%
%ADD14C,1.600000*%
%ADD15C,0.650000*%
%ADD16O,1.204000X2.304000*%
%ADD17O,1.204000X2.004000*%
%ADD18RoundRect,0.102000X-0.900000X-0.900000X0.900000X-0.900000X0.900000X0.900000X-0.900000X0.900000X0*%
%ADD19C,2.004000*%
%ADD20O,3.204000X6.204000*%
%ADD21FreePoly0,270.000000*%
%ADD22FreePoly1,270.000000*%
%ADD23C,2.000000*%
%ADD24R,0.300000X0.800000*%
%ADD25R,0.400000X0.800000*%
G04 APERTURE END LIST*
%TO.C,JP502*%
G36*
X62200000Y-89350000D02*
G01*
X63700000Y-89350000D01*
X63700000Y-89650000D01*
X62200000Y-89650000D01*
X62200000Y-89350000D01*
G37*
%TO.C,JP501*%
G36*
X67000000Y-89400000D02*
G01*
X68500000Y-89400000D01*
X68500000Y-89700000D01*
X67000000Y-89700000D01*
X67000000Y-89400000D01*
G37*
%TD*%
D10*
%TO.C,U301*%
X69550000Y-71850000D03*
D11*
X69550000Y-70070000D03*
X69550000Y-68290000D03*
X69550000Y-66510000D03*
X69550000Y-64730000D03*
X69550000Y-62950000D03*
X69550000Y-61170000D03*
X69550000Y-59390000D03*
X58870000Y-58500000D03*
X58850000Y-60280000D03*
X58850000Y-62060000D03*
X58850000Y-63840000D03*
X58850000Y-65620000D03*
X58850000Y-67400000D03*
X58850000Y-69180000D03*
X58850000Y-70960000D03*
%TD*%
D12*
%TO.C,REF\u002A\u002A*%
X72500000Y-26600000D03*
%TD*%
%TO.C,REF\u002A\u002A*%
X27500000Y-113400000D03*
%TD*%
D13*
%TO.C,J101*%
X43000000Y-50000000D03*
D14*
X46600000Y-50000000D03*
%TD*%
D12*
%TO.C,REF\u002A\u002A*%
X72500000Y-113400000D03*
%TD*%
D13*
%TO.C,SW803*%
X43000000Y-53200000D03*
D14*
X46600000Y-53200000D03*
%TD*%
D15*
%TO.C,J201*%
X53770000Y-25280000D03*
X47990000Y-25280000D03*
D16*
X55200000Y-25780000D03*
X46560000Y-25780000D03*
D17*
X55200000Y-21600000D03*
X46560000Y-21600000D03*
%TD*%
D14*
%TO.C,J602*%
X40400000Y-113600000D03*
X42900000Y-113600000D03*
X45400000Y-113600000D03*
X47900000Y-113600000D03*
X50400000Y-113600000D03*
X52900000Y-113600000D03*
X55400000Y-113600000D03*
X57900000Y-113600000D03*
X60400000Y-113600000D03*
X62900000Y-113600000D03*
X65400000Y-113600000D03*
%TD*%
D18*
%TO.C,S901*%
X22500000Y-58000000D03*
D19*
X27500000Y-58000000D03*
X22500000Y-72500000D03*
X27500000Y-72500000D03*
X25000000Y-72500000D03*
D20*
X19400000Y-65000000D03*
X30600000Y-65000000D03*
%TD*%
D21*
%TO.C,JP502*%
X62950000Y-88850000D03*
D22*
X62950000Y-90150000D03*
%TD*%
D23*
%TO.C,SW801*%
X72250000Y-108250000D03*
X72250000Y-101750000D03*
X67750000Y-108250000D03*
X67750000Y-101750000D03*
%TD*%
D24*
%TO.C,J702*%
X39649000Y-51500000D03*
X39149000Y-51500000D03*
X38649000Y-51500000D03*
X38149000Y-51500000D03*
X37649000Y-51500000D03*
X37149000Y-51500000D03*
X36649000Y-51500000D03*
X36149000Y-51500000D03*
X35649000Y-51500000D03*
X35149000Y-51500000D03*
X34649000Y-51500000D03*
X34149000Y-51500000D03*
X33649000Y-51500000D03*
X33149000Y-51500000D03*
X32649000Y-51500000D03*
X32149000Y-51500000D03*
X31649000Y-51500000D03*
X31149000Y-51500000D03*
X30649000Y-51500000D03*
X30149000Y-51500000D03*
X29649000Y-51500000D03*
X29149000Y-51500000D03*
X28649000Y-51500000D03*
X28149000Y-51500000D03*
X27649000Y-51500000D03*
X27149000Y-51500000D03*
X26649000Y-51500000D03*
X26149000Y-51500000D03*
X25649000Y-51500000D03*
X25149000Y-51500000D03*
X24649000Y-51500000D03*
X24149000Y-51500000D03*
D25*
X40649000Y-49000000D03*
X23149000Y-49000000D03*
%TD*%
D23*
%TO.C,SW802*%
X27750000Y-101750000D03*
X27750000Y-108250000D03*
X32250000Y-101750000D03*
X32250000Y-108250000D03*
%TD*%
D21*
%TO.C,JP501*%
X67750000Y-88900000D03*
D22*
X67750000Y-90200000D03*
%TD*%
M02*
