%TF.GenerationSoftware,KiCad,Pcbnew,9.0.3*%
%TF.CreationDate,2026-04-13T18:01:47-04:00*%
%TF.ProjectId,Touchpoint_Mainboard,546f7563-6870-46f6-996e-745f4d61696e,rev?*%
%TF.SameCoordinates,Original*%
%TF.FileFunction,Legend,Bot*%
%TF.FilePolarity,Positive*%
%FSLAX46Y46*%
G04 Gerber Fmt 4.6, Leading zero omitted, Abs format (unit mm)*
G04 Created by KiCad (PCBNEW 9.0.3) date 2026-04-13 18:01:47*
%MOMM*%
%LPD*%
G01*
G04 APERTURE LIST*
%ADD10C,0.150000*%
%ADD11C,0.120000*%
%ADD12C,0.127000*%
%ADD13C,0.200000*%
G04 APERTURE END LIST*
D10*
X63419819Y-91336779D02*
X62419819Y-91336779D01*
X62419819Y-91336779D02*
X62419819Y-91717731D01*
X62419819Y-91717731D02*
X62467438Y-91812969D01*
X62467438Y-91812969D02*
X62515057Y-91860588D01*
X62515057Y-91860588D02*
X62610295Y-91908207D01*
X62610295Y-91908207D02*
X62753152Y-91908207D01*
X62753152Y-91908207D02*
X62848390Y-91860588D01*
X62848390Y-91860588D02*
X62896009Y-91812969D01*
X62896009Y-91812969D02*
X62943628Y-91717731D01*
X62943628Y-91717731D02*
X62943628Y-91336779D01*
X63372200Y-92289160D02*
X63419819Y-92432017D01*
X63419819Y-92432017D02*
X63419819Y-92670112D01*
X63419819Y-92670112D02*
X63372200Y-92765350D01*
X63372200Y-92765350D02*
X63324580Y-92812969D01*
X63324580Y-92812969D02*
X63229342Y-92860588D01*
X63229342Y-92860588D02*
X63134104Y-92860588D01*
X63134104Y-92860588D02*
X63038866Y-92812969D01*
X63038866Y-92812969D02*
X62991247Y-92765350D01*
X62991247Y-92765350D02*
X62943628Y-92670112D01*
X62943628Y-92670112D02*
X62896009Y-92479636D01*
X62896009Y-92479636D02*
X62848390Y-92384398D01*
X62848390Y-92384398D02*
X62800771Y-92336779D01*
X62800771Y-92336779D02*
X62705533Y-92289160D01*
X62705533Y-92289160D02*
X62610295Y-92289160D01*
X62610295Y-92289160D02*
X62515057Y-92336779D01*
X62515057Y-92336779D02*
X62467438Y-92384398D01*
X62467438Y-92384398D02*
X62419819Y-92479636D01*
X62419819Y-92479636D02*
X62419819Y-92717731D01*
X62419819Y-92717731D02*
X62467438Y-92860588D01*
X63419819Y-93812969D02*
X63419819Y-93241541D01*
X63419819Y-93527255D02*
X62419819Y-93527255D01*
X62419819Y-93527255D02*
X62562676Y-93432017D01*
X62562676Y-93432017D02*
X62657914Y-93336779D01*
X62657914Y-93336779D02*
X62705533Y-93241541D01*
X68219819Y-91336779D02*
X67219819Y-91336779D01*
X67219819Y-91336779D02*
X67219819Y-91717731D01*
X67219819Y-91717731D02*
X67267438Y-91812969D01*
X67267438Y-91812969D02*
X67315057Y-91860588D01*
X67315057Y-91860588D02*
X67410295Y-91908207D01*
X67410295Y-91908207D02*
X67553152Y-91908207D01*
X67553152Y-91908207D02*
X67648390Y-91860588D01*
X67648390Y-91860588D02*
X67696009Y-91812969D01*
X67696009Y-91812969D02*
X67743628Y-91717731D01*
X67743628Y-91717731D02*
X67743628Y-91336779D01*
X68172200Y-92289160D02*
X68219819Y-92432017D01*
X68219819Y-92432017D02*
X68219819Y-92670112D01*
X68219819Y-92670112D02*
X68172200Y-92765350D01*
X68172200Y-92765350D02*
X68124580Y-92812969D01*
X68124580Y-92812969D02*
X68029342Y-92860588D01*
X68029342Y-92860588D02*
X67934104Y-92860588D01*
X67934104Y-92860588D02*
X67838866Y-92812969D01*
X67838866Y-92812969D02*
X67791247Y-92765350D01*
X67791247Y-92765350D02*
X67743628Y-92670112D01*
X67743628Y-92670112D02*
X67696009Y-92479636D01*
X67696009Y-92479636D02*
X67648390Y-92384398D01*
X67648390Y-92384398D02*
X67600771Y-92336779D01*
X67600771Y-92336779D02*
X67505533Y-92289160D01*
X67505533Y-92289160D02*
X67410295Y-92289160D01*
X67410295Y-92289160D02*
X67315057Y-92336779D01*
X67315057Y-92336779D02*
X67267438Y-92384398D01*
X67267438Y-92384398D02*
X67219819Y-92479636D01*
X67219819Y-92479636D02*
X67219819Y-92717731D01*
X67219819Y-92717731D02*
X67267438Y-92860588D01*
X67219819Y-93479636D02*
X67219819Y-93574874D01*
X67219819Y-93574874D02*
X67267438Y-93670112D01*
X67267438Y-93670112D02*
X67315057Y-93717731D01*
X67315057Y-93717731D02*
X67410295Y-93765350D01*
X67410295Y-93765350D02*
X67600771Y-93812969D01*
X67600771Y-93812969D02*
X67838866Y-93812969D01*
X67838866Y-93812969D02*
X68029342Y-93765350D01*
X68029342Y-93765350D02*
X68124580Y-93717731D01*
X68124580Y-93717731D02*
X68172200Y-93670112D01*
X68172200Y-93670112D02*
X68219819Y-93574874D01*
X68219819Y-93574874D02*
X68219819Y-93479636D01*
X68219819Y-93479636D02*
X68172200Y-93384398D01*
X68172200Y-93384398D02*
X68124580Y-93336779D01*
X68124580Y-93336779D02*
X68029342Y-93289160D01*
X68029342Y-93289160D02*
X67838866Y-93241541D01*
X67838866Y-93241541D02*
X67600771Y-93241541D01*
X67600771Y-93241541D02*
X67410295Y-93289160D01*
X67410295Y-93289160D02*
X67315057Y-93336779D01*
X67315057Y-93336779D02*
X67267438Y-93384398D01*
X67267438Y-93384398D02*
X67219819Y-93479636D01*
X74657200Y-102714286D02*
X74704819Y-102857143D01*
X74704819Y-102857143D02*
X74704819Y-103095238D01*
X74704819Y-103095238D02*
X74657200Y-103190476D01*
X74657200Y-103190476D02*
X74609580Y-103238095D01*
X74609580Y-103238095D02*
X74514342Y-103285714D01*
X74514342Y-103285714D02*
X74419104Y-103285714D01*
X74419104Y-103285714D02*
X74323866Y-103238095D01*
X74323866Y-103238095D02*
X74276247Y-103190476D01*
X74276247Y-103190476D02*
X74228628Y-103095238D01*
X74228628Y-103095238D02*
X74181009Y-102904762D01*
X74181009Y-102904762D02*
X74133390Y-102809524D01*
X74133390Y-102809524D02*
X74085771Y-102761905D01*
X74085771Y-102761905D02*
X73990533Y-102714286D01*
X73990533Y-102714286D02*
X73895295Y-102714286D01*
X73895295Y-102714286D02*
X73800057Y-102761905D01*
X73800057Y-102761905D02*
X73752438Y-102809524D01*
X73752438Y-102809524D02*
X73704819Y-102904762D01*
X73704819Y-102904762D02*
X73704819Y-103142857D01*
X73704819Y-103142857D02*
X73752438Y-103285714D01*
X73704819Y-103619048D02*
X74704819Y-103857143D01*
X74704819Y-103857143D02*
X73990533Y-104047619D01*
X73990533Y-104047619D02*
X74704819Y-104238095D01*
X74704819Y-104238095D02*
X73704819Y-104476191D01*
X74133390Y-105000000D02*
X74085771Y-104904762D01*
X74085771Y-104904762D02*
X74038152Y-104857143D01*
X74038152Y-104857143D02*
X73942914Y-104809524D01*
X73942914Y-104809524D02*
X73895295Y-104809524D01*
X73895295Y-104809524D02*
X73800057Y-104857143D01*
X73800057Y-104857143D02*
X73752438Y-104904762D01*
X73752438Y-104904762D02*
X73704819Y-105000000D01*
X73704819Y-105000000D02*
X73704819Y-105190476D01*
X73704819Y-105190476D02*
X73752438Y-105285714D01*
X73752438Y-105285714D02*
X73800057Y-105333333D01*
X73800057Y-105333333D02*
X73895295Y-105380952D01*
X73895295Y-105380952D02*
X73942914Y-105380952D01*
X73942914Y-105380952D02*
X74038152Y-105333333D01*
X74038152Y-105333333D02*
X74085771Y-105285714D01*
X74085771Y-105285714D02*
X74133390Y-105190476D01*
X74133390Y-105190476D02*
X74133390Y-105000000D01*
X74133390Y-105000000D02*
X74181009Y-104904762D01*
X74181009Y-104904762D02*
X74228628Y-104857143D01*
X74228628Y-104857143D02*
X74323866Y-104809524D01*
X74323866Y-104809524D02*
X74514342Y-104809524D01*
X74514342Y-104809524D02*
X74609580Y-104857143D01*
X74609580Y-104857143D02*
X74657200Y-104904762D01*
X74657200Y-104904762D02*
X74704819Y-105000000D01*
X74704819Y-105000000D02*
X74704819Y-105190476D01*
X74704819Y-105190476D02*
X74657200Y-105285714D01*
X74657200Y-105285714D02*
X74609580Y-105333333D01*
X74609580Y-105333333D02*
X74514342Y-105380952D01*
X74514342Y-105380952D02*
X74323866Y-105380952D01*
X74323866Y-105380952D02*
X74228628Y-105333333D01*
X74228628Y-105333333D02*
X74181009Y-105285714D01*
X74181009Y-105285714D02*
X74133390Y-105190476D01*
X73704819Y-106000000D02*
X73704819Y-106095238D01*
X73704819Y-106095238D02*
X73752438Y-106190476D01*
X73752438Y-106190476D02*
X73800057Y-106238095D01*
X73800057Y-106238095D02*
X73895295Y-106285714D01*
X73895295Y-106285714D02*
X74085771Y-106333333D01*
X74085771Y-106333333D02*
X74323866Y-106333333D01*
X74323866Y-106333333D02*
X74514342Y-106285714D01*
X74514342Y-106285714D02*
X74609580Y-106238095D01*
X74609580Y-106238095D02*
X74657200Y-106190476D01*
X74657200Y-106190476D02*
X74704819Y-106095238D01*
X74704819Y-106095238D02*
X74704819Y-106000000D01*
X74704819Y-106000000D02*
X74657200Y-105904762D01*
X74657200Y-105904762D02*
X74609580Y-105857143D01*
X74609580Y-105857143D02*
X74514342Y-105809524D01*
X74514342Y-105809524D02*
X74323866Y-105761905D01*
X74323866Y-105761905D02*
X74085771Y-105761905D01*
X74085771Y-105761905D02*
X73895295Y-105809524D01*
X73895295Y-105809524D02*
X73800057Y-105857143D01*
X73800057Y-105857143D02*
X73752438Y-105904762D01*
X73752438Y-105904762D02*
X73704819Y-106000000D01*
X74704819Y-107285714D02*
X74704819Y-106714286D01*
X74704819Y-107000000D02*
X73704819Y-107000000D01*
X73704819Y-107000000D02*
X73847676Y-106904762D01*
X73847676Y-106904762D02*
X73942914Y-106809524D01*
X73942914Y-106809524D02*
X73990533Y-106714286D01*
X25753856Y-52654676D02*
X25753856Y-53111819D01*
X25753856Y-53111819D02*
X25784333Y-53203247D01*
X25784333Y-53203247D02*
X25845285Y-53264200D01*
X25845285Y-53264200D02*
X25936714Y-53294676D01*
X25936714Y-53294676D02*
X25997666Y-53294676D01*
X25510047Y-52654676D02*
X25083380Y-52654676D01*
X25083380Y-52654676D02*
X25357666Y-53294676D01*
X24717666Y-52654676D02*
X24656713Y-52654676D01*
X24656713Y-52654676D02*
X24595761Y-52685152D01*
X24595761Y-52685152D02*
X24565285Y-52715628D01*
X24565285Y-52715628D02*
X24534809Y-52776580D01*
X24534809Y-52776580D02*
X24504332Y-52898485D01*
X24504332Y-52898485D02*
X24504332Y-53050866D01*
X24504332Y-53050866D02*
X24534809Y-53172771D01*
X24534809Y-53172771D02*
X24565285Y-53233723D01*
X24565285Y-53233723D02*
X24595761Y-53264200D01*
X24595761Y-53264200D02*
X24656713Y-53294676D01*
X24656713Y-53294676D02*
X24717666Y-53294676D01*
X24717666Y-53294676D02*
X24778618Y-53264200D01*
X24778618Y-53264200D02*
X24809094Y-53233723D01*
X24809094Y-53233723D02*
X24839571Y-53172771D01*
X24839571Y-53172771D02*
X24870047Y-53050866D01*
X24870047Y-53050866D02*
X24870047Y-52898485D01*
X24870047Y-52898485D02*
X24839571Y-52776580D01*
X24839571Y-52776580D02*
X24809094Y-52715628D01*
X24809094Y-52715628D02*
X24778618Y-52685152D01*
X24778618Y-52685152D02*
X24717666Y-52654676D01*
X24260523Y-52715628D02*
X24230047Y-52685152D01*
X24230047Y-52685152D02*
X24169094Y-52654676D01*
X24169094Y-52654676D02*
X24016713Y-52654676D01*
X24016713Y-52654676D02*
X23955761Y-52685152D01*
X23955761Y-52685152D02*
X23925285Y-52715628D01*
X23925285Y-52715628D02*
X23894808Y-52776580D01*
X23894808Y-52776580D02*
X23894808Y-52837533D01*
X23894808Y-52837533D02*
X23925285Y-52928961D01*
X23925285Y-52928961D02*
X24290999Y-53294676D01*
X24290999Y-53294676D02*
X23894808Y-53294676D01*
X26157200Y-102714286D02*
X26204819Y-102857143D01*
X26204819Y-102857143D02*
X26204819Y-103095238D01*
X26204819Y-103095238D02*
X26157200Y-103190476D01*
X26157200Y-103190476D02*
X26109580Y-103238095D01*
X26109580Y-103238095D02*
X26014342Y-103285714D01*
X26014342Y-103285714D02*
X25919104Y-103285714D01*
X25919104Y-103285714D02*
X25823866Y-103238095D01*
X25823866Y-103238095D02*
X25776247Y-103190476D01*
X25776247Y-103190476D02*
X25728628Y-103095238D01*
X25728628Y-103095238D02*
X25681009Y-102904762D01*
X25681009Y-102904762D02*
X25633390Y-102809524D01*
X25633390Y-102809524D02*
X25585771Y-102761905D01*
X25585771Y-102761905D02*
X25490533Y-102714286D01*
X25490533Y-102714286D02*
X25395295Y-102714286D01*
X25395295Y-102714286D02*
X25300057Y-102761905D01*
X25300057Y-102761905D02*
X25252438Y-102809524D01*
X25252438Y-102809524D02*
X25204819Y-102904762D01*
X25204819Y-102904762D02*
X25204819Y-103142857D01*
X25204819Y-103142857D02*
X25252438Y-103285714D01*
X25204819Y-103619048D02*
X26204819Y-103857143D01*
X26204819Y-103857143D02*
X25490533Y-104047619D01*
X25490533Y-104047619D02*
X26204819Y-104238095D01*
X26204819Y-104238095D02*
X25204819Y-104476191D01*
X25633390Y-105000000D02*
X25585771Y-104904762D01*
X25585771Y-104904762D02*
X25538152Y-104857143D01*
X25538152Y-104857143D02*
X25442914Y-104809524D01*
X25442914Y-104809524D02*
X25395295Y-104809524D01*
X25395295Y-104809524D02*
X25300057Y-104857143D01*
X25300057Y-104857143D02*
X25252438Y-104904762D01*
X25252438Y-104904762D02*
X25204819Y-105000000D01*
X25204819Y-105000000D02*
X25204819Y-105190476D01*
X25204819Y-105190476D02*
X25252438Y-105285714D01*
X25252438Y-105285714D02*
X25300057Y-105333333D01*
X25300057Y-105333333D02*
X25395295Y-105380952D01*
X25395295Y-105380952D02*
X25442914Y-105380952D01*
X25442914Y-105380952D02*
X25538152Y-105333333D01*
X25538152Y-105333333D02*
X25585771Y-105285714D01*
X25585771Y-105285714D02*
X25633390Y-105190476D01*
X25633390Y-105190476D02*
X25633390Y-105000000D01*
X25633390Y-105000000D02*
X25681009Y-104904762D01*
X25681009Y-104904762D02*
X25728628Y-104857143D01*
X25728628Y-104857143D02*
X25823866Y-104809524D01*
X25823866Y-104809524D02*
X26014342Y-104809524D01*
X26014342Y-104809524D02*
X26109580Y-104857143D01*
X26109580Y-104857143D02*
X26157200Y-104904762D01*
X26157200Y-104904762D02*
X26204819Y-105000000D01*
X26204819Y-105000000D02*
X26204819Y-105190476D01*
X26204819Y-105190476D02*
X26157200Y-105285714D01*
X26157200Y-105285714D02*
X26109580Y-105333333D01*
X26109580Y-105333333D02*
X26014342Y-105380952D01*
X26014342Y-105380952D02*
X25823866Y-105380952D01*
X25823866Y-105380952D02*
X25728628Y-105333333D01*
X25728628Y-105333333D02*
X25681009Y-105285714D01*
X25681009Y-105285714D02*
X25633390Y-105190476D01*
X25204819Y-106000000D02*
X25204819Y-106095238D01*
X25204819Y-106095238D02*
X25252438Y-106190476D01*
X25252438Y-106190476D02*
X25300057Y-106238095D01*
X25300057Y-106238095D02*
X25395295Y-106285714D01*
X25395295Y-106285714D02*
X25585771Y-106333333D01*
X25585771Y-106333333D02*
X25823866Y-106333333D01*
X25823866Y-106333333D02*
X26014342Y-106285714D01*
X26014342Y-106285714D02*
X26109580Y-106238095D01*
X26109580Y-106238095D02*
X26157200Y-106190476D01*
X26157200Y-106190476D02*
X26204819Y-106095238D01*
X26204819Y-106095238D02*
X26204819Y-106000000D01*
X26204819Y-106000000D02*
X26157200Y-105904762D01*
X26157200Y-105904762D02*
X26109580Y-105857143D01*
X26109580Y-105857143D02*
X26014342Y-105809524D01*
X26014342Y-105809524D02*
X25823866Y-105761905D01*
X25823866Y-105761905D02*
X25585771Y-105761905D01*
X25585771Y-105761905D02*
X25395295Y-105809524D01*
X25395295Y-105809524D02*
X25300057Y-105857143D01*
X25300057Y-105857143D02*
X25252438Y-105904762D01*
X25252438Y-105904762D02*
X25204819Y-106000000D01*
X25300057Y-106714286D02*
X25252438Y-106761905D01*
X25252438Y-106761905D02*
X25204819Y-106857143D01*
X25204819Y-106857143D02*
X25204819Y-107095238D01*
X25204819Y-107095238D02*
X25252438Y-107190476D01*
X25252438Y-107190476D02*
X25300057Y-107238095D01*
X25300057Y-107238095D02*
X25395295Y-107285714D01*
X25395295Y-107285714D02*
X25490533Y-107285714D01*
X25490533Y-107285714D02*
X25633390Y-107238095D01*
X25633390Y-107238095D02*
X26204819Y-106666667D01*
X26204819Y-106666667D02*
X26204819Y-107285714D01*
D11*
%TO.C,JP502*%
X63250000Y-88100000D02*
X62650000Y-88100000D01*
X61950000Y-88800000D02*
X61950000Y-90200000D01*
X63950000Y-90200000D02*
X63950000Y-88800000D01*
X62650000Y-90900000D02*
X63250000Y-90900000D01*
X61950000Y-88800000D02*
G75*
G02*
X62650000Y-88100000I699999J1D01*
G01*
X63250000Y-88100000D02*
G75*
G02*
X63950000Y-88800000I1J-699999D01*
G01*
X62650000Y-90900000D02*
G75*
G02*
X61950000Y-90200000I0J700000D01*
G01*
X63950000Y-90200000D02*
G75*
G02*
X63250000Y-90900000I-700000J0D01*
G01*
%TO.C,SW801*%
X70750000Y-108500000D02*
X69250000Y-108500000D01*
X66750000Y-107250000D02*
X66750000Y-102750000D01*
X73250000Y-102750000D02*
X73250000Y-107250000D01*
X69250000Y-101500000D02*
X70750000Y-101500000D01*
D12*
%TO.C,J702*%
X22899000Y-51350000D02*
X22899000Y-49720000D01*
X23669000Y-48450000D02*
X40129000Y-48450000D01*
X23679000Y-51350000D02*
X22899000Y-51350000D01*
X40119000Y-51350000D02*
X40899000Y-51350000D01*
X40899000Y-51350000D02*
X40899000Y-49720000D01*
D13*
X39749000Y-52800000D02*
G75*
G02*
X39549000Y-52800000I-100000J0D01*
G01*
X39549000Y-52800000D02*
G75*
G02*
X39749000Y-52800000I100000J0D01*
G01*
D11*
%TO.C,SW802*%
X29250000Y-101500000D02*
X30750000Y-101500000D01*
X33250000Y-102750000D02*
X33250000Y-107250000D01*
X26750000Y-107250000D02*
X26750000Y-102750000D01*
X30750000Y-108500000D02*
X29250000Y-108500000D01*
%TO.C,JP501*%
X68050000Y-88150000D02*
X67450000Y-88150000D01*
X66750000Y-88850000D02*
X66750000Y-90250000D01*
X68750000Y-90250000D02*
X68750000Y-88850000D01*
X67450000Y-90950000D02*
X68050000Y-90950000D01*
X66750000Y-88850000D02*
G75*
G02*
X67450000Y-88150000I699999J1D01*
G01*
X68050000Y-88150000D02*
G75*
G02*
X68750000Y-88850000I1J-699999D01*
G01*
X67450000Y-90950000D02*
G75*
G02*
X66750000Y-90250000I0J700000D01*
G01*
X68750000Y-90250000D02*
G75*
G02*
X68050000Y-90950000I-700000J0D01*
G01*
%TD*%
M02*
