M48
; DRILL file {KiCad 9.0.3} date 2026-04-14T00:49:48-0400
; FORMAT={-:-/ absolute / metric / decimal}
; #@! TF.CreationDate,2026-04-14T00:49:48-04:00
; #@! TF.GenerationSoftware,Kicad,Pcbnew,9.0.3
; #@! TF.FileFunction,Plated,1,2,PTH
FMAT,2
METRIC
; #@! TA.AperFunction,Plated,PTH,ViaDrill
T1C0.300
; #@! TA.AperFunction,Plated,PTH,ViaDrill
T2C0.500
; #@! TA.AperFunction,Plated,PTH,ComponentDrill
T3C0.600
; #@! TA.AperFunction,Plated,PTH,ComponentDrill
T4C0.700
; #@! TA.AperFunction,Plated,PTH,ComponentDrill
T5C1.100
; #@! TA.AperFunction,Plated,PTH,ComponentDrill
T6C1.200
; #@! TA.AperFunction,Plated,PTH,ComponentDrill
T7C2.000
%
G90
G05
T1
X20.725Y-60.4
X21.9Y-69.6
X26.4Y-66.6
X26.75Y-49.575
X27.0Y-77.25
X27.5Y-94.75
X27.6Y-75.6
X29.0Y-76.75
X30.125Y-89.55
X30.525Y-81.575
X31.0Y-75.5
X32.0Y-95.237
X32.112Y-93.25
X34.75Y-110.0
X35.76Y-101.78
X36.15Y-49.4
X36.15Y-97.525
X36.6Y-78.8
X36.6Y-79.6
X36.6Y-80.4
X36.6Y-81.2
X36.6Y-82.0
X36.6Y-82.8
X36.6Y-83.6
X36.6Y-84.4
X38.3Y-108.625
X38.625Y-89.65
X40.975Y-81.05
X41.275Y-71.2
X42.25Y-101.0
X43.2Y-87.7
X44.0Y-87.75
X44.6Y-76.65
X45.0Y-90.0
X45.91Y-95.08
X46.25Y-87.75
X46.5Y-55.625
X46.51Y-28.4
X47.0Y-87.75
X47.5Y-27.4
X48.1Y-43.675
X48.175Y-81.575
X48.381Y-27.381
X48.8Y-47.1
X48.925Y-30.925
X48.95Y-23.0
X49.3Y-34.0
X49.5Y-87.5
X49.715Y-27.615
X50.049Y-88.9
X50.55Y-60.025
X50.704Y-89.195
X51.75Y-101.5
X52.5Y-33.6
X52.55Y-21.7
X52.8Y-41.0
X52.8Y-66.0
X52.8Y-66.8
X52.8Y-67.6
X52.8Y-68.4
X52.8Y-69.2
X52.8Y-70.0
X52.8Y-70.8
X52.8Y-71.6
X52.8Y-72.4
X52.8Y-73.2
X52.8Y-74.0
X52.8Y-74.8
X52.8Y-75.6
X52.8Y-76.4
X52.8Y-77.2
X52.8Y-78.0
X52.8Y-78.8
X52.8Y-79.6
X52.8Y-80.4
X52.8Y-81.2
X52.8Y-82.0
X52.8Y-82.8
X52.8Y-83.6
X52.8Y-84.4
X53.2Y-47.5
X53.28Y-27.33
X53.75Y-47.87
X54.2Y-27.4
X54.2Y-39.5
X54.6Y-45.7
X55.0Y-41.824
X55.0Y-51.076
X55.25Y-85.75
X55.251Y-47.0
X55.4Y-77.88
X55.4Y-78.5
X55.6Y-41.3
X55.7Y-37.1
X56.7Y-24.6
X56.7Y-77.79
X56.75Y-79.25
X57.05Y-39.37
X57.33Y-76.87
X57.41Y-57.48
X57.56Y-78.14
X57.718Y-63.0
X57.755Y-61.124
X57.813Y-56.719
X58.25Y-78.79
X58.34Y-77.95
X58.8Y-37.5
X58.8Y-74.2
X58.95Y-75.08
X59.0Y-33.7
X59.15Y-80.95
X59.15Y-87.55
X59.18Y-49.24
X59.2Y-36.3
X59.2Y-90.3
X59.3Y-30.9
X59.4Y-29.1
X59.43Y-51.02
X59.49Y-78.39
X59.5Y-109.0
X59.52Y-50.35
X59.55Y-51.61
X59.93Y-49.37
X59.95Y-87.15
X60.06Y-52.09
X60.25Y-80.25
X60.4Y-37.9
X60.66Y-46.835
X60.816Y-51.966
X61.0Y-47.75
X61.0Y-95.75
X61.1Y-44.4
X61.5Y-35.5
X61.6Y-23.4
X61.89Y-22.066
X61.9Y-27.2
X62.25Y-78.5
X62.313Y-84.37
X62.399Y-55.251
X62.4Y-36.4
X62.638Y-38.562
X63.0Y-53.5
X63.25Y-77.687
X63.5Y-30.55
X63.775Y-76.975
X63.9Y-43.9
X63.95Y-87.35
X64.001Y-47.1
X64.14Y-46.29
X64.15Y-89.95
X64.4Y-50.15
X64.48Y-53.74
X64.675Y-24.0
X64.799Y-50.82
X64.85Y-84.75
X65.0Y-47.1
X65.25Y-110.0
X65.9Y-33.05
X65.933Y-98.133
X65.95Y-78.55
X66.1Y-46.6
X66.15Y-89.75
X66.25Y-99.25
X66.3Y-87.127
X66.5Y-28.7
X66.5Y-38.8
X66.6Y-44.5
X66.9Y-36.3
X67.25Y-30.75
X67.354Y-84.542
X67.5Y-49.75
X67.75Y-87.55
X67.752Y-52.454
X67.8Y-36.251
X67.9Y-46.8
X68.1Y-75.925
X68.25Y-95.25
X68.47Y-42.53
X68.575Y-111.575
X68.599Y-52.251
X68.72Y-46.94
X68.9Y-24.825
X69.1Y-44.999
X69.1Y-46.4
X69.13Y-44.3
X69.151Y-73.801
X69.25Y-58.0
X69.307Y-37.807
X69.45Y-54.93
X69.55Y-51.57
X69.55Y-85.15
X69.55Y-86.35
X69.775Y-72.878
X70.4Y-37.7
X70.457Y-36.657
X70.725Y-89.075
X70.78Y-46.76
X70.925Y-79.375
X70.95Y-45.17
X71.0Y-97.0
X71.13Y-41.79
X71.141Y-42.39
X71.353Y-42.951
X71.4Y-37.7
X71.53Y-44.34
X71.957Y-43.443
X72.97Y-44.26
X73.02Y-41.1
X73.125Y-31.4
X73.25Y-94.0
X73.39Y-49.77
X73.72Y-49.18
X73.775Y-38.275
X74.325Y-45.75
X74.487Y-65.118
X74.487Y-69.0
X74.487Y-59.0
X74.487Y-60.8
X74.487Y-62.0
X74.599Y-67.2
T2
X46.1Y-84.5
X47.7Y-39.7
X49.06Y-49.36
X51.37Y-50.02
X53.75Y-88.0
T3
X42.9Y-113.6
X43.0Y-50.0
X43.0Y-53.2
X45.4Y-113.6
X46.6Y-50.0
X46.6Y-53.2
X47.9Y-113.6
X50.4Y-113.6
X52.9Y-113.6
X55.4Y-113.6
X57.9Y-113.6
X60.4Y-113.6
X62.9Y-113.6
X65.4Y-113.6
T4
X58.85Y-60.28
X58.85Y-62.06
X58.85Y-63.84
X58.85Y-65.62
X58.85Y-67.4
X58.85Y-69.18
X58.85Y-70.96
X58.87Y-58.5
X69.55Y-59.39
X69.55Y-61.17
X69.55Y-62.95
X69.55Y-64.73
X69.55Y-66.51
X69.55Y-68.29
X69.55Y-70.07
X69.55Y-71.85
T5
X27.75Y-101.75
X27.75Y-108.25
X32.25Y-101.75
X32.25Y-108.25
X67.75Y-101.75
X67.75Y-108.25
X72.25Y-101.75
X72.25Y-108.25
T6
X22.5Y-58.0
X22.5Y-72.5
X25.0Y-72.5
X27.5Y-58.0
X27.5Y-72.5
T3
G00X46.56Y-22.0
M15
G01X46.56Y-21.2
M16
G05
G00X46.56Y-26.33
M15
G01X46.56Y-25.23
M16
G05
G00X55.2Y-22.0
M15
G01X55.2Y-21.2
M16
G05
G00X55.2Y-26.33
M15
G01X55.2Y-25.23
M16
G05
T7
G00X19.4Y-64.85
M15
G01X19.4Y-65.15
M16
G05
G00X30.6Y-64.85
M15
G01X30.6Y-65.15
M16
G05
M30
