%TF.GenerationSoftware,KiCad,Pcbnew,9.0.3*%
%TF.CreationDate,2026-04-14T00:49:45-04:00*%
%TF.ProjectId,Touchpoint_Mainboard,546f7563-6870-46f6-996e-745f4d61696e,rev?*%
%TF.SameCoordinates,Original*%
%TF.FileFunction,Paste,Bot*%
%TF.FilePolarity,Positive*%
%FSLAX46Y46*%
G04 Gerber Fmt 4.6, Leading zero omitted, Abs format (unit mm)*
G04 Created by KiCad (PCBNEW 9.0.3) date 2026-04-14 00:49:45*
%MOMM*%
%LPD*%
G01*
G04 APERTURE LIST*
%ADD10C,0.010000*%
%ADD11R,0.400000X0.800000*%
G04 APERTURE END LIST*
D10*
%TO.C,J702*%
X24274000Y-51900000D02*
X24024000Y-51900000D01*
X24024000Y-51250000D01*
X24274000Y-51250000D01*
X24274000Y-51900000D01*
G36*
X24274000Y-51900000D02*
G01*
X24024000Y-51900000D01*
X24024000Y-51250000D01*
X24274000Y-51250000D01*
X24274000Y-51900000D01*
G37*
X24774000Y-51900000D02*
X24524000Y-51900000D01*
X24524000Y-51250000D01*
X24774000Y-51250000D01*
X24774000Y-51900000D01*
G36*
X24774000Y-51900000D02*
G01*
X24524000Y-51900000D01*
X24524000Y-51250000D01*
X24774000Y-51250000D01*
X24774000Y-51900000D01*
G37*
X25274000Y-51900000D02*
X25024000Y-51900000D01*
X25024000Y-51250000D01*
X25274000Y-51250000D01*
X25274000Y-51900000D01*
G36*
X25274000Y-51900000D02*
G01*
X25024000Y-51900000D01*
X25024000Y-51250000D01*
X25274000Y-51250000D01*
X25274000Y-51900000D01*
G37*
X25774000Y-51900000D02*
X25524000Y-51900000D01*
X25524000Y-51250000D01*
X25774000Y-51250000D01*
X25774000Y-51900000D01*
G36*
X25774000Y-51900000D02*
G01*
X25524000Y-51900000D01*
X25524000Y-51250000D01*
X25774000Y-51250000D01*
X25774000Y-51900000D01*
G37*
X26274000Y-51900000D02*
X26024000Y-51900000D01*
X26024000Y-51250000D01*
X26274000Y-51250000D01*
X26274000Y-51900000D01*
G36*
X26274000Y-51900000D02*
G01*
X26024000Y-51900000D01*
X26024000Y-51250000D01*
X26274000Y-51250000D01*
X26274000Y-51900000D01*
G37*
X26774000Y-51900000D02*
X26524000Y-51900000D01*
X26524000Y-51250000D01*
X26774000Y-51250000D01*
X26774000Y-51900000D01*
G36*
X26774000Y-51900000D02*
G01*
X26524000Y-51900000D01*
X26524000Y-51250000D01*
X26774000Y-51250000D01*
X26774000Y-51900000D01*
G37*
X27274000Y-51900000D02*
X27024000Y-51900000D01*
X27024000Y-51250000D01*
X27274000Y-51250000D01*
X27274000Y-51900000D01*
G36*
X27274000Y-51900000D02*
G01*
X27024000Y-51900000D01*
X27024000Y-51250000D01*
X27274000Y-51250000D01*
X27274000Y-51900000D01*
G37*
X27774000Y-51900000D02*
X27524000Y-51900000D01*
X27524000Y-51250000D01*
X27774000Y-51250000D01*
X27774000Y-51900000D01*
G36*
X27774000Y-51900000D02*
G01*
X27524000Y-51900000D01*
X27524000Y-51250000D01*
X27774000Y-51250000D01*
X27774000Y-51900000D01*
G37*
X28274000Y-51900000D02*
X28024000Y-51900000D01*
X28024000Y-51250000D01*
X28274000Y-51250000D01*
X28274000Y-51900000D01*
G36*
X28274000Y-51900000D02*
G01*
X28024000Y-51900000D01*
X28024000Y-51250000D01*
X28274000Y-51250000D01*
X28274000Y-51900000D01*
G37*
X28774000Y-51900000D02*
X28524000Y-51900000D01*
X28524000Y-51250000D01*
X28774000Y-51250000D01*
X28774000Y-51900000D01*
G36*
X28774000Y-51900000D02*
G01*
X28524000Y-51900000D01*
X28524000Y-51250000D01*
X28774000Y-51250000D01*
X28774000Y-51900000D01*
G37*
X29274000Y-51900000D02*
X29024000Y-51900000D01*
X29024000Y-51250000D01*
X29274000Y-51250000D01*
X29274000Y-51900000D01*
G36*
X29274000Y-51900000D02*
G01*
X29024000Y-51900000D01*
X29024000Y-51250000D01*
X29274000Y-51250000D01*
X29274000Y-51900000D01*
G37*
X29774000Y-51900000D02*
X29524000Y-51900000D01*
X29524000Y-51250000D01*
X29774000Y-51250000D01*
X29774000Y-51900000D01*
G36*
X29774000Y-51900000D02*
G01*
X29524000Y-51900000D01*
X29524000Y-51250000D01*
X29774000Y-51250000D01*
X29774000Y-51900000D01*
G37*
X30274000Y-51900000D02*
X30024000Y-51900000D01*
X30024000Y-51250000D01*
X30274000Y-51250000D01*
X30274000Y-51900000D01*
G36*
X30274000Y-51900000D02*
G01*
X30024000Y-51900000D01*
X30024000Y-51250000D01*
X30274000Y-51250000D01*
X30274000Y-51900000D01*
G37*
X30774000Y-51900000D02*
X30524000Y-51900000D01*
X30524000Y-51250000D01*
X30774000Y-51250000D01*
X30774000Y-51900000D01*
G36*
X30774000Y-51900000D02*
G01*
X30524000Y-51900000D01*
X30524000Y-51250000D01*
X30774000Y-51250000D01*
X30774000Y-51900000D01*
G37*
X31274000Y-51900000D02*
X31024000Y-51900000D01*
X31024000Y-51250000D01*
X31274000Y-51250000D01*
X31274000Y-51900000D01*
G36*
X31274000Y-51900000D02*
G01*
X31024000Y-51900000D01*
X31024000Y-51250000D01*
X31274000Y-51250000D01*
X31274000Y-51900000D01*
G37*
X31774000Y-51900000D02*
X31524000Y-51900000D01*
X31524000Y-51250000D01*
X31774000Y-51250000D01*
X31774000Y-51900000D01*
G36*
X31774000Y-51900000D02*
G01*
X31524000Y-51900000D01*
X31524000Y-51250000D01*
X31774000Y-51250000D01*
X31774000Y-51900000D01*
G37*
X32274000Y-51900000D02*
X32024000Y-51900000D01*
X32024000Y-51250000D01*
X32274000Y-51250000D01*
X32274000Y-51900000D01*
G36*
X32274000Y-51900000D02*
G01*
X32024000Y-51900000D01*
X32024000Y-51250000D01*
X32274000Y-51250000D01*
X32274000Y-51900000D01*
G37*
X32774000Y-51900000D02*
X32524000Y-51900000D01*
X32524000Y-51250000D01*
X32774000Y-51250000D01*
X32774000Y-51900000D01*
G36*
X32774000Y-51900000D02*
G01*
X32524000Y-51900000D01*
X32524000Y-51250000D01*
X32774000Y-51250000D01*
X32774000Y-51900000D01*
G37*
X33274000Y-51900000D02*
X33024000Y-51900000D01*
X33024000Y-51250000D01*
X33274000Y-51250000D01*
X33274000Y-51900000D01*
G36*
X33274000Y-51900000D02*
G01*
X33024000Y-51900000D01*
X33024000Y-51250000D01*
X33274000Y-51250000D01*
X33274000Y-51900000D01*
G37*
X33774000Y-51900000D02*
X33524000Y-51900000D01*
X33524000Y-51250000D01*
X33774000Y-51250000D01*
X33774000Y-51900000D01*
G36*
X33774000Y-51900000D02*
G01*
X33524000Y-51900000D01*
X33524000Y-51250000D01*
X33774000Y-51250000D01*
X33774000Y-51900000D01*
G37*
X34274000Y-51900000D02*
X34024000Y-51900000D01*
X34024000Y-51250000D01*
X34274000Y-51250000D01*
X34274000Y-51900000D01*
G36*
X34274000Y-51900000D02*
G01*
X34024000Y-51900000D01*
X34024000Y-51250000D01*
X34274000Y-51250000D01*
X34274000Y-51900000D01*
G37*
X34774000Y-51900000D02*
X34524000Y-51900000D01*
X34524000Y-51250000D01*
X34774000Y-51250000D01*
X34774000Y-51900000D01*
G36*
X34774000Y-51900000D02*
G01*
X34524000Y-51900000D01*
X34524000Y-51250000D01*
X34774000Y-51250000D01*
X34774000Y-51900000D01*
G37*
X35274000Y-51900000D02*
X35024000Y-51900000D01*
X35024000Y-51250000D01*
X35274000Y-51250000D01*
X35274000Y-51900000D01*
G36*
X35274000Y-51900000D02*
G01*
X35024000Y-51900000D01*
X35024000Y-51250000D01*
X35274000Y-51250000D01*
X35274000Y-51900000D01*
G37*
X35774000Y-51900000D02*
X35524000Y-51900000D01*
X35524000Y-51250000D01*
X35774000Y-51250000D01*
X35774000Y-51900000D01*
G36*
X35774000Y-51900000D02*
G01*
X35524000Y-51900000D01*
X35524000Y-51250000D01*
X35774000Y-51250000D01*
X35774000Y-51900000D01*
G37*
X36274000Y-51900000D02*
X36024000Y-51900000D01*
X36024000Y-51250000D01*
X36274000Y-51250000D01*
X36274000Y-51900000D01*
G36*
X36274000Y-51900000D02*
G01*
X36024000Y-51900000D01*
X36024000Y-51250000D01*
X36274000Y-51250000D01*
X36274000Y-51900000D01*
G37*
X36774000Y-51900000D02*
X36524000Y-51900000D01*
X36524000Y-51250000D01*
X36774000Y-51250000D01*
X36774000Y-51900000D01*
G36*
X36774000Y-51900000D02*
G01*
X36524000Y-51900000D01*
X36524000Y-51250000D01*
X36774000Y-51250000D01*
X36774000Y-51900000D01*
G37*
X37274000Y-51900000D02*
X37024000Y-51900000D01*
X37024000Y-51250000D01*
X37274000Y-51250000D01*
X37274000Y-51900000D01*
G36*
X37274000Y-51900000D02*
G01*
X37024000Y-51900000D01*
X37024000Y-51250000D01*
X37274000Y-51250000D01*
X37274000Y-51900000D01*
G37*
X37774000Y-51900000D02*
X37524000Y-51900000D01*
X37524000Y-51250000D01*
X37774000Y-51250000D01*
X37774000Y-51900000D01*
G36*
X37774000Y-51900000D02*
G01*
X37524000Y-51900000D01*
X37524000Y-51250000D01*
X37774000Y-51250000D01*
X37774000Y-51900000D01*
G37*
X38274000Y-51900000D02*
X38024000Y-51900000D01*
X38024000Y-51250000D01*
X38274000Y-51250000D01*
X38274000Y-51900000D01*
G36*
X38274000Y-51900000D02*
G01*
X38024000Y-51900000D01*
X38024000Y-51250000D01*
X38274000Y-51250000D01*
X38274000Y-51900000D01*
G37*
X38774000Y-51900000D02*
X38524000Y-51900000D01*
X38524000Y-51250000D01*
X38774000Y-51250000D01*
X38774000Y-51900000D01*
G36*
X38774000Y-51900000D02*
G01*
X38524000Y-51900000D01*
X38524000Y-51250000D01*
X38774000Y-51250000D01*
X38774000Y-51900000D01*
G37*
X39274000Y-51900000D02*
X39024000Y-51900000D01*
X39024000Y-51250000D01*
X39274000Y-51250000D01*
X39274000Y-51900000D01*
G36*
X39274000Y-51900000D02*
G01*
X39024000Y-51900000D01*
X39024000Y-51250000D01*
X39274000Y-51250000D01*
X39274000Y-51900000D01*
G37*
X39774000Y-51900000D02*
X39524000Y-51900000D01*
X39524000Y-51250000D01*
X39774000Y-51250000D01*
X39774000Y-51900000D01*
G36*
X39774000Y-51900000D02*
G01*
X39524000Y-51900000D01*
X39524000Y-51250000D01*
X39774000Y-51250000D01*
X39774000Y-51900000D01*
G37*
%TD*%
D11*
%TO.C,J702*%
X40649000Y-49000000D03*
X23149000Y-49000000D03*
%TD*%
M02*
