%TF.GenerationSoftware,KiCad,Pcbnew,9.0.3*%
%TF.CreationDate,2026-04-13T15:04:26-04:00*%
%TF.ProjectId,EEOP_Display,45454f50-5f44-4697-9370-6c61792e6b69,rev?*%
%TF.SameCoordinates,Original*%
%TF.FileFunction,Copper,L2,Bot*%
%TF.FilePolarity,Positive*%
%FSLAX46Y46*%
G04 Gerber Fmt 4.6, Leading zero omitted, Abs format (unit mm)*
G04 Created by KiCad (PCBNEW 9.0.3) date 2026-04-13 15:04:26*
%MOMM*%
%LPD*%
G01*
G04 APERTURE LIST*
%TA.AperFunction,SMDPad,CuDef*%
%ADD10C,1.600000*%
%TD*%
%TA.AperFunction,ViaPad*%
%ADD11C,0.350000*%
%TD*%
%TA.AperFunction,Conductor*%
%ADD12C,0.150000*%
%TD*%
G04 APERTURE END LIST*
D10*
%TO.P,J2,1,Pin_1*%
%TO.N,/E1*%
X35000000Y-40000000D03*
%TO.P,J2,2,Pin_2*%
%TO.N,/E2*%
X32500000Y-40000000D03*
%TO.P,J2,3,Pin_3*%
%TO.N,/E3*%
X30000000Y-40000000D03*
%TO.P,J2,4,Pin_4*%
%TO.N,/E4*%
X33750609Y-37998606D03*
%TO.P,J2,5,Pin_5*%
%TO.N,/E5*%
X31250609Y-37998606D03*
%TO.P,J2,6,Pin_6*%
%TO.N,/E6*%
X35000000Y-35997213D03*
%TO.P,J2,7,Pin_7*%
%TO.N,/E7*%
X33750609Y-33995819D03*
%TO.P,J2,8,Pin_8*%
%TO.N,/E8*%
X31250609Y-33995819D03*
%TO.P,J2,9,Pin_9*%
%TO.N,/E9*%
X32500000Y-35997213D03*
%TO.P,J2,10,Pin_10*%
%TO.N,/E10*%
X30000000Y-35997213D03*
%TO.P,J2,11,Pin_11*%
%TO.N,/E11*%
X35000000Y-31994426D03*
%TO.P,J2,12,Pin_12*%
%TO.N,/E12*%
X30000000Y-31994426D03*
%TO.P,J2,13,Pin_13*%
%TO.N,/E13*%
X32500000Y-31994426D03*
%TO.P,J2,14,Pin_14*%
%TO.N,/E14*%
X33750609Y-29993032D03*
%TO.P,J2,15,Pin_15*%
%TO.N,/E15*%
X31250609Y-29993032D03*
%TO.P,J2,16,Pin_16*%
%TO.N,/E16*%
X35000000Y-27991639D03*
%TO.P,J2,17,Pin_17*%
%TO.N,/E17*%
X32500000Y-28000000D03*
%TO.P,J2,18,Pin_18*%
%TO.N,/E18*%
X33750609Y-25990245D03*
%TO.P,J2,19,Pin_19*%
%TO.N,/E19*%
X36250609Y-25990245D03*
%TO.P,J2,20,Pin_20*%
%TO.N,/E20*%
X37500000Y-27991639D03*
%TO.P,J2,21,Pin_21*%
%TO.N,/E21*%
X38750609Y-29993032D03*
%TO.P,J2,22,Pin_22*%
%TO.N,/E22*%
X36250609Y-29993032D03*
%TO.P,J2,23,Pin_23*%
%TO.N,/E23*%
X40000000Y-31994426D03*
%TO.P,J2,24,Pin_24*%
%TO.N,/E24*%
X37500000Y-31994426D03*
%TO.P,J2,25,Pin_25*%
%TO.N,/E25*%
X38750609Y-33995819D03*
%TO.P,J2,26,Pin_26*%
%TO.N,/E26*%
X36250609Y-33995819D03*
%TO.P,J2,27,Pin_27*%
%TO.N,/E27*%
X40000000Y-35997213D03*
%TO.P,J2,28,Pin_28*%
%TO.N,/E28*%
X37500000Y-35997213D03*
%TO.P,J2,29,Pin_29*%
%TO.N,/E29*%
X38750609Y-37998606D03*
%TO.P,J2,30,Pin_30*%
%TO.N,/E30*%
X36250609Y-37998606D03*
%TO.P,J2,31,Pin_31*%
%TO.N,/E31*%
X40000000Y-40000000D03*
%TO.P,J2,32,Pin_32*%
%TO.N,/E32*%
X37500000Y-40000000D03*
%TD*%
D11*
%TO.N,/E9*%
X31900000Y-36110000D03*
X32700000Y-35420000D03*
X32100000Y-35770000D03*
X33100000Y-36110000D03*
X32700000Y-36110000D03*
X32900000Y-36460000D03*
X32300000Y-35420000D03*
X31250000Y-20750000D03*
X32500000Y-36460000D03*
X32500000Y-35770000D03*
X32300000Y-36110000D03*
X32100000Y-36460000D03*
X32900000Y-35770000D03*
%TO.N,/E26*%
X35850000Y-33770000D03*
X36250000Y-34460000D03*
X35850000Y-34460000D03*
X35650000Y-34110000D03*
X36650000Y-33770000D03*
X39750000Y-18750000D03*
X36450000Y-34110000D03*
X36050000Y-33420000D03*
X36450000Y-33420000D03*
X36050000Y-34110000D03*
X36250000Y-33770000D03*
X36850000Y-34110000D03*
X36650000Y-34460000D03*
%TO.N,/E20*%
X37300000Y-28110000D03*
X37900000Y-28460000D03*
X37100000Y-27770000D03*
X37700000Y-27420000D03*
X37300000Y-27420000D03*
X37500000Y-27770000D03*
X37700000Y-28110000D03*
X36900000Y-28110000D03*
X38100000Y-28110000D03*
X37500000Y-28460000D03*
X36750000Y-18750000D03*
X37100000Y-28460000D03*
X37900000Y-27770000D03*
%TO.N,/E13*%
X32100000Y-31770000D03*
X33100000Y-32110000D03*
X32300000Y-31420000D03*
X32700000Y-31420000D03*
X32500000Y-31770000D03*
X32700000Y-32110000D03*
X32900000Y-31770000D03*
X33250000Y-20750000D03*
X32100000Y-32460000D03*
X31900000Y-32110000D03*
X32900000Y-32460000D03*
X32500000Y-32460000D03*
X32300000Y-32110000D03*
%TO.N,/E3*%
X30600000Y-40110000D03*
X30000000Y-40460000D03*
X29800000Y-40110000D03*
X29600000Y-40460000D03*
X30400000Y-39770000D03*
X29400000Y-40110000D03*
X30200000Y-39420000D03*
X30000000Y-39770000D03*
X28250000Y-20750000D03*
X29800000Y-39420000D03*
X30400000Y-40460000D03*
X30200000Y-40110000D03*
X29600000Y-39770000D03*
%TO.N,/E22*%
X36250000Y-30460000D03*
X36850000Y-30110000D03*
X35850000Y-30460000D03*
X36650000Y-30460000D03*
X37750000Y-18750000D03*
X36650000Y-29770000D03*
X36450000Y-29420000D03*
X36250000Y-29770000D03*
X36450000Y-30110000D03*
X36050000Y-30110000D03*
X36050000Y-29420000D03*
X35650000Y-30110000D03*
X35850000Y-29770000D03*
%TO.N,/E6*%
X34400000Y-36110000D03*
X29750000Y-18750000D03*
X34800000Y-35420000D03*
X34600000Y-35770000D03*
X35400000Y-36460000D03*
X35200000Y-36110000D03*
X35000000Y-35770000D03*
X34800000Y-36110000D03*
X35400000Y-35770000D03*
X35600000Y-36110000D03*
X35000000Y-36460000D03*
X34600000Y-36460000D03*
X35200000Y-35420000D03*
%TO.N,/E28*%
X37500000Y-36460000D03*
X36900000Y-36110000D03*
X37500000Y-35770000D03*
X38100000Y-36110000D03*
X37700000Y-35420000D03*
X37900000Y-35770000D03*
X37100000Y-36460000D03*
X37100000Y-35770000D03*
X37300000Y-35420000D03*
X40750000Y-18750000D03*
X37300000Y-36110000D03*
X37700000Y-36110000D03*
X37900000Y-36460000D03*
%TO.N,/E21*%
X38350000Y-29770000D03*
X38750000Y-29770000D03*
X39150000Y-30460000D03*
X37250000Y-20750000D03*
X39150000Y-29770000D03*
X38750000Y-30460000D03*
X38550000Y-29420000D03*
X38950000Y-29420000D03*
X38150000Y-30110000D03*
X38950000Y-30110000D03*
X38350000Y-30460000D03*
X39350000Y-30110000D03*
X38550000Y-30110000D03*
%TO.N,/E11*%
X35200000Y-32110000D03*
X35000000Y-32460000D03*
X34800000Y-32110000D03*
X35400000Y-32460000D03*
X34800000Y-31420000D03*
X34400000Y-32110000D03*
X35000000Y-31770000D03*
X34600000Y-31770000D03*
X34600000Y-32460000D03*
X35600000Y-32110000D03*
X32250000Y-20750000D03*
X35400000Y-31770000D03*
X35200000Y-31420000D03*
%TO.N,/E25*%
X38950000Y-33420000D03*
X38550000Y-33420000D03*
X38550000Y-34110000D03*
X38350000Y-33770000D03*
X38750000Y-33770000D03*
X38750000Y-34460000D03*
X39250000Y-20750000D03*
X38950000Y-34110000D03*
X39150000Y-33770000D03*
X38350000Y-34460000D03*
X38150000Y-34110000D03*
X39350000Y-34110000D03*
X39150000Y-34460000D03*
%TO.N,/E19*%
X36450000Y-25420000D03*
X35850000Y-25770000D03*
X36050000Y-25420000D03*
X36250000Y-20750000D03*
X36250000Y-25770000D03*
X36850000Y-26110000D03*
X35850000Y-26460000D03*
X35650000Y-26110000D03*
X36050000Y-26110000D03*
X36250000Y-26460000D03*
X36650000Y-26460000D03*
X36650000Y-25770000D03*
X36450000Y-26110000D03*
%TO.N,/E8*%
X31050000Y-34110000D03*
X30850000Y-34460000D03*
X31450000Y-33420000D03*
X31250000Y-33770000D03*
X31650000Y-34460000D03*
X31650000Y-33770000D03*
X30650000Y-34110000D03*
X31850000Y-34110000D03*
X30850000Y-33770000D03*
X31050000Y-33420000D03*
X30750000Y-18750000D03*
X31250000Y-34460000D03*
X31450000Y-34110000D03*
%TO.N,/E10*%
X30600000Y-36110000D03*
X30400000Y-35770000D03*
X29400000Y-36110000D03*
X29800000Y-36110000D03*
X30000000Y-36460000D03*
X30400000Y-36460000D03*
X30200000Y-36110000D03*
X29600000Y-35770000D03*
X29800000Y-35420000D03*
X29600000Y-36460000D03*
X30000000Y-35770000D03*
X31750000Y-18750000D03*
X30200000Y-35420000D03*
%TO.N,/E18*%
X34150000Y-26460000D03*
X33950000Y-26110000D03*
X33950000Y-25420000D03*
X33750000Y-26460000D03*
X33350000Y-26460000D03*
X33550000Y-26110000D03*
X33350000Y-25770000D03*
X33150000Y-26110000D03*
X34350000Y-26110000D03*
X33750000Y-25770000D03*
X33550000Y-25420000D03*
X35750000Y-18750000D03*
X34150000Y-25770000D03*
%TO.N,/E24*%
X37100000Y-32460000D03*
X37900000Y-31770000D03*
X37900000Y-32460000D03*
X37300000Y-31420000D03*
X37500000Y-32460000D03*
X37700000Y-32110000D03*
X36900000Y-32110000D03*
X37700000Y-31420000D03*
X37100000Y-31770000D03*
X37300000Y-32110000D03*
X37500000Y-31770000D03*
X38750000Y-18750000D03*
X38100000Y-32110000D03*
%TO.N,/E27*%
X40250000Y-20750000D03*
X39600000Y-35770000D03*
X40200000Y-35420000D03*
X39800000Y-36110000D03*
X40000000Y-36460000D03*
X40400000Y-35770000D03*
X40000000Y-35770000D03*
X39800000Y-35420000D03*
X40600000Y-36110000D03*
X40200000Y-36110000D03*
X40400000Y-36460000D03*
X39400000Y-36110000D03*
X39600000Y-36460000D03*
%TO.N,/E4*%
X34150000Y-38460000D03*
X33750000Y-37770000D03*
X33150000Y-38110000D03*
X28750000Y-18750000D03*
X33950000Y-38110000D03*
X34350000Y-38110000D03*
X33750000Y-38460000D03*
X33950000Y-37420000D03*
X33350000Y-37770000D03*
X33550000Y-38110000D03*
X33550000Y-37420000D03*
X34150000Y-37770000D03*
X33350000Y-38460000D03*
%TO.N,/E12*%
X30600000Y-32110000D03*
X29400000Y-32110000D03*
X30400000Y-32460000D03*
X29600000Y-31770000D03*
X30000000Y-31770000D03*
X32750000Y-18750000D03*
X29800000Y-31420000D03*
X30000000Y-32460000D03*
X29800000Y-32110000D03*
X30200000Y-31420000D03*
X30400000Y-31770000D03*
X30200000Y-32110000D03*
X29600000Y-32460000D03*
%TO.N,/E1*%
X34800000Y-40110000D03*
X35000000Y-40460000D03*
X35000000Y-39770000D03*
X35400000Y-39770000D03*
X34600000Y-39770000D03*
X34800000Y-39420000D03*
X34600000Y-40460000D03*
X35600000Y-40110000D03*
X27250000Y-20750000D03*
X35200000Y-40110000D03*
X35200000Y-39420000D03*
X35400000Y-40460000D03*
X34400000Y-40110000D03*
%TO.N,/E17*%
X35250000Y-20750000D03*
X33100000Y-28110000D03*
X31900000Y-28110000D03*
X32500000Y-27770000D03*
X32700000Y-28110000D03*
X32300000Y-27420000D03*
X32100000Y-27770000D03*
X32700000Y-27420000D03*
X32100000Y-28460000D03*
X32500000Y-28460000D03*
X32900000Y-27770000D03*
X32900000Y-28460000D03*
X32300000Y-28110000D03*
%TO.N,/E29*%
X38950000Y-38110000D03*
X38550000Y-37420000D03*
X39150000Y-37770000D03*
X38150000Y-38110000D03*
X41225000Y-20841804D03*
X38750000Y-37770000D03*
X39150000Y-38460000D03*
X39350000Y-38110000D03*
X38550000Y-38110000D03*
X38950000Y-37420000D03*
X38750000Y-38460000D03*
X38350000Y-37770000D03*
X38350000Y-38460000D03*
%TO.N,/E2*%
X32900000Y-40460000D03*
X32100000Y-39770000D03*
X32700000Y-39420000D03*
X32500000Y-40460000D03*
X27750000Y-18750000D03*
X33100000Y-40110000D03*
X31900000Y-40110000D03*
X32500000Y-39770000D03*
X32900000Y-39770000D03*
X32100000Y-40460000D03*
X32300000Y-40110000D03*
X32700000Y-40110000D03*
X32300000Y-39420000D03*
%TO.N,/E23*%
X39800000Y-31420000D03*
X40200000Y-31420000D03*
X38250000Y-20750000D03*
X40000000Y-32460000D03*
X39800000Y-32110000D03*
X40200000Y-32110000D03*
X39600000Y-32460000D03*
X40400000Y-32460000D03*
X40400000Y-31770000D03*
X39400000Y-32110000D03*
X39600000Y-31770000D03*
X40600000Y-32110000D03*
X40000000Y-31770000D03*
%TO.N,/E7*%
X33950000Y-33420000D03*
X33750000Y-34460000D03*
X33750000Y-33770000D03*
X33950000Y-34110000D03*
X33150000Y-34110000D03*
X34150000Y-34460000D03*
X30250000Y-20750000D03*
X33350000Y-34460000D03*
X33550000Y-33420000D03*
X34150000Y-33770000D03*
X33550000Y-34110000D03*
X34350000Y-34110000D03*
X33350000Y-33770000D03*
%TO.N,/E16*%
X34400000Y-28110000D03*
X35200000Y-27420000D03*
X35400000Y-28460000D03*
X35000000Y-27770000D03*
X35200000Y-28110000D03*
X34600000Y-27770000D03*
X34800000Y-28110000D03*
X35400000Y-27770000D03*
X34800000Y-27420000D03*
X34750000Y-18750000D03*
X35600000Y-28110000D03*
X35000000Y-28460000D03*
X34600000Y-28460000D03*
%TO.N,/E32*%
X36900000Y-40110000D03*
X37900000Y-40460000D03*
X37300000Y-39420000D03*
X37700000Y-39420000D03*
X38100000Y-40110000D03*
X37300000Y-40110000D03*
X37500000Y-39770000D03*
X37700000Y-40110000D03*
X37500000Y-40460000D03*
X37100000Y-39770000D03*
X37900000Y-39770000D03*
X42750000Y-18750000D03*
X37100000Y-40460000D03*
%TO.N,/E15*%
X31050000Y-30110000D03*
X31650000Y-29770000D03*
X31250000Y-29770000D03*
X31050000Y-29420000D03*
X31650000Y-30460000D03*
X31250000Y-30460000D03*
X31450000Y-30110000D03*
X31850000Y-30110000D03*
X30850000Y-30460000D03*
X30850000Y-29770000D03*
X30650000Y-30110000D03*
X31450000Y-29420000D03*
X34250000Y-20750000D03*
%TO.N,/E30*%
X36050000Y-37420000D03*
X35650000Y-38110000D03*
X36650000Y-38460000D03*
X36850000Y-38110000D03*
X41750000Y-18750000D03*
X36050000Y-38110000D03*
X36450000Y-37420000D03*
X36250000Y-37770000D03*
X36450000Y-38110000D03*
X35850000Y-38460000D03*
X36650000Y-37770000D03*
X36250000Y-38460000D03*
X35850000Y-37770000D03*
%TO.N,/E14*%
X33750000Y-18750000D03*
X33950000Y-30110000D03*
X34350000Y-30110000D03*
X34150000Y-29770000D03*
X33350000Y-30460000D03*
X33350000Y-29770000D03*
X33550000Y-30110000D03*
X33950000Y-29420000D03*
X33750000Y-29770000D03*
X33750000Y-30460000D03*
X33550000Y-29420000D03*
X33150000Y-30110000D03*
X34150000Y-30460000D03*
%TO.N,/E31*%
X40000000Y-39770000D03*
X40200000Y-40110000D03*
X40600000Y-40110000D03*
X39400000Y-40110000D03*
X39800000Y-40110000D03*
X39800000Y-39420000D03*
X40400000Y-40460000D03*
X40400000Y-39770000D03*
X42250000Y-20750000D03*
X40200000Y-39420000D03*
X40000000Y-40460000D03*
X39600000Y-40460000D03*
X39600000Y-39770000D03*
%TO.N,/E5*%
X31650000Y-38460000D03*
X31650000Y-37770000D03*
X31050000Y-38110000D03*
X31250000Y-38460000D03*
X30850000Y-37770000D03*
X29250000Y-20750000D03*
X31450000Y-37420000D03*
X31050000Y-37420000D03*
X31850000Y-38110000D03*
X30850000Y-38460000D03*
X30650000Y-38110000D03*
X31450000Y-38110000D03*
X31250000Y-37770000D03*
%TD*%
D12*
%TO.N,/E9*%
X32100000Y-36460000D02*
X31094263Y-36460000D01*
X28250000Y-28003611D02*
X28250000Y-27750000D01*
X28250000Y-34366389D02*
X28149000Y-34265388D01*
X31250000Y-24750000D02*
X31250000Y-20750000D01*
X28250000Y-35804263D02*
X28250000Y-34366389D01*
X29543950Y-37098213D02*
X28250000Y-35804263D01*
X28250000Y-27750000D02*
X31250000Y-24750000D01*
X31094263Y-36460000D02*
X30456050Y-37098213D01*
X28149000Y-28104612D02*
X28250000Y-28003611D01*
X28149000Y-34265388D02*
X28149000Y-28104612D01*
X30456050Y-37098213D02*
X29543950Y-37098213D01*
%TO.N,/E3*%
X29280313Y-22099000D02*
X29099000Y-22099000D01*
X27351000Y-36971000D02*
X27351000Y-26830313D01*
X29800000Y-39420000D02*
X27351000Y-36971000D01*
X30101000Y-22919687D02*
X29280313Y-22099000D01*
X27351000Y-26830313D02*
X30101000Y-24080313D01*
X29099000Y-22099000D02*
X28250000Y-21250000D01*
X28250000Y-21250000D02*
X28250000Y-20750000D01*
X30101000Y-24080313D02*
X30101000Y-22919687D01*
%TO.N,/E22*%
X36650000Y-30460000D02*
X37660527Y-30460000D01*
X39851609Y-30449082D02*
X39851609Y-27601609D01*
X38294559Y-31094032D02*
X39206659Y-31094032D01*
X39206659Y-31094032D02*
X39851609Y-30449082D01*
X39851609Y-27601609D02*
X37750000Y-25500000D01*
X37660527Y-30460000D02*
X38294559Y-31094032D01*
X37750000Y-25500000D02*
X37750000Y-18750000D01*
%TO.N,/E21*%
X37250000Y-25500000D02*
X37250000Y-20750000D01*
X38950000Y-27200000D02*
X37250000Y-25500000D01*
X38950000Y-29420000D02*
X38950000Y-27200000D01*
%TO.N,/E11*%
X32043950Y-33095426D02*
X31843343Y-32894819D01*
X28899000Y-32450476D02*
X28899000Y-28601000D01*
X32956050Y-33095426D02*
X32043950Y-33095426D01*
X29543950Y-33095426D02*
X28899000Y-32450476D01*
X34600000Y-32460000D02*
X33591476Y-32460000D01*
X30593952Y-33095426D02*
X29543950Y-33095426D01*
X30794559Y-32894819D02*
X30593952Y-33095426D01*
X33591476Y-32460000D02*
X32956050Y-33095426D01*
X31843343Y-32894819D02*
X30794559Y-32894819D01*
X28899000Y-28601000D02*
X32250000Y-25250000D01*
X32250000Y-25250000D02*
X32250000Y-20750000D01*
%TO.N,/E10*%
X28500000Y-28250000D02*
X31750000Y-25000000D01*
X29800000Y-35420000D02*
X28500000Y-34120000D01*
X28500000Y-34120000D02*
X28500000Y-28250000D01*
X31750000Y-25000000D02*
X31750000Y-18750000D01*
%TO.N,/E24*%
X38750000Y-25000000D02*
X38750000Y-18750000D01*
X41101000Y-27351000D02*
X38750000Y-25000000D01*
X40456050Y-33095426D02*
X41101000Y-32450476D01*
X38908524Y-32460000D02*
X39543950Y-33095426D01*
X39543950Y-33095426D02*
X40456050Y-33095426D01*
X41101000Y-32450476D02*
X41101000Y-27351000D01*
X37900000Y-32460000D02*
X38908524Y-32460000D01*
%TO.N,/E4*%
X28750000Y-18750000D02*
X28750000Y-21000000D01*
X30452000Y-22702000D02*
X30452000Y-25051612D01*
X28750000Y-21000000D02*
X30452000Y-22702000D01*
X27797999Y-27705613D02*
X27797999Y-36103046D01*
X27797999Y-36103046D02*
X30794559Y-39099606D01*
X31706659Y-39099606D02*
X32346265Y-38460000D01*
X30452000Y-25051612D02*
X27797999Y-27705613D01*
X30794559Y-39099606D02*
X31706659Y-39099606D01*
X32346265Y-38460000D02*
X33350000Y-38460000D01*
%TO.N,/E12*%
X30200000Y-31420000D02*
X30149609Y-31369609D01*
X30149609Y-31369609D02*
X30149609Y-28100391D01*
X30149609Y-28100391D02*
X32750000Y-25500000D01*
X32750000Y-25500000D02*
X32750000Y-18750000D01*
%TO.N,/E1*%
X26250000Y-38949000D02*
X26250000Y-21750000D01*
X33459000Y-41601000D02*
X28902000Y-41601000D01*
X34600000Y-40460000D02*
X33459000Y-41601000D01*
X26250000Y-21750000D02*
X27250000Y-20750000D01*
X28902000Y-41601000D02*
X26250000Y-38949000D01*
%TO.N,/E17*%
X32900000Y-27770000D02*
X33664589Y-27770000D01*
X33664589Y-27770000D02*
X35149609Y-26284980D01*
X35149609Y-26284980D02*
X35149609Y-20850391D01*
X35149609Y-20850391D02*
X35250000Y-20750000D01*
%TO.N,/E29*%
X39444263Y-38110000D02*
X39350000Y-38110000D01*
X41158196Y-20841804D02*
X39101000Y-22899000D01*
X41452000Y-26952000D02*
X41452000Y-36102263D01*
X39101000Y-22899000D02*
X39101000Y-24601000D01*
X39101000Y-24601000D02*
X41452000Y-26952000D01*
X41452000Y-36102263D02*
X39444263Y-38110000D01*
X41225000Y-20841804D02*
X41158196Y-20841804D01*
%TO.N,/E2*%
X27750000Y-22200515D02*
X27750000Y-18750000D01*
X29250000Y-41250000D02*
X27000000Y-39000000D01*
X32100000Y-40650000D02*
X31500000Y-41250000D01*
X31500000Y-41250000D02*
X29250000Y-41250000D01*
X27000000Y-22950515D02*
X27750000Y-22200515D01*
X32100000Y-40460000D02*
X32100000Y-40650000D01*
X27000000Y-39000000D02*
X27000000Y-22950515D01*
%TO.N,/E23*%
X38250000Y-25250000D02*
X38250000Y-20750000D01*
X40200000Y-31420000D02*
X40202609Y-31417391D01*
X40202609Y-31417391D02*
X40202609Y-27202609D01*
X40202609Y-27202609D02*
X38250000Y-25250000D01*
%TO.N,/E32*%
X37900000Y-40460000D02*
X38690000Y-41250000D01*
X41000000Y-41250000D02*
X43449000Y-38801000D01*
X43449000Y-19449000D02*
X42750000Y-18750000D01*
X43449000Y-38801000D02*
X43449000Y-19449000D01*
X38690000Y-41250000D02*
X41000000Y-41250000D01*
%TO.N,/E30*%
X39084790Y-39221475D02*
X38278525Y-39221475D01*
X41750000Y-21000000D02*
X39899000Y-22851000D01*
X41750000Y-18750000D02*
X41750000Y-21000000D01*
X41803000Y-36503265D02*
X39084790Y-39221475D01*
X39899000Y-24902612D02*
X41803000Y-26806612D01*
X38278525Y-39221475D02*
X37517050Y-38460000D01*
X39899000Y-22851000D02*
X39899000Y-24902612D01*
X37517050Y-38460000D02*
X36650000Y-38460000D01*
X41803000Y-26806612D02*
X41803000Y-36503265D01*
%TO.N,/E31*%
X40200000Y-39420000D02*
X43000000Y-36620000D01*
X43000000Y-21500000D02*
X42250000Y-20750000D01*
X43000000Y-36620000D02*
X43000000Y-21500000D01*
%TD*%
M02*
