%TF.GenerationSoftware,KiCad,Pcbnew,9.0.3*%
%TF.CreationDate,2026-04-26T22:15:07-04:00*%
%TF.ProjectId,EEOP_Display,45454f50-5f44-4697-9370-6c61792e6b69,rev?*%
%TF.SameCoordinates,Original*%
%TF.FileFunction,Copper,L1,Top*%
%TF.FilePolarity,Positive*%
%FSLAX46Y46*%
G04 Gerber Fmt 4.6, Leading zero omitted, Abs format (unit mm)*
G04 Created by KiCad (PCBNEW 9.0.3) date 2026-04-26 22:15:07*
%MOMM*%
%LPD*%
G01*
G04 APERTURE LIST*
%TA.AperFunction,SMDPad,CuDef*%
%ADD10R,0.300000X0.800000*%
%TD*%
%TA.AperFunction,SMDPad,CuDef*%
%ADD11R,0.400000X0.800000*%
%TD*%
%TA.AperFunction,ViaPad*%
%ADD12C,0.400000*%
%TD*%
%TA.AperFunction,Conductor*%
%ADD13C,0.150000*%
%TD*%
G04 APERTURE END LIST*
D10*
%TO.P,J1,1,1*%
%TO.N,/E1*%
X27250000Y-19750000D03*
%TO.P,J1,2,2*%
%TO.N,/E2*%
X27750000Y-19750000D03*
%TO.P,J1,3,3*%
%TO.N,/E3*%
X28250000Y-19750000D03*
%TO.P,J1,4,4*%
%TO.N,/E4*%
X28750000Y-19750000D03*
%TO.P,J1,5,5*%
%TO.N,/E5*%
X29250000Y-19750000D03*
%TO.P,J1,6,6*%
%TO.N,/E6*%
X29750000Y-19750000D03*
%TO.P,J1,7,7*%
%TO.N,/E7*%
X30250000Y-19750000D03*
%TO.P,J1,8,8*%
%TO.N,/E8*%
X30750000Y-19750000D03*
%TO.P,J1,9,9*%
%TO.N,/E9*%
X31250000Y-19750000D03*
%TO.P,J1,10,10*%
%TO.N,/E10*%
X31750000Y-19750000D03*
%TO.P,J1,11,11*%
%TO.N,/E11*%
X32250000Y-19750000D03*
%TO.P,J1,12,12*%
%TO.N,/E12*%
X32750000Y-19750000D03*
%TO.P,J1,13,13*%
%TO.N,/E13*%
X33250000Y-19750000D03*
%TO.P,J1,14,14*%
%TO.N,/E14*%
X33750000Y-19750000D03*
%TO.P,J1,15,15*%
%TO.N,/E15*%
X34250000Y-19750000D03*
%TO.P,J1,16,16*%
%TO.N,/E16*%
X34750000Y-19750000D03*
%TO.P,J1,17,17*%
%TO.N,/E17*%
X35250000Y-19750000D03*
%TO.P,J1,18,18*%
%TO.N,/E18*%
X35750000Y-19750000D03*
%TO.P,J1,19,19*%
%TO.N,/E19*%
X36250000Y-19750000D03*
%TO.P,J1,20,20*%
%TO.N,/E20*%
X36750000Y-19750000D03*
%TO.P,J1,21,21*%
%TO.N,/E21*%
X37250000Y-19750000D03*
%TO.P,J1,22,22*%
%TO.N,/E22*%
X37750000Y-19750000D03*
%TO.P,J1,23,23*%
%TO.N,/E23*%
X38250000Y-19750000D03*
%TO.P,J1,24,24*%
%TO.N,/E24*%
X38750000Y-19750000D03*
%TO.P,J1,25,25*%
%TO.N,/E25*%
X39250000Y-19750000D03*
%TO.P,J1,26,26*%
%TO.N,/E26*%
X39750000Y-19750000D03*
%TO.P,J1,27,27*%
%TO.N,/E27*%
X40250000Y-19750000D03*
%TO.P,J1,28,28*%
%TO.N,/E28*%
X40750000Y-19750000D03*
%TO.P,J1,29,29*%
%TO.N,/E29*%
X41250000Y-19750000D03*
%TO.P,J1,30,30*%
%TO.N,/E30*%
X41750000Y-19750000D03*
%TO.P,J1,31,31*%
%TO.N,/E31*%
X42250000Y-19750000D03*
%TO.P,J1,32,32*%
%TO.N,/E32*%
X42750000Y-19750000D03*
D11*
%TO.P,J1,S1,SHIELD*%
%TO.N,unconnected-(J1-SHIELD-PadS1)*%
X26250000Y-17250000D03*
%TO.P,J1,S2,SHIELD*%
%TO.N,unconnected-(J1-SHIELD-PadS1)_1*%
X43750000Y-17250000D03*
%TD*%
D12*
%TO.N,/E9*%
X32500000Y-36461880D03*
X32700000Y-36115470D03*
X32900000Y-36461880D03*
X32300000Y-35422650D03*
X33100000Y-36115470D03*
X32900000Y-35769060D03*
X32300000Y-36115470D03*
X32100000Y-35769060D03*
X31250000Y-20750000D03*
X31900000Y-36115470D03*
X32500000Y-35769060D03*
X32100000Y-36461880D03*
X32700000Y-35422650D03*
%TO.N,/E26*%
X35850000Y-34461880D03*
X36650000Y-34461880D03*
X36450000Y-33422650D03*
X36250000Y-33769060D03*
X39750000Y-18750000D03*
X36050000Y-33422650D03*
X36250000Y-34461880D03*
X35850000Y-33769060D03*
X36850000Y-34115470D03*
X36650000Y-33769060D03*
X36050000Y-34115470D03*
X36450000Y-34115470D03*
X35650000Y-34115470D03*
%TO.N,/E20*%
X37300000Y-27422650D03*
X36900000Y-28115470D03*
X37100000Y-28461880D03*
X38100000Y-28115470D03*
X37500000Y-27769060D03*
X37300000Y-28115470D03*
X37100000Y-27769060D03*
X37900000Y-27769060D03*
X37700000Y-28115470D03*
X37900000Y-28461880D03*
X37700000Y-27422650D03*
X36750000Y-18750000D03*
X37500000Y-28461880D03*
%TO.N,/E13*%
X32900000Y-32461880D03*
X32500000Y-31769060D03*
X33250000Y-20750000D03*
X33100000Y-32115470D03*
X32700000Y-31422650D03*
X32300000Y-32115470D03*
X32100000Y-32461880D03*
X32700000Y-32115470D03*
X32900000Y-31769060D03*
X32300000Y-31422650D03*
X32100000Y-31769060D03*
X32500000Y-32461880D03*
X31900000Y-32115470D03*
%TO.N,/E3*%
X29400000Y-40115470D03*
X29800000Y-39422650D03*
X30400000Y-39769060D03*
X30400000Y-40461880D03*
X30000000Y-40461880D03*
X29600000Y-40461880D03*
X29800000Y-40115470D03*
X30600000Y-40115470D03*
X30200000Y-40115470D03*
X28250000Y-20750000D03*
X29600000Y-39769060D03*
X30000000Y-39769060D03*
X30200000Y-39422650D03*
%TO.N,/E22*%
X35850000Y-30461880D03*
X35650000Y-30115470D03*
X36850000Y-30115470D03*
X37750000Y-18750000D03*
X36450000Y-30115470D03*
X36450000Y-29422650D03*
X35850000Y-29769060D03*
X36250000Y-29769060D03*
X36250000Y-30461880D03*
X36650000Y-29769060D03*
X36050000Y-29422650D03*
X36050000Y-30115470D03*
X36650000Y-30461880D03*
%TO.N,/E6*%
X34800000Y-36115470D03*
X29750000Y-18750000D03*
X35600000Y-36115470D03*
X35200000Y-36115470D03*
X35000000Y-35769060D03*
X35400000Y-36461880D03*
X35000000Y-36461880D03*
X34800000Y-35422650D03*
X35200000Y-35422650D03*
X34400000Y-36115470D03*
X34600000Y-36461880D03*
X35400000Y-35769060D03*
X34600000Y-35769060D03*
%TO.N,/E28*%
X37900000Y-35769060D03*
X36900000Y-36115470D03*
X37300000Y-35422650D03*
X37100000Y-36461880D03*
X37700000Y-36115470D03*
X37100000Y-35769060D03*
X37500000Y-36461880D03*
X40750000Y-18750000D03*
X37700000Y-35422650D03*
X37500000Y-35769060D03*
X37900000Y-36461880D03*
X37300000Y-36115470D03*
X38100000Y-36115470D03*
%TO.N,/E21*%
X38150000Y-30115470D03*
X37250000Y-20750000D03*
X38550000Y-29422650D03*
X39350000Y-30115470D03*
X38350000Y-29769060D03*
X39150000Y-29769060D03*
X38950000Y-29422650D03*
X39150000Y-30461880D03*
X38550000Y-30115470D03*
X38750000Y-29769060D03*
X38950000Y-30115470D03*
X38350000Y-30461880D03*
X38750000Y-30461880D03*
%TO.N,/E11*%
X35200000Y-31422650D03*
X35000000Y-31769060D03*
X35200000Y-32115470D03*
X35000000Y-32461880D03*
X35400000Y-32461880D03*
X35400000Y-31769060D03*
X35600000Y-32115470D03*
X34400000Y-32115470D03*
X34800000Y-32115470D03*
X32250000Y-20750000D03*
X34800000Y-31422650D03*
X34600000Y-32461880D03*
X34600000Y-31769060D03*
%TO.N,/E25*%
X38150000Y-34115470D03*
X38550000Y-33422650D03*
X39150000Y-33769060D03*
X38750000Y-33769060D03*
X38950000Y-34115470D03*
X38350000Y-34461880D03*
X38350000Y-33769060D03*
X38550000Y-34115470D03*
X38950000Y-33422650D03*
X39150000Y-34461880D03*
X39250000Y-20750000D03*
X39350000Y-34115470D03*
X38750000Y-34461880D03*
%TO.N,/E19*%
X36450000Y-25422650D03*
X36050000Y-25422650D03*
X36850000Y-26115470D03*
X36650000Y-25769060D03*
X35650000Y-26115470D03*
X36250000Y-20750000D03*
X36650000Y-26461880D03*
X36250000Y-25769060D03*
X35850000Y-26461880D03*
X35850000Y-25769060D03*
X36450000Y-26115470D03*
X36050000Y-26115470D03*
X36250000Y-26461880D03*
%TO.N,/E8*%
X31050000Y-33422650D03*
X31050000Y-34115470D03*
X31250000Y-33769060D03*
X31450000Y-33422650D03*
X30850000Y-33769060D03*
X30650000Y-34115470D03*
X31450000Y-34115470D03*
X30850000Y-34461880D03*
X31650000Y-33769060D03*
X31250000Y-34461880D03*
X30750000Y-18750000D03*
X31650000Y-34461880D03*
X31850000Y-34115470D03*
%TO.N,/E10*%
X30200000Y-36115470D03*
X30200000Y-35422650D03*
X30400000Y-35769060D03*
X29600000Y-35769060D03*
X29400000Y-36115470D03*
X29800000Y-36115470D03*
X29800000Y-35422650D03*
X30000000Y-36461880D03*
X30000000Y-35769060D03*
X30400000Y-36461880D03*
X29600000Y-36461880D03*
X31750000Y-18750000D03*
X30600000Y-36115470D03*
%TO.N,/E18*%
X33350000Y-26461880D03*
X34350000Y-26115470D03*
X34150000Y-26461880D03*
X33150000Y-26115470D03*
X33750000Y-25769060D03*
X33550000Y-25422650D03*
X33750000Y-26461880D03*
X34150000Y-25769060D03*
X33550000Y-26115470D03*
X33950000Y-26115470D03*
X33350000Y-25769060D03*
X33950000Y-25422650D03*
X35750000Y-18750000D03*
%TO.N,/E24*%
X37700000Y-31422650D03*
X37100000Y-32461880D03*
X37300000Y-32115470D03*
X36900000Y-32115470D03*
X37300000Y-31422650D03*
X37500000Y-31769060D03*
X38750000Y-18750000D03*
X37500000Y-32461880D03*
X37900000Y-31769060D03*
X37100000Y-31769060D03*
X37700000Y-32115470D03*
X37900000Y-32461880D03*
X38100000Y-32115470D03*
%TO.N,/E27*%
X40250000Y-20750000D03*
X40400000Y-36461880D03*
X39400000Y-36115470D03*
X40400000Y-35769060D03*
X40000000Y-36461880D03*
X39800000Y-36115470D03*
X39800000Y-35422650D03*
X40200000Y-35422650D03*
X40000000Y-35769060D03*
X39600000Y-35769060D03*
X39600000Y-36461880D03*
X40200000Y-36115470D03*
X40600000Y-36115470D03*
%TO.N,/E4*%
X33350000Y-38461880D03*
X33950000Y-38115470D03*
X33750000Y-38461880D03*
X33150000Y-38115470D03*
X34150000Y-38461880D03*
X33350000Y-37769060D03*
X33550000Y-37422650D03*
X33750000Y-37769060D03*
X34350000Y-38115470D03*
X28750000Y-18750000D03*
X33550000Y-38115470D03*
X34150000Y-37769060D03*
X33950000Y-37422650D03*
%TO.N,/E12*%
X29600000Y-32461880D03*
X30400000Y-31769060D03*
X30000000Y-31769060D03*
X30200000Y-31422650D03*
X30200000Y-32115470D03*
X30400000Y-32461880D03*
X29400000Y-32115470D03*
X32750000Y-18750000D03*
X30600000Y-32115470D03*
X30000000Y-32461880D03*
X29800000Y-32115470D03*
X29800000Y-31422650D03*
X29600000Y-31769060D03*
%TO.N,/E1*%
X35200000Y-40115470D03*
X35000000Y-40461880D03*
X35600000Y-40115470D03*
X35000000Y-39769060D03*
X35400000Y-40461880D03*
X34600000Y-40461880D03*
X35400000Y-39769060D03*
X34400000Y-40115470D03*
X27250000Y-20750000D03*
X34800000Y-40115470D03*
X35200000Y-39422650D03*
X34800000Y-39422650D03*
X34600000Y-39769060D03*
%TO.N,/E17*%
X35250000Y-20750000D03*
X32700000Y-27422650D03*
X33100000Y-28115470D03*
X32100000Y-27769060D03*
X32500000Y-28461880D03*
X32100000Y-28461880D03*
X32300000Y-28115470D03*
X31900000Y-28115470D03*
X32900000Y-27769060D03*
X32700000Y-28115470D03*
X32900000Y-28461880D03*
X32300000Y-27422650D03*
X32500000Y-27769060D03*
%TO.N,/E29*%
X38950000Y-38115470D03*
X39150000Y-38461880D03*
X38750000Y-38461880D03*
X38950000Y-37422650D03*
X38350000Y-37769060D03*
X41275000Y-20760000D03*
X39150000Y-37769060D03*
X38350000Y-38461880D03*
X38550000Y-37422650D03*
X38150000Y-38115470D03*
X38550000Y-38115470D03*
X39350000Y-38115470D03*
X38750000Y-37769060D03*
%TO.N,/E2*%
X32500000Y-39769060D03*
X32500000Y-40461880D03*
X32700000Y-39422650D03*
X32100000Y-40461880D03*
X27750000Y-18750000D03*
X32100000Y-39769060D03*
X31900000Y-40115470D03*
X32300000Y-40115470D03*
X33100000Y-40115470D03*
X32900000Y-39769060D03*
X32900000Y-40461880D03*
X32300000Y-39422650D03*
X32700000Y-40115470D03*
%TO.N,/E23*%
X39800000Y-31422650D03*
X40400000Y-31769060D03*
X39800000Y-32115470D03*
X39400000Y-32115470D03*
X38250000Y-20750000D03*
X40000000Y-32461880D03*
X40200000Y-31422650D03*
X39600000Y-32461880D03*
X40400000Y-32461880D03*
X40000000Y-31769060D03*
X39600000Y-31769060D03*
X40200000Y-32115470D03*
X40600000Y-32115470D03*
%TO.N,/E7*%
X33550000Y-33422650D03*
X34150000Y-33769060D03*
X33750000Y-33769060D03*
X33550000Y-34115470D03*
X33950000Y-33422650D03*
X30250000Y-20750000D03*
X33350000Y-33769060D03*
X33350000Y-34461880D03*
X34350000Y-34115470D03*
X33950000Y-34115470D03*
X33750000Y-34461880D03*
X34150000Y-34461880D03*
X33150000Y-34115470D03*
%TO.N,/E16*%
X34400000Y-28115470D03*
X34600000Y-27769060D03*
X35400000Y-28461880D03*
X35200000Y-27422650D03*
X35400000Y-27769060D03*
X35200000Y-28115470D03*
X34800000Y-27422650D03*
X34800000Y-28115470D03*
X35600000Y-28115470D03*
X35000000Y-27769060D03*
X35000000Y-28461880D03*
X34750000Y-18750000D03*
X34600000Y-28461880D03*
%TO.N,/E32*%
X37900000Y-40461880D03*
X37900000Y-39769060D03*
X36900000Y-40115470D03*
X38100000Y-40115470D03*
X37300000Y-39422650D03*
X37300000Y-40115470D03*
X37100000Y-39769060D03*
X37700000Y-39422650D03*
X37100000Y-40461880D03*
X37500000Y-39769060D03*
X37700000Y-40115470D03*
X37500000Y-40461880D03*
X42750000Y-18750000D03*
%TO.N,/E15*%
X31250000Y-30461880D03*
X31650000Y-30461880D03*
X31850000Y-30115470D03*
X30650000Y-30115470D03*
X31450000Y-30115470D03*
X30850000Y-29769060D03*
X31050000Y-30115470D03*
X31650000Y-29769060D03*
X31050000Y-29422650D03*
X31450000Y-29422650D03*
X31250000Y-29769060D03*
X30850000Y-30461880D03*
X34250000Y-20750000D03*
%TO.N,/E30*%
X36050000Y-37422650D03*
X36250000Y-37769060D03*
X36650000Y-37769060D03*
X36850000Y-38115470D03*
X36250000Y-38461880D03*
X41750000Y-18750000D03*
X36450000Y-37422650D03*
X35850000Y-38461880D03*
X36450000Y-38115470D03*
X36650000Y-38461880D03*
X36050000Y-38115470D03*
X35850000Y-37769060D03*
X35650000Y-38115470D03*
%TO.N,/E14*%
X33950000Y-30115470D03*
X33750000Y-18750000D03*
X34150000Y-29769060D03*
X33350000Y-30461880D03*
X33550000Y-30115470D03*
X33550000Y-29422650D03*
X34150000Y-30461880D03*
X33350000Y-29769060D03*
X33750000Y-29769060D03*
X33150000Y-30115470D03*
X34350000Y-30115470D03*
X33750000Y-30461880D03*
X33950000Y-29422650D03*
%TO.N,/E31*%
X40200000Y-39422650D03*
X39600000Y-40461880D03*
X39600000Y-39769060D03*
X40200000Y-40115470D03*
X39800000Y-39422650D03*
X39400000Y-40115470D03*
X42250000Y-20750000D03*
X40600000Y-40115470D03*
X40400000Y-39769060D03*
X40000000Y-40461880D03*
X40400000Y-40461880D03*
X40000000Y-39769060D03*
X39800000Y-40115470D03*
%TO.N,/E5*%
X31050000Y-38115470D03*
X29250000Y-20750000D03*
X31650000Y-37769060D03*
X31850000Y-38115470D03*
X30650000Y-38115470D03*
X31050000Y-37422650D03*
X30850000Y-38461880D03*
X30850000Y-37769060D03*
X31250000Y-38461880D03*
X31450000Y-37422650D03*
X31450000Y-38115470D03*
X31650000Y-38461880D03*
X31250000Y-37769060D03*
%TD*%
D13*
%TO.N,/E9*%
X31250000Y-20750000D02*
X31250000Y-19750000D01*
%TO.N,/E26*%
X39357521Y-34961000D02*
X41502000Y-32816521D01*
X39750000Y-27250000D02*
X39750000Y-19750000D01*
X36650000Y-34460000D02*
X37641479Y-34460000D01*
X37641479Y-34460000D02*
X38142479Y-34961000D01*
X41502000Y-32816521D02*
X41502000Y-29002000D01*
X38142479Y-34961000D02*
X39357521Y-34961000D01*
X39750000Y-19750000D02*
X39750000Y-18750000D01*
X41502000Y-29002000D02*
X39750000Y-27250000D01*
%TO.N,/E20*%
X37300000Y-27420000D02*
X37500000Y-27220000D01*
X37500000Y-25500000D02*
X36750000Y-24750000D01*
X36750000Y-19750000D02*
X36750000Y-18750000D01*
X36750000Y-24750000D02*
X36750000Y-19750000D01*
X37500000Y-27220000D02*
X37500000Y-25500000D01*
%TO.N,/E13*%
X31108521Y-32460000D02*
X30607521Y-32961000D01*
X33250000Y-22500000D02*
X33250000Y-20750000D01*
X28899000Y-26851000D02*
X33250000Y-22500000D01*
X29392479Y-32961000D02*
X28899000Y-32467521D01*
X30607521Y-32961000D02*
X29392479Y-32961000D01*
X28899000Y-32467521D02*
X28899000Y-26851000D01*
X32100000Y-32460000D02*
X31108521Y-32460000D01*
X33250000Y-20750000D02*
X33250000Y-19750000D01*
%TO.N,/E3*%
X28250000Y-20750000D02*
X28250000Y-19750000D01*
%TO.N,/E22*%
X37750000Y-18750000D02*
X37750000Y-19750000D01*
%TO.N,/E6*%
X34600000Y-36460000D02*
X33608521Y-36460000D01*
X29750000Y-21250000D02*
X29750000Y-19750000D01*
X31750000Y-37000000D02*
X31578260Y-36828260D01*
X30740260Y-36828260D02*
X30607520Y-36961000D01*
X33608521Y-36460000D02*
X33068521Y-37000000D01*
X29392479Y-36961000D02*
X27000000Y-34568521D01*
X33068521Y-37000000D02*
X31750000Y-37000000D01*
X27795380Y-21954620D02*
X29045380Y-21954620D01*
X29045380Y-21954620D02*
X29750000Y-21250000D01*
X31578260Y-36828260D02*
X30740260Y-36828260D01*
X30607520Y-36961000D02*
X29392479Y-36961000D01*
X27000000Y-34568521D02*
X27000000Y-22750000D01*
X27000000Y-22750000D02*
X27795380Y-21954620D01*
X29750000Y-19750000D02*
X29750000Y-18750000D01*
%TO.N,/E28*%
X43500000Y-22986149D02*
X42113851Y-21600000D01*
X38891479Y-36460000D02*
X39392479Y-36961000D01*
X40750000Y-19750000D02*
X40750000Y-18750000D01*
X37900000Y-36460000D02*
X38891479Y-36460000D01*
X40750000Y-21250903D02*
X40750000Y-19750000D01*
X41099097Y-21600000D02*
X40750000Y-21250903D01*
X43500000Y-34068521D02*
X43500000Y-22986149D01*
X42113851Y-21600000D02*
X41099097Y-21600000D01*
X40607521Y-36961000D02*
X43500000Y-34068521D01*
X39392479Y-36961000D02*
X40607521Y-36961000D01*
%TO.N,/E21*%
X37250000Y-20750000D02*
X37250000Y-19750000D01*
%TO.N,/E11*%
X32250000Y-20750000D02*
X32250000Y-19750000D01*
%TO.N,/E25*%
X41101000Y-29351000D02*
X38000000Y-26250000D01*
X41101000Y-32467521D02*
X41101000Y-29351000D01*
X38000000Y-22000000D02*
X39250000Y-20750000D01*
X39250000Y-20750000D02*
X39250000Y-19750000D01*
X38000000Y-26250000D02*
X38000000Y-22000000D01*
X39350000Y-34110000D02*
X39458521Y-34110000D01*
X39458521Y-34110000D02*
X41101000Y-32467521D01*
%TO.N,/E19*%
X36450000Y-25420000D02*
X36250000Y-25220000D01*
X36250000Y-20750000D02*
X36250000Y-19750000D01*
X36250000Y-25220000D02*
X36250000Y-20750000D01*
%TO.N,/E8*%
X30650000Y-34110000D02*
X29974379Y-34110000D01*
X30750000Y-24250000D02*
X30750000Y-19750000D01*
X28498000Y-32633621D02*
X28498000Y-26502000D01*
X30750000Y-19750000D02*
X30750000Y-18750000D01*
X29974379Y-34110000D02*
X28498000Y-32633621D01*
X28498000Y-26502000D02*
X30750000Y-24250000D01*
%TO.N,/E10*%
X31750000Y-18750000D02*
X31750000Y-19750000D01*
%TO.N,/E18*%
X33950000Y-25420000D02*
X35750000Y-23620000D01*
X35750000Y-23620000D02*
X35750000Y-19750000D01*
X35750000Y-19750000D02*
X35750000Y-18750000D01*
%TO.N,/E24*%
X38750000Y-18750000D02*
X38750000Y-19750000D01*
%TO.N,/E27*%
X42015657Y-22000000D02*
X41000000Y-22000000D01*
X41000000Y-22000000D02*
X40250000Y-21250000D01*
X43000000Y-22984343D02*
X42015657Y-22000000D01*
X40250000Y-21250000D02*
X40250000Y-20750000D01*
X43000000Y-33710000D02*
X43000000Y-22984343D01*
X40250000Y-20750000D02*
X40250000Y-19750000D01*
X40600000Y-36110000D02*
X43000000Y-33710000D01*
%TO.N,/E4*%
X28750000Y-18750000D02*
X28750000Y-19750000D01*
%TO.N,/E12*%
X32750000Y-18750000D02*
X32750000Y-19750000D01*
%TO.N,/E1*%
X27250000Y-20750000D02*
X27250000Y-19750000D01*
%TO.N,/E17*%
X35250000Y-20750000D02*
X35250000Y-19750000D01*
%TO.N,/E29*%
X41275000Y-20642214D02*
X41250000Y-20617214D01*
X41250000Y-20617214D02*
X41250000Y-19750000D01*
X41275000Y-20760000D02*
X41275000Y-20642214D01*
%TO.N,/E2*%
X27750000Y-18750000D02*
X27750000Y-19750000D01*
%TO.N,/E23*%
X38250000Y-20750000D02*
X38250000Y-19750000D01*
%TO.N,/E7*%
X30250000Y-20750000D02*
X30250000Y-19750000D01*
X31857521Y-34961000D02*
X30449521Y-34961000D01*
X30449521Y-34961000D02*
X30407521Y-34919000D01*
X30407521Y-34919000D02*
X29669000Y-34919000D01*
X33350000Y-34460000D02*
X32358521Y-34460000D01*
X30250000Y-24000000D02*
X30250000Y-20750000D01*
X27750000Y-33000000D02*
X27750000Y-26500000D01*
X27750000Y-26500000D02*
X30250000Y-24000000D01*
X32358521Y-34460000D02*
X31857521Y-34961000D01*
X29669000Y-34919000D02*
X27750000Y-33000000D01*
%TO.N,/E16*%
X34750000Y-23511479D02*
X34750000Y-19750000D01*
X33951479Y-27770000D02*
X32649000Y-26467521D01*
X32649000Y-26467521D02*
X32649000Y-25612479D01*
X32649000Y-25612479D02*
X34750000Y-23511479D01*
X34600000Y-27770000D02*
X33951479Y-27770000D01*
X34750000Y-19750000D02*
X34750000Y-18750000D01*
%TO.N,/E32*%
X42750000Y-18750000D02*
X42750000Y-19750000D01*
%TO.N,/E15*%
X34151000Y-22916100D02*
X34151000Y-22849000D01*
X31050000Y-29420000D02*
X31050000Y-26017100D01*
X34151000Y-22849000D02*
X34250000Y-22750000D01*
X34250000Y-20750000D02*
X34250000Y-19750000D01*
X31050000Y-26017100D02*
X34151000Y-22916100D01*
X34250000Y-22750000D02*
X34250000Y-20750000D01*
%TO.N,/E30*%
X41750000Y-18750000D02*
X41750000Y-19750000D01*
%TO.N,/E14*%
X30149000Y-26351000D02*
X33750000Y-22750000D01*
X33750000Y-22750000D02*
X33750000Y-19750000D01*
X33350000Y-30460000D02*
X32358521Y-30460000D01*
X33750000Y-19750000D02*
X33750000Y-18750000D01*
X30642479Y-30961000D02*
X30149000Y-30467521D01*
X30149000Y-30467521D02*
X30149000Y-26351000D01*
X32358521Y-30460000D02*
X31857521Y-30961000D01*
X31857521Y-30961000D02*
X30642479Y-30961000D01*
%TO.N,/E31*%
X42250000Y-20750000D02*
X42250000Y-19750000D01*
%TO.N,/E5*%
X30045090Y-38110000D02*
X30650000Y-38110000D01*
X27774000Y-21226000D02*
X26649000Y-22351000D01*
X26649000Y-34713910D02*
X30045090Y-38110000D01*
X28726000Y-20774000D02*
X28726000Y-20947166D01*
X28726000Y-20947166D02*
X28447166Y-21226000D01*
X26649000Y-22351000D02*
X26649000Y-34713910D01*
X29250000Y-20750000D02*
X28750000Y-20750000D01*
X28447166Y-21226000D02*
X27774000Y-21226000D01*
X29250000Y-19750000D02*
X29250000Y-20750000D01*
X28750000Y-20750000D02*
X28726000Y-20774000D01*
%TD*%
M02*
