M48
; DRILL file {KiCad 9.0.3} date 2026-04-13T15:04:29-0400
; FORMAT={-:-/ absolute / metric / decimal}
; #@! TF.CreationDate,2026-04-13T15:04:29-04:00
; #@! TF.GenerationSoftware,Kicad,Pcbnew,9.0.3
; #@! TF.FileFunction,Plated,1,2,PTH
FMAT,2
METRIC
; #@! TA.AperFunction,Plated,PTH,ViaDrill
T1C0.200
%
G90
G05
T1
X27.25Y-20.75
X27.75Y-18.75
X28.25Y-20.75
X28.75Y-18.75
X29.25Y-20.75
X29.4Y-32.11
X29.4Y-36.11
X29.4Y-40.11
X29.6Y-31.77
X29.6Y-32.46
X29.6Y-35.77
X29.6Y-36.46
X29.6Y-39.77
X29.6Y-40.46
X29.75Y-18.75
X29.8Y-31.42
X29.8Y-32.11
X29.8Y-35.42
X29.8Y-36.11
X29.8Y-39.42
X29.8Y-40.11
X30.0Y-31.77
X30.0Y-32.46
X30.0Y-35.77
X30.0Y-36.46
X30.0Y-39.77
X30.0Y-40.46
X30.2Y-31.42
X30.2Y-32.11
X30.2Y-35.42
X30.2Y-36.11
X30.2Y-39.42
X30.2Y-40.11
X30.25Y-20.75
X30.4Y-31.77
X30.4Y-32.46
X30.4Y-35.77
X30.4Y-36.46
X30.4Y-39.77
X30.4Y-40.46
X30.6Y-32.11
X30.6Y-36.11
X30.6Y-40.11
X30.65Y-30.11
X30.65Y-34.11
X30.65Y-38.11
X30.75Y-18.75
X30.85Y-29.77
X30.85Y-30.46
X30.85Y-33.77
X30.85Y-34.46
X30.85Y-37.77
X30.85Y-38.46
X31.05Y-29.42
X31.05Y-30.11
X31.05Y-33.42
X31.05Y-34.11
X31.05Y-37.42
X31.05Y-38.11
X31.25Y-20.75
X31.25Y-29.77
X31.25Y-30.46
X31.25Y-33.77
X31.25Y-34.46
X31.25Y-37.77
X31.25Y-38.46
X31.45Y-29.42
X31.45Y-30.11
X31.45Y-33.42
X31.45Y-34.11
X31.45Y-37.42
X31.45Y-38.11
X31.65Y-29.77
X31.65Y-30.46
X31.65Y-33.77
X31.65Y-34.46
X31.65Y-37.77
X31.65Y-38.46
X31.75Y-18.75
X31.85Y-30.11
X31.85Y-34.11
X31.85Y-38.11
X31.9Y-28.11
X31.9Y-32.11
X31.9Y-36.11
X31.9Y-40.11
X32.1Y-27.77
X32.1Y-28.46
X32.1Y-31.77
X32.1Y-32.46
X32.1Y-35.77
X32.1Y-36.46
X32.1Y-39.77
X32.1Y-40.46
X32.25Y-20.75
X32.3Y-27.42
X32.3Y-28.11
X32.3Y-31.42
X32.3Y-32.11
X32.3Y-35.42
X32.3Y-36.11
X32.3Y-39.42
X32.3Y-40.11
X32.5Y-27.77
X32.5Y-28.46
X32.5Y-31.77
X32.5Y-32.46
X32.5Y-35.77
X32.5Y-36.46
X32.5Y-39.77
X32.5Y-40.46
X32.7Y-27.42
X32.7Y-28.11
X32.7Y-31.42
X32.7Y-32.11
X32.7Y-35.42
X32.7Y-36.11
X32.7Y-39.42
X32.7Y-40.11
X32.75Y-18.75
X32.9Y-27.77
X32.9Y-28.46
X32.9Y-31.77
X32.9Y-32.46
X32.9Y-35.77
X32.9Y-36.46
X32.9Y-39.77
X32.9Y-40.46
X33.1Y-28.11
X33.1Y-32.11
X33.1Y-36.11
X33.1Y-40.11
X33.15Y-26.11
X33.15Y-30.11
X33.15Y-34.11
X33.15Y-38.11
X33.25Y-20.75
X33.35Y-25.77
X33.35Y-26.46
X33.35Y-29.77
X33.35Y-30.46
X33.35Y-33.77
X33.35Y-34.46
X33.35Y-37.77
X33.35Y-38.46
X33.55Y-25.42
X33.55Y-26.11
X33.55Y-29.42
X33.55Y-30.11
X33.55Y-33.42
X33.55Y-34.11
X33.55Y-37.42
X33.55Y-38.11
X33.75Y-18.75
X33.75Y-25.77
X33.75Y-26.46
X33.75Y-29.77
X33.75Y-30.46
X33.75Y-33.77
X33.75Y-34.46
X33.75Y-37.77
X33.75Y-38.46
X33.95Y-25.42
X33.95Y-26.11
X33.95Y-29.42
X33.95Y-30.11
X33.95Y-33.42
X33.95Y-34.11
X33.95Y-37.42
X33.95Y-38.11
X34.15Y-25.77
X34.15Y-26.46
X34.15Y-29.77
X34.15Y-30.46
X34.15Y-33.77
X34.15Y-34.46
X34.15Y-37.77
X34.15Y-38.46
X34.25Y-20.75
X34.35Y-26.11
X34.35Y-30.11
X34.35Y-34.11
X34.35Y-38.11
X34.4Y-28.11
X34.4Y-32.11
X34.4Y-36.11
X34.4Y-40.11
X34.6Y-27.77
X34.6Y-28.46
X34.6Y-31.77
X34.6Y-32.46
X34.6Y-35.77
X34.6Y-36.46
X34.6Y-39.77
X34.6Y-40.46
X34.75Y-18.75
X34.8Y-27.42
X34.8Y-28.11
X34.8Y-31.42
X34.8Y-32.11
X34.8Y-35.42
X34.8Y-36.11
X34.8Y-39.42
X34.8Y-40.11
X35.0Y-27.77
X35.0Y-28.46
X35.0Y-31.77
X35.0Y-32.46
X35.0Y-35.77
X35.0Y-36.46
X35.0Y-39.77
X35.0Y-40.46
X35.2Y-27.42
X35.2Y-28.11
X35.2Y-31.42
X35.2Y-32.11
X35.2Y-35.42
X35.2Y-36.11
X35.2Y-39.42
X35.2Y-40.11
X35.25Y-20.75
X35.4Y-27.77
X35.4Y-28.46
X35.4Y-31.77
X35.4Y-32.46
X35.4Y-35.77
X35.4Y-36.46
X35.4Y-39.77
X35.4Y-40.46
X35.6Y-28.11
X35.6Y-32.11
X35.6Y-36.11
X35.6Y-40.11
X35.65Y-26.11
X35.65Y-30.11
X35.65Y-34.11
X35.65Y-38.11
X35.75Y-18.75
X35.85Y-25.77
X35.85Y-26.46
X35.85Y-29.77
X35.85Y-30.46
X35.85Y-33.77
X35.85Y-34.46
X35.85Y-37.77
X35.85Y-38.46
X36.05Y-25.42
X36.05Y-26.11
X36.05Y-29.42
X36.05Y-30.11
X36.05Y-33.42
X36.05Y-34.11
X36.05Y-37.42
X36.05Y-38.11
X36.25Y-20.75
X36.25Y-25.77
X36.25Y-26.46
X36.25Y-29.77
X36.25Y-30.46
X36.25Y-33.77
X36.25Y-34.46
X36.25Y-37.77
X36.25Y-38.46
X36.45Y-25.42
X36.45Y-26.11
X36.45Y-29.42
X36.45Y-30.11
X36.45Y-33.42
X36.45Y-34.11
X36.45Y-37.42
X36.45Y-38.11
X36.65Y-25.77
X36.65Y-26.46
X36.65Y-29.77
X36.65Y-30.46
X36.65Y-33.77
X36.65Y-34.46
X36.65Y-37.77
X36.65Y-38.46
X36.75Y-18.75
X36.85Y-26.11
X36.85Y-30.11
X36.85Y-34.11
X36.85Y-38.11
X36.9Y-28.11
X36.9Y-32.11
X36.9Y-36.11
X36.9Y-40.11
X37.1Y-27.77
X37.1Y-28.46
X37.1Y-31.77
X37.1Y-32.46
X37.1Y-35.77
X37.1Y-36.46
X37.1Y-39.77
X37.1Y-40.46
X37.25Y-20.75
X37.3Y-27.42
X37.3Y-28.11
X37.3Y-31.42
X37.3Y-32.11
X37.3Y-35.42
X37.3Y-36.11
X37.3Y-39.42
X37.3Y-40.11
X37.5Y-27.77
X37.5Y-28.46
X37.5Y-31.77
X37.5Y-32.46
X37.5Y-35.77
X37.5Y-36.46
X37.5Y-39.77
X37.5Y-40.46
X37.7Y-27.42
X37.7Y-28.11
X37.7Y-31.42
X37.7Y-32.11
X37.7Y-35.42
X37.7Y-36.11
X37.7Y-39.42
X37.7Y-40.11
X37.75Y-18.75
X37.9Y-27.77
X37.9Y-28.46
X37.9Y-31.77
X37.9Y-32.46
X37.9Y-35.77
X37.9Y-36.46
X37.9Y-39.77
X37.9Y-40.46
X38.1Y-28.11
X38.1Y-32.11
X38.1Y-36.11
X38.1Y-40.11
X38.15Y-30.11
X38.15Y-34.11
X38.15Y-38.11
X38.25Y-20.75
X38.35Y-29.77
X38.35Y-30.46
X38.35Y-33.77
X38.35Y-34.46
X38.35Y-37.77
X38.35Y-38.46
X38.55Y-29.42
X38.55Y-30.11
X38.55Y-33.42
X38.55Y-34.11
X38.55Y-37.42
X38.55Y-38.11
X38.75Y-18.75
X38.75Y-29.77
X38.75Y-30.46
X38.75Y-33.77
X38.75Y-34.46
X38.75Y-37.77
X38.75Y-38.46
X38.95Y-29.42
X38.95Y-30.11
X38.95Y-33.42
X38.95Y-34.11
X38.95Y-37.42
X38.95Y-38.11
X39.15Y-29.77
X39.15Y-30.46
X39.15Y-33.77
X39.15Y-34.46
X39.15Y-37.77
X39.15Y-38.46
X39.25Y-20.75
X39.35Y-30.11
X39.35Y-34.11
X39.35Y-38.11
X39.4Y-32.11
X39.4Y-36.11
X39.4Y-40.11
X39.6Y-31.77
X39.6Y-32.46
X39.6Y-35.77
X39.6Y-36.46
X39.6Y-39.77
X39.6Y-40.46
X39.75Y-18.75
X39.8Y-31.42
X39.8Y-32.11
X39.8Y-35.42
X39.8Y-36.11
X39.8Y-39.42
X39.8Y-40.11
X40.0Y-31.77
X40.0Y-32.46
X40.0Y-35.77
X40.0Y-36.46
X40.0Y-39.77
X40.0Y-40.46
X40.2Y-31.42
X40.2Y-32.11
X40.2Y-35.42
X40.2Y-36.11
X40.2Y-39.42
X40.2Y-40.11
X40.25Y-20.75
X40.4Y-31.77
X40.4Y-32.46
X40.4Y-35.77
X40.4Y-36.46
X40.4Y-39.77
X40.4Y-40.46
X40.6Y-32.11
X40.6Y-36.11
X40.6Y-40.11
X40.75Y-18.75
X41.225Y-20.842
X41.75Y-18.75
X42.25Y-20.75
X42.75Y-18.75
M30
