%TF.GenerationSoftware,KiCad,Pcbnew,9.0.3*%
%TF.CreationDate,2026-04-26T22:15:07-04:00*%
%TF.ProjectId,EEOP_Display,45454f50-5f44-4697-9370-6c61792e6b69,rev?*%
%TF.SameCoordinates,Original*%
%TF.FileFunction,Legend,Top*%
%TF.FilePolarity,Positive*%
%FSLAX46Y46*%
G04 Gerber Fmt 4.6, Leading zero omitted, Abs format (unit mm)*
G04 Created by KiCad (PCBNEW 9.0.3) date 2026-04-26 22:15:07*
%MOMM*%
%LPD*%
G01*
G04 APERTURE LIST*
%ADD10C,0.150000*%
%ADD11C,0.100000*%
%ADD12C,0.127000*%
%ADD13C,0.200000*%
G04 APERTURE END LIST*
D10*
X32108207Y-23774580D02*
X32060588Y-23822200D01*
X32060588Y-23822200D02*
X31917731Y-23869819D01*
X31917731Y-23869819D02*
X31822493Y-23869819D01*
X31822493Y-23869819D02*
X31679636Y-23822200D01*
X31679636Y-23822200D02*
X31584398Y-23726961D01*
X31584398Y-23726961D02*
X31536779Y-23631723D01*
X31536779Y-23631723D02*
X31489160Y-23441247D01*
X31489160Y-23441247D02*
X31489160Y-23298390D01*
X31489160Y-23298390D02*
X31536779Y-23107914D01*
X31536779Y-23107914D02*
X31584398Y-23012676D01*
X31584398Y-23012676D02*
X31679636Y-22917438D01*
X31679636Y-22917438D02*
X31822493Y-22869819D01*
X31822493Y-22869819D02*
X31917731Y-22869819D01*
X31917731Y-22869819D02*
X32060588Y-22917438D01*
X32060588Y-22917438D02*
X32108207Y-22965057D01*
X32965350Y-23869819D02*
X32965350Y-23346009D01*
X32965350Y-23346009D02*
X32917731Y-23250771D01*
X32917731Y-23250771D02*
X32822493Y-23203152D01*
X32822493Y-23203152D02*
X32632017Y-23203152D01*
X32632017Y-23203152D02*
X32536779Y-23250771D01*
X32965350Y-23822200D02*
X32870112Y-23869819D01*
X32870112Y-23869819D02*
X32632017Y-23869819D01*
X32632017Y-23869819D02*
X32536779Y-23822200D01*
X32536779Y-23822200D02*
X32489160Y-23726961D01*
X32489160Y-23726961D02*
X32489160Y-23631723D01*
X32489160Y-23631723D02*
X32536779Y-23536485D01*
X32536779Y-23536485D02*
X32632017Y-23488866D01*
X32632017Y-23488866D02*
X32870112Y-23488866D01*
X32870112Y-23488866D02*
X32965350Y-23441247D01*
X33441541Y-23869819D02*
X33441541Y-23203152D01*
X33441541Y-23393628D02*
X33489160Y-23298390D01*
X33489160Y-23298390D02*
X33536779Y-23250771D01*
X33536779Y-23250771D02*
X33632017Y-23203152D01*
X33632017Y-23203152D02*
X33727255Y-23203152D01*
X34012970Y-23822200D02*
X34108208Y-23869819D01*
X34108208Y-23869819D02*
X34298684Y-23869819D01*
X34298684Y-23869819D02*
X34393922Y-23822200D01*
X34393922Y-23822200D02*
X34441541Y-23726961D01*
X34441541Y-23726961D02*
X34441541Y-23679342D01*
X34441541Y-23679342D02*
X34393922Y-23584104D01*
X34393922Y-23584104D02*
X34298684Y-23536485D01*
X34298684Y-23536485D02*
X34155827Y-23536485D01*
X34155827Y-23536485D02*
X34060589Y-23488866D01*
X34060589Y-23488866D02*
X34012970Y-23393628D01*
X34012970Y-23393628D02*
X34012970Y-23346009D01*
X34012970Y-23346009D02*
X34060589Y-23250771D01*
X34060589Y-23250771D02*
X34155827Y-23203152D01*
X34155827Y-23203152D02*
X34298684Y-23203152D01*
X34298684Y-23203152D02*
X34393922Y-23250771D01*
X35012970Y-23869819D02*
X34917732Y-23822200D01*
X34917732Y-23822200D02*
X34870113Y-23774580D01*
X34870113Y-23774580D02*
X34822494Y-23679342D01*
X34822494Y-23679342D02*
X34822494Y-23393628D01*
X34822494Y-23393628D02*
X34870113Y-23298390D01*
X34870113Y-23298390D02*
X34917732Y-23250771D01*
X34917732Y-23250771D02*
X35012970Y-23203152D01*
X35012970Y-23203152D02*
X35155827Y-23203152D01*
X35155827Y-23203152D02*
X35251065Y-23250771D01*
X35251065Y-23250771D02*
X35298684Y-23298390D01*
X35298684Y-23298390D02*
X35346303Y-23393628D01*
X35346303Y-23393628D02*
X35346303Y-23679342D01*
X35346303Y-23679342D02*
X35298684Y-23774580D01*
X35298684Y-23774580D02*
X35251065Y-23822200D01*
X35251065Y-23822200D02*
X35155827Y-23869819D01*
X35155827Y-23869819D02*
X35012970Y-23869819D01*
X35774875Y-23203152D02*
X35774875Y-23869819D01*
X35774875Y-23298390D02*
X35822494Y-23250771D01*
X35822494Y-23250771D02*
X35917732Y-23203152D01*
X35917732Y-23203152D02*
X36060589Y-23203152D01*
X36060589Y-23203152D02*
X36155827Y-23250771D01*
X36155827Y-23250771D02*
X36203446Y-23346009D01*
X36203446Y-23346009D02*
X36203446Y-23869819D01*
X38012970Y-23869819D02*
X37679637Y-23393628D01*
X37441542Y-23869819D02*
X37441542Y-22869819D01*
X37441542Y-22869819D02*
X37822494Y-22869819D01*
X37822494Y-22869819D02*
X37917732Y-22917438D01*
X37917732Y-22917438D02*
X37965351Y-22965057D01*
X37965351Y-22965057D02*
X38012970Y-23060295D01*
X38012970Y-23060295D02*
X38012970Y-23203152D01*
X38012970Y-23203152D02*
X37965351Y-23298390D01*
X37965351Y-23298390D02*
X37917732Y-23346009D01*
X37917732Y-23346009D02*
X37822494Y-23393628D01*
X37822494Y-23393628D02*
X37441542Y-23393628D01*
X38441542Y-23774580D02*
X38489161Y-23822200D01*
X38489161Y-23822200D02*
X38441542Y-23869819D01*
X38441542Y-23869819D02*
X38393923Y-23822200D01*
X38393923Y-23822200D02*
X38441542Y-23774580D01*
X38441542Y-23774580D02*
X38441542Y-23869819D01*
D11*
G36*
X28036747Y-41327457D02*
G01*
X27684885Y-41327457D01*
X27684885Y-42802501D01*
X27481705Y-42802501D01*
X27481705Y-41327457D01*
X27130759Y-41327457D01*
X27130759Y-41085962D01*
X28036747Y-41085962D01*
X28036747Y-41327457D01*
G37*
G36*
X28521032Y-41562628D02*
G01*
X28606230Y-41595409D01*
X28678105Y-41647556D01*
X28738869Y-41719192D01*
X28787227Y-41807483D01*
X28822781Y-41912320D01*
X28845278Y-42036961D01*
X28853282Y-42185619D01*
X28844899Y-42330099D01*
X28821050Y-42454040D01*
X28782775Y-42561088D01*
X28729863Y-42653970D01*
X28664511Y-42729422D01*
X28588891Y-42783934D01*
X28501007Y-42817904D01*
X28398150Y-42829856D01*
X28298306Y-42818250D01*
X28212772Y-42785226D01*
X28138968Y-42732171D01*
X28074986Y-42658672D01*
X28023104Y-42568246D01*
X27985645Y-42464332D01*
X27962342Y-42344330D01*
X27954163Y-42204747D01*
X27954572Y-42197587D01*
X28156502Y-42197587D01*
X28164904Y-42322094D01*
X28188162Y-42420957D01*
X28224814Y-42499670D01*
X28261587Y-42547590D01*
X28303543Y-42581612D01*
X28351714Y-42602534D01*
X28407615Y-42609839D01*
X28464976Y-42602454D01*
X28512901Y-42581587D01*
X28553248Y-42548121D01*
X28587286Y-42501486D01*
X28620530Y-42424359D01*
X28642149Y-42323661D01*
X28650102Y-42192779D01*
X28642154Y-42061158D01*
X28620535Y-41959699D01*
X28587286Y-41881827D01*
X28553189Y-41834577D01*
X28512818Y-41800726D01*
X28464914Y-41779648D01*
X28407615Y-41772193D01*
X28350945Y-41779723D01*
X28302439Y-41801244D01*
X28260478Y-41836201D01*
X28223975Y-41885460D01*
X28187925Y-41965986D01*
X28164872Y-42068077D01*
X28156502Y-42197587D01*
X27954572Y-42197587D01*
X27962889Y-42052064D01*
X27987484Y-41923802D01*
X28026555Y-41815551D01*
X28080100Y-41724000D01*
X28146525Y-41650094D01*
X28223733Y-41596420D01*
X28313809Y-41562842D01*
X28419521Y-41551000D01*
X28521032Y-41562628D01*
G37*
G36*
X29817201Y-42802501D02*
G01*
X29619059Y-42802501D01*
X29619059Y-42607488D01*
X29615701Y-42607488D01*
X29576412Y-42689159D01*
X29530896Y-42750343D01*
X29478596Y-42793766D01*
X29418158Y-42820500D01*
X29347568Y-42829856D01*
X29263418Y-42818685D01*
X29196273Y-42787698D01*
X29142486Y-42738738D01*
X29099686Y-42670918D01*
X29067079Y-42580757D01*
X29045562Y-42462608D01*
X29037609Y-42309145D01*
X29037609Y-41578355D01*
X29235674Y-41578355D01*
X29235674Y-42280294D01*
X29242162Y-42393018D01*
X29259370Y-42475254D01*
X29285071Y-42534270D01*
X29318807Y-42575258D01*
X29361975Y-42600682D01*
X29417559Y-42609839D01*
X29473251Y-42599549D01*
X29520808Y-42569651D01*
X29562273Y-42519118D01*
X29593089Y-42454499D01*
X29612254Y-42376507D01*
X29619059Y-42281576D01*
X29619059Y-41578355D01*
X29817201Y-41578355D01*
X29817201Y-42802501D01*
G37*
G36*
X30701513Y-42744478D02*
G01*
X30629206Y-42790945D01*
X30547031Y-42819783D01*
X30452996Y-42829856D01*
X30357203Y-42818457D01*
X30274368Y-42785869D01*
X30202130Y-42733214D01*
X30138762Y-42659847D01*
X30087138Y-42569997D01*
X30050105Y-42468253D01*
X30027222Y-42352317D01*
X30019236Y-42219065D01*
X30027935Y-42069998D01*
X30052717Y-41941808D01*
X30092548Y-41830782D01*
X30147692Y-41734152D01*
X30215803Y-41655471D01*
X30294331Y-41598715D01*
X30385302Y-41563406D01*
X30491464Y-41551000D01*
X30570283Y-41557864D01*
X30640156Y-41577549D01*
X30702353Y-41609130D01*
X30702353Y-41865585D01*
X30638919Y-41812925D01*
X30574451Y-41782333D01*
X30507645Y-41772193D01*
X30446339Y-41779972D01*
X30392496Y-41802405D01*
X30344678Y-41839070D01*
X30301871Y-41890803D01*
X30267401Y-41953145D01*
X30242492Y-42024418D01*
X30227004Y-42106324D01*
X30221576Y-42201114D01*
X30226799Y-42295220D01*
X30241554Y-42374842D01*
X30265016Y-42442522D01*
X30297138Y-42500204D01*
X30337299Y-42547344D01*
X30383622Y-42581306D01*
X30437312Y-42602421D01*
X30500013Y-42609839D01*
X30568538Y-42598259D01*
X30635181Y-42563043D01*
X30701513Y-42501593D01*
X30701513Y-42744478D01*
G37*
G36*
X31674515Y-42802501D02*
G01*
X31476373Y-42802501D01*
X31476373Y-42133901D01*
X31469785Y-42006200D01*
X31452496Y-41914520D01*
X31427148Y-41850191D01*
X31394690Y-41806689D01*
X31354194Y-41780358D01*
X31303037Y-41771017D01*
X31248500Y-41782471D01*
X31200199Y-41816557D01*
X31156186Y-41876057D01*
X31123770Y-41950157D01*
X31103576Y-42038507D01*
X31096423Y-42144693D01*
X31096423Y-42802501D01*
X30897441Y-42802501D01*
X30897441Y-40990219D01*
X31096423Y-40990219D01*
X31096423Y-41782985D01*
X31099858Y-41782985D01*
X31144393Y-41697099D01*
X31194169Y-41633059D01*
X31249694Y-41587975D01*
X31312160Y-41560510D01*
X31383332Y-41551000D01*
X31462049Y-41561585D01*
X31524976Y-41590985D01*
X31575507Y-41637542D01*
X31615828Y-41702211D01*
X31646622Y-41788416D01*
X31666981Y-41901640D01*
X31674515Y-42048950D01*
X31674515Y-42802501D01*
G37*
G36*
X32495810Y-41561955D02*
G01*
X32564599Y-41593153D01*
X32623501Y-41643707D01*
X32674156Y-41714918D01*
X32713267Y-41799477D01*
X32742293Y-41899074D01*
X32760723Y-42016500D01*
X32767273Y-42155165D01*
X32759929Y-42308605D01*
X32739210Y-42439169D01*
X32706484Y-42550519D01*
X32662249Y-42645636D01*
X32605079Y-42726069D01*
X32539475Y-42782853D01*
X32463758Y-42817686D01*
X32375340Y-42829856D01*
X32310544Y-42821381D01*
X32253683Y-42796925D01*
X32203181Y-42756859D01*
X32157955Y-42700113D01*
X32117511Y-42624264D01*
X32114076Y-42624264D01*
X32114076Y-43363282D01*
X31915934Y-43363282D01*
X31915934Y-42140740D01*
X32112321Y-42140740D01*
X32112321Y-42292796D01*
X32119307Y-42378799D01*
X32139583Y-42453738D01*
X32173381Y-42520186D01*
X32217730Y-42572000D01*
X32268689Y-42602832D01*
X32328399Y-42613472D01*
X32381544Y-42605637D01*
X32427093Y-42583136D01*
X32466675Y-42546177D01*
X32501277Y-42493259D01*
X32534468Y-42408547D01*
X32556131Y-42298855D01*
X32564094Y-42157516D01*
X32556783Y-42039604D01*
X32536724Y-41947083D01*
X32505552Y-41874561D01*
X32462153Y-41817863D01*
X32410269Y-41784004D01*
X32347175Y-41772193D01*
X32280061Y-41784337D01*
X32224176Y-41819229D01*
X32176816Y-41877553D01*
X32141487Y-41952151D01*
X32119876Y-42038803D01*
X32112321Y-42140740D01*
X31915934Y-42140740D01*
X31915934Y-41578355D01*
X32114076Y-41578355D01*
X32114076Y-41794953D01*
X32117511Y-41794953D01*
X32163324Y-41704843D01*
X32215024Y-41637559D01*
X32273163Y-41590082D01*
X32339055Y-41561073D01*
X32414648Y-41551000D01*
X32495810Y-41561955D01*
G37*
G36*
X33480383Y-41562628D02*
G01*
X33565581Y-41595409D01*
X33637456Y-41647556D01*
X33698220Y-41719192D01*
X33746578Y-41807483D01*
X33782132Y-41912320D01*
X33804629Y-42036961D01*
X33812633Y-42185619D01*
X33804250Y-42330099D01*
X33780401Y-42454040D01*
X33742126Y-42561088D01*
X33689214Y-42653970D01*
X33623862Y-42729422D01*
X33548242Y-42783934D01*
X33460358Y-42817904D01*
X33357501Y-42829856D01*
X33257657Y-42818250D01*
X33172123Y-42785226D01*
X33098319Y-42732171D01*
X33034337Y-42658672D01*
X32982455Y-42568246D01*
X32944996Y-42464332D01*
X32921693Y-42344330D01*
X32913514Y-42204747D01*
X32913923Y-42197587D01*
X33115853Y-42197587D01*
X33124255Y-42322094D01*
X33147513Y-42420957D01*
X33184165Y-42499670D01*
X33220938Y-42547590D01*
X33262894Y-42581612D01*
X33311065Y-42602534D01*
X33366966Y-42609839D01*
X33424327Y-42602454D01*
X33472252Y-42581587D01*
X33512599Y-42548121D01*
X33546637Y-42501486D01*
X33579881Y-42424359D01*
X33601500Y-42323661D01*
X33609453Y-42192779D01*
X33601505Y-42061158D01*
X33579886Y-41959699D01*
X33546637Y-41881827D01*
X33512540Y-41834577D01*
X33472169Y-41800726D01*
X33424265Y-41779648D01*
X33366966Y-41772193D01*
X33310296Y-41779723D01*
X33261790Y-41801244D01*
X33219829Y-41836201D01*
X33183326Y-41885460D01*
X33147276Y-41965986D01*
X33124223Y-42068077D01*
X33115853Y-42197587D01*
X32913923Y-42197587D01*
X32922240Y-42052064D01*
X32946835Y-41923802D01*
X32985906Y-41815551D01*
X33039451Y-41724000D01*
X33105876Y-41650094D01*
X33183084Y-41596420D01*
X33273160Y-41562842D01*
X33378872Y-41551000D01*
X33480383Y-41562628D01*
G37*
G36*
X34115265Y-41318481D02*
G01*
X34069945Y-41307319D01*
X34031993Y-41274242D01*
X34006149Y-41224304D01*
X33997418Y-41161830D01*
X34006122Y-41099148D01*
X34031993Y-41048242D01*
X34070009Y-41014251D01*
X34115265Y-41002828D01*
X34162097Y-41014338D01*
X34200673Y-41048242D01*
X34226904Y-41099200D01*
X34235707Y-41161830D01*
X34227043Y-41221451D01*
X34200673Y-41272426D01*
X34162062Y-41306828D01*
X34115265Y-41318481D01*
G37*
G36*
X34212122Y-42802501D02*
G01*
X34013980Y-42802501D01*
X34013980Y-41578355D01*
X34212122Y-41578355D01*
X34212122Y-42802501D01*
G37*
G36*
X35249467Y-42802501D02*
G01*
X35051402Y-42802501D01*
X35051402Y-42113598D01*
X35044976Y-41994377D01*
X35028043Y-41908243D01*
X35003037Y-41847266D01*
X34970701Y-41805589D01*
X34929947Y-41780111D01*
X34878066Y-41771017D01*
X34820788Y-41781735D01*
X34771668Y-41812958D01*
X34728620Y-41865906D01*
X34696381Y-41933274D01*
X34676620Y-42012039D01*
X34669696Y-42105263D01*
X34669696Y-42802501D01*
X34470714Y-42802501D01*
X34470714Y-41578355D01*
X34669696Y-41578355D01*
X34669696Y-41782985D01*
X34673131Y-41782985D01*
X34717301Y-41697201D01*
X34766877Y-41633187D01*
X34822377Y-41588068D01*
X34885018Y-41560543D01*
X34956605Y-41551000D01*
X35026687Y-41559898D01*
X35084892Y-41584963D01*
X35133555Y-41625013D01*
X35174286Y-41680617D01*
X35205253Y-41747266D01*
X35228729Y-41829586D01*
X35243957Y-41930831D01*
X35249467Y-42054934D01*
X35249467Y-42802501D01*
G37*
G36*
X35952810Y-42789357D02*
G01*
X35889327Y-42818699D01*
X35799930Y-42829856D01*
X35716728Y-42818828D01*
X35654477Y-42789058D01*
X35608217Y-42743234D01*
X35574795Y-42680741D01*
X35553346Y-42597788D01*
X35545459Y-42488023D01*
X35545459Y-41795915D01*
X35399448Y-41795915D01*
X35399448Y-41578355D01*
X35545459Y-41578355D01*
X35545459Y-41294866D01*
X35743601Y-41215899D01*
X35743601Y-41578355D01*
X35952810Y-41578355D01*
X35952810Y-41795915D01*
X35743601Y-41795915D01*
X35743601Y-42407880D01*
X35747444Y-42479759D01*
X35757380Y-42529627D01*
X35771765Y-42563249D01*
X35792939Y-42587740D01*
X35823165Y-42603791D01*
X35865646Y-42609839D01*
X35913116Y-42599666D01*
X35952810Y-42569981D01*
X35952810Y-42789357D01*
G37*
G36*
X37312556Y-42802501D02*
G01*
X36625165Y-42802501D01*
X36625165Y-41085962D01*
X37285232Y-41085962D01*
X37285232Y-41327457D01*
X36828421Y-41327457D01*
X36828421Y-41810875D01*
X37249358Y-41810875D01*
X37249358Y-42051194D01*
X36828421Y-42051194D01*
X36828421Y-42562181D01*
X37312556Y-42562181D01*
X37312556Y-42802501D01*
G37*
G36*
X38217476Y-42802501D02*
G01*
X37530085Y-42802501D01*
X37530085Y-41085962D01*
X38190151Y-41085962D01*
X38190151Y-41327457D01*
X37733341Y-41327457D01*
X37733341Y-41810875D01*
X38154278Y-41810875D01*
X38154278Y-42051194D01*
X37733341Y-42051194D01*
X37733341Y-42562181D01*
X38217476Y-42562181D01*
X38217476Y-42802501D01*
G37*
G36*
X39061794Y-41068856D02*
G01*
X39152997Y-41098383D01*
X39234674Y-41146143D01*
X39308252Y-41212186D01*
X39374729Y-41297644D01*
X39430236Y-41396583D01*
X39473746Y-41506764D01*
X39505559Y-41629758D01*
X39525367Y-41767609D01*
X39532266Y-41922753D01*
X39525019Y-42092634D01*
X39504378Y-42241142D01*
X39471537Y-42371285D01*
X39427058Y-42485613D01*
X39370836Y-42586117D01*
X39302888Y-42672869D01*
X39227113Y-42740158D01*
X39142415Y-42789003D01*
X39047242Y-42819306D01*
X38939672Y-42829856D01*
X38834209Y-42819482D01*
X38740755Y-42789661D01*
X38657445Y-42741553D01*
X38582775Y-42675223D01*
X38515681Y-42589643D01*
X38459467Y-42490093D01*
X38415480Y-42379568D01*
X38383372Y-42256535D01*
X38363410Y-42118989D01*
X38356465Y-41964534D01*
X38357241Y-41946582D01*
X38569949Y-41946582D01*
X38577044Y-42089228D01*
X38597130Y-42211364D01*
X38629018Y-42316303D01*
X38672378Y-42406705D01*
X38728008Y-42483524D01*
X38790205Y-42537278D01*
X38860334Y-42569910D01*
X38940511Y-42581201D01*
X39026592Y-42570080D01*
X39100028Y-42538375D01*
X39163279Y-42487080D01*
X39218032Y-42415147D01*
X39260456Y-42328996D01*
X39292113Y-42225249D01*
X39312367Y-42100424D01*
X39319622Y-41950215D01*
X39312489Y-41795140D01*
X39292671Y-41667319D01*
X39261906Y-41562128D01*
X39221009Y-41475773D01*
X39167596Y-41403168D01*
X39105725Y-41351519D01*
X39033713Y-41319627D01*
X38949060Y-41308436D01*
X38867564Y-41319795D01*
X38796057Y-41352654D01*
X38732442Y-41406790D01*
X38675355Y-41484108D01*
X38630636Y-41575325D01*
X38597839Y-41680932D01*
X38577222Y-41803577D01*
X38569949Y-41946582D01*
X38357241Y-41946582D01*
X38363681Y-41797528D01*
X38384296Y-41650645D01*
X38417207Y-41521064D01*
X38461937Y-41406402D01*
X38518658Y-41304803D01*
X38586915Y-41217551D01*
X38663677Y-41149645D01*
X38750140Y-41100170D01*
X38847986Y-41069364D01*
X38959287Y-41058607D01*
X39061794Y-41068856D01*
G37*
G36*
X40235265Y-41095843D02*
G01*
X40323190Y-41123373D01*
X40395939Y-41166278D01*
X40456038Y-41223593D01*
X40506012Y-41297781D01*
X40541920Y-41385153D01*
X40564299Y-41488346D01*
X40572206Y-41611160D01*
X40564249Y-41733335D01*
X40541312Y-41840474D01*
X40503828Y-41935489D01*
X40450924Y-42020420D01*
X40387339Y-42088038D01*
X40312979Y-42137464D01*
X40225772Y-42168537D01*
X40123028Y-42179529D01*
X39959996Y-42179529D01*
X39959996Y-42802501D01*
X39757580Y-42802501D01*
X39757580Y-41947651D01*
X39959996Y-41947651D01*
X40091506Y-41947651D01*
X40176571Y-41936891D01*
X40241335Y-41907697D01*
X40290411Y-41862700D01*
X40327566Y-41800163D01*
X40350519Y-41721921D01*
X40358722Y-41623235D01*
X40351346Y-41528276D01*
X40331083Y-41455551D01*
X40298985Y-41399768D01*
X40253685Y-41358078D01*
X40191653Y-41330577D01*
X40107687Y-41320298D01*
X39959996Y-41320298D01*
X39959996Y-41947651D01*
X39757580Y-41947651D01*
X39757580Y-41085962D01*
X40129058Y-41085962D01*
X40235265Y-41095843D01*
G37*
G36*
X42219471Y-41085962D02*
G01*
X41779682Y-42802501D01*
X41552612Y-42802501D01*
X41120531Y-41085962D01*
X41342487Y-41085962D01*
X41644814Y-42388326D01*
X41657261Y-42453309D01*
X41667025Y-42533116D01*
X41670383Y-42533116D01*
X41679293Y-42463992D01*
X41695189Y-42385868D01*
X42004309Y-41085962D01*
X42219471Y-41085962D01*
G37*
G36*
X42755966Y-41051768D02*
G01*
X42755966Y-42802501D01*
X42557900Y-42802501D01*
X42557900Y-41392639D01*
X42502208Y-41442457D01*
X42442190Y-41484429D01*
X42377717Y-41519127D01*
X42300835Y-41551000D01*
X42300835Y-41314314D01*
X42396471Y-41266121D01*
X42487452Y-41209488D01*
X42577898Y-41139710D01*
X42672313Y-41051768D01*
X42755966Y-41051768D01*
G37*
D12*
%TO.C,J1*%
X26000000Y-19600000D02*
X26000000Y-17970000D01*
X26780000Y-19600000D02*
X26000000Y-19600000D01*
X43220000Y-19600000D02*
X44000000Y-19600000D01*
X43230000Y-16700000D02*
X26770000Y-16700000D01*
X44000000Y-19600000D02*
X44000000Y-17970000D01*
D13*
X27350000Y-21050000D02*
G75*
G02*
X27150000Y-21050000I-100000J0D01*
G01*
X27150000Y-21050000D02*
G75*
G02*
X27350000Y-21050000I100000J0D01*
G01*
%TD*%
M02*
