%TF.GenerationSoftware,KiCad,Pcbnew,9.0.3*%
%TF.CreationDate,2026-04-13T22:58:01-04:00*%
%TF.ProjectId,Touchpoint_Stencil,546f7563-6870-46f6-996e-745f5374656e,rev?*%
%TF.SameCoordinates,Original*%
%TF.FileFunction,Paste,Top*%
%TF.FilePolarity,Positive*%
%FSLAX46Y46*%
G04 Gerber Fmt 4.6, Leading zero omitted, Abs format (unit mm)*
G04 Created by KiCad (PCBNEW 9.0.3) date 2026-04-13 22:58:01*
%MOMM*%
%LPD*%
G01*
G04 APERTURE LIST*
G04 Aperture macros list*
%AMRoundRect*
0 Rectangle with rounded corners*
0 $1 Rounding radius*
0 $2 $3 $4 $5 $6 $7 $8 $9 X,Y pos of 4 corners*
0 Add a 4 corners polygon primitive as box body*
4,1,4,$2,$3,$4,$5,$6,$7,$8,$9,$2,$3,0*
0 Add four circle primitives for the rounded corners*
1,1,$1+$1,$2,$3*
1,1,$1+$1,$4,$5*
1,1,$1+$1,$6,$7*
1,1,$1+$1,$8,$9*
0 Add four rect primitives between the rounded corners*
20,1,$1+$1,$2,$3,$4,$5,0*
20,1,$1+$1,$4,$5,$6,$7,0*
20,1,$1+$1,$6,$7,$8,$9,0*
20,1,$1+$1,$8,$9,$2,$3,0*%
G04 Aperture macros list end*
%ADD10C,0.000000*%
%ADD11C,0.010000*%
%ADD12RoundRect,0.135000X0.185000X-0.135000X0.185000X0.135000X-0.185000X0.135000X-0.185000X-0.135000X0*%
%ADD13RoundRect,0.218750X0.218750X0.256250X-0.218750X0.256250X-0.218750X-0.256250X0.218750X-0.256250X0*%
%ADD14RoundRect,0.135000X-0.135000X-0.185000X0.135000X-0.185000X0.135000X0.185000X-0.135000X0.185000X0*%
%ADD15RoundRect,0.250000X0.250000X0.475000X-0.250000X0.475000X-0.250000X-0.475000X0.250000X-0.475000X0*%
%ADD16RoundRect,0.135000X-0.185000X0.135000X-0.185000X-0.135000X0.185000X-0.135000X0.185000X0.135000X0*%
%ADD17R,1.422400X0.482600*%
%ADD18R,1.422400X0.558800*%
%ADD19R,3.430000X1.790000*%
%ADD20R,1.000000X2.750000*%
%ADD21RoundRect,0.140000X0.140000X0.170000X-0.140000X0.170000X-0.140000X-0.170000X0.140000X-0.170000X0*%
%ADD22RoundRect,0.140000X-0.140000X-0.170000X0.140000X-0.170000X0.140000X0.170000X-0.140000X0.170000X0*%
%ADD23RoundRect,0.135000X0.135000X0.185000X-0.135000X0.185000X-0.135000X-0.185000X0.135000X-0.185000X0*%
%ADD24RoundRect,0.250000X1.650000X0.750000X-1.650000X0.750000X-1.650000X-0.750000X1.650000X-0.750000X0*%
%ADD25RoundRect,0.170000X0.210000X-0.170000X0.210000X0.170000X-0.210000X0.170000X-0.210000X-0.170000X0*%
%ADD26RoundRect,0.075000X0.075000X-0.650000X0.075000X0.650000X-0.075000X0.650000X-0.075000X-0.650000X0*%
%ADD27R,2.210000X2.180400*%
%ADD28RoundRect,0.140000X-0.170000X0.140000X-0.170000X-0.140000X0.170000X-0.140000X0.170000X0.140000X0*%
%ADD29RoundRect,0.250000X0.475000X-0.250000X0.475000X0.250000X-0.475000X0.250000X-0.475000X-0.250000X0*%
%ADD30RoundRect,0.249999X-0.395001X-0.395001X0.395001X-0.395001X0.395001X0.395001X-0.395001X0.395001X0*%
%ADD31RoundRect,0.050000X-0.387500X-0.050000X0.387500X-0.050000X0.387500X0.050000X-0.387500X0.050000X0*%
%ADD32RoundRect,0.050000X-0.050000X-0.387500X0.050000X-0.387500X0.050000X0.387500X-0.050000X0.387500X0*%
%ADD33R,0.675000X0.254000*%
%ADD34R,0.254000X0.675000*%
%ADD35RoundRect,0.112500X-0.187500X-0.112500X0.187500X-0.112500X0.187500X0.112500X-0.187500X0.112500X0*%
%ADD36RoundRect,0.162500X-0.650000X-0.162500X0.650000X-0.162500X0.650000X0.162500X-0.650000X0.162500X0*%
%ADD37R,1.244600X1.066800*%
%ADD38RoundRect,0.140000X0.170000X-0.140000X0.170000X0.140000X-0.170000X0.140000X-0.170000X-0.140000X0*%
%ADD39R,0.457200X1.066800*%
%ADD40R,0.762000X1.066800*%
%ADD41R,1.549400X1.066800*%
%ADD42R,0.600000X1.150000*%
%ADD43R,0.300000X1.150000*%
%ADD44RoundRect,0.250000X-0.250000X-0.475000X0.250000X-0.475000X0.250000X0.475000X-0.250000X0.475000X0*%
%ADD45RoundRect,0.137500X-0.737500X-0.137500X0.737500X-0.137500X0.737500X0.137500X-0.737500X0.137500X0*%
%ADD46RoundRect,0.137500X-0.137500X-0.737500X0.137500X-0.737500X0.137500X0.737500X-0.137500X0.737500X0*%
%ADD47RoundRect,0.075000X-0.075000X0.650000X-0.075000X-0.650000X0.075000X-0.650000X0.075000X0.650000X0*%
%ADD48RoundRect,0.250000X-0.450000X-0.350000X0.450000X-0.350000X0.450000X0.350000X-0.450000X0.350000X0*%
%ADD49RoundRect,0.375000X0.625000X0.375000X-0.625000X0.375000X-0.625000X-0.375000X0.625000X-0.375000X0*%
%ADD50RoundRect,0.500000X0.500000X1.400000X-0.500000X1.400000X-0.500000X-1.400000X0.500000X-1.400000X0*%
%ADD51R,0.400000X0.800000*%
%ADD52RoundRect,0.150000X-0.512500X-0.150000X0.512500X-0.150000X0.512500X0.150000X-0.512500X0.150000X0*%
%ADD53RoundRect,0.250000X-0.475000X0.250000X-0.475000X-0.250000X0.475000X-0.250000X0.475000X0.250000X0*%
G04 APERTURE END LIST*
D10*
%TO.C,Q1*%
G36*
X125240400Y-103764400D02*
G01*
X123132200Y-103764400D01*
X122497200Y-103129400D01*
X121980000Y-103129400D01*
X121980000Y-102570600D01*
X122497200Y-102570600D01*
X123132200Y-101935600D01*
X125240400Y-101935600D01*
X125240400Y-103764400D01*
G37*
%TO.C,U101*%
G36*
X142440400Y-105064400D02*
G01*
X140332200Y-105064400D01*
X139697200Y-104429400D01*
X139180000Y-104429400D01*
X139180000Y-103870600D01*
X139697200Y-103870600D01*
X140332200Y-103235600D01*
X142440400Y-103235600D01*
X142440400Y-105064400D01*
G37*
D11*
%TO.C,J701*%
X28764000Y-53260000D02*
X28514000Y-53260000D01*
X28514000Y-52610000D01*
X28764000Y-52610000D01*
X28764000Y-53260000D01*
G36*
X28764000Y-53260000D02*
G01*
X28514000Y-53260000D01*
X28514000Y-52610000D01*
X28764000Y-52610000D01*
X28764000Y-53260000D01*
G37*
X29264000Y-53260000D02*
X29014000Y-53260000D01*
X29014000Y-52610000D01*
X29264000Y-52610000D01*
X29264000Y-53260000D01*
G36*
X29264000Y-53260000D02*
G01*
X29014000Y-53260000D01*
X29014000Y-52610000D01*
X29264000Y-52610000D01*
X29264000Y-53260000D01*
G37*
X29764000Y-53260000D02*
X29514000Y-53260000D01*
X29514000Y-52610000D01*
X29764000Y-52610000D01*
X29764000Y-53260000D01*
G36*
X29764000Y-53260000D02*
G01*
X29514000Y-53260000D01*
X29514000Y-52610000D01*
X29764000Y-52610000D01*
X29764000Y-53260000D01*
G37*
X30264000Y-53260000D02*
X30014000Y-53260000D01*
X30014000Y-52610000D01*
X30264000Y-52610000D01*
X30264000Y-53260000D01*
G36*
X30264000Y-53260000D02*
G01*
X30014000Y-53260000D01*
X30014000Y-52610000D01*
X30264000Y-52610000D01*
X30264000Y-53260000D01*
G37*
X30764000Y-53260000D02*
X30514000Y-53260000D01*
X30514000Y-52610000D01*
X30764000Y-52610000D01*
X30764000Y-53260000D01*
G36*
X30764000Y-53260000D02*
G01*
X30514000Y-53260000D01*
X30514000Y-52610000D01*
X30764000Y-52610000D01*
X30764000Y-53260000D01*
G37*
X31264000Y-53260000D02*
X31014000Y-53260000D01*
X31014000Y-52610000D01*
X31264000Y-52610000D01*
X31264000Y-53260000D01*
G36*
X31264000Y-53260000D02*
G01*
X31014000Y-53260000D01*
X31014000Y-52610000D01*
X31264000Y-52610000D01*
X31264000Y-53260000D01*
G37*
X31764000Y-53260000D02*
X31514000Y-53260000D01*
X31514000Y-52610000D01*
X31764000Y-52610000D01*
X31764000Y-53260000D01*
G36*
X31764000Y-53260000D02*
G01*
X31514000Y-53260000D01*
X31514000Y-52610000D01*
X31764000Y-52610000D01*
X31764000Y-53260000D01*
G37*
X32264000Y-53260000D02*
X32014000Y-53260000D01*
X32014000Y-52610000D01*
X32264000Y-52610000D01*
X32264000Y-53260000D01*
G36*
X32264000Y-53260000D02*
G01*
X32014000Y-53260000D01*
X32014000Y-52610000D01*
X32264000Y-52610000D01*
X32264000Y-53260000D01*
G37*
X32764000Y-53260000D02*
X32514000Y-53260000D01*
X32514000Y-52610000D01*
X32764000Y-52610000D01*
X32764000Y-53260000D01*
G36*
X32764000Y-53260000D02*
G01*
X32514000Y-53260000D01*
X32514000Y-52610000D01*
X32764000Y-52610000D01*
X32764000Y-53260000D01*
G37*
X33264000Y-53260000D02*
X33014000Y-53260000D01*
X33014000Y-52610000D01*
X33264000Y-52610000D01*
X33264000Y-53260000D01*
G36*
X33264000Y-53260000D02*
G01*
X33014000Y-53260000D01*
X33014000Y-52610000D01*
X33264000Y-52610000D01*
X33264000Y-53260000D01*
G37*
X33764000Y-53260000D02*
X33514000Y-53260000D01*
X33514000Y-52610000D01*
X33764000Y-52610000D01*
X33764000Y-53260000D01*
G36*
X33764000Y-53260000D02*
G01*
X33514000Y-53260000D01*
X33514000Y-52610000D01*
X33764000Y-52610000D01*
X33764000Y-53260000D01*
G37*
X34264000Y-53260000D02*
X34014000Y-53260000D01*
X34014000Y-52610000D01*
X34264000Y-52610000D01*
X34264000Y-53260000D01*
G36*
X34264000Y-53260000D02*
G01*
X34014000Y-53260000D01*
X34014000Y-52610000D01*
X34264000Y-52610000D01*
X34264000Y-53260000D01*
G37*
X34764000Y-53260000D02*
X34514000Y-53260000D01*
X34514000Y-52610000D01*
X34764000Y-52610000D01*
X34764000Y-53260000D01*
G36*
X34764000Y-53260000D02*
G01*
X34514000Y-53260000D01*
X34514000Y-52610000D01*
X34764000Y-52610000D01*
X34764000Y-53260000D01*
G37*
X35264000Y-53260000D02*
X35014000Y-53260000D01*
X35014000Y-52610000D01*
X35264000Y-52610000D01*
X35264000Y-53260000D01*
G36*
X35264000Y-53260000D02*
G01*
X35014000Y-53260000D01*
X35014000Y-52610000D01*
X35264000Y-52610000D01*
X35264000Y-53260000D01*
G37*
X35764000Y-53260000D02*
X35514000Y-53260000D01*
X35514000Y-52610000D01*
X35764000Y-52610000D01*
X35764000Y-53260000D01*
G36*
X35764000Y-53260000D02*
G01*
X35514000Y-53260000D01*
X35514000Y-52610000D01*
X35764000Y-52610000D01*
X35764000Y-53260000D01*
G37*
X36264000Y-53260000D02*
X36014000Y-53260000D01*
X36014000Y-52610000D01*
X36264000Y-52610000D01*
X36264000Y-53260000D01*
G36*
X36264000Y-53260000D02*
G01*
X36014000Y-53260000D01*
X36014000Y-52610000D01*
X36264000Y-52610000D01*
X36264000Y-53260000D01*
G37*
X36764000Y-53260000D02*
X36514000Y-53260000D01*
X36514000Y-52610000D01*
X36764000Y-52610000D01*
X36764000Y-53260000D01*
G36*
X36764000Y-53260000D02*
G01*
X36514000Y-53260000D01*
X36514000Y-52610000D01*
X36764000Y-52610000D01*
X36764000Y-53260000D01*
G37*
X37264000Y-53260000D02*
X37014000Y-53260000D01*
X37014000Y-52610000D01*
X37264000Y-52610000D01*
X37264000Y-53260000D01*
G36*
X37264000Y-53260000D02*
G01*
X37014000Y-53260000D01*
X37014000Y-52610000D01*
X37264000Y-52610000D01*
X37264000Y-53260000D01*
G37*
X37764000Y-53260000D02*
X37514000Y-53260000D01*
X37514000Y-52610000D01*
X37764000Y-52610000D01*
X37764000Y-53260000D01*
G36*
X37764000Y-53260000D02*
G01*
X37514000Y-53260000D01*
X37514000Y-52610000D01*
X37764000Y-52610000D01*
X37764000Y-53260000D01*
G37*
X38264000Y-53260000D02*
X38014000Y-53260000D01*
X38014000Y-52610000D01*
X38264000Y-52610000D01*
X38264000Y-53260000D01*
G36*
X38264000Y-53260000D02*
G01*
X38014000Y-53260000D01*
X38014000Y-52610000D01*
X38264000Y-52610000D01*
X38264000Y-53260000D01*
G37*
X38764000Y-53260000D02*
X38514000Y-53260000D01*
X38514000Y-52610000D01*
X38764000Y-52610000D01*
X38764000Y-53260000D01*
G36*
X38764000Y-53260000D02*
G01*
X38514000Y-53260000D01*
X38514000Y-52610000D01*
X38764000Y-52610000D01*
X38764000Y-53260000D01*
G37*
X39264000Y-53260000D02*
X39014000Y-53260000D01*
X39014000Y-52610000D01*
X39264000Y-52610000D01*
X39264000Y-53260000D01*
G36*
X39264000Y-53260000D02*
G01*
X39014000Y-53260000D01*
X39014000Y-52610000D01*
X39264000Y-52610000D01*
X39264000Y-53260000D01*
G37*
X39764000Y-53260000D02*
X39514000Y-53260000D01*
X39514000Y-52610000D01*
X39764000Y-52610000D01*
X39764000Y-53260000D01*
G36*
X39764000Y-53260000D02*
G01*
X39514000Y-53260000D01*
X39514000Y-52610000D01*
X39764000Y-52610000D01*
X39764000Y-53260000D01*
G37*
X40264000Y-53260000D02*
X40014000Y-53260000D01*
X40014000Y-52610000D01*
X40264000Y-52610000D01*
X40264000Y-53260000D01*
G36*
X40264000Y-53260000D02*
G01*
X40014000Y-53260000D01*
X40014000Y-52610000D01*
X40264000Y-52610000D01*
X40264000Y-53260000D01*
G37*
X40764000Y-53260000D02*
X40514000Y-53260000D01*
X40514000Y-52610000D01*
X40764000Y-52610000D01*
X40764000Y-53260000D01*
G36*
X40764000Y-53260000D02*
G01*
X40514000Y-53260000D01*
X40514000Y-52610000D01*
X40764000Y-52610000D01*
X40764000Y-53260000D01*
G37*
X41264000Y-53260000D02*
X41014000Y-53260000D01*
X41014000Y-52610000D01*
X41264000Y-52610000D01*
X41264000Y-53260000D01*
G36*
X41264000Y-53260000D02*
G01*
X41014000Y-53260000D01*
X41014000Y-52610000D01*
X41264000Y-52610000D01*
X41264000Y-53260000D01*
G37*
X41764000Y-53260000D02*
X41514000Y-53260000D01*
X41514000Y-52610000D01*
X41764000Y-52610000D01*
X41764000Y-53260000D01*
G36*
X41764000Y-53260000D02*
G01*
X41514000Y-53260000D01*
X41514000Y-52610000D01*
X41764000Y-52610000D01*
X41764000Y-53260000D01*
G37*
X42264000Y-53260000D02*
X42014000Y-53260000D01*
X42014000Y-52610000D01*
X42264000Y-52610000D01*
X42264000Y-53260000D01*
G36*
X42264000Y-53260000D02*
G01*
X42014000Y-53260000D01*
X42014000Y-52610000D01*
X42264000Y-52610000D01*
X42264000Y-53260000D01*
G37*
X42764000Y-53260000D02*
X42514000Y-53260000D01*
X42514000Y-52610000D01*
X42764000Y-52610000D01*
X42764000Y-53260000D01*
G36*
X42764000Y-53260000D02*
G01*
X42514000Y-53260000D01*
X42514000Y-52610000D01*
X42764000Y-52610000D01*
X42764000Y-53260000D01*
G37*
X43264000Y-53260000D02*
X43014000Y-53260000D01*
X43014000Y-52610000D01*
X43264000Y-52610000D01*
X43264000Y-53260000D01*
G36*
X43264000Y-53260000D02*
G01*
X43014000Y-53260000D01*
X43014000Y-52610000D01*
X43264000Y-52610000D01*
X43264000Y-53260000D01*
G37*
X43764000Y-53260000D02*
X43514000Y-53260000D01*
X43514000Y-52610000D01*
X43764000Y-52610000D01*
X43764000Y-53260000D01*
G36*
X43764000Y-53260000D02*
G01*
X43514000Y-53260000D01*
X43514000Y-52610000D01*
X43764000Y-52610000D01*
X43764000Y-53260000D01*
G37*
X44264000Y-53260000D02*
X44014000Y-53260000D01*
X44014000Y-52610000D01*
X44264000Y-52610000D01*
X44264000Y-53260000D01*
G36*
X44264000Y-53260000D02*
G01*
X44014000Y-53260000D01*
X44014000Y-52610000D01*
X44264000Y-52610000D01*
X44264000Y-53260000D01*
G37*
%TD*%
D12*
%TO.C,R5*%
X120680000Y-106860000D03*
X120680000Y-105840000D03*
%TD*%
D13*
%TO.C,D2*%
X132317500Y-100850000D03*
X130742500Y-100850000D03*
%TD*%
D14*
%TO.C,R7*%
X133770000Y-100850000D03*
X134790000Y-100850000D03*
%TD*%
D15*
%TO.C,C1*%
X115230000Y-109750000D03*
X113330000Y-109750000D03*
%TD*%
D16*
%TO.C,R9*%
X141280000Y-90040000D03*
X141280000Y-91060000D03*
%TD*%
D17*
%TO.C,Q1*%
X121268800Y-101350000D03*
D18*
X121268800Y-102850000D03*
D17*
X121268800Y-104350000D03*
%TD*%
%TO.C,U101*%
X138468800Y-102650000D03*
D18*
X138468800Y-104150000D03*
D17*
X138468800Y-105650000D03*
%TD*%
D12*
%TO.C,R4*%
X115280000Y-101850000D03*
X115280000Y-100830000D03*
%TD*%
%TO.C,R6*%
X118280000Y-113660000D03*
X118280000Y-112640000D03*
%TD*%
D19*
%TO.C,U201*%
X113620000Y-84100000D03*
X113620000Y-86600000D03*
X113620000Y-89100000D03*
X113620000Y-91600000D03*
X113620000Y-94100000D03*
X113620000Y-96600000D03*
X133940000Y-96600000D03*
X133940000Y-94100000D03*
X133940000Y-91600000D03*
X133940000Y-89100000D03*
X133940000Y-86600000D03*
X133940000Y-84100000D03*
%TD*%
D15*
%TO.C,C4*%
X115230000Y-107750000D03*
X113330000Y-107750000D03*
%TD*%
D14*
%TO.C,R10*%
X133770000Y-103600000D03*
X134790000Y-103600000D03*
%TD*%
D20*
%TO.C,SW3*%
X151280000Y-37850000D03*
X151280000Y-32090000D03*
X155280000Y-37850000D03*
X155280000Y-32090000D03*
%TD*%
D12*
%TO.C,R3*%
X112790000Y-101850000D03*
X112790000Y-100830000D03*
%TD*%
D21*
%TO.C,C3*%
X115160000Y-111440800D03*
X114200000Y-111440800D03*
%TD*%
D22*
%TO.C,C2*%
X114400000Y-106150000D03*
X115360000Y-106150000D03*
%TD*%
D23*
%TO.C,R8*%
X142190000Y-91950000D03*
X141170000Y-91950000D03*
%TD*%
D24*
%TO.C,TP2*%
X125080000Y-112150000D03*
%TD*%
D25*
%TO.C,U1*%
X117310000Y-108770000D03*
X118250000Y-108770000D03*
X117310000Y-107930000D03*
X118250000Y-107930000D03*
D26*
X116780000Y-110500000D03*
X117280000Y-110500000D03*
X117780000Y-110500000D03*
X118280000Y-110500000D03*
X118780000Y-110500000D03*
X118780000Y-106200000D03*
X118280000Y-106200000D03*
X117780000Y-106200000D03*
X117280000Y-106200000D03*
X116780000Y-106200000D03*
%TD*%
D23*
%TO.C,R2*%
X115390000Y-105150000D03*
X114370000Y-105150000D03*
%TD*%
D27*
%TO.C,D1*%
X138480000Y-91207200D03*
X138480000Y-87492800D03*
%TD*%
D13*
%TO.C,D3*%
X132317500Y-103600000D03*
X130742500Y-103600000D03*
%TD*%
D24*
%TO.C,TP1*%
X125080000Y-107950000D03*
%TD*%
D14*
%TO.C,R1*%
X116170000Y-112150000D03*
X117190000Y-112150000D03*
%TD*%
D23*
%TO.C,R804*%
X63000000Y-90260000D03*
X61980000Y-90260000D03*
%TD*%
D12*
%TO.C,R805*%
X74240000Y-97620000D03*
X74240000Y-96600000D03*
%TD*%
%TO.C,R806*%
X72740000Y-100370000D03*
X72740000Y-99350000D03*
%TD*%
D28*
%TO.C,C806*%
X71490000Y-99380000D03*
X71490000Y-100340000D03*
%TD*%
%TO.C,C805*%
X75490000Y-96630000D03*
X75490000Y-97590000D03*
%TD*%
D22*
%TO.C,C804*%
X62010000Y-91460000D03*
X62970000Y-91460000D03*
%TD*%
D29*
%TO.C,C103*%
X68190000Y-40110000D03*
X68190000Y-38210000D03*
%TD*%
D16*
%TO.C,R903*%
X59490000Y-50600000D03*
X59490000Y-51620000D03*
%TD*%
D14*
%TO.C,R105*%
X34492500Y-94610000D03*
X35512500Y-94610000D03*
%TD*%
D12*
%TO.C,R301*%
X75690000Y-60270000D03*
X75690000Y-59250000D03*
%TD*%
D23*
%TO.C,R507*%
X73350000Y-87910000D03*
X72330000Y-87910000D03*
%TD*%
D30*
%TO.C,U101*%
X70290000Y-45060000D03*
X70290000Y-46660000D03*
X71890000Y-45060000D03*
X71890000Y-46660000D03*
D31*
X67652500Y-43260000D03*
X67652500Y-43660000D03*
X67652500Y-44060000D03*
X67652500Y-44460000D03*
X67652500Y-44860000D03*
X67652500Y-45260000D03*
X67652500Y-45660000D03*
X67652500Y-46060000D03*
X67652500Y-46460000D03*
X67652500Y-46860000D03*
X67652500Y-47260000D03*
X67652500Y-47660000D03*
X67652500Y-48060000D03*
X67652500Y-48460000D03*
D32*
X68490000Y-49297500D03*
X68890000Y-49297500D03*
X69290000Y-49297500D03*
X69690000Y-49297500D03*
X70090000Y-49297500D03*
X70490000Y-49297500D03*
X70890000Y-49297500D03*
X71290000Y-49297500D03*
X71690000Y-49297500D03*
X72090000Y-49297500D03*
X72490000Y-49297500D03*
X72890000Y-49297500D03*
X73290000Y-49297500D03*
X73690000Y-49297500D03*
D31*
X74527500Y-48460000D03*
X74527500Y-48060000D03*
X74527500Y-47660000D03*
X74527500Y-47260000D03*
X74527500Y-46860000D03*
X74527500Y-46460000D03*
X74527500Y-46060000D03*
X74527500Y-45660000D03*
X74527500Y-45260000D03*
X74527500Y-44860000D03*
X74527500Y-44460000D03*
X74527500Y-44060000D03*
X74527500Y-43660000D03*
X74527500Y-43260000D03*
D32*
X73690000Y-42422500D03*
X73290000Y-42422500D03*
X72890000Y-42422500D03*
X72490000Y-42422500D03*
X72090000Y-42422500D03*
X71690000Y-42422500D03*
X71290000Y-42422500D03*
X70890000Y-42422500D03*
X70490000Y-42422500D03*
X70090000Y-42422500D03*
X69690000Y-42422500D03*
X69290000Y-42422500D03*
X68890000Y-42422500D03*
X68490000Y-42422500D03*
%TD*%
D33*
%TO.C,U501*%
X67577500Y-87860000D03*
D34*
X68490000Y-87997500D03*
X68990000Y-87997500D03*
X69490000Y-87997500D03*
X69990000Y-87997500D03*
D33*
X70902500Y-87860000D03*
X70902500Y-87360000D03*
X70902500Y-86860000D03*
X70902500Y-86360000D03*
X70902500Y-85860000D03*
X70902500Y-85360000D03*
X70902500Y-84860000D03*
X70902500Y-84360000D03*
X70902500Y-83860000D03*
X70902500Y-83360000D03*
D34*
X69990000Y-83222500D03*
X69490000Y-83222500D03*
X68990000Y-83222500D03*
X68490000Y-83222500D03*
D33*
X67577500Y-83360000D03*
X67577500Y-83860000D03*
X67577500Y-84360000D03*
X67577500Y-84860000D03*
X67577500Y-85360000D03*
X67577500Y-85860000D03*
X67577500Y-86360000D03*
X67577500Y-86860000D03*
X67577500Y-87360000D03*
%TD*%
D22*
%TO.C,C502*%
X72360000Y-86710000D03*
X73320000Y-86710000D03*
%TD*%
D16*
%TO.C,R104*%
X70589000Y-51901000D03*
X70589000Y-52921000D03*
%TD*%
D22*
%TO.C,C402*%
X55410000Y-42460000D03*
X56370000Y-42460000D03*
%TD*%
%TO.C,C401*%
X56010000Y-48860000D03*
X56970000Y-48860000D03*
%TD*%
%TO.C,C301*%
X75610000Y-73160000D03*
X76570000Y-73160000D03*
%TD*%
D23*
%TO.C,R501*%
X73350000Y-84910000D03*
X72330000Y-84910000D03*
%TD*%
D22*
%TO.C,C202*%
X64710000Y-23460000D03*
X65670000Y-23460000D03*
%TD*%
%TO.C,C803*%
X53260000Y-54610000D03*
X54220000Y-54610000D03*
%TD*%
D28*
%TO.C,C903*%
X58240000Y-50666000D03*
X58240000Y-51626000D03*
%TD*%
D22*
%TO.C,C306*%
X77010000Y-60360000D03*
X77970000Y-60360000D03*
%TD*%
D35*
%TO.C,D201*%
X56440000Y-30660000D03*
X58540000Y-30660000D03*
%TD*%
D36*
%TO.C,U103*%
X65802500Y-32155000D03*
X65802500Y-33425000D03*
X65802500Y-34695000D03*
X65802500Y-35965000D03*
X72977500Y-35965000D03*
X72977500Y-34695000D03*
X72977500Y-33425000D03*
X72977500Y-32155000D03*
%TD*%
D23*
%TO.C,R202*%
X52700000Y-29760000D03*
X51680000Y-29760000D03*
%TD*%
D37*
%TO.C,Y501*%
X65440000Y-87032400D03*
X65440000Y-84187600D03*
%TD*%
D13*
%TO.C,D101*%
X32990000Y-94610000D03*
X31415000Y-94610000D03*
%TD*%
D12*
%TO.C,R508*%
X70440000Y-90420000D03*
X70440000Y-89400000D03*
%TD*%
D38*
%TO.C,C902*%
X33490000Y-77340000D03*
X33490000Y-76380000D03*
%TD*%
D23*
%TO.C,R201*%
X54900000Y-29760000D03*
X53880000Y-29760000D03*
%TD*%
D28*
%TO.C,C701*%
X49490000Y-89650000D03*
X49490000Y-90610000D03*
%TD*%
D39*
%TO.C,U302*%
X78040001Y-64242400D03*
D40*
X77090000Y-64242400D03*
D39*
X76139999Y-64242400D03*
X76139999Y-66477600D03*
D41*
X77488800Y-66477600D03*
%TD*%
D28*
%TO.C,C504*%
X63640000Y-87030000D03*
X63640000Y-87990000D03*
%TD*%
D22*
%TO.C,C501*%
X65160000Y-88710000D03*
X66120000Y-88710000D03*
%TD*%
D38*
%TO.C,C901*%
X31490000Y-77840000D03*
X31490000Y-76880000D03*
%TD*%
D42*
%TO.C,J201*%
X58570000Y-27715000D03*
X57770000Y-27715000D03*
D43*
X56620000Y-27715000D03*
X55620000Y-27715000D03*
X55120000Y-27715000D03*
X54120000Y-27715000D03*
D42*
X52170000Y-27715000D03*
X52970000Y-27715000D03*
D43*
X53620000Y-27715000D03*
X54620000Y-27715000D03*
X56120000Y-27715000D03*
X57120000Y-27715000D03*
%TD*%
D22*
%TO.C,C203*%
X64710000Y-28660000D03*
X65670000Y-28660000D03*
%TD*%
D14*
%TO.C,R504*%
X65020000Y-82510000D03*
X66040000Y-82510000D03*
%TD*%
D12*
%TO.C,R901*%
X30240000Y-77870000D03*
X30240000Y-76850000D03*
%TD*%
D44*
%TO.C,C303*%
X76140000Y-62160000D03*
X78040000Y-62160000D03*
%TD*%
D22*
%TO.C,C304*%
X75610000Y-71760000D03*
X76570000Y-71760000D03*
%TD*%
D38*
%TO.C,C115*%
X74470000Y-54810000D03*
X74470000Y-53850000D03*
%TD*%
D45*
%TO.C,U701*%
X42365000Y-67360000D03*
X42365000Y-68160000D03*
X42365000Y-68960000D03*
X42365000Y-69760000D03*
X42365000Y-70560000D03*
X42365000Y-71360000D03*
X42365000Y-72160000D03*
X42365000Y-72960000D03*
X42365000Y-73760000D03*
X42365000Y-74560000D03*
X42365000Y-75360000D03*
X42365000Y-76160000D03*
X42365000Y-76960000D03*
X42365000Y-77760000D03*
X42365000Y-78560000D03*
X42365000Y-79360000D03*
X42365000Y-80160000D03*
X42365000Y-80960000D03*
X42365000Y-81760000D03*
X42365000Y-82560000D03*
X42365000Y-83360000D03*
X42365000Y-84160000D03*
X42365000Y-84960000D03*
X42365000Y-85760000D03*
D46*
X44490000Y-87685000D03*
X45290000Y-87685000D03*
X46090000Y-87685000D03*
X46890000Y-87685000D03*
X47690000Y-87685000D03*
X48490000Y-87685000D03*
X49290000Y-87685000D03*
X50090000Y-87685000D03*
X50890000Y-87685000D03*
X51690000Y-87685000D03*
X52490000Y-87685000D03*
X53290000Y-87685000D03*
X54090000Y-87685000D03*
X54890000Y-87685000D03*
X55690000Y-87685000D03*
X56490000Y-87685000D03*
D45*
X58615000Y-85760000D03*
X58615000Y-84960000D03*
X58615000Y-84160000D03*
X58615000Y-83360000D03*
X58615000Y-82560000D03*
X58615000Y-81760000D03*
X58615000Y-80960000D03*
X58615000Y-80160000D03*
X58615000Y-79360000D03*
X58615000Y-78560000D03*
X58615000Y-77760000D03*
X58615000Y-76960000D03*
X58615000Y-76160000D03*
X58615000Y-75360000D03*
X58615000Y-74560000D03*
X58615000Y-73760000D03*
X58615000Y-72960000D03*
X58615000Y-72160000D03*
X58615000Y-71360000D03*
X58615000Y-70560000D03*
X58615000Y-69760000D03*
X58615000Y-68960000D03*
X58615000Y-68160000D03*
X58615000Y-67360000D03*
D46*
X56490000Y-65435000D03*
X55690000Y-65435000D03*
X54890000Y-65435000D03*
X54090000Y-65435000D03*
X53290000Y-65435000D03*
X52490000Y-65435000D03*
X51690000Y-65435000D03*
X50890000Y-65435000D03*
X50090000Y-65435000D03*
X49290000Y-65435000D03*
X48490000Y-65435000D03*
X47690000Y-65435000D03*
X46890000Y-65435000D03*
X46090000Y-65435000D03*
X45290000Y-65435000D03*
X44490000Y-65435000D03*
%TD*%
D12*
%TO.C,R902*%
X34740000Y-77370000D03*
X34740000Y-76350000D03*
%TD*%
D47*
%TO.C,U401*%
X54190000Y-42660000D03*
X53690000Y-42660000D03*
X53190000Y-42660000D03*
X52690000Y-42660000D03*
X52190000Y-42660000D03*
X52190000Y-47060000D03*
X52690000Y-47060000D03*
X53190000Y-47060000D03*
X53690000Y-47060000D03*
X54190000Y-47060000D03*
%TD*%
D21*
%TO.C,C114*%
X68669000Y-56711000D03*
X67709000Y-56711000D03*
%TD*%
D12*
%TO.C,R502*%
X69240000Y-90420000D03*
X69240000Y-89400000D03*
%TD*%
D28*
%TO.C,C802*%
X39240000Y-109630000D03*
X39240000Y-110590000D03*
%TD*%
D16*
%TO.C,R505*%
X67440000Y-80800000D03*
X67440000Y-81820000D03*
%TD*%
D48*
%TO.C,Y101*%
X70389000Y-56661000D03*
X72589000Y-56661000D03*
X72589000Y-54961000D03*
X70389000Y-54961000D03*
%TD*%
D38*
%TO.C,C110*%
X75690000Y-40940000D03*
X75690000Y-39980000D03*
%TD*%
D23*
%TO.C,R103*%
X62500000Y-39960000D03*
X61480000Y-39960000D03*
%TD*%
D49*
%TO.C,U102*%
X58440000Y-38260000D03*
X58440000Y-35960000D03*
D50*
X52140000Y-35960000D03*
D49*
X58440000Y-33660000D03*
%TD*%
D38*
%TO.C,C503*%
X63640000Y-84190000D03*
X63640000Y-83230000D03*
%TD*%
D13*
%TO.C,D102*%
X32990000Y-96710000D03*
X31415000Y-96710000D03*
%TD*%
D22*
%TO.C,C116*%
X61510000Y-38460000D03*
X62470000Y-38460000D03*
%TD*%
D16*
%TO.C,R506*%
X70240000Y-80800000D03*
X70240000Y-81820000D03*
%TD*%
D38*
%TO.C,C106*%
X74490000Y-40940000D03*
X74490000Y-39980000D03*
%TD*%
D44*
%TO.C,C403*%
X56140000Y-47060000D03*
X58040000Y-47060000D03*
%TD*%
D23*
%TO.C,R401*%
X57100000Y-43660000D03*
X56080000Y-43660000D03*
%TD*%
D12*
%TO.C,R302*%
X61890000Y-71670000D03*
X61890000Y-70650000D03*
%TD*%
D14*
%TO.C,R102*%
X66480000Y-27060000D03*
X67500000Y-27060000D03*
%TD*%
D15*
%TO.C,C201*%
X62640000Y-30660000D03*
X60740000Y-30660000D03*
%TD*%
D51*
%TO.C,J701*%
X27639000Y-50360000D03*
X45139000Y-50360000D03*
%TD*%
D44*
%TO.C,C117*%
X60940000Y-36760000D03*
X62840000Y-36760000D03*
%TD*%
D52*
%TO.C,U201*%
X62452500Y-25110000D03*
X62452500Y-26060000D03*
X62452500Y-27010000D03*
X64727500Y-27010000D03*
X64727500Y-26060000D03*
X64727500Y-25110000D03*
%TD*%
D38*
%TO.C,C102*%
X73290000Y-40940000D03*
X73290000Y-39980000D03*
%TD*%
D28*
%TO.C,C801*%
X69740000Y-109630000D03*
X69740000Y-110590000D03*
%TD*%
D44*
%TO.C,C112*%
X60940000Y-33360000D03*
X62840000Y-33360000D03*
%TD*%
D14*
%TO.C,R101*%
X66480000Y-30160000D03*
X67500000Y-30160000D03*
%TD*%
D16*
%TO.C,R801*%
X69740000Y-102100000D03*
X69740000Y-103120000D03*
%TD*%
D23*
%TO.C,R803*%
X54250000Y-55860000D03*
X53230000Y-55860000D03*
%TD*%
D16*
%TO.C,R802*%
X39240000Y-102100000D03*
X39240000Y-103120000D03*
%TD*%
D44*
%TO.C,C302*%
X76340000Y-68560000D03*
X78240000Y-68560000D03*
%TD*%
D21*
%TO.C,C111*%
X65890000Y-47350000D03*
X64930000Y-47350000D03*
%TD*%
D22*
%TO.C,C307*%
X76010000Y-70360000D03*
X76970000Y-70360000D03*
%TD*%
D23*
%TO.C,R402*%
X57100000Y-45360000D03*
X56080000Y-45360000D03*
%TD*%
D14*
%TO.C,R106*%
X34492500Y-96710000D03*
X35512500Y-96710000D03*
%TD*%
D12*
%TO.C,R303*%
X61890000Y-66270000D03*
X61890000Y-65250000D03*
%TD*%
D16*
%TO.C,R503*%
X68840000Y-80800000D03*
X68840000Y-81820000D03*
%TD*%
D38*
%TO.C,C104*%
X71390000Y-39340000D03*
X71390000Y-38380000D03*
%TD*%
D53*
%TO.C,C308*%
X61490000Y-73410000D03*
X61490000Y-75310000D03*
%TD*%
D28*
%TO.C,C305*%
X63290000Y-73880000D03*
X63290000Y-74840000D03*
%TD*%
D22*
%TO.C,C107*%
X75830000Y-42260000D03*
X76790000Y-42260000D03*
%TD*%
D28*
%TO.C,C101*%
X72989000Y-51931000D03*
X72989000Y-52891000D03*
%TD*%
%TO.C,C108*%
X71789000Y-51931000D03*
X71789000Y-52891000D03*
%TD*%
D22*
%TO.C,C113*%
X61490000Y-35060000D03*
X62450000Y-35060000D03*
%TD*%
%TO.C,C109*%
X77110000Y-47110000D03*
X78070000Y-47110000D03*
%TD*%
D21*
%TO.C,C118*%
X72770000Y-30160000D03*
X71810000Y-30160000D03*
%TD*%
D29*
%TO.C,C105*%
X64790000Y-42010000D03*
X64790000Y-40110000D03*
%TD*%
M02*
