M48
; DRILL file {KiCad 9.0.3} date 2026-04-13T22:58:07-0400
; FORMAT={-:-/ absolute / metric / decimal}
; #@! TF.CreationDate,2026-04-13T22:58:07-04:00
; #@! TF.GenerationSoftware,Kicad,Pcbnew,9.0.3
; #@! TF.FileFunction,Plated,1,2,PTH
FMAT,2
METRIC
; #@! TA.AperFunction,Plated,PTH,ViaDrill
T1C0.200
; #@! TA.AperFunction,Plated,PTH,ViaDrill
T2C0.300
; #@! TA.AperFunction,Plated,PTH,ViaDrill
T3C0.500
; #@! TA.AperFunction,Plated,PTH,ComponentDrill
T4C0.600
; #@! TA.AperFunction,Plated,PTH,ComponentDrill
T5C0.700
; #@! TA.AperFunction,Plated,PTH,ComponentDrill
T6C0.800
; #@! TA.AperFunction,Plated,PTH,ComponentDrill
T7C1.000
; #@! TA.AperFunction,Plated,PTH,ComponentDrill
T8C1.100
; #@! TA.AperFunction,Plated,PTH,ComponentDrill
T9C1.200
; #@! TA.AperFunction,Plated,PTH,ComponentDrill
T10C1.499
; #@! TA.AperFunction,Plated,PTH,ComponentDrill
T11C1.800
; #@! TA.AperFunction,Plated,PTH,ComponentDrill
T12C2.000
%
G90
G05
T1
X31.99Y-96.11
X32.09Y-76.96
X35.49Y-76.86
X47.69Y-89.06
X53.99Y-88.86
X54.539Y-90.26
X55.194Y-90.555
X59.49Y-43.184
X59.49Y-52.436
X59.74Y-87.11
X59.882Y-79.155
X59.89Y-79.76
X60.09Y-42.66
X61.11Y-80.56
X61.19Y-79.17
X61.717Y-78.362
X61.88Y-60.75
X61.92Y-58.4
X62.069Y-79.251
X62.07Y-61.56
X62.208Y-64.558
X62.732Y-79.975
X62.83Y-79.31
X63.7Y-50.57
X63.845Y-52.168
X63.921Y-52.728
X63.99Y-79.56
X64.058Y-51.458
X64.31Y-50.59
X64.47Y-52.94
X65.17Y-53.18
X65.59Y-45.76
X67.128Y-39.922
X68.39Y-45.26
X68.628Y-48.277
X68.89Y-51.51
X69.19Y-47.96
X69.49Y-48.46
X70.59Y-47.96
X70.99Y-40.16
X72.39Y-48.16
X72.74Y-96.61
X72.96Y-43.89
X73.29Y-48.26
X73.59Y-46.359
X73.59Y-47.76
X73.62Y-45.66
X75.215Y-48.035
X75.373Y-46.567
X75.466Y-43.236
X75.49Y-98.36
X75.59Y-43.81
X75.84Y-44.41
X76.03Y-45.94
X76.447Y-44.803
X77.39Y-45.81
X77.88Y-51.13
X78.222Y-50.674
T2
X25.215Y-61.76
X26.39Y-70.96
X30.89Y-67.96
X31.24Y-50.935
X31.49Y-78.61
X33.49Y-78.11
X34.615Y-90.91
X35.015Y-82.935
X36.49Y-96.597
X36.602Y-94.61
X39.24Y-111.36
X40.25Y-103.14
X40.64Y-50.76
X40.64Y-98.885
X41.09Y-80.16
X41.09Y-80.96
X41.09Y-81.76
X41.09Y-82.56
X41.09Y-83.36
X41.09Y-84.16
X41.09Y-84.96
X41.09Y-85.76
X42.79Y-109.985
X43.115Y-91.01
X45.465Y-82.41
X45.765Y-72.56
X46.74Y-102.36
X48.49Y-89.11
X49.09Y-78.01
X49.49Y-91.36
X50.4Y-96.44
X50.74Y-89.11
X50.99Y-56.985
X51.0Y-29.76
X51.49Y-89.11
X51.99Y-28.76
X52.59Y-45.035
X52.665Y-82.935
X52.871Y-28.741
X53.29Y-48.46
X53.415Y-32.285
X53.44Y-24.36
X53.79Y-35.36
X54.205Y-28.975
X55.04Y-61.385
X56.24Y-102.86
X56.99Y-34.96
X57.04Y-23.06
X57.29Y-42.36
X57.29Y-67.36
X57.29Y-68.16
X57.29Y-68.96
X57.29Y-69.76
X57.29Y-70.56
X57.29Y-71.36
X57.29Y-72.16
X57.29Y-72.96
X57.29Y-73.76
X57.29Y-74.56
X57.29Y-75.36
X57.29Y-76.16
X57.29Y-76.96
X57.29Y-77.76
X57.29Y-78.56
X57.29Y-79.36
X57.29Y-80.16
X57.29Y-80.96
X57.29Y-81.76
X57.29Y-82.56
X57.29Y-83.36
X57.29Y-84.16
X57.29Y-84.96
X57.29Y-85.76
X57.69Y-48.86
X57.77Y-28.69
X58.24Y-49.23
X58.69Y-28.76
X58.69Y-40.86
X59.09Y-47.06
X59.741Y-48.36
X60.19Y-38.46
X61.19Y-25.96
X61.54Y-40.73
X63.29Y-38.86
X63.29Y-75.56
X63.44Y-76.44
X63.49Y-35.06
X63.64Y-82.31
X63.64Y-88.91
X63.69Y-37.66
X63.69Y-91.66
X63.79Y-32.26
X63.89Y-30.46
X63.99Y-110.36
X64.44Y-88.51
X64.74Y-81.61
X64.89Y-39.26
X65.15Y-48.195
X65.49Y-49.11
X65.49Y-97.11
X65.99Y-36.86
X66.09Y-24.76
X66.38Y-23.426
X66.39Y-28.56
X66.74Y-79.86
X66.803Y-85.73
X66.889Y-56.611
X66.89Y-37.76
X67.49Y-54.86
X67.74Y-79.047
X67.99Y-31.91
X68.265Y-78.335
X68.44Y-88.71
X68.64Y-91.31
X68.97Y-55.1
X69.165Y-25.36
X69.289Y-52.18
X69.34Y-86.11
X69.74Y-111.36
X70.39Y-34.41
X70.423Y-99.493
X70.44Y-79.91
X70.64Y-91.11
X70.74Y-100.61
X70.79Y-88.487
X70.99Y-30.06
X71.09Y-45.86
X71.39Y-37.66
X71.74Y-32.11
X71.844Y-85.902
X71.99Y-51.11
X72.24Y-88.91
X72.242Y-53.814
X72.29Y-37.611
X72.59Y-77.285
X73.065Y-112.935
X73.089Y-53.611
X73.39Y-26.185
X73.641Y-75.161
X73.74Y-59.36
X73.797Y-39.167
X73.94Y-56.29
X74.04Y-52.93
X74.04Y-86.51
X74.04Y-87.71
X74.265Y-74.238
X74.89Y-39.06
X74.947Y-38.017
X75.215Y-90.435
X75.415Y-80.735
X75.89Y-39.06
X77.51Y-42.46
X77.615Y-32.76
X77.74Y-95.36
X78.265Y-39.635
X78.815Y-47.11
X78.977Y-66.478
X78.977Y-70.36
X78.977Y-60.36
X78.977Y-62.16
X78.977Y-63.36
X79.089Y-68.56
X111.48Y-107.95
X114.48Y-78.95
X116.28Y-113.35
X118.68Y-95.75
X118.68Y-115.35
X118.88Y-84.75
X121.08Y-116.15
X121.48Y-108.75
X121.48Y-111.55
X123.68Y-75.75
X127.53Y-102.1
X128.08Y-111.55
X128.28Y-95.75
X128.68Y-84.35
X130.53Y-110.35
X130.78Y-104.85
X133.48Y-77.95
X133.68Y-53.55
X133.78Y-108.6
X135.53Y-101.1
X135.53Y-103.1
X136.08Y-104.55
X138.68Y-56.95
X138.88Y-72.35
X143.08Y-89.75
X143.28Y-24.55
X144.68Y-48.35
X145.08Y-71.75
X149.88Y-112.35
X151.28Y-112.95
X152.03Y-26.6
X152.03Y-47.35
X152.53Y-77.1
X152.98Y-116.45
X153.48Y-95.65
X155.28Y-109.75
X157.18Y-90.05
T3
X50.59Y-85.86
X52.19Y-41.06
X53.55Y-50.72
X55.86Y-51.38
X58.24Y-89.36
T4
X47.39Y-114.96
X47.49Y-51.36
X47.49Y-54.56
X49.89Y-114.96
X51.09Y-51.36
X51.09Y-54.56
X52.39Y-114.96
X54.89Y-114.96
X57.39Y-114.96
X59.89Y-114.96
X62.39Y-114.96
X64.89Y-114.96
X67.39Y-114.96
X69.89Y-114.96
X128.18Y-114.95
X130.68Y-114.95
X133.18Y-114.95
X135.68Y-114.95
X138.18Y-114.95
X140.68Y-114.95
X143.18Y-114.95
X145.68Y-114.95
X148.18Y-114.95
X150.68Y-114.95
T5
X63.34Y-61.64
X63.34Y-63.42
X63.34Y-65.2
X63.34Y-66.98
X63.34Y-68.76
X63.34Y-70.54
X63.34Y-72.32
X63.36Y-59.86
X74.04Y-60.75
X74.04Y-62.53
X74.04Y-64.31
X74.04Y-66.09
X74.04Y-67.87
X74.04Y-69.65
X74.04Y-71.43
X74.04Y-73.21
T6
X140.227Y-97.15
X143.727Y-97.15
T7
X149.88Y-99.67
X149.88Y-102.21
X149.88Y-104.75
X154.08Y-99.67
X154.08Y-102.21
X154.08Y-104.75
T8
X32.24Y-103.11
X32.24Y-109.61
X36.74Y-103.11
X36.74Y-109.61
X72.24Y-103.11
X72.24Y-109.61
X76.74Y-103.11
X76.74Y-109.61
T9
X26.99Y-59.36
X26.99Y-73.86
X29.49Y-73.86
X31.99Y-59.36
X31.99Y-73.86
T10
X145.39Y-30.85
X145.39Y-33.35
X145.39Y-35.85
T4
G00X51.05Y-23.36
M15
G01X51.05Y-22.56
M16
G05
G00X51.05Y-27.69
M15
G01X51.05Y-26.59
M16
G05
G00X59.69Y-23.36
M15
G01X59.69Y-22.56
M16
G05
G00X59.69Y-27.69
M15
G01X59.69Y-26.59
M16
G05
T11
G00X147.19Y-28.85
M15
G01X147.59Y-28.85
M16
G05
G00X147.19Y-37.85
M15
G01X147.59Y-37.85
M16
G05
T12
G00X23.89Y-66.21
M15
G01X23.89Y-66.51
M16
G05
G00X35.09Y-66.21
M15
G01X35.09Y-66.51
M16
G05
M30
