%TF.GenerationSoftware,KiCad,Pcbnew,9.0.3*%
%TF.CreationDate,2026-04-13T22:58:01-04:00*%
%TF.ProjectId,Touchpoint_Stencil,546f7563-6870-46f6-996e-745f5374656e,rev?*%
%TF.SameCoordinates,Original*%
%TF.FileFunction,Paste,Bot*%
%TF.FilePolarity,Positive*%
%FSLAX46Y46*%
G04 Gerber Fmt 4.6, Leading zero omitted, Abs format (unit mm)*
G04 Created by KiCad (PCBNEW 9.0.3) date 2026-04-13 22:58:01*
%MOMM*%
%LPD*%
G01*
G04 APERTURE LIST*
%ADD10C,0.010000*%
%ADD11R,0.400000X0.800000*%
G04 APERTURE END LIST*
D10*
%TO.C,J702*%
X28764000Y-53260000D02*
X28514000Y-53260000D01*
X28514000Y-52610000D01*
X28764000Y-52610000D01*
X28764000Y-53260000D01*
G36*
X28764000Y-53260000D02*
G01*
X28514000Y-53260000D01*
X28514000Y-52610000D01*
X28764000Y-52610000D01*
X28764000Y-53260000D01*
G37*
X29264000Y-53260000D02*
X29014000Y-53260000D01*
X29014000Y-52610000D01*
X29264000Y-52610000D01*
X29264000Y-53260000D01*
G36*
X29264000Y-53260000D02*
G01*
X29014000Y-53260000D01*
X29014000Y-52610000D01*
X29264000Y-52610000D01*
X29264000Y-53260000D01*
G37*
X29764000Y-53260000D02*
X29514000Y-53260000D01*
X29514000Y-52610000D01*
X29764000Y-52610000D01*
X29764000Y-53260000D01*
G36*
X29764000Y-53260000D02*
G01*
X29514000Y-53260000D01*
X29514000Y-52610000D01*
X29764000Y-52610000D01*
X29764000Y-53260000D01*
G37*
X30264000Y-53260000D02*
X30014000Y-53260000D01*
X30014000Y-52610000D01*
X30264000Y-52610000D01*
X30264000Y-53260000D01*
G36*
X30264000Y-53260000D02*
G01*
X30014000Y-53260000D01*
X30014000Y-52610000D01*
X30264000Y-52610000D01*
X30264000Y-53260000D01*
G37*
X30764000Y-53260000D02*
X30514000Y-53260000D01*
X30514000Y-52610000D01*
X30764000Y-52610000D01*
X30764000Y-53260000D01*
G36*
X30764000Y-53260000D02*
G01*
X30514000Y-53260000D01*
X30514000Y-52610000D01*
X30764000Y-52610000D01*
X30764000Y-53260000D01*
G37*
X31264000Y-53260000D02*
X31014000Y-53260000D01*
X31014000Y-52610000D01*
X31264000Y-52610000D01*
X31264000Y-53260000D01*
G36*
X31264000Y-53260000D02*
G01*
X31014000Y-53260000D01*
X31014000Y-52610000D01*
X31264000Y-52610000D01*
X31264000Y-53260000D01*
G37*
X31764000Y-53260000D02*
X31514000Y-53260000D01*
X31514000Y-52610000D01*
X31764000Y-52610000D01*
X31764000Y-53260000D01*
G36*
X31764000Y-53260000D02*
G01*
X31514000Y-53260000D01*
X31514000Y-52610000D01*
X31764000Y-52610000D01*
X31764000Y-53260000D01*
G37*
X32264000Y-53260000D02*
X32014000Y-53260000D01*
X32014000Y-52610000D01*
X32264000Y-52610000D01*
X32264000Y-53260000D01*
G36*
X32264000Y-53260000D02*
G01*
X32014000Y-53260000D01*
X32014000Y-52610000D01*
X32264000Y-52610000D01*
X32264000Y-53260000D01*
G37*
X32764000Y-53260000D02*
X32514000Y-53260000D01*
X32514000Y-52610000D01*
X32764000Y-52610000D01*
X32764000Y-53260000D01*
G36*
X32764000Y-53260000D02*
G01*
X32514000Y-53260000D01*
X32514000Y-52610000D01*
X32764000Y-52610000D01*
X32764000Y-53260000D01*
G37*
X33264000Y-53260000D02*
X33014000Y-53260000D01*
X33014000Y-52610000D01*
X33264000Y-52610000D01*
X33264000Y-53260000D01*
G36*
X33264000Y-53260000D02*
G01*
X33014000Y-53260000D01*
X33014000Y-52610000D01*
X33264000Y-52610000D01*
X33264000Y-53260000D01*
G37*
X33764000Y-53260000D02*
X33514000Y-53260000D01*
X33514000Y-52610000D01*
X33764000Y-52610000D01*
X33764000Y-53260000D01*
G36*
X33764000Y-53260000D02*
G01*
X33514000Y-53260000D01*
X33514000Y-52610000D01*
X33764000Y-52610000D01*
X33764000Y-53260000D01*
G37*
X34264000Y-53260000D02*
X34014000Y-53260000D01*
X34014000Y-52610000D01*
X34264000Y-52610000D01*
X34264000Y-53260000D01*
G36*
X34264000Y-53260000D02*
G01*
X34014000Y-53260000D01*
X34014000Y-52610000D01*
X34264000Y-52610000D01*
X34264000Y-53260000D01*
G37*
X34764000Y-53260000D02*
X34514000Y-53260000D01*
X34514000Y-52610000D01*
X34764000Y-52610000D01*
X34764000Y-53260000D01*
G36*
X34764000Y-53260000D02*
G01*
X34514000Y-53260000D01*
X34514000Y-52610000D01*
X34764000Y-52610000D01*
X34764000Y-53260000D01*
G37*
X35264000Y-53260000D02*
X35014000Y-53260000D01*
X35014000Y-52610000D01*
X35264000Y-52610000D01*
X35264000Y-53260000D01*
G36*
X35264000Y-53260000D02*
G01*
X35014000Y-53260000D01*
X35014000Y-52610000D01*
X35264000Y-52610000D01*
X35264000Y-53260000D01*
G37*
X35764000Y-53260000D02*
X35514000Y-53260000D01*
X35514000Y-52610000D01*
X35764000Y-52610000D01*
X35764000Y-53260000D01*
G36*
X35764000Y-53260000D02*
G01*
X35514000Y-53260000D01*
X35514000Y-52610000D01*
X35764000Y-52610000D01*
X35764000Y-53260000D01*
G37*
X36264000Y-53260000D02*
X36014000Y-53260000D01*
X36014000Y-52610000D01*
X36264000Y-52610000D01*
X36264000Y-53260000D01*
G36*
X36264000Y-53260000D02*
G01*
X36014000Y-53260000D01*
X36014000Y-52610000D01*
X36264000Y-52610000D01*
X36264000Y-53260000D01*
G37*
X36764000Y-53260000D02*
X36514000Y-53260000D01*
X36514000Y-52610000D01*
X36764000Y-52610000D01*
X36764000Y-53260000D01*
G36*
X36764000Y-53260000D02*
G01*
X36514000Y-53260000D01*
X36514000Y-52610000D01*
X36764000Y-52610000D01*
X36764000Y-53260000D01*
G37*
X37264000Y-53260000D02*
X37014000Y-53260000D01*
X37014000Y-52610000D01*
X37264000Y-52610000D01*
X37264000Y-53260000D01*
G36*
X37264000Y-53260000D02*
G01*
X37014000Y-53260000D01*
X37014000Y-52610000D01*
X37264000Y-52610000D01*
X37264000Y-53260000D01*
G37*
X37764000Y-53260000D02*
X37514000Y-53260000D01*
X37514000Y-52610000D01*
X37764000Y-52610000D01*
X37764000Y-53260000D01*
G36*
X37764000Y-53260000D02*
G01*
X37514000Y-53260000D01*
X37514000Y-52610000D01*
X37764000Y-52610000D01*
X37764000Y-53260000D01*
G37*
X38264000Y-53260000D02*
X38014000Y-53260000D01*
X38014000Y-52610000D01*
X38264000Y-52610000D01*
X38264000Y-53260000D01*
G36*
X38264000Y-53260000D02*
G01*
X38014000Y-53260000D01*
X38014000Y-52610000D01*
X38264000Y-52610000D01*
X38264000Y-53260000D01*
G37*
X38764000Y-53260000D02*
X38514000Y-53260000D01*
X38514000Y-52610000D01*
X38764000Y-52610000D01*
X38764000Y-53260000D01*
G36*
X38764000Y-53260000D02*
G01*
X38514000Y-53260000D01*
X38514000Y-52610000D01*
X38764000Y-52610000D01*
X38764000Y-53260000D01*
G37*
X39264000Y-53260000D02*
X39014000Y-53260000D01*
X39014000Y-52610000D01*
X39264000Y-52610000D01*
X39264000Y-53260000D01*
G36*
X39264000Y-53260000D02*
G01*
X39014000Y-53260000D01*
X39014000Y-52610000D01*
X39264000Y-52610000D01*
X39264000Y-53260000D01*
G37*
X39764000Y-53260000D02*
X39514000Y-53260000D01*
X39514000Y-52610000D01*
X39764000Y-52610000D01*
X39764000Y-53260000D01*
G36*
X39764000Y-53260000D02*
G01*
X39514000Y-53260000D01*
X39514000Y-52610000D01*
X39764000Y-52610000D01*
X39764000Y-53260000D01*
G37*
X40264000Y-53260000D02*
X40014000Y-53260000D01*
X40014000Y-52610000D01*
X40264000Y-52610000D01*
X40264000Y-53260000D01*
G36*
X40264000Y-53260000D02*
G01*
X40014000Y-53260000D01*
X40014000Y-52610000D01*
X40264000Y-52610000D01*
X40264000Y-53260000D01*
G37*
X40764000Y-53260000D02*
X40514000Y-53260000D01*
X40514000Y-52610000D01*
X40764000Y-52610000D01*
X40764000Y-53260000D01*
G36*
X40764000Y-53260000D02*
G01*
X40514000Y-53260000D01*
X40514000Y-52610000D01*
X40764000Y-52610000D01*
X40764000Y-53260000D01*
G37*
X41264000Y-53260000D02*
X41014000Y-53260000D01*
X41014000Y-52610000D01*
X41264000Y-52610000D01*
X41264000Y-53260000D01*
G36*
X41264000Y-53260000D02*
G01*
X41014000Y-53260000D01*
X41014000Y-52610000D01*
X41264000Y-52610000D01*
X41264000Y-53260000D01*
G37*
X41764000Y-53260000D02*
X41514000Y-53260000D01*
X41514000Y-52610000D01*
X41764000Y-52610000D01*
X41764000Y-53260000D01*
G36*
X41764000Y-53260000D02*
G01*
X41514000Y-53260000D01*
X41514000Y-52610000D01*
X41764000Y-52610000D01*
X41764000Y-53260000D01*
G37*
X42264000Y-53260000D02*
X42014000Y-53260000D01*
X42014000Y-52610000D01*
X42264000Y-52610000D01*
X42264000Y-53260000D01*
G36*
X42264000Y-53260000D02*
G01*
X42014000Y-53260000D01*
X42014000Y-52610000D01*
X42264000Y-52610000D01*
X42264000Y-53260000D01*
G37*
X42764000Y-53260000D02*
X42514000Y-53260000D01*
X42514000Y-52610000D01*
X42764000Y-52610000D01*
X42764000Y-53260000D01*
G36*
X42764000Y-53260000D02*
G01*
X42514000Y-53260000D01*
X42514000Y-52610000D01*
X42764000Y-52610000D01*
X42764000Y-53260000D01*
G37*
X43264000Y-53260000D02*
X43014000Y-53260000D01*
X43014000Y-52610000D01*
X43264000Y-52610000D01*
X43264000Y-53260000D01*
G36*
X43264000Y-53260000D02*
G01*
X43014000Y-53260000D01*
X43014000Y-52610000D01*
X43264000Y-52610000D01*
X43264000Y-53260000D01*
G37*
X43764000Y-53260000D02*
X43514000Y-53260000D01*
X43514000Y-52610000D01*
X43764000Y-52610000D01*
X43764000Y-53260000D01*
G36*
X43764000Y-53260000D02*
G01*
X43514000Y-53260000D01*
X43514000Y-52610000D01*
X43764000Y-52610000D01*
X43764000Y-53260000D01*
G37*
X44264000Y-53260000D02*
X44014000Y-53260000D01*
X44014000Y-52610000D01*
X44264000Y-52610000D01*
X44264000Y-53260000D01*
G36*
X44264000Y-53260000D02*
G01*
X44014000Y-53260000D01*
X44014000Y-52610000D01*
X44264000Y-52610000D01*
X44264000Y-53260000D01*
G37*
%TD*%
D11*
%TO.C,J702*%
X45139000Y-50360000D03*
X27639000Y-50360000D03*
%TD*%
M02*
