%TF.GenerationSoftware,KiCad,Pcbnew,9.0.3*%
%TF.CreationDate,2026-04-13T22:58:02-04:00*%
%TF.ProjectId,Touchpoint_Stencil,546f7563-6870-46f6-996e-745f5374656e,rev?*%
%TF.SameCoordinates,Original*%
%TF.FileFunction,Soldermask,Top*%
%TF.FilePolarity,Negative*%
%FSLAX46Y46*%
G04 Gerber Fmt 4.6, Leading zero omitted, Abs format (unit mm)*
G04 Created by KiCad (PCBNEW 9.0.3) date 2026-04-13 22:58:02*
%MOMM*%
%LPD*%
G01*
G04 APERTURE LIST*
G04 Aperture macros list*
%AMRoundRect*
0 Rectangle with rounded corners*
0 $1 Rounding radius*
0 $2 $3 $4 $5 $6 $7 $8 $9 X,Y pos of 4 corners*
0 Add a 4 corners polygon primitive as box body*
4,1,4,$2,$3,$4,$5,$6,$7,$8,$9,$2,$3,0*
0 Add four circle primitives for the rounded corners*
1,1,$1+$1,$2,$3*
1,1,$1+$1,$4,$5*
1,1,$1+$1,$6,$7*
1,1,$1+$1,$8,$9*
0 Add four rect primitives between the rounded corners*
20,1,$1+$1,$2,$3,$4,$5,0*
20,1,$1+$1,$4,$5,$6,$7,0*
20,1,$1+$1,$6,$7,$8,$9,0*
20,1,$1+$1,$8,$9,$2,$3,0*%
G04 Aperture macros list end*
%ADD10C,0.000000*%
%ADD11C,1.600000*%
%ADD12RoundRect,0.135000X0.185000X-0.135000X0.185000X0.135000X-0.185000X0.135000X-0.185000X-0.135000X0*%
%ADD13RoundRect,0.218750X0.218750X0.256250X-0.218750X0.256250X-0.218750X-0.256250X0.218750X-0.256250X0*%
%ADD14C,2.200000*%
%ADD15RoundRect,0.135000X-0.135000X-0.185000X0.135000X-0.185000X0.135000X0.185000X-0.135000X0.185000X0*%
%ADD16RoundRect,0.250000X0.250000X0.475000X-0.250000X0.475000X-0.250000X-0.475000X0.250000X-0.475000X0*%
%ADD17RoundRect,0.135000X-0.185000X0.135000X-0.185000X-0.135000X0.185000X-0.135000X0.185000X0.135000X0*%
%ADD18R,1.422400X0.482600*%
%ADD19R,1.422400X0.558800*%
%ADD20RoundRect,0.250000X-0.550000X-0.550000X0.550000X-0.550000X0.550000X0.550000X-0.550000X0.550000X0*%
%ADD21R,3.430000X1.790000*%
%ADD22R,1.000000X2.750000*%
%ADD23R,1.700000X1.700000*%
%ADD24C,1.700000*%
%ADD25RoundRect,0.140000X0.140000X0.170000X-0.140000X0.170000X-0.140000X-0.170000X0.140000X-0.170000X0*%
%ADD26RoundRect,0.140000X-0.140000X-0.170000X0.140000X-0.170000X0.140000X0.170000X-0.140000X0.170000X0*%
%ADD27RoundRect,0.135000X0.135000X0.185000X-0.135000X0.185000X-0.135000X-0.185000X0.135000X-0.185000X0*%
%ADD28RoundRect,0.250000X1.650000X0.750000X-1.650000X0.750000X-1.650000X-0.750000X1.650000X-0.750000X0*%
%ADD29RoundRect,0.075000X0.075000X-0.650000X0.075000X0.650000X-0.075000X0.650000X-0.075000X-0.650000X0*%
%ADD30R,1.880000X1.680000*%
%ADD31R,2.210000X2.180400*%
%ADD32C,2.006600*%
%ADD33O,2.700000X2.300000*%
%ADD34RoundRect,0.140000X-0.170000X0.140000X-0.170000X-0.140000X0.170000X-0.140000X0.170000X0.140000X0*%
%ADD35RoundRect,0.250000X0.475000X-0.250000X0.475000X0.250000X-0.475000X0.250000X-0.475000X-0.250000X0*%
%ADD36RoundRect,0.050000X-0.387500X-0.050000X0.387500X-0.050000X0.387500X0.050000X-0.387500X0.050000X0*%
%ADD37RoundRect,0.050000X-0.050000X-0.387500X0.050000X-0.387500X0.050000X0.387500X-0.050000X0.387500X0*%
%ADD38R,3.200000X3.200000*%
%ADD39R,0.675000X0.254000*%
%ADD40R,0.254000X0.675000*%
%ADD41RoundRect,0.112500X-0.187500X-0.112500X0.187500X-0.112500X0.187500X0.112500X-0.187500X0.112500X0*%
%ADD42RoundRect,0.162500X-0.650000X-0.162500X0.650000X-0.162500X0.650000X0.162500X-0.650000X0.162500X0*%
%ADD43R,1.244600X1.066800*%
%ADD44RoundRect,0.076200X-0.527800X0.527800X-0.527800X-0.527800X0.527800X-0.527800X0.527800X0.527800X0*%
%ADD45C,1.208000*%
%ADD46RoundRect,0.140000X0.170000X-0.140000X0.170000X0.140000X-0.170000X0.140000X-0.170000X-0.140000X0*%
%ADD47R,0.457200X1.066800*%
%ADD48R,0.762000X1.066800*%
%ADD49R,1.549400X1.066800*%
%ADD50C,0.650000*%
%ADD51R,0.600000X1.150000*%
%ADD52R,0.300000X1.150000*%
%ADD53O,1.204000X2.304000*%
%ADD54O,1.204000X2.004000*%
%ADD55RoundRect,0.250000X-0.250000X-0.475000X0.250000X-0.475000X0.250000X0.475000X-0.250000X0.475000X0*%
%ADD56RoundRect,0.137500X-0.737500X-0.137500X0.737500X-0.137500X0.737500X0.137500X-0.737500X0.137500X0*%
%ADD57RoundRect,0.137500X-0.137500X-0.737500X0.137500X-0.737500X0.137500X0.737500X-0.137500X0.737500X0*%
%ADD58RoundRect,0.075000X-0.075000X0.650000X-0.075000X-0.650000X0.075000X-0.650000X0.075000X0.650000X0*%
%ADD59RoundRect,0.250000X-0.450000X-0.350000X0.450000X-0.350000X0.450000X0.350000X-0.450000X0.350000X0*%
%ADD60RoundRect,0.375000X0.625000X0.375000X-0.625000X0.375000X-0.625000X-0.375000X0.625000X-0.375000X0*%
%ADD61RoundRect,0.500000X0.500000X1.400000X-0.500000X1.400000X-0.500000X-1.400000X0.500000X-1.400000X0*%
%ADD62R,0.300000X0.800000*%
%ADD63R,0.400000X0.800000*%
%ADD64RoundRect,0.150000X-0.512500X-0.150000X0.512500X-0.150000X0.512500X0.150000X-0.512500X0.150000X0*%
%ADD65C,2.000000*%
%ADD66RoundRect,0.102000X-0.900000X-0.900000X0.900000X-0.900000X0.900000X0.900000X-0.900000X0.900000X0*%
%ADD67C,2.004000*%
%ADD68O,3.204000X6.204000*%
%ADD69RoundRect,0.250000X-0.475000X0.250000X-0.475000X-0.250000X0.475000X-0.250000X0.475000X0.250000X0*%
G04 APERTURE END LIST*
D10*
%TO.C,Q1*%
G36*
X125240400Y-103764400D02*
G01*
X123132200Y-103764400D01*
X122497200Y-103129400D01*
X121980000Y-103129400D01*
X121980000Y-102570600D01*
X122497200Y-102570600D01*
X123132200Y-101935600D01*
X125240400Y-101935600D01*
X125240400Y-103764400D01*
G37*
%TO.C,U101*%
G36*
X142440400Y-105064400D02*
G01*
X140332200Y-105064400D01*
X139697200Y-104429400D01*
X139180000Y-104429400D01*
X139180000Y-103870600D01*
X139697200Y-103870600D01*
X140332200Y-103235600D01*
X142440400Y-103235600D01*
X142440400Y-105064400D01*
G37*
%TD*%
D11*
%TO.C,J101*%
X128180000Y-114950000D03*
X130680000Y-114950000D03*
X133180000Y-114950000D03*
X135680000Y-114950000D03*
X138180000Y-114950000D03*
X140680000Y-114950000D03*
X143180000Y-114950000D03*
X145680000Y-114950000D03*
X148180000Y-114950000D03*
X150680000Y-114950000D03*
%TD*%
D12*
%TO.C,R5*%
X120680000Y-106860000D03*
X120680000Y-105840000D03*
%TD*%
D13*
%TO.C,D2*%
X132317500Y-100850000D03*
X130742500Y-100850000D03*
%TD*%
D14*
%TO.C,REF\u002A\u002A*%
X157780000Y-27950000D03*
%TD*%
D15*
%TO.C,R7*%
X133770000Y-100850000D03*
X134790000Y-100850000D03*
%TD*%
D14*
%TO.C,REF\u002A\u002A*%
X157780000Y-114750000D03*
%TD*%
D16*
%TO.C,C1*%
X115230000Y-109750000D03*
X113330000Y-109750000D03*
%TD*%
D17*
%TO.C,R9*%
X141280000Y-90040000D03*
X141280000Y-91060000D03*
%TD*%
D18*
%TO.C,Q1*%
X121268800Y-101350000D03*
D19*
X121268800Y-102850000D03*
D18*
X121268800Y-104350000D03*
%TD*%
%TO.C,U101*%
X138468800Y-102650000D03*
D19*
X138468800Y-104150000D03*
D18*
X138468800Y-105650000D03*
%TD*%
D12*
%TO.C,R4*%
X115280000Y-101850000D03*
X115280000Y-100830000D03*
%TD*%
D20*
%TO.C,C5*%
X140227349Y-97150000D03*
D11*
X143727349Y-97150000D03*
%TD*%
D12*
%TO.C,R6*%
X118280000Y-113660000D03*
X118280000Y-112640000D03*
%TD*%
D21*
%TO.C,U201*%
X113620000Y-84100000D03*
X113620000Y-86600000D03*
X113620000Y-89100000D03*
X113620000Y-91600000D03*
X113620000Y-94100000D03*
X113620000Y-96600000D03*
X133940000Y-96600000D03*
X133940000Y-94100000D03*
X133940000Y-91600000D03*
X133940000Y-89100000D03*
X133940000Y-86600000D03*
X133940000Y-84100000D03*
%TD*%
D16*
%TO.C,C4*%
X115230000Y-107750000D03*
X113330000Y-107750000D03*
%TD*%
D14*
%TO.C,REF\u002A\u002A*%
X144480620Y-41993398D03*
X144480620Y-82993398D03*
%TD*%
D15*
%TO.C,R10*%
X133770000Y-103600000D03*
X134790000Y-103600000D03*
%TD*%
D22*
%TO.C,SW3*%
X151280000Y-37850000D03*
X151280000Y-32090000D03*
X155280000Y-37850000D03*
X155280000Y-32090000D03*
%TD*%
D14*
%TO.C,REF\u002A\u002A*%
X112780000Y-114750000D03*
%TD*%
D12*
%TO.C,R3*%
X112790000Y-101850000D03*
X112790000Y-100830000D03*
%TD*%
D23*
%TO.C,J1*%
X149880000Y-104750000D03*
D24*
X149880000Y-102210000D03*
X149880000Y-99670000D03*
%TD*%
D25*
%TO.C,C3*%
X115160000Y-111440800D03*
X114200000Y-111440800D03*
%TD*%
D26*
%TO.C,C2*%
X114400000Y-106150000D03*
X115360000Y-106150000D03*
%TD*%
D27*
%TO.C,R8*%
X142190000Y-91950000D03*
X141170000Y-91950000D03*
%TD*%
D28*
%TO.C,TP2*%
X125080000Y-112150000D03*
%TD*%
D29*
%TO.C,U1*%
X116780000Y-110500000D03*
X117280000Y-110500000D03*
X117780000Y-110500000D03*
X118280000Y-110500000D03*
X118780000Y-110500000D03*
X118780000Y-106200000D03*
X118280000Y-106200000D03*
X117780000Y-106200000D03*
X117280000Y-106200000D03*
X116780000Y-106200000D03*
D30*
X117780000Y-108350000D03*
%TD*%
D23*
%TO.C,J2*%
X154080000Y-99670000D03*
D24*
X154080000Y-102210000D03*
X154080000Y-104750000D03*
%TD*%
D27*
%TO.C,R2*%
X115390000Y-105150000D03*
X114370000Y-105150000D03*
%TD*%
D31*
%TO.C,D1*%
X138480000Y-91207200D03*
X138480000Y-87492800D03*
%TD*%
D13*
%TO.C,D3*%
X132317500Y-103600000D03*
X130742500Y-103600000D03*
%TD*%
D28*
%TO.C,TP1*%
X125080000Y-107950000D03*
%TD*%
D15*
%TO.C,R1*%
X116170000Y-112150000D03*
X117190000Y-112150000D03*
%TD*%
D32*
%TO.C,J4*%
X145390000Y-35850000D03*
X145390000Y-33350000D03*
X145390000Y-30850000D03*
D33*
X147390001Y-37849999D03*
X147390001Y-28850001D03*
%TD*%
D27*
%TO.C,R804*%
X63000000Y-90260000D03*
X61980000Y-90260000D03*
%TD*%
D12*
%TO.C,R805*%
X74240000Y-97620000D03*
X74240000Y-96600000D03*
%TD*%
%TO.C,R806*%
X72740000Y-100370000D03*
X72740000Y-99350000D03*
%TD*%
D34*
%TO.C,C806*%
X71490000Y-99380000D03*
X71490000Y-100340000D03*
%TD*%
%TO.C,C805*%
X75490000Y-96630000D03*
X75490000Y-97590000D03*
%TD*%
D11*
%TO.C,J602*%
X47390000Y-114960000D03*
X49890000Y-114960000D03*
X52390000Y-114960000D03*
X54890000Y-114960000D03*
X57390000Y-114960000D03*
X59890000Y-114960000D03*
X62390000Y-114960000D03*
X64890000Y-114960000D03*
X67390000Y-114960000D03*
X69890000Y-114960000D03*
%TD*%
D26*
%TO.C,C804*%
X62010000Y-91460000D03*
X62970000Y-91460000D03*
%TD*%
D35*
%TO.C,C103*%
X68190000Y-40110000D03*
X68190000Y-38210000D03*
%TD*%
D17*
%TO.C,R903*%
X59490000Y-50600000D03*
X59490000Y-51620000D03*
%TD*%
D15*
%TO.C,R105*%
X34492500Y-94610000D03*
X35512500Y-94610000D03*
%TD*%
D12*
%TO.C,R301*%
X75690000Y-60270000D03*
X75690000Y-59250000D03*
%TD*%
D27*
%TO.C,R507*%
X73350000Y-87910000D03*
X72330000Y-87910000D03*
%TD*%
D36*
%TO.C,U101*%
X67652500Y-43260000D03*
X67652500Y-43660000D03*
X67652500Y-44060000D03*
X67652500Y-44460000D03*
X67652500Y-44860000D03*
X67652500Y-45260000D03*
X67652500Y-45660000D03*
X67652500Y-46060000D03*
X67652500Y-46460000D03*
X67652500Y-46860000D03*
X67652500Y-47260000D03*
X67652500Y-47660000D03*
X67652500Y-48060000D03*
X67652500Y-48460000D03*
D37*
X68490000Y-49297500D03*
X68890000Y-49297500D03*
X69290000Y-49297500D03*
X69690000Y-49297500D03*
X70090000Y-49297500D03*
X70490000Y-49297500D03*
X70890000Y-49297500D03*
X71290000Y-49297500D03*
X71690000Y-49297500D03*
X72090000Y-49297500D03*
X72490000Y-49297500D03*
X72890000Y-49297500D03*
X73290000Y-49297500D03*
X73690000Y-49297500D03*
D36*
X74527500Y-48460000D03*
X74527500Y-48060000D03*
X74527500Y-47660000D03*
X74527500Y-47260000D03*
X74527500Y-46860000D03*
X74527500Y-46460000D03*
X74527500Y-46060000D03*
X74527500Y-45660000D03*
X74527500Y-45260000D03*
X74527500Y-44860000D03*
X74527500Y-44460000D03*
X74527500Y-44060000D03*
X74527500Y-43660000D03*
X74527500Y-43260000D03*
D37*
X73690000Y-42422500D03*
X73290000Y-42422500D03*
X72890000Y-42422500D03*
X72490000Y-42422500D03*
X72090000Y-42422500D03*
X71690000Y-42422500D03*
X71290000Y-42422500D03*
X70890000Y-42422500D03*
X70490000Y-42422500D03*
X70090000Y-42422500D03*
X69690000Y-42422500D03*
X69290000Y-42422500D03*
X68890000Y-42422500D03*
X68490000Y-42422500D03*
D38*
X71090000Y-45860000D03*
%TD*%
D39*
%TO.C,U501*%
X67577500Y-87860000D03*
D40*
X68490000Y-87997500D03*
X68990000Y-87997500D03*
X69490000Y-87997500D03*
X69990000Y-87997500D03*
D39*
X70902500Y-87860000D03*
X70902500Y-87360000D03*
X70902500Y-86860000D03*
X70902500Y-86360000D03*
X70902500Y-85860000D03*
X70902500Y-85360000D03*
X70902500Y-84860000D03*
X70902500Y-84360000D03*
X70902500Y-83860000D03*
X70902500Y-83360000D03*
D40*
X69990000Y-83222500D03*
X69490000Y-83222500D03*
X68990000Y-83222500D03*
X68490000Y-83222500D03*
D39*
X67577500Y-83360000D03*
X67577500Y-83860000D03*
X67577500Y-84360000D03*
X67577500Y-84860000D03*
X67577500Y-85360000D03*
X67577500Y-85860000D03*
X67577500Y-86360000D03*
X67577500Y-86860000D03*
X67577500Y-87360000D03*
%TD*%
D26*
%TO.C,C502*%
X72360000Y-86710000D03*
X73320000Y-86710000D03*
%TD*%
D17*
%TO.C,R104*%
X70589000Y-51901000D03*
X70589000Y-52921000D03*
%TD*%
D26*
%TO.C,C402*%
X55410000Y-42460000D03*
X56370000Y-42460000D03*
%TD*%
%TO.C,C401*%
X56010000Y-48860000D03*
X56970000Y-48860000D03*
%TD*%
%TO.C,C301*%
X75610000Y-73160000D03*
X76570000Y-73160000D03*
%TD*%
D27*
%TO.C,R501*%
X73350000Y-84910000D03*
X72330000Y-84910000D03*
%TD*%
D26*
%TO.C,C202*%
X64710000Y-23460000D03*
X65670000Y-23460000D03*
%TD*%
%TO.C,C803*%
X53260000Y-54610000D03*
X54220000Y-54610000D03*
%TD*%
D34*
%TO.C,C903*%
X58240000Y-50666000D03*
X58240000Y-51626000D03*
%TD*%
D26*
%TO.C,C306*%
X77010000Y-60360000D03*
X77970000Y-60360000D03*
%TD*%
D41*
%TO.C,D201*%
X56440000Y-30660000D03*
X58540000Y-30660000D03*
%TD*%
D42*
%TO.C,U103*%
X65802500Y-32155000D03*
X65802500Y-33425000D03*
X65802500Y-34695000D03*
X65802500Y-35965000D03*
X72977500Y-35965000D03*
X72977500Y-34695000D03*
X72977500Y-33425000D03*
X72977500Y-32155000D03*
%TD*%
D27*
%TO.C,R202*%
X52700000Y-29760000D03*
X51680000Y-29760000D03*
%TD*%
D43*
%TO.C,Y501*%
X65440000Y-87032400D03*
X65440000Y-84187600D03*
%TD*%
D13*
%TO.C,D101*%
X32990000Y-94610000D03*
X31415000Y-94610000D03*
%TD*%
D44*
%TO.C,U301*%
X74040000Y-73210000D03*
D45*
X74040000Y-71430000D03*
X74040000Y-69650000D03*
X74040000Y-67870000D03*
X74040000Y-66090000D03*
X74040000Y-64310000D03*
X74040000Y-62530000D03*
X74040000Y-60750000D03*
X63360000Y-59860000D03*
X63340000Y-61640000D03*
X63340000Y-63420000D03*
X63340000Y-65200000D03*
X63340000Y-66980000D03*
X63340000Y-68760000D03*
X63340000Y-70540000D03*
X63340000Y-72320000D03*
%TD*%
D12*
%TO.C,R508*%
X70440000Y-90420000D03*
X70440000Y-89400000D03*
%TD*%
D46*
%TO.C,C902*%
X33490000Y-77340000D03*
X33490000Y-76380000D03*
%TD*%
D27*
%TO.C,R201*%
X54900000Y-29760000D03*
X53880000Y-29760000D03*
%TD*%
D34*
%TO.C,C701*%
X49490000Y-89650000D03*
X49490000Y-90610000D03*
%TD*%
D47*
%TO.C,U302*%
X78040001Y-64242400D03*
D48*
X77090000Y-64242400D03*
D47*
X76139999Y-64242400D03*
X76139999Y-66477600D03*
D49*
X77488800Y-66477600D03*
%TD*%
D20*
%TO.C,SW803*%
X47490000Y-54560000D03*
D11*
X51090000Y-54560000D03*
%TD*%
D34*
%TO.C,C504*%
X63640000Y-87030000D03*
X63640000Y-87990000D03*
%TD*%
D26*
%TO.C,C501*%
X65160000Y-88710000D03*
X66120000Y-88710000D03*
%TD*%
D46*
%TO.C,C901*%
X31490000Y-77840000D03*
X31490000Y-76880000D03*
%TD*%
D50*
%TO.C,J201*%
X58260000Y-26640000D03*
X52480000Y-26640000D03*
D51*
X58570000Y-27715000D03*
X57770000Y-27715000D03*
D52*
X56620000Y-27715000D03*
X55620000Y-27715000D03*
X55120000Y-27715000D03*
X54120000Y-27715000D03*
D51*
X52170000Y-27715000D03*
X52970000Y-27715000D03*
D52*
X53620000Y-27715000D03*
X54620000Y-27715000D03*
X56120000Y-27715000D03*
X57120000Y-27715000D03*
D53*
X59690000Y-27140000D03*
X51050000Y-27140000D03*
D54*
X59690000Y-22960000D03*
X51050000Y-22960000D03*
%TD*%
D26*
%TO.C,C203*%
X64710000Y-28660000D03*
X65670000Y-28660000D03*
%TD*%
D15*
%TO.C,R504*%
X65020000Y-82510000D03*
X66040000Y-82510000D03*
%TD*%
D12*
%TO.C,R901*%
X30240000Y-77870000D03*
X30240000Y-76850000D03*
%TD*%
D55*
%TO.C,C303*%
X76140000Y-62160000D03*
X78040000Y-62160000D03*
%TD*%
D26*
%TO.C,C304*%
X75610000Y-71760000D03*
X76570000Y-71760000D03*
%TD*%
D46*
%TO.C,C115*%
X74470000Y-54810000D03*
X74470000Y-53850000D03*
%TD*%
D56*
%TO.C,U701*%
X42365000Y-67360000D03*
X42365000Y-68160000D03*
X42365000Y-68960000D03*
X42365000Y-69760000D03*
X42365000Y-70560000D03*
X42365000Y-71360000D03*
X42365000Y-72160000D03*
X42365000Y-72960000D03*
X42365000Y-73760000D03*
X42365000Y-74560000D03*
X42365000Y-75360000D03*
X42365000Y-76160000D03*
X42365000Y-76960000D03*
X42365000Y-77760000D03*
X42365000Y-78560000D03*
X42365000Y-79360000D03*
X42365000Y-80160000D03*
X42365000Y-80960000D03*
X42365000Y-81760000D03*
X42365000Y-82560000D03*
X42365000Y-83360000D03*
X42365000Y-84160000D03*
X42365000Y-84960000D03*
X42365000Y-85760000D03*
D57*
X44490000Y-87685000D03*
X45290000Y-87685000D03*
X46090000Y-87685000D03*
X46890000Y-87685000D03*
X47690000Y-87685000D03*
X48490000Y-87685000D03*
X49290000Y-87685000D03*
X50090000Y-87685000D03*
X50890000Y-87685000D03*
X51690000Y-87685000D03*
X52490000Y-87685000D03*
X53290000Y-87685000D03*
X54090000Y-87685000D03*
X54890000Y-87685000D03*
X55690000Y-87685000D03*
X56490000Y-87685000D03*
D56*
X58615000Y-85760000D03*
X58615000Y-84960000D03*
X58615000Y-84160000D03*
X58615000Y-83360000D03*
X58615000Y-82560000D03*
X58615000Y-81760000D03*
X58615000Y-80960000D03*
X58615000Y-80160000D03*
X58615000Y-79360000D03*
X58615000Y-78560000D03*
X58615000Y-77760000D03*
X58615000Y-76960000D03*
X58615000Y-76160000D03*
X58615000Y-75360000D03*
X58615000Y-74560000D03*
X58615000Y-73760000D03*
X58615000Y-72960000D03*
X58615000Y-72160000D03*
X58615000Y-71360000D03*
X58615000Y-70560000D03*
X58615000Y-69760000D03*
X58615000Y-68960000D03*
X58615000Y-68160000D03*
X58615000Y-67360000D03*
D57*
X56490000Y-65435000D03*
X55690000Y-65435000D03*
X54890000Y-65435000D03*
X54090000Y-65435000D03*
X53290000Y-65435000D03*
X52490000Y-65435000D03*
X51690000Y-65435000D03*
X50890000Y-65435000D03*
X50090000Y-65435000D03*
X49290000Y-65435000D03*
X48490000Y-65435000D03*
X47690000Y-65435000D03*
X46890000Y-65435000D03*
X46090000Y-65435000D03*
X45290000Y-65435000D03*
X44490000Y-65435000D03*
%TD*%
D12*
%TO.C,R902*%
X34740000Y-77370000D03*
X34740000Y-76350000D03*
%TD*%
D14*
%TO.C,REF\u002A\u002A*%
X76990000Y-114760000D03*
%TD*%
D58*
%TO.C,U401*%
X54190000Y-42660000D03*
X53690000Y-42660000D03*
X53190000Y-42660000D03*
X52690000Y-42660000D03*
X52190000Y-42660000D03*
X52190000Y-47060000D03*
X52690000Y-47060000D03*
X53190000Y-47060000D03*
X53690000Y-47060000D03*
X54190000Y-47060000D03*
%TD*%
D25*
%TO.C,C114*%
X68669000Y-56711000D03*
X67709000Y-56711000D03*
%TD*%
D12*
%TO.C,R502*%
X69240000Y-90420000D03*
X69240000Y-89400000D03*
%TD*%
D34*
%TO.C,C802*%
X39240000Y-109630000D03*
X39240000Y-110590000D03*
%TD*%
D17*
%TO.C,R505*%
X67440000Y-80800000D03*
X67440000Y-81820000D03*
%TD*%
D59*
%TO.C,Y101*%
X70389000Y-56661000D03*
X72589000Y-56661000D03*
X72589000Y-54961000D03*
X70389000Y-54961000D03*
%TD*%
D46*
%TO.C,C110*%
X75690000Y-40940000D03*
X75690000Y-39980000D03*
%TD*%
D27*
%TO.C,R103*%
X62500000Y-39960000D03*
X61480000Y-39960000D03*
%TD*%
D60*
%TO.C,U102*%
X58440000Y-38260000D03*
X58440000Y-35960000D03*
D61*
X52140000Y-35960000D03*
D60*
X58440000Y-33660000D03*
%TD*%
D46*
%TO.C,C503*%
X63640000Y-84190000D03*
X63640000Y-83230000D03*
%TD*%
D14*
%TO.C,REF\u002A\u002A*%
X31990000Y-114760000D03*
%TD*%
D13*
%TO.C,D102*%
X32990000Y-96710000D03*
X31415000Y-96710000D03*
%TD*%
D26*
%TO.C,C116*%
X61510000Y-38460000D03*
X62470000Y-38460000D03*
%TD*%
D17*
%TO.C,R506*%
X70240000Y-80800000D03*
X70240000Y-81820000D03*
%TD*%
D46*
%TO.C,C106*%
X74490000Y-40940000D03*
X74490000Y-39980000D03*
%TD*%
D55*
%TO.C,C403*%
X56140000Y-47060000D03*
X58040000Y-47060000D03*
%TD*%
D27*
%TO.C,R401*%
X57100000Y-43660000D03*
X56080000Y-43660000D03*
%TD*%
D20*
%TO.C,J101*%
X47490000Y-51360000D03*
D11*
X51090000Y-51360000D03*
%TD*%
D12*
%TO.C,R302*%
X61890000Y-71670000D03*
X61890000Y-70650000D03*
%TD*%
D15*
%TO.C,R102*%
X66480000Y-27060000D03*
X67500000Y-27060000D03*
%TD*%
D16*
%TO.C,C201*%
X62640000Y-30660000D03*
X60740000Y-30660000D03*
%TD*%
D62*
%TO.C,J701*%
X28639000Y-52860000D03*
X29139000Y-52860000D03*
X29639000Y-52860000D03*
X30139000Y-52860000D03*
X30639000Y-52860000D03*
X31139000Y-52860000D03*
X31639000Y-52860000D03*
X32139000Y-52860000D03*
X32639000Y-52860000D03*
X33139000Y-52860000D03*
X33639000Y-52860000D03*
X34139000Y-52860000D03*
X34639000Y-52860000D03*
X35139000Y-52860000D03*
X35639000Y-52860000D03*
X36139000Y-52860000D03*
X36639000Y-52860000D03*
X37139000Y-52860000D03*
X37639000Y-52860000D03*
X38139000Y-52860000D03*
X38639000Y-52860000D03*
X39139000Y-52860000D03*
X39639000Y-52860000D03*
X40139000Y-52860000D03*
X40639000Y-52860000D03*
X41139000Y-52860000D03*
X41639000Y-52860000D03*
X42139000Y-52860000D03*
X42639000Y-52860000D03*
X43139000Y-52860000D03*
X43639000Y-52860000D03*
X44139000Y-52860000D03*
D63*
X27639000Y-50360000D03*
X45139000Y-50360000D03*
%TD*%
D55*
%TO.C,C117*%
X60940000Y-36760000D03*
X62840000Y-36760000D03*
%TD*%
D64*
%TO.C,U201*%
X62452500Y-25110000D03*
X62452500Y-26060000D03*
X62452500Y-27010000D03*
X64727500Y-27010000D03*
X64727500Y-26060000D03*
X64727500Y-25110000D03*
%TD*%
D46*
%TO.C,C102*%
X73290000Y-40940000D03*
X73290000Y-39980000D03*
%TD*%
D14*
%TO.C,REF\u002A\u002A*%
X76990000Y-27960000D03*
%TD*%
D34*
%TO.C,C801*%
X69740000Y-109630000D03*
X69740000Y-110590000D03*
%TD*%
D55*
%TO.C,C112*%
X60940000Y-33360000D03*
X62840000Y-33360000D03*
%TD*%
D15*
%TO.C,R101*%
X66480000Y-30160000D03*
X67500000Y-30160000D03*
%TD*%
D17*
%TO.C,R801*%
X69740000Y-102100000D03*
X69740000Y-103120000D03*
%TD*%
D27*
%TO.C,R803*%
X54250000Y-55860000D03*
X53230000Y-55860000D03*
%TD*%
D65*
%TO.C,SW802*%
X32240000Y-103110000D03*
X32240000Y-109610000D03*
X36740000Y-103110000D03*
X36740000Y-109610000D03*
%TD*%
%TO.C,SW801*%
X76740000Y-109610000D03*
X76740000Y-103110000D03*
X72240000Y-109610000D03*
X72240000Y-103110000D03*
%TD*%
D17*
%TO.C,R802*%
X39240000Y-102100000D03*
X39240000Y-103120000D03*
%TD*%
D55*
%TO.C,C302*%
X76340000Y-68560000D03*
X78240000Y-68560000D03*
%TD*%
D66*
%TO.C,S901*%
X26990000Y-59360000D03*
D67*
X31990000Y-59360000D03*
X26990000Y-73860000D03*
X31990000Y-73860000D03*
X29490000Y-73860000D03*
D68*
X23890000Y-66360000D03*
X35090000Y-66360000D03*
%TD*%
D25*
%TO.C,C111*%
X65890000Y-47350000D03*
X64930000Y-47350000D03*
%TD*%
D26*
%TO.C,C307*%
X76010000Y-70360000D03*
X76970000Y-70360000D03*
%TD*%
D27*
%TO.C,R402*%
X57100000Y-45360000D03*
X56080000Y-45360000D03*
%TD*%
D15*
%TO.C,R106*%
X34492500Y-96710000D03*
X35512500Y-96710000D03*
%TD*%
D12*
%TO.C,R303*%
X61890000Y-66270000D03*
X61890000Y-65250000D03*
%TD*%
D17*
%TO.C,R503*%
X68840000Y-80800000D03*
X68840000Y-81820000D03*
%TD*%
D46*
%TO.C,C104*%
X71390000Y-39340000D03*
X71390000Y-38380000D03*
%TD*%
D69*
%TO.C,C308*%
X61490000Y-73410000D03*
X61490000Y-75310000D03*
%TD*%
D34*
%TO.C,C305*%
X63290000Y-73880000D03*
X63290000Y-74840000D03*
%TD*%
D26*
%TO.C,C107*%
X75830000Y-42260000D03*
X76790000Y-42260000D03*
%TD*%
D34*
%TO.C,C101*%
X72989000Y-51931000D03*
X72989000Y-52891000D03*
%TD*%
%TO.C,C108*%
X71789000Y-51931000D03*
X71789000Y-52891000D03*
%TD*%
D26*
%TO.C,C113*%
X61490000Y-35060000D03*
X62450000Y-35060000D03*
%TD*%
%TO.C,C109*%
X77110000Y-47110000D03*
X78070000Y-47110000D03*
%TD*%
D25*
%TO.C,C118*%
X72770000Y-30160000D03*
X71810000Y-30160000D03*
%TD*%
D35*
%TO.C,C105*%
X64790000Y-42010000D03*
X64790000Y-40110000D03*
%TD*%
M02*
