%TF.GenerationSoftware,KiCad,Pcbnew,9.0.3*%
%TF.CreationDate,2026-04-13T22:58:02-04:00*%
%TF.ProjectId,Touchpoint_Stencil,546f7563-6870-46f6-996e-745f5374656e,rev?*%
%TF.SameCoordinates,Original*%
%TF.FileFunction,Soldermask,Bot*%
%TF.FilePolarity,Negative*%
%FSLAX46Y46*%
G04 Gerber Fmt 4.6, Leading zero omitted, Abs format (unit mm)*
G04 Created by KiCad (PCBNEW 9.0.3) date 2026-04-13 22:58:02*
%MOMM*%
%LPD*%
G01*
G04 APERTURE LIST*
G04 Aperture macros list*
%AMRoundRect*
0 Rectangle with rounded corners*
0 $1 Rounding radius*
0 $2 $3 $4 $5 $6 $7 $8 $9 X,Y pos of 4 corners*
0 Add a 4 corners polygon primitive as box body*
4,1,4,$2,$3,$4,$5,$6,$7,$8,$9,$2,$3,0*
0 Add four circle primitives for the rounded corners*
1,1,$1+$1,$2,$3*
1,1,$1+$1,$4,$5*
1,1,$1+$1,$6,$7*
1,1,$1+$1,$8,$9*
0 Add four rect primitives between the rounded corners*
20,1,$1+$1,$2,$3,$4,$5,0*
20,1,$1+$1,$4,$5,$6,$7,0*
20,1,$1+$1,$6,$7,$8,$9,0*
20,1,$1+$1,$8,$9,$2,$3,0*%
%AMFreePoly0*
4,1,23,0.500000,-0.750000,0.000000,-0.750000,0.000000,-0.745722,-0.065263,-0.745722,-0.191342,-0.711940,-0.304381,-0.646677,-0.396677,-0.554381,-0.461940,-0.441342,-0.495722,-0.315263,-0.495722,-0.250000,-0.500000,-0.250000,-0.500000,0.250000,-0.495722,0.250000,-0.495722,0.315263,-0.461940,0.441342,-0.396677,0.554381,-0.304381,0.646677,-0.191342,0.711940,-0.065263,0.745722,0.000000,0.745722,
0.000000,0.750000,0.500000,0.750000,0.500000,-0.750000,0.500000,-0.750000,$1*%
%AMFreePoly1*
4,1,23,0.000000,0.745722,0.065263,0.745722,0.191342,0.711940,0.304381,0.646677,0.396677,0.554381,0.461940,0.441342,0.495722,0.315263,0.495722,0.250000,0.500000,0.250000,0.500000,-0.250000,0.495722,-0.250000,0.495722,-0.315263,0.461940,-0.441342,0.396677,-0.554381,0.304381,-0.646677,0.191342,-0.711940,0.065263,-0.745722,0.000000,-0.745722,0.000000,-0.750000,-0.500000,-0.750000,
-0.500000,0.750000,0.000000,0.750000,0.000000,0.745722,0.000000,0.745722,$1*%
G04 Aperture macros list end*
%ADD10C,1.600000*%
%ADD11C,2.200000*%
%ADD12RoundRect,0.250000X-0.550000X-0.550000X0.550000X-0.550000X0.550000X0.550000X-0.550000X0.550000X0*%
%ADD13R,1.700000X1.700000*%
%ADD14C,1.700000*%
%ADD15C,2.006600*%
%ADD16O,2.700000X2.300000*%
%ADD17RoundRect,0.076200X-0.527800X0.527800X-0.527800X-0.527800X0.527800X-0.527800X0.527800X0.527800X0*%
%ADD18C,1.208000*%
%ADD19C,0.650000*%
%ADD20O,1.204000X2.304000*%
%ADD21O,1.204000X2.004000*%
%ADD22FreePoly0,270.000000*%
%ADD23FreePoly1,270.000000*%
%ADD24R,0.300000X0.800000*%
%ADD25R,0.400000X0.800000*%
%ADD26C,2.000000*%
%ADD27RoundRect,0.102000X-0.900000X-0.900000X0.900000X-0.900000X0.900000X0.900000X-0.900000X0.900000X0*%
%ADD28C,2.004000*%
%ADD29O,3.204000X6.204000*%
G04 APERTURE END LIST*
%TO.C,JP501*%
G36*
X71490000Y-90760000D02*
G01*
X72990000Y-90760000D01*
X72990000Y-91060000D01*
X71490000Y-91060000D01*
X71490000Y-90760000D01*
G37*
%TO.C,JP502*%
G36*
X66690000Y-90710000D02*
G01*
X68190000Y-90710000D01*
X68190000Y-91010000D01*
X66690000Y-91010000D01*
X66690000Y-90710000D01*
G37*
%TD*%
D10*
%TO.C,J101*%
X128180000Y-114950000D03*
X130680000Y-114950000D03*
X133180000Y-114950000D03*
X135680000Y-114950000D03*
X138180000Y-114950000D03*
X140680000Y-114950000D03*
X143180000Y-114950000D03*
X145680000Y-114950000D03*
X148180000Y-114950000D03*
X150680000Y-114950000D03*
%TD*%
D11*
%TO.C,REF\u002A\u002A*%
X157780000Y-27950000D03*
%TD*%
%TO.C,REF\u002A\u002A*%
X157780000Y-114750000D03*
%TD*%
D12*
%TO.C,C5*%
X140227349Y-97150000D03*
D10*
X143727349Y-97150000D03*
%TD*%
D11*
%TO.C,REF\u002A\u002A*%
X144480620Y-41993398D03*
X144480620Y-82993398D03*
%TD*%
%TO.C,REF\u002A\u002A*%
X112780000Y-114750000D03*
%TD*%
D13*
%TO.C,J1*%
X149880000Y-104750000D03*
D14*
X149880000Y-102210000D03*
X149880000Y-99670000D03*
%TD*%
D13*
%TO.C,J2*%
X154080000Y-99670000D03*
D14*
X154080000Y-102210000D03*
X154080000Y-104750000D03*
%TD*%
D15*
%TO.C,J4*%
X145390000Y-35850000D03*
X145390000Y-33350000D03*
X145390000Y-30850000D03*
D16*
X147390001Y-37849999D03*
X147390001Y-28850001D03*
%TD*%
D10*
%TO.C,J602*%
X47390000Y-114960000D03*
X49890000Y-114960000D03*
X52390000Y-114960000D03*
X54890000Y-114960000D03*
X57390000Y-114960000D03*
X59890000Y-114960000D03*
X62390000Y-114960000D03*
X64890000Y-114960000D03*
X67390000Y-114960000D03*
X69890000Y-114960000D03*
%TD*%
D17*
%TO.C,U301*%
X74040000Y-73210000D03*
D18*
X74040000Y-71430000D03*
X74040000Y-69650000D03*
X74040000Y-67870000D03*
X74040000Y-66090000D03*
X74040000Y-64310000D03*
X74040000Y-62530000D03*
X74040000Y-60750000D03*
X63360000Y-59860000D03*
X63340000Y-61640000D03*
X63340000Y-63420000D03*
X63340000Y-65200000D03*
X63340000Y-66980000D03*
X63340000Y-68760000D03*
X63340000Y-70540000D03*
X63340000Y-72320000D03*
%TD*%
D12*
%TO.C,SW803*%
X47490000Y-54560000D03*
D10*
X51090000Y-54560000D03*
%TD*%
D19*
%TO.C,J201*%
X58260000Y-26640000D03*
X52480000Y-26640000D03*
D20*
X59690000Y-27140000D03*
X51050000Y-27140000D03*
D21*
X59690000Y-22960000D03*
X51050000Y-22960000D03*
%TD*%
D11*
%TO.C,REF\u002A\u002A*%
X76990000Y-114760000D03*
%TD*%
%TO.C,REF\u002A\u002A*%
X31990000Y-114760000D03*
%TD*%
D12*
%TO.C,J101*%
X47490000Y-51360000D03*
D10*
X51090000Y-51360000D03*
%TD*%
D11*
%TO.C,REF\u002A\u002A*%
X76990000Y-27960000D03*
%TD*%
D22*
%TO.C,JP501*%
X72240000Y-90260000D03*
D23*
X72240000Y-91560000D03*
%TD*%
D24*
%TO.C,J702*%
X44139000Y-52860000D03*
X43639000Y-52860000D03*
X43139000Y-52860000D03*
X42639000Y-52860000D03*
X42139000Y-52860000D03*
X41639000Y-52860000D03*
X41139000Y-52860000D03*
X40639000Y-52860000D03*
X40139000Y-52860000D03*
X39639000Y-52860000D03*
X39139000Y-52860000D03*
X38639000Y-52860000D03*
X38139000Y-52860000D03*
X37639000Y-52860000D03*
X37139000Y-52860000D03*
X36639000Y-52860000D03*
X36139000Y-52860000D03*
X35639000Y-52860000D03*
X35139000Y-52860000D03*
X34639000Y-52860000D03*
X34139000Y-52860000D03*
X33639000Y-52860000D03*
X33139000Y-52860000D03*
X32639000Y-52860000D03*
X32139000Y-52860000D03*
X31639000Y-52860000D03*
X31139000Y-52860000D03*
X30639000Y-52860000D03*
X30139000Y-52860000D03*
X29639000Y-52860000D03*
X29139000Y-52860000D03*
X28639000Y-52860000D03*
D25*
X45139000Y-50360000D03*
X27639000Y-50360000D03*
%TD*%
D22*
%TO.C,JP502*%
X67440000Y-90210000D03*
D23*
X67440000Y-91510000D03*
%TD*%
D26*
%TO.C,SW802*%
X32240000Y-103110000D03*
X32240000Y-109610000D03*
X36740000Y-103110000D03*
X36740000Y-109610000D03*
%TD*%
%TO.C,SW801*%
X76740000Y-109610000D03*
X76740000Y-103110000D03*
X72240000Y-109610000D03*
X72240000Y-103110000D03*
%TD*%
D27*
%TO.C,S901*%
X26990000Y-59360000D03*
D28*
X31990000Y-59360000D03*
X26990000Y-73860000D03*
X31990000Y-73860000D03*
X29490000Y-73860000D03*
D29*
X23890000Y-66360000D03*
X35090000Y-66360000D03*
%TD*%
M02*
