%TF.GenerationSoftware,KiCad,Pcbnew,9.0.3*%
%TF.CreationDate,2026-04-13T22:58:01-04:00*%
%TF.ProjectId,Touchpoint_Stencil,546f7563-6870-46f6-996e-745f5374656e,rev?*%
%TF.SameCoordinates,Original*%
%TF.FileFunction,Legend,Bot*%
%TF.FilePolarity,Positive*%
%FSLAX46Y46*%
G04 Gerber Fmt 4.6, Leading zero omitted, Abs format (unit mm)*
G04 Created by KiCad (PCBNEW 9.0.3) date 2026-04-13 22:58:01*
%MOMM*%
%LPD*%
G01*
G04 APERTURE LIST*
%ADD10C,0.150000*%
%ADD11C,0.508000*%
%ADD12C,0.120000*%
%ADD13C,0.127000*%
%ADD14C,0.200000*%
G04 APERTURE END LIST*
D10*
X72709819Y-92696779D02*
X71709819Y-92696779D01*
X71709819Y-92696779D02*
X71709819Y-93077731D01*
X71709819Y-93077731D02*
X71757438Y-93172969D01*
X71757438Y-93172969D02*
X71805057Y-93220588D01*
X71805057Y-93220588D02*
X71900295Y-93268207D01*
X71900295Y-93268207D02*
X72043152Y-93268207D01*
X72043152Y-93268207D02*
X72138390Y-93220588D01*
X72138390Y-93220588D02*
X72186009Y-93172969D01*
X72186009Y-93172969D02*
X72233628Y-93077731D01*
X72233628Y-93077731D02*
X72233628Y-92696779D01*
X72662200Y-93649160D02*
X72709819Y-93792017D01*
X72709819Y-93792017D02*
X72709819Y-94030112D01*
X72709819Y-94030112D02*
X72662200Y-94125350D01*
X72662200Y-94125350D02*
X72614580Y-94172969D01*
X72614580Y-94172969D02*
X72519342Y-94220588D01*
X72519342Y-94220588D02*
X72424104Y-94220588D01*
X72424104Y-94220588D02*
X72328866Y-94172969D01*
X72328866Y-94172969D02*
X72281247Y-94125350D01*
X72281247Y-94125350D02*
X72233628Y-94030112D01*
X72233628Y-94030112D02*
X72186009Y-93839636D01*
X72186009Y-93839636D02*
X72138390Y-93744398D01*
X72138390Y-93744398D02*
X72090771Y-93696779D01*
X72090771Y-93696779D02*
X71995533Y-93649160D01*
X71995533Y-93649160D02*
X71900295Y-93649160D01*
X71900295Y-93649160D02*
X71805057Y-93696779D01*
X71805057Y-93696779D02*
X71757438Y-93744398D01*
X71757438Y-93744398D02*
X71709819Y-93839636D01*
X71709819Y-93839636D02*
X71709819Y-94077731D01*
X71709819Y-94077731D02*
X71757438Y-94220588D01*
X71709819Y-94839636D02*
X71709819Y-94934874D01*
X71709819Y-94934874D02*
X71757438Y-95030112D01*
X71757438Y-95030112D02*
X71805057Y-95077731D01*
X71805057Y-95077731D02*
X71900295Y-95125350D01*
X71900295Y-95125350D02*
X72090771Y-95172969D01*
X72090771Y-95172969D02*
X72328866Y-95172969D01*
X72328866Y-95172969D02*
X72519342Y-95125350D01*
X72519342Y-95125350D02*
X72614580Y-95077731D01*
X72614580Y-95077731D02*
X72662200Y-95030112D01*
X72662200Y-95030112D02*
X72709819Y-94934874D01*
X72709819Y-94934874D02*
X72709819Y-94839636D01*
X72709819Y-94839636D02*
X72662200Y-94744398D01*
X72662200Y-94744398D02*
X72614580Y-94696779D01*
X72614580Y-94696779D02*
X72519342Y-94649160D01*
X72519342Y-94649160D02*
X72328866Y-94601541D01*
X72328866Y-94601541D02*
X72090771Y-94601541D01*
X72090771Y-94601541D02*
X71900295Y-94649160D01*
X71900295Y-94649160D02*
X71805057Y-94696779D01*
X71805057Y-94696779D02*
X71757438Y-94744398D01*
X71757438Y-94744398D02*
X71709819Y-94839636D01*
X67909819Y-92696779D02*
X66909819Y-92696779D01*
X66909819Y-92696779D02*
X66909819Y-93077731D01*
X66909819Y-93077731D02*
X66957438Y-93172969D01*
X66957438Y-93172969D02*
X67005057Y-93220588D01*
X67005057Y-93220588D02*
X67100295Y-93268207D01*
X67100295Y-93268207D02*
X67243152Y-93268207D01*
X67243152Y-93268207D02*
X67338390Y-93220588D01*
X67338390Y-93220588D02*
X67386009Y-93172969D01*
X67386009Y-93172969D02*
X67433628Y-93077731D01*
X67433628Y-93077731D02*
X67433628Y-92696779D01*
X67862200Y-93649160D02*
X67909819Y-93792017D01*
X67909819Y-93792017D02*
X67909819Y-94030112D01*
X67909819Y-94030112D02*
X67862200Y-94125350D01*
X67862200Y-94125350D02*
X67814580Y-94172969D01*
X67814580Y-94172969D02*
X67719342Y-94220588D01*
X67719342Y-94220588D02*
X67624104Y-94220588D01*
X67624104Y-94220588D02*
X67528866Y-94172969D01*
X67528866Y-94172969D02*
X67481247Y-94125350D01*
X67481247Y-94125350D02*
X67433628Y-94030112D01*
X67433628Y-94030112D02*
X67386009Y-93839636D01*
X67386009Y-93839636D02*
X67338390Y-93744398D01*
X67338390Y-93744398D02*
X67290771Y-93696779D01*
X67290771Y-93696779D02*
X67195533Y-93649160D01*
X67195533Y-93649160D02*
X67100295Y-93649160D01*
X67100295Y-93649160D02*
X67005057Y-93696779D01*
X67005057Y-93696779D02*
X66957438Y-93744398D01*
X66957438Y-93744398D02*
X66909819Y-93839636D01*
X66909819Y-93839636D02*
X66909819Y-94077731D01*
X66909819Y-94077731D02*
X66957438Y-94220588D01*
X67909819Y-95172969D02*
X67909819Y-94601541D01*
X67909819Y-94887255D02*
X66909819Y-94887255D01*
X66909819Y-94887255D02*
X67052676Y-94792017D01*
X67052676Y-94792017D02*
X67147914Y-94696779D01*
X67147914Y-94696779D02*
X67195533Y-94601541D01*
X30243856Y-54014676D02*
X30243856Y-54471819D01*
X30243856Y-54471819D02*
X30274333Y-54563247D01*
X30274333Y-54563247D02*
X30335285Y-54624200D01*
X30335285Y-54624200D02*
X30426714Y-54654676D01*
X30426714Y-54654676D02*
X30487666Y-54654676D01*
X30000047Y-54014676D02*
X29573380Y-54014676D01*
X29573380Y-54014676D02*
X29847666Y-54654676D01*
X29207666Y-54014676D02*
X29146713Y-54014676D01*
X29146713Y-54014676D02*
X29085761Y-54045152D01*
X29085761Y-54045152D02*
X29055285Y-54075628D01*
X29055285Y-54075628D02*
X29024809Y-54136580D01*
X29024809Y-54136580D02*
X28994332Y-54258485D01*
X28994332Y-54258485D02*
X28994332Y-54410866D01*
X28994332Y-54410866D02*
X29024809Y-54532771D01*
X29024809Y-54532771D02*
X29055285Y-54593723D01*
X29055285Y-54593723D02*
X29085761Y-54624200D01*
X29085761Y-54624200D02*
X29146713Y-54654676D01*
X29146713Y-54654676D02*
X29207666Y-54654676D01*
X29207666Y-54654676D02*
X29268618Y-54624200D01*
X29268618Y-54624200D02*
X29299094Y-54593723D01*
X29299094Y-54593723D02*
X29329571Y-54532771D01*
X29329571Y-54532771D02*
X29360047Y-54410866D01*
X29360047Y-54410866D02*
X29360047Y-54258485D01*
X29360047Y-54258485D02*
X29329571Y-54136580D01*
X29329571Y-54136580D02*
X29299094Y-54075628D01*
X29299094Y-54075628D02*
X29268618Y-54045152D01*
X29268618Y-54045152D02*
X29207666Y-54014676D01*
X28750523Y-54075628D02*
X28720047Y-54045152D01*
X28720047Y-54045152D02*
X28659094Y-54014676D01*
X28659094Y-54014676D02*
X28506713Y-54014676D01*
X28506713Y-54014676D02*
X28445761Y-54045152D01*
X28445761Y-54045152D02*
X28415285Y-54075628D01*
X28415285Y-54075628D02*
X28384808Y-54136580D01*
X28384808Y-54136580D02*
X28384808Y-54197533D01*
X28384808Y-54197533D02*
X28415285Y-54288961D01*
X28415285Y-54288961D02*
X28780999Y-54654676D01*
X28780999Y-54654676D02*
X28384808Y-54654676D01*
X30647200Y-104074286D02*
X30694819Y-104217143D01*
X30694819Y-104217143D02*
X30694819Y-104455238D01*
X30694819Y-104455238D02*
X30647200Y-104550476D01*
X30647200Y-104550476D02*
X30599580Y-104598095D01*
X30599580Y-104598095D02*
X30504342Y-104645714D01*
X30504342Y-104645714D02*
X30409104Y-104645714D01*
X30409104Y-104645714D02*
X30313866Y-104598095D01*
X30313866Y-104598095D02*
X30266247Y-104550476D01*
X30266247Y-104550476D02*
X30218628Y-104455238D01*
X30218628Y-104455238D02*
X30171009Y-104264762D01*
X30171009Y-104264762D02*
X30123390Y-104169524D01*
X30123390Y-104169524D02*
X30075771Y-104121905D01*
X30075771Y-104121905D02*
X29980533Y-104074286D01*
X29980533Y-104074286D02*
X29885295Y-104074286D01*
X29885295Y-104074286D02*
X29790057Y-104121905D01*
X29790057Y-104121905D02*
X29742438Y-104169524D01*
X29742438Y-104169524D02*
X29694819Y-104264762D01*
X29694819Y-104264762D02*
X29694819Y-104502857D01*
X29694819Y-104502857D02*
X29742438Y-104645714D01*
X29694819Y-104979048D02*
X30694819Y-105217143D01*
X30694819Y-105217143D02*
X29980533Y-105407619D01*
X29980533Y-105407619D02*
X30694819Y-105598095D01*
X30694819Y-105598095D02*
X29694819Y-105836191D01*
X30123390Y-106360000D02*
X30075771Y-106264762D01*
X30075771Y-106264762D02*
X30028152Y-106217143D01*
X30028152Y-106217143D02*
X29932914Y-106169524D01*
X29932914Y-106169524D02*
X29885295Y-106169524D01*
X29885295Y-106169524D02*
X29790057Y-106217143D01*
X29790057Y-106217143D02*
X29742438Y-106264762D01*
X29742438Y-106264762D02*
X29694819Y-106360000D01*
X29694819Y-106360000D02*
X29694819Y-106550476D01*
X29694819Y-106550476D02*
X29742438Y-106645714D01*
X29742438Y-106645714D02*
X29790057Y-106693333D01*
X29790057Y-106693333D02*
X29885295Y-106740952D01*
X29885295Y-106740952D02*
X29932914Y-106740952D01*
X29932914Y-106740952D02*
X30028152Y-106693333D01*
X30028152Y-106693333D02*
X30075771Y-106645714D01*
X30075771Y-106645714D02*
X30123390Y-106550476D01*
X30123390Y-106550476D02*
X30123390Y-106360000D01*
X30123390Y-106360000D02*
X30171009Y-106264762D01*
X30171009Y-106264762D02*
X30218628Y-106217143D01*
X30218628Y-106217143D02*
X30313866Y-106169524D01*
X30313866Y-106169524D02*
X30504342Y-106169524D01*
X30504342Y-106169524D02*
X30599580Y-106217143D01*
X30599580Y-106217143D02*
X30647200Y-106264762D01*
X30647200Y-106264762D02*
X30694819Y-106360000D01*
X30694819Y-106360000D02*
X30694819Y-106550476D01*
X30694819Y-106550476D02*
X30647200Y-106645714D01*
X30647200Y-106645714D02*
X30599580Y-106693333D01*
X30599580Y-106693333D02*
X30504342Y-106740952D01*
X30504342Y-106740952D02*
X30313866Y-106740952D01*
X30313866Y-106740952D02*
X30218628Y-106693333D01*
X30218628Y-106693333D02*
X30171009Y-106645714D01*
X30171009Y-106645714D02*
X30123390Y-106550476D01*
X29694819Y-107360000D02*
X29694819Y-107455238D01*
X29694819Y-107455238D02*
X29742438Y-107550476D01*
X29742438Y-107550476D02*
X29790057Y-107598095D01*
X29790057Y-107598095D02*
X29885295Y-107645714D01*
X29885295Y-107645714D02*
X30075771Y-107693333D01*
X30075771Y-107693333D02*
X30313866Y-107693333D01*
X30313866Y-107693333D02*
X30504342Y-107645714D01*
X30504342Y-107645714D02*
X30599580Y-107598095D01*
X30599580Y-107598095D02*
X30647200Y-107550476D01*
X30647200Y-107550476D02*
X30694819Y-107455238D01*
X30694819Y-107455238D02*
X30694819Y-107360000D01*
X30694819Y-107360000D02*
X30647200Y-107264762D01*
X30647200Y-107264762D02*
X30599580Y-107217143D01*
X30599580Y-107217143D02*
X30504342Y-107169524D01*
X30504342Y-107169524D02*
X30313866Y-107121905D01*
X30313866Y-107121905D02*
X30075771Y-107121905D01*
X30075771Y-107121905D02*
X29885295Y-107169524D01*
X29885295Y-107169524D02*
X29790057Y-107217143D01*
X29790057Y-107217143D02*
X29742438Y-107264762D01*
X29742438Y-107264762D02*
X29694819Y-107360000D01*
X29790057Y-108074286D02*
X29742438Y-108121905D01*
X29742438Y-108121905D02*
X29694819Y-108217143D01*
X29694819Y-108217143D02*
X29694819Y-108455238D01*
X29694819Y-108455238D02*
X29742438Y-108550476D01*
X29742438Y-108550476D02*
X29790057Y-108598095D01*
X29790057Y-108598095D02*
X29885295Y-108645714D01*
X29885295Y-108645714D02*
X29980533Y-108645714D01*
X29980533Y-108645714D02*
X30123390Y-108598095D01*
X30123390Y-108598095D02*
X30694819Y-108026667D01*
X30694819Y-108026667D02*
X30694819Y-108645714D01*
X79147200Y-104074286D02*
X79194819Y-104217143D01*
X79194819Y-104217143D02*
X79194819Y-104455238D01*
X79194819Y-104455238D02*
X79147200Y-104550476D01*
X79147200Y-104550476D02*
X79099580Y-104598095D01*
X79099580Y-104598095D02*
X79004342Y-104645714D01*
X79004342Y-104645714D02*
X78909104Y-104645714D01*
X78909104Y-104645714D02*
X78813866Y-104598095D01*
X78813866Y-104598095D02*
X78766247Y-104550476D01*
X78766247Y-104550476D02*
X78718628Y-104455238D01*
X78718628Y-104455238D02*
X78671009Y-104264762D01*
X78671009Y-104264762D02*
X78623390Y-104169524D01*
X78623390Y-104169524D02*
X78575771Y-104121905D01*
X78575771Y-104121905D02*
X78480533Y-104074286D01*
X78480533Y-104074286D02*
X78385295Y-104074286D01*
X78385295Y-104074286D02*
X78290057Y-104121905D01*
X78290057Y-104121905D02*
X78242438Y-104169524D01*
X78242438Y-104169524D02*
X78194819Y-104264762D01*
X78194819Y-104264762D02*
X78194819Y-104502857D01*
X78194819Y-104502857D02*
X78242438Y-104645714D01*
X78194819Y-104979048D02*
X79194819Y-105217143D01*
X79194819Y-105217143D02*
X78480533Y-105407619D01*
X78480533Y-105407619D02*
X79194819Y-105598095D01*
X79194819Y-105598095D02*
X78194819Y-105836191D01*
X78623390Y-106360000D02*
X78575771Y-106264762D01*
X78575771Y-106264762D02*
X78528152Y-106217143D01*
X78528152Y-106217143D02*
X78432914Y-106169524D01*
X78432914Y-106169524D02*
X78385295Y-106169524D01*
X78385295Y-106169524D02*
X78290057Y-106217143D01*
X78290057Y-106217143D02*
X78242438Y-106264762D01*
X78242438Y-106264762D02*
X78194819Y-106360000D01*
X78194819Y-106360000D02*
X78194819Y-106550476D01*
X78194819Y-106550476D02*
X78242438Y-106645714D01*
X78242438Y-106645714D02*
X78290057Y-106693333D01*
X78290057Y-106693333D02*
X78385295Y-106740952D01*
X78385295Y-106740952D02*
X78432914Y-106740952D01*
X78432914Y-106740952D02*
X78528152Y-106693333D01*
X78528152Y-106693333D02*
X78575771Y-106645714D01*
X78575771Y-106645714D02*
X78623390Y-106550476D01*
X78623390Y-106550476D02*
X78623390Y-106360000D01*
X78623390Y-106360000D02*
X78671009Y-106264762D01*
X78671009Y-106264762D02*
X78718628Y-106217143D01*
X78718628Y-106217143D02*
X78813866Y-106169524D01*
X78813866Y-106169524D02*
X79004342Y-106169524D01*
X79004342Y-106169524D02*
X79099580Y-106217143D01*
X79099580Y-106217143D02*
X79147200Y-106264762D01*
X79147200Y-106264762D02*
X79194819Y-106360000D01*
X79194819Y-106360000D02*
X79194819Y-106550476D01*
X79194819Y-106550476D02*
X79147200Y-106645714D01*
X79147200Y-106645714D02*
X79099580Y-106693333D01*
X79099580Y-106693333D02*
X79004342Y-106740952D01*
X79004342Y-106740952D02*
X78813866Y-106740952D01*
X78813866Y-106740952D02*
X78718628Y-106693333D01*
X78718628Y-106693333D02*
X78671009Y-106645714D01*
X78671009Y-106645714D02*
X78623390Y-106550476D01*
X78194819Y-107360000D02*
X78194819Y-107455238D01*
X78194819Y-107455238D02*
X78242438Y-107550476D01*
X78242438Y-107550476D02*
X78290057Y-107598095D01*
X78290057Y-107598095D02*
X78385295Y-107645714D01*
X78385295Y-107645714D02*
X78575771Y-107693333D01*
X78575771Y-107693333D02*
X78813866Y-107693333D01*
X78813866Y-107693333D02*
X79004342Y-107645714D01*
X79004342Y-107645714D02*
X79099580Y-107598095D01*
X79099580Y-107598095D02*
X79147200Y-107550476D01*
X79147200Y-107550476D02*
X79194819Y-107455238D01*
X79194819Y-107455238D02*
X79194819Y-107360000D01*
X79194819Y-107360000D02*
X79147200Y-107264762D01*
X79147200Y-107264762D02*
X79099580Y-107217143D01*
X79099580Y-107217143D02*
X79004342Y-107169524D01*
X79004342Y-107169524D02*
X78813866Y-107121905D01*
X78813866Y-107121905D02*
X78575771Y-107121905D01*
X78575771Y-107121905D02*
X78385295Y-107169524D01*
X78385295Y-107169524D02*
X78290057Y-107217143D01*
X78290057Y-107217143D02*
X78242438Y-107264762D01*
X78242438Y-107264762D02*
X78194819Y-107360000D01*
X79194819Y-108645714D02*
X79194819Y-108074286D01*
X79194819Y-108360000D02*
X78194819Y-108360000D01*
X78194819Y-108360000D02*
X78337676Y-108264762D01*
X78337676Y-108264762D02*
X78432914Y-108169524D01*
X78432914Y-108169524D02*
X78480533Y-108074286D01*
D11*
%TO.C,J4*%
X145771000Y-39014200D02*
G75*
G02*
X145009000Y-39014200I-381000J0D01*
G01*
X145009000Y-39014200D02*
G75*
G02*
X145771000Y-39014200I381000J0D01*
G01*
D12*
%TO.C,JP501*%
X71240000Y-90210000D02*
X71240000Y-91610000D01*
X71940000Y-92310000D02*
X72540000Y-92310000D01*
X72540000Y-89510000D02*
X71940000Y-89510000D01*
X73240000Y-91610000D02*
X73240000Y-90210000D01*
X71240000Y-90210000D02*
G75*
G02*
X71940000Y-89510000I699999J1D01*
G01*
X71940000Y-92310000D02*
G75*
G02*
X71240000Y-91610000I0J700000D01*
G01*
X72540000Y-89510000D02*
G75*
G02*
X73240000Y-90210000I1J-699999D01*
G01*
X73240000Y-91610000D02*
G75*
G02*
X72540000Y-92310000I-700000J0D01*
G01*
D13*
%TO.C,J702*%
X27389000Y-52710000D02*
X27389000Y-51080000D01*
X28159000Y-49810000D02*
X44619000Y-49810000D01*
X28169000Y-52710000D02*
X27389000Y-52710000D01*
X44609000Y-52710000D02*
X45389000Y-52710000D01*
X45389000Y-52710000D02*
X45389000Y-51080000D01*
D14*
X44239000Y-54160000D02*
G75*
G02*
X44039000Y-54160000I-100000J0D01*
G01*
X44039000Y-54160000D02*
G75*
G02*
X44239000Y-54160000I100000J0D01*
G01*
D12*
%TO.C,JP502*%
X66440000Y-90160000D02*
X66440000Y-91560000D01*
X67140000Y-92260000D02*
X67740000Y-92260000D01*
X67740000Y-89460000D02*
X67140000Y-89460000D01*
X68440000Y-91560000D02*
X68440000Y-90160000D01*
X66440000Y-90160000D02*
G75*
G02*
X67140000Y-89460000I699999J1D01*
G01*
X67140000Y-92260000D02*
G75*
G02*
X66440000Y-91560000I0J700000D01*
G01*
X67740000Y-89460000D02*
G75*
G02*
X68440000Y-90160000I1J-699999D01*
G01*
X68440000Y-91560000D02*
G75*
G02*
X67740000Y-92260000I-700000J0D01*
G01*
%TO.C,SW802*%
X31240000Y-108610000D02*
X31240000Y-104110000D01*
X33740000Y-102860000D02*
X35240000Y-102860000D01*
X35240000Y-109860000D02*
X33740000Y-109860000D01*
X37740000Y-104110000D02*
X37740000Y-108610000D01*
%TO.C,SW801*%
X71240000Y-108610000D02*
X71240000Y-104110000D01*
X73740000Y-102860000D02*
X75240000Y-102860000D01*
X75240000Y-109860000D02*
X73740000Y-109860000D01*
X77740000Y-104110000D02*
X77740000Y-108610000D01*
%TD*%
M02*
