%TF.GenerationSoftware,KiCad,Pcbnew,9.0.3*%
%TF.CreationDate,2026-04-13T22:58:02-04:00*%
%TF.ProjectId,Touchpoint_Stencil,546f7563-6870-46f6-996e-745f5374656e,rev?*%
%TF.SameCoordinates,Original*%
%TF.FileFunction,Profile,NP*%
%FSLAX46Y46*%
G04 Gerber Fmt 4.6, Leading zero omitted, Abs format (unit mm)*
G04 Created by KiCad (PCBNEW 9.0.3) date 2026-04-13 22:58:02*
%MOMM*%
%LPD*%
G01*
G04 APERTURE LIST*
%TA.AperFunction,Profile*%
%ADD10C,0.100000*%
%TD*%
%TA.AperFunction,Profile*%
%ADD11C,0.050000*%
%TD*%
G04 APERTURE END LIST*
D10*
X158573799Y-25056925D02*
G75*
G02*
X160779999Y-27950000I-793798J-2893073D01*
G01*
X160780000Y-114750000D02*
G75*
G02*
X157780000Y-117750000I-3000001J1D01*
G01*
X160780000Y-114750000D02*
X160780000Y-27950000D01*
X120516259Y-70377282D02*
G75*
G02*
X121446900Y-69743398I930607J-366172D01*
G01*
X139861818Y-45120400D02*
X139861818Y-21723621D01*
X112780000Y-117750000D02*
X157780000Y-117750000D01*
X139861818Y-45120400D02*
G75*
G02*
X138867964Y-46120398I-1000016J-1D01*
G01*
X139861818Y-21723621D02*
G75*
G02*
X158573799Y-25056925I-8807820J-103631810D01*
G01*
X121446900Y-69743398D02*
X130054000Y-69743398D01*
X109780000Y-78339600D02*
X109780000Y-114750000D01*
X131054000Y-47120400D02*
X131054000Y-68743400D01*
X112780000Y-117750000D02*
G75*
G02*
X109780000Y-114750000I1J3000001D01*
G01*
X120516259Y-70377282D02*
G75*
G02*
X110738333Y-77340447I-10236259J4027282D01*
G01*
X109780000Y-78339600D02*
G75*
G02*
X110738333Y-77340447I1000040J-17D01*
G01*
X131054000Y-68743400D02*
G75*
G02*
X130054000Y-69743400I-1000001J1D01*
G01*
X131054000Y-47120400D02*
G75*
G02*
X132054000Y-46120400I1000001J-1D01*
G01*
X132054000Y-46120398D02*
X138867964Y-46120398D01*
X50264000Y-48753398D02*
G75*
G02*
X49264000Y-49753398I-999999J-1D01*
G01*
X49264000Y-49753398D02*
X26990000Y-49753398D01*
X31990000Y-117760000D02*
G75*
G02*
X28990000Y-114760000I1J3000001D01*
G01*
X26990000Y-49753398D02*
X26990000Y-55360000D01*
X21990000Y-60360000D02*
X21990000Y-72360000D01*
X24990000Y-75360000D02*
X25990000Y-75360000D01*
X25990000Y-75360000D02*
G75*
G02*
X28990000Y-78360000I-1J-3000001D01*
G01*
X50264000Y-21360000D02*
X50264000Y-48753398D01*
X31990000Y-117760000D02*
X76990000Y-117760000D01*
X26990000Y-55360000D02*
G75*
G02*
X24990000Y-57360000I-1999999J-1D01*
G01*
X28990000Y-78360000D02*
X28990000Y-114760000D01*
X24990000Y-75360000D02*
G75*
G02*
X21990000Y-72360000I1J3000001D01*
G01*
X50264000Y-21360000D02*
G75*
G02*
X77783799Y-25066925I3J-104005405D01*
G01*
X79990000Y-114760000D02*
X79990000Y-27960000D01*
X21990000Y-60360000D02*
G75*
G02*
X24990000Y-57360000I3000001J-1D01*
G01*
X77783799Y-25066925D02*
G75*
G02*
X79989999Y-27960000I-793798J-2893073D01*
G01*
X79990000Y-114760000D02*
G75*
G02*
X76990000Y-117760000I-3000001J1D01*
G01*
D11*
%TO.C,U301*%
X64390000Y-59230000D02*
X64390000Y-75490000D01*
X64890000Y-75990000D02*
X72490000Y-75990000D01*
X72490000Y-58730000D02*
X64890000Y-58730000D01*
X72990000Y-75490000D02*
X72990000Y-59230000D01*
X64390000Y-59230000D02*
G75*
G02*
X64890000Y-58730000I500001J-1D01*
G01*
X64890000Y-75990000D02*
G75*
G02*
X64390000Y-75490000I0J500000D01*
G01*
X72490000Y-58730000D02*
G75*
G02*
X72990000Y-59230000I-1J-500001D01*
G01*
X72990000Y-75490000D02*
G75*
G02*
X72490000Y-75990000I-500000J0D01*
G01*
%TD*%
M02*
